<svg xmlns="http://www.w3.org/2000/svg" width="2054" height="569"><path fill="#fafaf0" d="m435 4-5 1-13 1a591 591 0 0 1-60 4l-21 2a608 608 0 0 0-70 12 194 194 0 0 0-38 16l-4 1-7 2-7 2-10 5a1398 1398 0 0 0-53 31l-10 5a4123 4123 0 0 0-81 56c-2 1-10 13-15 23l-9 16-5 11-2 9-3 11c-1 5-2 11-2 24-1 17-1 17-4 21-8 9-9 16-8 45a145 145 0 0 0 21 85c8 14 13 18 27 21 6 2 7 3 8 9l2 10 15 32 22 21 9 8-52 1-54 1c-3 1-3 2-3 6s0 5 4 6l109 1a12319 12319 0 0 1 285 0 552 552 0 0 0 80-3 3911 3911 0 0 0 216 2l10 1-7 7c-13 14-14 23-5 27a395 395 0 0 0 75 0c4-2 5-3 5-8 0-7 0-8-6-17l-5-9 19-1c18 0 18 0 18 2 0 1-1 5-3 7-4 6-5 13-2 16l47 1 49 2c5 0 6 2 3 3l-4 2c-3 2 0 11 4 13l51 1c54 0 52 1 54-7v-7l-5-9 18 2c20 2 25 4 29 11 3 4 6 5 6 3l6-3 2 5c0 3 1 4 3 5a1820 1820 0 0 0 133-2c5 0 5 0 6-3 1-4 0-12-2-16l-12-13-11-13 15 1h11a642 642 0 0 1 63 2l-6 6c-10 8-22 21-23 28-1 2 0 3 6 5 15 5 22 6 37 8 5 0 13 2 19 4l15 5c13 3 94 5 127 3h14l3-4 2-6 4-7c3-5 3-6 3-10-1-5-4-9-12-12-8-4-18-6-59-8-25-2-30-3-42-10l-9-4 38-1 50 1h611c6-1 7-2 10-6v-6c-1-2-3-2-52-2l-92-2c-3 0-3-1 6-5 20-10 39-36 46-62 2-10 3-11 7-11 6 0 24-7 30-13 4-2 9-10 15-19 2-4 8-19 9-25l2-9c2-9 3-23 4-50 0-28 0-28-3-35-2-6-2-8-3-26-1-24-2-32-7-42l-11-21c0-4-7-16-11-21-6-6-10-8-19-11-7-2-9-2-35-2l-28 1-5-5a484 484 0 0 0-79-57c-22-18-81-46-109-52l-14-4-37-6-22-2-36-2a702 702 0 0 1-56-4l-34-1a279 279 0 0 0-43 2 464 464 0 0 0-51 5 787 787 0 0 0-114 16 411 411 0 0 1-45 11l-8 3a143 143 0 0 0-23 8 300 300 0 0 0-97 57l-15 12c-10 8-18 13-35 20a209 209 0 0 0-23 10v-2c2-4 3-13 3-21s-3-15-10-24-12-11-42-15a287 287 0 0 1-39-7l-12-2-8-1-24-5-15-3-27-4-14-2c-26-3-53-6-65-6-15 0-21-2-37-10a230 230 0 0 0-57-22l-12-3c-23-5-26-6-42-8a955 955 0 0 0-154-9l-72 1Zm1303 429 3 9c4 10 11 22 18 30l13 10 9 7a7124 7124 0 0 1-208-1l7-5c14-10 22-19 31-36l6-11 16-1 35-2 37-2a177 177 0 0 0 26-2c6 0 6 0 7 4Zm-1390 5a573 573 0 0 0 53 3h7l5 10 9 16c4 5 14 13 22 18l5 3H250l-9-1c-5 0-5-1-1-3 6-2 16-9 24-17 8-7 10-10 14-19l5-11h28l37 1Zm1080 18c4 9 8 15 18 24l8 8-33 1-40-1h-7l9-7c12-9 17-13 23-23l7-9 7-1c5 1 5 1 8 8Zm-811 14 20 14c3 2 3 3-5 3h-60l5-4c9-6 15-11 22-19l5-7 3 3 10 10Zm20 50 1 7 7 1c5 0 6 0 8-2 3-5-1-10-10-11h-6Zm-32 4c-9 3-12 6-12 12l2 6c1 2 9 5 14 5 8 0 17-7 17-13 0-5-2-9-5-10-4-2-8-2-16 0Zm881 2c-4 3-5 8-4 10 2 5 16 7 24 3 4-1 4-2 4-4 0-4-1-5-5-8-6-4-15-4-19-1Zm-623 14c-3 3-4 8-1 12 1 2 6 3 11 1 4-2 4-2 4-5l-1-7c-2-4-2-4-6-4-3 0-5 1-7 3Zm-191 10c-5 3-4 7 2 11 4 3 9 4 9 2l-1-1 2-4c3-4 3-5 0-8s-9-3-12 0Z"/><path fill="#fedf50" d="m436 4-6 1-13 1a591 591 0 0 1-60 4l-21 2a608 608 0 0 0-70 12 194 194 0 0 0-38 16l-4 1-7 2-7 2-10 5a1398 1398 0 0 0-53 31l-10 5a4123 4123 0 0 0-81 56c-2 1-10 13-15 23l-9 16-5 11-2 9-3 11c-1 5-2 11-2 24-1 17-1 17-4 21-8 9-9 16-8 45a145 145 0 0 0 21 85c8 14 13 18 27 21 6 2 7 3 8 9l2 10 15 32 22 21 9 8-52 1-54 1c-3 1-3 2-3 6 0 5 0 5 4 6a7999 7999 0 0 0 474-2 3911 3911 0 0 0 216 2l10 1-7 7c-13 14-14 23-5 27a395 395 0 0 0 75 0c4-2 5-3 5-8 0-7 0-8-6-17l-5-9 19-1c18 0 18 0 18 2 0 1-1 5-3 7-4 6-5 13-2 16l47 1 49 2c6 0 7 3 2 4-4 1-5 2-4 5 1 5 2 8 5 9l51 1c54 0 52 1 54-7s3-7-27-7l-27-1v-3c2-5 23-18 28-18 3 0 10 4 17 9 4 3 5 4 22 6 20 2 25 4 29 11 3 4 4 5 6 3l2-2c2 0 3-2 4-8s2-7 6-9c6-3 12-3 19 1 5 2 11 8 11 10l-4 1-30 5v4l1 5c2 1 105 0 130-1 10-1 10-1 11-4 1-4 0-12-2-16l-12-13-11-13 15 1h11a642 642 0 0 1 63 2l-6 6c-10 8-22 21-23 28-1 2 0 3 6 5 15 5 22 6 37 8 5 0 13 2 19 4l15 5c13 3 94 5 127 3h14l3-4 2-6 4-7c3-5 3-6 3-10-1-5-4-9-12-12-8-4-18-6-59-8-25-2-30-3-42-10l-9-4 38-1 50 1h611c6-1 7-2 10-6v-6c-1-2-3-2-52-2l-92-2c-3 0-3-1 6-5 20-10 39-36 46-62 2-10 3-11 7-11 6 0 24-7 30-13 4-2 9-10 15-19 2-4 8-19 9-25l2-9c2-9 3-23 4-50 0-28 0-28-3-35-2-6-2-8-3-26-1-24-2-32-7-42l-11-21c0-4-7-16-11-21-6-6-10-8-19-11-7-2-9-2-35-2l-28 1-5-5a484 484 0 0 0-79-57c-22-18-81-46-109-52l-14-4-37-6-22-2-36-2a702 702 0 0 1-56-4 551 551 0 0 0-138 7l-11 2-14 1-18 2-21 3-4 1a158 158 0 0 0-31 5l-5 1a411 411 0 0 1-45 11l-8 3a143 143 0 0 0-23 8 300 300 0 0 0-97 57l-15 12c-10 8-18 13-35 20a209 209 0 0 0-23 10v-2c2-4 3-13 3-21s-3-15-10-24-12-11-42-15a287 287 0 0 1-39-7l-12-2-8-1-24-5-15-3-27-4-14-2c-26-3-53-6-65-6-15 0-21-2-37-10a230 230 0 0 0-57-22l-12-3c-23-5-26-6-42-8a1277 1277 0 0 0-225-8Zm131 16 48 3 41 5c33 3 64 11 92 22l-2 1-10 4-4 2-3-3-14-3c-18-5-48-9-87-11a1121 1121 0 0 0-125 3c-3 2-3 2-19-5-17-7-35-12-47-14-13-2-13-2-2-4h132Zm949 0c0 2 5 2 9 0l5-1-13 8-22 11-7 4-22-1a553 553 0 0 0-168 21 513 513 0 0 0-93 26c-11 3-19 5-27 9l-11 5-9 4c-4 3-3 1 5-6 10-10 10-10 33-21a360 360 0 0 1 131-42l16-3 29-5 8-1c7-1 14-2 58-4a10309 10309 0 0 0 78-4ZM425 22c1 1 1 1-1 1l-2-1h3Zm1233 4 19 3a352 352 0 0 1 133 55c37 23 39 25 50 34l38 30c6 4 8 4 11 4h31c29-1 30-1 38 6 4 4 6 7 8 13 1 2 1 2-7 2a1149 1149 0 0 0-131 7 2069 2069 0 0 0-138 10l-3-5-3-10-3-5 13-1 24-3a1256 1256 0 0 1 103-9 518 518 0 0 0 59-5l-13-11a463 463 0 0 1-44-33l-12-9c-4-3-8-5-14-6l-12-4-7-3-8-3-5-2-1-1a245 245 0 0 0-37-17l4 3 4 3-16-7a280 280 0 0 0-109-24c3-1 3-1-3-1-4 0-6 0-9-2-4-4-11-7-17-7l-7-2-15-1h-11l12-1a1059 1059 0 0 1 78 2ZM388 25h-5l3-1 2 1Zm11 0h-2v-1l2 1Zm-34 1h-4l2-1c3 0 4 1 2 1Zm1201 0h-4c-1-1 0-1 2-1s3 0 2 1ZM352 27h-6l3-1 3 1Zm1202 1-18 6-12 4c-1-2 30-12 35-12l-5 2ZM338 28h-4l2-1c3 0 4 1 2 1Zm76 0h-2v-1l2 1Zm-86 1h-4c-1-1 0-1 2-1s3 0 2 1Zm-10 1h-2v-1l2 1Zm-6 1h-2c-1-1 0-1 1-1s2 0 1 1Zm-6 1h-2v-1l2 1Zm-5 1h-2v-1l2 1Zm-5 1h-2v-1l2 1Zm-4 1h-2v-1l2 1Zm-7 2a119 119 0 0 0-10 4l3 2c1 3-1 5-10 9a508 508 0 0 0-43 18c-14 5-22 9-27 12-10 7-35 21-43 25-21 11-69 42-67 44l4 1 13 2a553 553 0 0 0 60 6l-5-6-7-8 2 1c8 8 16 13 24 16a595 595 0 0 0 119 18 169 169 0 0 1-6 20c0-2-11-4-33-6a1620 1620 0 0 1-97-11l-20-2-58-8c-7-1-17-1-21 1-5 1-5 2-2 4h-2c-5-3-6-5-3-11 3-10 11-17 34-33a1085 1085 0 0 1 83-52 496 496 0 0 1 112-46Zm1229 7-6 3 7-5-1 2Zm-8 5-3 1 1-1c3-2 4-2 2 0ZM287 53l-3 1 1-1h2Zm-8 2-3 1 1-1h2Zm371 6c12 6 25 18 22 21l-5 2c-4 1-4 1-13-4-22-14-22-14-20-21 0-2 1-2 4-2l12 4Zm-147 4c1 1 1 1 0 0l-2-2 2 2Zm975 4Zm-703-2a1567 1567 0 0 1 268 39c3 3 7 9 8 15 0 3 0 3-3 1s-33-8-57-10a519 519 0 0 1-66-11 2426 2426 0 0 1-94-13 495 495 0 0 1-69-8 84 84 0 0 1-12-9c-2-2-2-2-1-3 2-2 4-2 26-1Zm-536 3-2 1c0 1-1 1 0 0l2-1Zm-11 6-3 1 1-1 4-2-2 2Zm394 2c14 4 24 12 26 20 1 3 0 4-7 4-5 0-14-4-28-12-7-4-7-4-7-8s2-7 5-7l11 3Zm-399 0-4 2-4 2 4-3 4-1Zm-9 5-2 1h-1l3-1Zm140 5 35 20c5 3 6 6 3 11-2 5-6 6-12 3a445 445 0 0 0-46-23c-2-2-2-2-1-7 1-2 3-6 5-7 2-3 5-3 16 3Zm173-4 1 2-2-2-2-2 3 2Zm-319 3-6 3 7-5-1 2Zm573 1c7 5 11 8 12 12 3 4 3 5-2 2s-17-14-16-16 2-1 6 2Zm-582 4-9 6c1-2 10-8 11-8l-2 2Zm344 8 6 6-7-6-6-7 7 7Zm1129-1 1 11 1 6h-7l-16 3c-10 1-10 1-12-1-4-4-2-12 3-15l14-3 13-4c3-1 3-1 3 3Zm-824 3c3 4 3 4 0 1l-4-4c-1-3-1-2 4 3Zm21 9 17 15a350 350 0 0 0 56 38c0 1-5 0-7-2h-9c-8-1-9-1-17-5-12-6-17-10-23-17l-7-8c-2-1-2 0 1 4 3 6 3 6-2-1a228 228 0 0 0-19-23l6 4-12-14c-8-7 0-3 16 9Zm-26-6-1-1-1-3 2 4Zm-660-3c0 1-1 2-3 2-2 2-2 2 0 0l3-2Zm1029 4a548 548 0 0 1 56 24 483 483 0 0 1 32 16c-11-5-18-7-29-10l-20-4-14-5a469 469 0 0 0-24-11c-7-5-10-5-14-1l-7 5a337 337 0 0 0-60 59c-6 9-15 18-25 24l-22 13c-2-1 2-7 11-16 11-12 16-19 23-33l11-21 5-13c0-2 1-3 5-4l17-7c15-7 43-18 46-18l9 2Zm-1035 1-3 2c-2 1-2 1 0-1l3-1Zm1264-1-3 3-2 3 2-3 3-3Zm-887 4 3 4-4-3-3-4 4 3Zm148 0-2 2c-1 1-1 1 0 0l2-2Zm-9 9-5 4 4-4 5-5-4 5Zm159 5c1 1 1 1 0 0l-2-2v-1l2 3Zm-167 1-4 4-3 4 3-4 4-4Zm447 8v2l-4 6c-6 10-13 16-17 17a293 293 0 0 0-59 25 1184 1184 0 0 1-80 37 266 266 0 0 0-28 15c-3 1-3 2-4 8l-2-3c-1-7 0-14 3-18 4-5 11-10 25-16a3258 3258 0 0 1 138-63c10-5 24-11 27-11l1 1Zm-456 0-3 4-3 3 2-4 4-3Zm-525 6c-1 1-1 0-1-2s0-3 1-2v4Zm1375 6c3 3 6 11 5 12l-15 1a546 546 0 0 0-70 10c-1 0 1-7 3-10l4-4c4-2 19-8 24-8l12-2c11-2 15-3 25-3 8 0 8 0 12 4Zm311 1-3 4c-2 1-2 1 1-2l2-2Zm-517 9-2-1c-1-1-1-1 0 0l2 1Zm4 2-2-1c-1-1-1-1 0 0l2 1Zm-800 1c15 2 28 8 33 16 3 6 3 9 0 7l-14-3-13-2-17-3-17-2-11-1c-4 1-1-9 4-12 3-2 5-2 15-2l20 2Zm804 1-2-1c-1-1-1-1 0 0l2 1Zm357 13c3 2 8 18 6 19a1020 1020 0 0 0-61 4 1927 1927 0 0 0-186 23c-1 0-2-2-4-9l-2-8 27-3c30-2 37-3 49-5 10-2 14-3 22-7 4-2 7-3 11-3l13-1a1251 1251 0 0 1 113-10h12ZM358 185a11396 11396 0 0 1 102 8c14 0 14 0 19 4l10 5 24 3c4-1 5 0 3 3-1 2-4 2-11 4h-31a538 538 0 0 1-49-4l-44-3c-38-3-68-5-70-4v-6c2-8 5-13 6-13l41 3Zm1589 3-2 2 4-5-2 3Zm-1836 2h-2v-1l2 1Zm526 4a1006 1006 0 0 1 195 40c7 3 10 6 10 10 0 5-7 10-10 7l-8-3-14-2-22-6a692 692 0 0 0-100-22 966 966 0 0 0-112-5l1-8c1-6 2-8 3-6 1 1 1 1 7-1l16-2c13 0 14 0 14-4 0-2 0-2 1-1 1 2 4 2 19 3Zm1359-1c2 6 3 15 1 15-3 0-19-3-23-5l-6-1c-2-1-8-3-7-4h2l1-1c-1-2 17-7 25-7 5 0 5 0 7 3ZM47 195c-1 1-2 3-1 6 0 4-1 6-4 6-2 0-2-1-1-3l2-4c0-4 3-8 5-8l-1 3Zm1896 3c-1 5-1 5-1 1l2-7-1 6Zm-524-2c4 0 4 0 4 5 2 11 2 12-4 13a1875 1875 0 0 1-158 6 467 467 0 0 1-69 8h-14c-2-2-2-2 0-5 3-6 21-10 69-16l15-2a1695 1695 0 0 1 116-11c1-1 35 1 41 2ZM96 197l-3 2 5-5-2 3Zm-6 6-2 2c0-1 3-6 4-5l-2 3Zm991 2c2 7-3 13-15 19-8 5-8 5-1 0 8-5 13-13 13-18 0-3 2-4 3-1Zm-535 3h-2v-1l2 1Zm-442 0-2 2c-1 1-1 1 0 0l2-2Zm1841 3v1l-1-2c0-1 1-1 1 1ZM87 212h-1l1-2v2Zm953 7-1 1 1-2v1Zm-923 2-2 3 1-2 1-1Zm172 11-1-2 1-3v5Zm881-5c0 1-2 3-5 3h-2c1-3 7-5 7-3Zm5 3-2 1c0-2 1-4 2-3v2Zm-128 0-2-1c-1-1-1-1 0 0l2 1Zm297 0 13 5c5 2 20 15 24 20 3 4 3 4 1 4l-8-1c-4-2-10-2-24-2-22 0-40 2-56 6-14 3-24 4-29 2-6-1-7-2-7-6 0-3 0-4 5-5l16-4c16-4 28-8 36-13 17-9 16-9 29-6Zm252 6c2 2 2 3 1 7-3 6-9 9-12 5l-3-6c0-4 0-5 2-6 3-3 10-2 12 0Zm-384 12c-5 8-16 18-23 23-8 6-15 9-16 9l3-2 3-3 2-1 2-2 3-3-2-1c-3 0-6-2-4-3l2-1 2-1 4-1c3 1 8-1 8-3s-2-2-15 0c-6 0-10 2-11 3h1c1-1 1-1 0 0-1 2-4 3-6 1h-2l-2 1c-8 0-8 0-7 1s1 1-1 1h-3l-3 1-9 1-19 2c-29 4-30 4-34 13l-5 7v3l1 2 2 1 2 3c2 2 3 2 0 2-2 0-11-5-12-8-2-3 0-8 5-15 6-8 14-14 24-17l48-12c22-4 35-6 55-6h11Zm199-1 3 3-4-3-3-4 4 4Zm-18-2-3 3-2 3 2-3 3-3ZM54 254c-4 3-4 4-4 9-1 7-4 12-9 15-4 2-5 6-7 18l-4 14-4 13-2 9v-18c-1-23 0-42 2-48 2-4 2-4 13-7l15-6c5-4 5-3 0 1Zm373-1c7 4 7 12 0 12l-6-2c-2-2-4-8-3-10 1-3 5-2 9 0Zm170-1-2 1v-1h2Zm-5 2-3 3c-2 0-2 1-1 4 1 5 0 5-1 1-2-4-2-7 0-6l1-1 2-1 3-1-1 1Zm1401 0h-2c-1-1 0-1 1-1s2 0 1 1Zm7 1h-4c-1-1 0-1 2-1s3 0 2 1Zm-1104 3 8 5c3 3 7 11 7 14 0 6-10 16-21 23-4 2-6 3-14 3-11 0-11 0-15-3l-8-8c-3-5-3-6-3-11 1-11 8-20 18-24 8-3 21-2 28 1Zm-609 30c0 4-1 1-1-8l1-8v16Zm448-19c4 2 8 6 15 13 10 9 18 22 17 23l-6 1c-9 0-12-2-29-20-12-12-15-15-21-17l-7-4 12 1c11 0 13 0 19 3Zm-144-1c1 1 1 1 0 0l-2-2 2 2Zm1418 4c-1 1-1 0-1-2s0-3 1-2v4Zm-590 0-2-1c-1-1-1-1 0 0l2 1Zm9 5-2-1-2-2 2 1 2 2Zm7 4-2-1-2-2 2 1 2 2Zm-266 1h-2v-1l2 1Zm-6 1h-2c-1-1 0-1 1-1s2 0 1 1Zm-8 2-4 1 1-1 3-1v1Zm-7 2-3 1 1-1h2Zm-25 9h-2v-1l2 1Zm-4 1h-2v-1l2 1Zm-7 1-3 1h-2l5-1Zm-173 3c5 3 9 9 9 14 0 4-4 11-8 15-7 6-18 6-30 0-8-3-12-8-12-12 0-6 11-16 22-18 4-1 16 0 19 1Zm223 2 5 4h15c31-2 61-2 63-2 4 1 4 5 1 8-4 3-12 4-50 5a672 672 0 0 0-47 2c-5 3-11 5-23 8-15 3-34 12-55 24l-44 28c-9 7-13 9-17 9l-5 2h-4c-3-3-11-3-23-2h-13c0-2 12-5 39-13 12-3 25-10 39-20l20-13 17-10c13-8 29-16 42-20l30-13c2-2 5-1 10 3Zm-62-3-4 1h-2l6-1Zm440 8-2 3 4-6-2 3Zm-1251 4c-1 1-1 0-1-1s0-2 1-1v2Zm1248 4-1 3 1-4v1Zm-480 4c0 2-3 6-10 10l-15 7-11 2h-2l-4 3-3 4c-2 1-2 1 0-1l3-9c2-7 4-8 28-17 7-2 13-2 14 1Zm-766 1h-1l1-2v2Zm1598 2c12 3 18 7 35 22 5 4 10 14 13 25 2 6 3 12 1 7l-1-2v2c0 2 0 2-1 1h-2c-2 0-2 1-1 1v1l-2 2c-1 2-1 2-1-1l-3-10c-1-3-2-6-1-7h-1c-1 1-1 1-2-2-2-4-2-5 0-3l-1-2h-1v1l-7-8c-7-6-7-7-3-4 3 2 5 4 6 3v1l1 3c2 2 2 2 2 0l-3-4-1-3-8-6-7-4-7-4h-12l-13-1c-9 0-10 0-18 4-26 11-36 25-39 56v21c3 13 6 18 19 32 8 8 12 13 11 14h-3l-4-1-3-1c0 2 12 10 14 10h1l1 1 5 1c5 2 28 0 34-3h3l2-2 1-1c1 1 11-8 11-10l1-1 1-1 4-5c8-6 16-21 20-33 1-5 1-5 1-2l-1 6-1 3 2-2c1-3 2-4 2-1-1 3 3 5 5 4l1-3 1-3v2c-3 16-15 36-27 46-11 9-34 18-45 18-9 0-24-5-34-13-10-7-23-23-29-39-3-6-3-9-4-22-1-14-1-14 2-28 9-33 24-50 49-57 8-3 25-2 37 2Zm-919 1-1 2-1 2c-2 1-2 2-1 3 2 2 3 1 8-3a2890 2890 0 0 0-8 15c-2 2-6 3-8 0-3-2-2-5 2-10l4-5 3-3 4-4-2 3Zm366-1c22 3 34 8 47 21 8 8 14 18 18 30 3 8 3 12 4 21l-1 12v-5c0-4 0-5-2-7l-3-3 1 3-1 3-2 5-1 4-1-8c-1-13-4-22-8-30-8-14-18-24-34-30l-8-4-5-1-5 1 2 4 4 13c2 11 2 17-1 16l-8-2-7-1 2-5c3-6 5-16 3-21-1-4-1-4-4-4-5 0-17 4-25 9-12 7-20 18-24 34-2 5-2 10-2 24 0 16 0 18 2 24 7 19 31 38 50 41 7 1 17 0 22-2h10l1 1 1 1h2v1h-2l3 1h7l1-1 2-1 2-2 3-5 7-8 7-9 3-5c4-7 3-2-1 7-6 11-21 25-34 30-8 4-19 6-28 6-6 0-7 0-11-4-8-5-15-8-23-9-7 0-8 0-12-5-8-8-17-24-21-36l-1-24c0-17 0-21 2-28 5-19 14-34 26-42 8-5 22-10 31-12l12 2Zm210 4h1c-4 0-9-3-10-5 0-1 1-1 2 1l7 4Zm-1378-1c11 4 20 9 30 20 3 4 3 6 1 5-1-2-3-3-3-2l-1-1v-1l-1 1 2 4h-1l-1-1h-3l2 2 3 4-5-4-12-11c-5-3-26-9-27-8h-5a72 72 0 0 0-46 30l-4 3c-4 2-9 6-12 11l-1 7c-1 6-1 6 2 7h3l1 9c1 7 1 12 3 16l1 6 1 1c1-1 2 2 1 3l1 1c1-1 2 2 1 3l1 1 4 4c5 7 8 11 16 17 7 5 11 7 22 9 7 1 8 2 8 4s-2 4-7 4l-3 1-3 1-4 1c-1 1-9-1-16-5-6-3-20-17-24-24-9-15-13-30-13-48 0-22 7-37 29-55 9-8 15-12 25-16 6-2 8-2 18-2 8 1 13 1 17 3Zm529-1c8 3 14 6 22 12 15 11 23 22 26 35 2 6 3 20 2 17-1-2-1-2-1 1l1 3c2 0 1 10-1 19a89 89 0 0 1-40 55l1-1 1-1c-1-1 2-4 6-7s2-3-5 0l-15 6 1-1 6-4 6-6 4-4c1-1 1-2-2-1-1 0-2 0-1-1l8-6c9-8 13-13 17-21 3-7 6-20 6-28 0-7-4-19-10-28-7-12-18-20-34-26l-5-2h-10c-9 0-10 1-20 5-9 5-11 6-20 15a106 106 0 0 1-11 11c2-1 2-1 0 1l-3 1-1 1c1 1-1 5-2 5l-1 2h-1c-1-1-2 0-4 4-2 5-2 7 0 4v1c-2 4-1 21 1 31l3 9-2-2c0-2 0-3-1-2-1 0-5-9-7-17l-2-8-1-3c0-1 0-2-1-1l1-10 2-4c1-7 19-31 30-39 7-6 20-12 28-14 6-2 22-2 29-1Zm1179 20 4 14v6h-10c-8 0-10 0-14 3-5 2-5 3-4 1h-1l-1 2-3 6-3 5v-4l-1-9v-7c2-1 10-2 12-1l4 1c3 1 5-1 9-16 3-14 4-14 8-1Zm27-4-3-1-3-3 3 2c2 0 3 1 3 2Zm-914 10-8 6-3 1a569 569 0 0 0 11-7Zm-176 10a383 383 0 0 1 38 26l16 11c13 9 41 24 73 40a1175 1175 0 0 1 60 31c18 7 23 10 23 14h-2c-1-2-2-2-3-1h-4l-6-2c-12-2-24-7-45-17a1223 1223 0 0 0-58-26c-7-3-11-6-16-10l-13-7-14-9a447 447 0 0 0-49-33l-11-7-3 5c-1 4-3 6-5 6-1 0-3 2-5 8-3 7-6 9-4 4a398 398 0 0 1 9-30c1-8 3-11 5-11l14 8Zm-614-5c1 1 1 1 0 0l-2-2 2 2Zm6 1c1 1 1 1 0 0l-2-2 2 2Zm-64 0 3 3c3 3 5 3 5 0 1-1 1-2 2-1v1l1 1 1 1 2 3 1 1h-4c-4-1-10-1-15 2l-5 1-1 1c1 1-1 4-3 4l-1 1-1 3c-2 2-2 2-2-4-1-7 0-10 3-13s9-5 11-4h3Zm567 3c5 3 6 4 6 6l-2 9-2 7c0 3 0 3-2 0-2-4-13-12-19-15l-4-3 15-8 8 4Zm-41 0 10 4 5 1-5 1c-6 1-13 6-18 11l-4 4-1-5-2-9c-3-5-2-9 0-9 3-1 9 0 15 2Zm653 3c1 1 0 3-3 5l-2 2c2-3 2-6 0-6s-2 0 0-1h5Zm-1160 2 2 1-4-1-1-2 3 2Zm1150 0c0 3-2 3-4 2 0-1 2-4 4-4v2Zm-358 5c-1 6-4 15-5 14l5-20v6Zm-856 3-3 5 3-8c2-4 2-2 0 3Zm66-3c1 1 1 1 0 0l-3-2h1l2 2Zm1148 0-1 1c-1-1-1-1-1 1 1 1 1 1 0 0l-2-2c0-2 3-2 4 0Zm1 6-1 2v-3l2-1-1 2Zm569 1c3 2 8 7 9 10l1 10c0 6 0 6-4 11l-9 6c-5 3-5 3-11 0-10-5-13-10-13-20 0-7 3-12 8-16l10-2 9 1Zm-1723 2c13 6 17 19 9 30-5 5-8 7-16 8-6 0-7 0-10-2-3-4-7-10-7-15-2-7 0-13 6-18 4-4 6-5 9-5l9 2Zm535 2c11 7 13 21 4 30-4 5-7 6-14 6s-12-2-16-6c-3-5-4-9-4-18 1-6 1-6 5-10l8-5c5-1 13 0 17 3Zm647-1c5 2 11 8 13 11l1 8c0 5 0 6-5 10-7 8-15 11-21 8-4-3-10-9-11-14-2-6 0-14 3-19l5-4h15Zm595 6c-1 1-1 0-1-1s0-2 1-1v2Zm-17 3c1 0 3 2 3 4 3 6-2 10-12 10-7 1-9-2-9-11v-6h8l10 3Zm-1727 0 7 3c2 1 2 2 2 6-1 8-3 9-10 9-9 0-11-1-11-12l-1-8 4 1 9 1Zm1741 3c-1 1-1 0-1-2s0-3 1-2v4Zm-1812-2 3 10 4 12c2 4 2 5-5 5l-7 2c-4 1-4 1-6-6-5-11-5-16-3-19 1-2 8-6 11-6l3 2Zm1264 1 1 6c0 3 0 4-2 4h-1c1 1-4 3-8 3-2 0-2 0 1-1 3 0 3 0-1-2h-4l-2 1-2 2-1 1-1-8v-6l6-2c7-1 12 0 14 2Zm462 6v7h-12c-13 0-13 0-13-8 0-5 0-5 2-4l20-3c1-2 2 0 3 8Zm-551-7 11 1h1c1-1 1 1 1 5 0 7 0 7-2 8l-2 1-3 1c-12-2-18-5-18-11 0-3 1-6 2-5h10Zm-687 9h-1c-1-2 0-5 1-3v3Zm45-2c2 4 3 14 3 15l-9 4-10 5c-2 2-2 2-3 0-2-2-5-11-5-17 0-4 0-4 3-4 3 1 13-1 17-3 3-2 4-2 4 0Zm67 3c5 3 8 12 6 17-1 3-1 3-7 3-8 0-11-2-11-8 0-7 3-14 7-14l5 2Zm-511 5c-1 1-1 0-1-1 0-2 0-3 1-2v3Zm398-1 1 2v1c-2 1-2 0-2-3s1-4 1 0Zm383 8 3 15c0 7 0 7-3 7h-20l-12-7a176 176 0 0 0-17-10l41-14c6-1 6-1 8 9Zm-381 1 1 3v1h-1l-2-6c0-2 0-2 1 0l1 2Zm245-1h-1c-4-1-5-1-6 2-1 2-2 2-2 1 0-4 5-6 9-3Zm541 2h-1c0-1 1-2 2-1l-1 1Zm-551 9c-1 3-1 3-1 0s1-7 2-5l-1 5Zm-233 0h-1v-3l1 3Zm506 1-8 5c-6 3-5 3 4-4 8-4 9-5 4-1Zm-503 4 1 2 1 1v1l1 3c0 3-1 3-3-2-3-8-3-8-1-8l1 3Zm238 4-7-4 3 1 4 3Zm-639 2c-2 7-5 12-10 19-6 8-11 11-12 11h-1l-3 4c-3 2-3 2-1 0s4-8 2-6l-1-1h-3l-6-1h-2l-3 1-5 1h-1c0-2-2-3-2-1h-1l4-3 9-3c2-1 4-2 5-1v-2l7-6 7-5 1-1c0-2 0-3 1-2l3-1c1-1 1-1 1 1-1 1 0 2 1 3 2 1 3 0 1-2-1-1-1-1 0 0 3 2 6 0 8-5 3-6 4-6 1 0Zm1526-1 3 9c4 10 11 22 18 30l13 10 9 7a7124 7124 0 0 1-208-1l7-5c14-10 22-19 31-36l6-11 16-1 35-2 37-2a177 177 0 0 0 26-2c6 0 6 0 7 4Zm-880 2c2 3 1 4-2 0-2-2-2-3 0-3 0 0 2 1 2 3Zm-510 3a573 573 0 0 0 53 3h7l4 10 9 14c4 6 16 16 24 20l4 3-100 1-114-2 5-3c7-2 16-8 24-17 8-7 10-10 14-19l5-11h28l37 1Zm742 1-2 1v-1h2Zm338 17c4 9 8 15 18 24l8 8-33 1-40-1h-8l10-7c13-9 16-13 23-23l7-9 7-1c5 1 5 1 8 8Zm-92 0-1 1h-1c-1 1-2 1-3-1v-1h2l1-1h2c3-1 3 0 0 2Zm-719 14 20 14c6 3 3 4-31 4l-34-1 5-4c9-6 16-11 22-19l5-7 3 3 10 10Zm585 10 6 6-11 2c-9 1-13 1-20 4l-10 3c-1-2-12-7-16-8s-7-1-15 1c-10 1-20 2-21 1-1-3 7-8 19-12l25-11 17-9 10 9 16 14Zm-1020-9-2 1h-1l3-1Zm673 14 9 7c5 4 13 14 13 15l-4-3c-10-9-32-9-46-1l-3 2 2-3c3-4 15-15 19-17 5-2 5-2 10 0Zm453 3c15 19 37 35 53 39a486 486 0 0 0 55 7l-14 3c-8 1-19 1-32-1l-16-3a196 196 0 0 0-16-5c-6-1-22-9-37-18-2-1-2-1-7 3l-7 4-9 5-9 5-6 2a336 336 0 0 0 40-44l5 3Zm-565 19c12 10 16 15 16 16 0 2-51 0-52-1l24-25 12 10Zm412 3c18 17 26 24 25 25s-70-1-70-2c0-4 4-9 11-14l11-8c3-4 11-9 13-9l10 8Zm-226 16c5 1 6 2 7 6v3h-14c-14-1-17-1-17-5 0-1 2-3 4-3 4-2 15-2 20-1Zm578-498c-1 1 0 1 0 0 2 0 3-1 1-1l-1 1Zm230 31 2 1h1l-3-1ZM872 270c-5 3-7 6-5 12 2 5 2 5 8 5s9 0 15-2l12-3c3 0 6-1 5-2l-19-11c-5-1-11-1-16 1Zm1040 70 2 2c1 1 1 1 1-1s0-2-1-1h-2Zm15 29h1v-2l-1 2Zm4 2 1 1c-1 1 0 2 1 2v3c3-1 0-7-2-7v1Zm-971-32c-1 1 0 2 2 3 3 1 4 1 4-1l-1-2-1 1-1 1v-1c0-2-1-2-3-1Zm310 48v1l1-1v-2l-1 2Zm-530-10 2 2-1 1v15c0 2 3 2 4 1 1-2 0-4-1-3l-1-2 1-2v-9c-1-4-4-6-4-3Zm-131 8v2l1-2c1-2 0-3-1 0Zm28 135 1 7 7 1c5 0 6 0 8-2 3-5-1-10-10-11h-6Zm-32 4c-9 3-12 6-12 12l2 6c1 2 9 5 14 5 8 0 17-7 17-13 0-5-2-9-5-10-4-2-8-2-16 0Zm881 2c-4 3-5 8-4 10 2 5 16 7 24 3 4-1 4-2 4-4 0-4-1-5-5-8-6-4-15-4-19-1Zm-623 14c-3 3-4 8-1 12 1 2 6 3 11 1 4-2 4-2 4-5l-1-7c-2-4-2-4-6-4-3 0-5 1-7 3Zm-191 10c-5 4-4 7 2 11l5 3c1 0 7-9 7-11 0-5-9-7-14-3Z"/><path fill="#b1aab2" d="m436 4-6 1-13 1a591 591 0 0 1-60 4l-21 2a608 608 0 0 0-70 12 194 194 0 0 0-38 16l-4 1-7 2-7 2-10 5a1398 1398 0 0 0-53 31l-10 5a4123 4123 0 0 0-81 56c-2 1-10 13-15 23l-9 16-5 11-2 9-3 11c-1 5-2 11-2 24-1 17-1 17-4 21-8 9-9 16-8 45a145 145 0 0 0 21 85c8 14 13 18 27 21 6 2 7 3 8 9l2 10 15 32 22 21 9 8-52 1-54 1c-3 1-3 2-3 6 0 5 0 5 4 6s85 2 304 1a1850 1850 0 0 0 170-3 5428 5428 0 0 0 225 2c0 1-3 5-7 8-12 12-13 23-4 27a395 395 0 0 0 75 0c4-2 5-3 5-8 0-7 0-8-6-17l-5-9 19-1c18 0 18 0 18 2 0 1-1 5-3 7-4 6-5 13-2 16l47 1 49 2c6 1 8 3 3 4-4 1-5 2-5 5 0 5 2 8 5 9l51 1c54 0 52 1 54-7s3-7-23-7c-33 0-36 0-29-7 4-4 20-14 24-15 4 0 8 1 16 7 7 5 7 5 25 8 20 2 25 4 29 11 3 4 4 5 6 3l2-2c2-1 3-2 4-7 1-8 3-10 11-12 5-2 11 0 17 5 5 3 9 8 8 9l-24 3-11 2 1 5c0 2 1 3 3 4a1890 1890 0 0 0 133-2c5 0 5 0 6-3 1-4 0-12-2-16l-12-13-11-12c0-2 0-2 15 0h11a563 563 0 0 1 64 2l-6 5c-12 9-23 22-24 29-1 2 0 3 6 5 15 5 22 6 37 8 5 0 13 2 19 4l15 5a888 888 0 0 0 141 2l5-9 4-7c3-5 3-6 3-10-1-5-4-9-12-12-8-4-18-6-59-8-25-2-30-3-42-10l-9-4 38-1 50 1h611c6-1 8-2 10-6v-6c-1-2-3-2-52-2l-92-2c-3 0-3-1 6-5 20-10 39-36 46-62 2-10 3-11 7-11 6 0 24-7 30-13 4-2 9-10 15-19 2-4 8-19 9-25l2-9c2-9 3-23 4-50 0-28 0-28-3-35-2-6-2-8-3-26-1-24-2-32-7-42l-11-21c0-4-7-16-11-21-6-6-10-8-19-11-7-2-9-2-35-2l-28 1-5-5a484 484 0 0 0-79-57c-22-18-81-46-109-52l-14-4-37-6-22-2-36-2a702 702 0 0 1-56-4 551 551 0 0 0-147 8l-10 1-15 2a603 603 0 0 0-146 33 300 300 0 0 0-97 57l-15 12c-10 8-18 13-35 20a209 209 0 0 0-23 10v-2c2-4 3-13 3-21s-3-15-10-24-12-11-42-15a287 287 0 0 1-39-7l-12-2-8-1-24-5-15-3-27-4-14-2c-26-3-53-6-65-6-15 0-21-2-37-10a230 230 0 0 0-57-22l-12-3c-23-5-26-6-42-8a1277 1277 0 0 0-225-8Zm160 17a456 456 0 0 1 40 4 542 542 0 0 1 112 25l-2 2c-5 1-12 4-17 8l-5 3-1 1c1 1-12 12-13 11l-1 1c1 0-1 3-5 5l-10 8c-5 5-7 5-3 1 3-3 3-3 2-4v-1l1-1h-2c-2 3-10 4-8 2l-1-1c-2 1-5 0-4-1h-1c-2 0-4-6-3-7v-2l-1-1v-1l-1-3c-1-1-2-2-1-3l-1-2-2-1v-1h1l1-2v-3c-1-2-1-2 1-2l2-1 1-2 2-3 3-1h16l2 1c2 0 2 0 1-1l-3-2h-5c-41-6-58-7-110-7h-50c-11 0-25 2-28 4-3 1-4 1-17-5a178 178 0 0 0-64-17l10-2c12-1 143 0 164 1Zm935-1a436 436 0 0 1-35 18l-7 4h-34a326 326 0 0 0-74 5 369 369 0 0 0-48 8l18-1c11-1 17-2 19-1h3c-1-2 9-2 10 0h3c2-2 7-2 34-2l10 1 1 1h6c6 0 6 0 2 1l-4 1h3l5-1 3-1c3 0 3 0 0-1-2-1 1-1 9-1 9 0 13 1 14 2h4a398 398 0 0 0-32 32c-15 15-19 19-20 18-1-2 0-3 2-2 1 1 1 1 0 0-1-2 0-3 2-2l1 1c-1-1 0-2 1-4 2-1 2-2 1-2h-1l2-1c1 1 3 0 1-1h1l4-5v-2h1c0 1 3-1 7-6 4-3 7-7 6-7v-1l-3 1c-1 2-3 3-3 2l-2 1-1 2-6 8-9 7c-2 0-2 0-1 1s1 1-1 1c-1 1-1 1 1 1l3 1-2 1-7 5-7 6-1 2h-1c-2-1-2-1-1 1v3l-1-1-1-2h-2c3 2 3 3 0 2h-2l2 2h-2c-2-1-4-2-7-1-4 0-5 0-4-1v-1l-2 2-4 1c-4 0-5-1-4-2v-1c-2 1-6 1-7-1h-2v4l-1 2-1-1-1-4h-3v2l2 1 1 1-2 1c-2-1-5 1-4 2l3-1h5c2 1 1 2-4 2l-5-1-2-1c-3 1-3 1-3-2 1-4 0-4-2 1-2 3-2 4 2 3 2 0 2 0 1 1l-1 4h-7l-2 1-2 1c1 1 0 2-1 2-1-1-2 0-1 1l-1 1-3 1h-4l-6 1-4 1-1 1-3 1 1-1 2-2h-3l-2-1h-1c1 1 0 2-1 2v2l1 2-1-1-1-1c-1 1-5-1-5-2l3-1c3 1 4-1 2-2h-1l-1 1c-1 0-2-1-1-2h-2c-2 0-3 0-2-1 0-1 0-2-2-1l-2-1c0-2 0-2-2-1l-2-1-2-1-3-1-2-1-2-1-3-1-2 1-1 1v-1l-1-1-15-6-21-10c-12-4-35-14-35-15l3-2c4-2 2-2-4-1l-11 3-24 8-12 5-9 4c-4 3-4 3 3-4 9-10 12-12 37-24 42-22 68-30 128-41l25-4 21-4 16-2a1000 1000 0 0 1 112-7h31ZM417 23h-1c-2 0-2-1-1-1l2 1Zm1234 2a346 346 0 0 1 158 58l30 19 20 15 40 32c6 3 6 3 15 3h55l6 4c4 3 6 5 9 10l3 6-4 1c-18 3-31 9-36 15-3 4-3 5-3 12 0 12 4 20 17 33s21 18 35 21c9 1 9 1 11 5s3 21 1 26c-1 5-3 5-22 5-18 0-18 0-31-10a389 389 0 0 0-48-30c-7-2-9-2-28-2a165 165 0 0 0-25 1l-2 2h-2l-5 2-5 1c-1 1-2 2-3 1l-2 2-1 2v2h1c2-1 4-1 4 1-1 1 2 2 3 0l2-1h5l5-1 1-1h2l2 1-2 2-2 1-1 1-3 1-8 3-11 5-7 3v1l-4 2-3 2c0 2-2 3-2 2-2 0-16 13-16 15l-1 1-5 8-1 2-1 1-12 19-2 4c-1 2-1 2-1 0l-2-5h-39l-18 2c-10 0-10 0-10 3l-1 2 2-12c6-21 6-30 6-67-1-47-4-68-14-85l7-1 36-5 24-2c53-5 54-5 62-11 9-7 11-15 6-23-11-18-54-48-92-65a238 238 0 0 0-97-24h-32a194 194 0 0 0-99 27c-25 17-43 34-61 58l-15 19c-8 9-11 13-13 19-4 11-6 23-4 33 2 13 3 38 2 42l2 9c3 8 3 10 0 10-5-2-11-5-16-10-5-4-5-4-11-4-4 1-6 1-8 4-3 3-3 3-1 6 3 4 10 9 23 16l34 19a127 127 0 0 0 42 21l-14 11c-4 2-5 2-15 12-8 8-17 14-19 14l-8 8-8 7v-5c-1-8-4-17-7-24l-2-5v-1l-2-2v-2l-3-4-2-2c2 0-6-10-13-17a89 89 0 0 0-63-28l-27 2-5 2-10 5c-11 6-10 6-14 3-6-5-14-7-38-10l-23-3 11-7 14-11c6-5 15-10 29-14 14-5 18-8 19-15v-4h-10l-18 2a454 454 0 0 1-68 7l-16 1c-1-1-2 0-3 1-1 2-1 2-2 1v-3l1-2c-1-1-1-1 0 0l4-3c8-7 38-13 95-19l32-4 59-5c14 0 16-1 17-4 1-5 9-21 15-29 5-8 29-38 44-56a254 254 0 0 1 84-69c5-3 20-8 30-10 17-4 73-6 97-2ZM410 27l11 2h3a506 506 0 0 0 52 19c11 5 28 17 41 28 15 12 61 58 74 74 12 15 16 20 21 30l6 10a651 651 0 0 1 188 36c29 7 36 11 36 18 0 6-2 7-16 8-11 1-13 1-19 4-7 4-11 9-13 15-1 4 0 10 2 13l1 3 1 4h1c-1 1 0 3 2 5l3 4 1 1c1-1 1 0 1 1l1 2 1 1-5-3-5-4c-2-1-7-1-8 1-1 1-2 0-4-1l-4-1-5 6a114 114 0 0 1-12 16h-5l-16-13-15-13c-4-3-25-9-35-11-16-2-33-1-46 5l-5 1-2 1-1 1c-1-1-10 4-15 8l-17 18-5 6-1 2-1 1-2 3-4 9-3 9c-1 1-3 5-3 8l-3 7-2 10-2 10c-1 3-1 3-6 3s-6 0-6-3l-1-11c1-6 1-9-1-11v-35a508 508 0 0 1 9-116l2-16c1-13 1-10-6-24-6-12-8-14-13-16-4-2-6-5-12-12-20-28-58-60-87-74-18-9-48-17-76-20a290 290 0 0 0-199 55c-23 15-30 21-33 28-3 8-2 14 4 19 7 8 14 12 22 15a560 560 0 0 0 116 17h4l-3 9-2 10c-2 2-4 17-5 28l-2 39c0 31 1 41 5 61l3 12-1 1h-1s-6-2-13-2a549 549 0 0 1-41-5c0 3-4-2-10-10-19-30-33-40-66-48l-13-1c-11 0-23 1-29 3a135 135 0 0 0-25 13c-6 3-22 18-22 20h-2c-1 0-2 0-1-1l1-2h1c1 0 1-3-1-5-1-1-1-1 0 0l3 1-1-2c-2-1-2-1 3-6l3-4c-2 2-2 1 0-1v-2c-3 0-14 13-20 22l-2 4c-6 6-14 22-15 27v1l5-1h4c-1-1-1-1 3-1l2-2v5l-1 4-1 2-1 1h-1l-2 1-11 1c-10 0-10 0-11-3l-2-8c-3-8-4-26-4-49 1-30 1-29 20-35 11-3 18-8 24-16l7-13c2-6 2-9 2-18 1-10 0-11-2-16-4-7-8-11-14-15-7-3-7-5-4-12 4-9 12-17 36-34a937 937 0 0 1 148-83c40-16 69-22 123-25 27-1 37-1 47 2Zm216 23 2 2h2l2 1v1l1 1-1 1c-1-1-1-1-1 10a289 289 0 0 1-2 9h-7c-4 0-4 0 2 2 12 5 20 11 23 19 3 5 3 6-2 7-5 0-9 0-18-5-20-10-22-12-21-17 0-6 1-6 7-6 3 0 4 0 3-1-4-3-13 1-12 5 0 2 0 2-1 1 0-2-2 0-1 2l-1 1c-1-1-1 1 1 3v4-2l-2-2c-2 0 0 4 3 7l3 2-2-2v-4h1l1 2h1c-1 2 6 5 7 4s1 0 1 1l2 1c2-1 2-1 2 1l1 2 1-1h1v3c0 1-1 2-3 0h-3l-1-1c0 2 0 2-2 1s-2-1-1-3c1-1 1-1 0 0l-3 1-2 1-1 1c-2 0-2-2-1-2v-1l-1-2h-1l-1 2v2c-1 1-5 2-5 0l1-1 1-2c0-1-1-2-2-1h-3l-6-1v4l2-1c1-1 6 0 6 1l-2 1h-1v2c-1 2-5 1-4 0l-3-1h-2l-2-3c-1-2-2-3-3-2l-3-1v-1h1-2c-2 0-2 1-1 2v1h1c2 0 3 0 3 2 1 2 0 2-1 2l-2-1-1-1-2-1-1-1-6-4-9-8c-4-3-4-3-3-1l2 5-15-14a216 216 0 0 0-23-19l3-1 12-1 18-2 16-1a381 381 0 0 1 60-2Zm1025 5 3 4 4 13 4 11-3-6-3-6-1 2v2l-1-1-1-2c-3-1-4-1-4 1h-1c-2 0-2 0 0 2s2 2 0 3-2 1 0 3c2 1 2 1 0 1h-1l-1 2-2 2c-2 1-2 1 0 3v2h-2l-2 2v1l2 2v1c-2-2-4 0-5 5-2 8-4 11-8 12l-4 1-2 1h-2v-1l-1 2h-2l-2 1-2 1v-1l-2-1-2 1c1 1-1 2-6 1l-6 1h-6l-2-1v1c1 1 0 1-3 1l-3-1-2-1h-8l-1 1-4 1c-4 2-10 2-10 1l-6 2c-3 2-17 3-19 1l-3-1 2 3 1 2-2-1c0-2 0-2-17-3l-16-1-6-1h-5c0-2 3-2 11-1h16c6 0 4-2-3-3l-3-2c-2-2-2-2-4 0l1-4-2-1c-3 1-4-1-1-2l-1-1v-1h2v-1c-2-3-2-3 0-2h4c-1-1 0-1 1-1l1-1h-3c-1 2-2 2-3 0v-4c-3 1-4 2-4 5v2l-1-1-1-2c-2 0-2 0-1 1 2 1 1 2-1 1-2 0-2 0-1 1v1l-2 1v2c-1 1 0 2 1 2 2 0 4-2 3-3h1c2 0 2 1 0 3-3 2-3 2-1 3l1 1-4-2c-3-2-4-2-5-1v5h-1v1l1 1h-2v-3l1-2-1 1-2 1v1l-1 1c-1-1-2 0-2 1l-2 2-2-1h-1v1l3 1h2l1 1c-1-1 1-4 2-4l1 2c0 2-4 3-8 3h-2l-1 1v-4a211 211 0 0 1 58-50 177 177 0 0 1 82-18c12-1 34 0 36 1ZM647 60c12 5 27 16 27 21 0 1-7 4-10 4-1 0-6-2-11-6l-14-8-6-5c-2-4 0-10 4-10l10 4Zm-251 2c27 3 37 6 60 17a266 266 0 0 1 69 57v3c1 1 0 1-12 1-17-1-25 0-31 4l-5 3 4-4c3-2 4-4 3-4l-5 1-3 1-6-1c-2-1-2-1-2 1l-1 1-1-2-2-1c-2 1-4 0-2-1v-1l-3 1h-1v-2l1-2-1-2-1-1v-2 4c1 1 1 1-1 1s-2-1-3-3c0-4-1-5-1-2s0 3-2 2h-6c-2 0-3 0-2-1h-1l-1 1h-1l-2-2 2-1h1c0-2-4-3-5-2v4l-1-1c0-2 0-2-2-1s-3 1-3-1h-1l-1-1v-2l-1 1-2 1v2h-1l-2-2c-1 0-2 0-1-1h2c2 0 5-3 3-5l-2 1h-1c0-2 0-2-1-1l-1 2-1 2-2-2-3-2v-1c2-2 2-2-1-2-1 0-2 0-1-1 2 0 1-2-1-2v-2c3-2 2-3 0 0l-2 4c0 3-1 2-2-2l2-3c2 0 1-2-1-1l1-2c3-2 4-7 2-5h-3c-2-1-2-2-1-3l-1-2h-3l-3-2-4-2-3-2 2 3c3 3 3 4 1 4l-3-3-2-3-2-2c-1-2-1-2 1-1l2-1c-1-1 0-2 1-1 3 1 3 1 2 2s0 1 2 2c5 1 5 1 4 2l1 1c1-1 0-4-2-4v-3h-1l-1-1h-2l3-1c2-1 3-3 1-5-1-1-1-1-1 1 1 1 0 2-1 3h-4l1-1 1-1c0-1-2-1-4 1s-3 1-2-2c1-1 2-2 4-1 2 0 2 0-1-2-4-2-5-3-2-2v-1c-1-1-1-2 1-4l3-2 1-1h-3l-6-1-4-1-1-1 5-2c5 0 6-2 1-1l-5-1c-1-2 0-2 13 0Zm1296 0c9 1 30 8 46 15a481 481 0 0 1 38 22c-11-6-13-7-15-6s-3 1-6-1h-4l-1 1v-1c1-2 1-2-1-3h-4l-5 1c-5-1-5 0-1 2l2 1-4-1-2-1v-1c2-2 1-3-2-2-2 0-2 0 0-1 2-2 2-2-2-3-2-1-3-2-2-3v-2l-3-1-7-4-3-1c-2 0-3 0-2-1 2 0 1-1-2-3l-5-2-5-1-4-1c-2-2-3-1-2 1 2 3 1 4-1 2s-2-2-1 0h-2c-1-2-5-3-5-1h1l3 1-1 1c-1 0-1 1 1 1 2 2 3 4 1 3l-2 1c0 2 2 3 2 2l2-1c1 1 1 1-1 2l-3 3v2c-1 1-2 2-1 3v4c0 2 0 2-2-1l-1-8-2-8-2-11h3l7 1ZM316 62l-2 3h-1v-1c-2 2-2 3 0 3l-2 24-4 19v-6l1-2c-1-2-1-2-2 0l-1 7c-1 7-2 9-4 9-1 0-2 0-1-1l-2 1c-1 2-2 2-3 1h-14l-4-1-2-1v1l-1 1-8-1-8-1-9-1-8-1c1-1 0-1-4-1l-5-1h1l1-1-3-1h-3v-1c1-1 1-1-1-1h-5l-3-1v-1l-1-1h-1l-1-1-2 1c-1 1-1 0-1-1 1-3-1-3-2 0l-2 1h-3l-2 2h-1l-5 3-11 6-5 4 5-4c9-9 22-17 46-28a224 224 0 0 1 78-26l2-1h3Zm460 5 32 2c37 3 74 7 110 14l81 14 27 5c15 2 18 4 23 12 3 7 2 11-1 19l-7 9-2 1c-1 1-2 2-3 1h-2v-1l-1-1-1-3c1-3 1-3-2-4-2-1-3-3-2-3 0-2-6-3-12-2l-9 4-25 8-14 3-12 2c-5 1-7 0-30-12-23-11-33-15-38-15s-4 4 2 9c6 6 32 24 43 29 12 7 21 13 19 15-1 2-12 1-22-1-2-1-3 0-4 2-3 5-19 15-26 17-2 1-2 1-2-1l-2-11a134 134 0 0 0-55-82l6 19 9 13c12 18 20 34 24 49 2 6 2 8 1 10s-1 2-3 1l-12-7-20-11-6-1-1 1h-1l-3-1h-1l-1-1c-1 1 3 7 8 11l4 6c0 1-8-5-12-10-5-4-16-19-20-27a311 311 0 0 0-38-51 129 129 0 0 0-14-17c0-2-11-10-12-10l-1 1v3l-35 28c-7 4-16 12-20 16a552 552 0 0 1-65 50v-1l2-1 3-2 1-2c-1-2 13-17 28-29l42-35a284 284 0 0 1 45-32h27Zm-387 5v1l-1 1v-2l1-1v1Zm1054 7c-7 6-9 7-4 1l3-4h1l3-2 2-1-5 6ZM351 86a314 314 0 0 1 33 19c12 6 13 9 7 16-3 4-6 4-18-3l-22-10c-17-8-19-9-19-11 0-3 2-8 5-13 2-3 4-3 14 2Zm1376-3-1 1-1-1 1-1 1 1Zm5 2-2 1-2-1 1-1 3 1Zm-298 4-3 1 1-2c2-2 3-2 2 1Zm313 1-1 1v-1l1-1v1ZM561 96c1 1 1 1 0 0l-2-2 2 2Zm126-2-2 2c-1 1-1 1 0 0l2-2Zm985 3 1 10 1 9-8 1-11 1c-15 2-14 2-16 0-2-1-2-3-2-7 1-7 3-8 18-11l14-4c2-1 3-1 3 1ZM400 99c0 2-3 4-3 4l1-2c1-3 2-4 2-2Zm279 2-11 10a487 487 0 0 0 11-10Zm1108 5-2-1-5-4 7 5Zm-1384-1h-1c0-2 1-3 2-3l-1 3Zm1013 8a881 881 0 0 0-16 17c5-7 7-9 7-12l1-1v2c-1 1-1 1 0 0s2-2 1-3h1l2-1v-2l4-5h1v-2c-1 0-1-1 1-2 1-2 2-2 3-1 1 2 0 3-5 10Zm-833-7 2 1 1 1-1 2v-1l-1-1c-1 0-2 0-1-1l-1-1c-1 0-2 0-1-1 0-1 2-1 2 1Zm21-2c0 2-2 2-2 1v-1h2Zm625 10 39 16c32 13 73 34 87 45 6 4 6 7 2 6-3 0-20-7-42-18a482 482 0 0 0-89-35c1-1-9-5-13-6l-6-3c-3-3-4-4-4-2l-7 9c-9 8-20 21-28 33l-18 24-16 22c-5 6-13 12-16 13l-5 1-3-1c1-1 0-2-1-2l-2-2-1-1h-1c-3-2-6-2-9 0l-5 2c-4 0-9 3-11 6-1 2-3 4-5 4l-7 7-11 10c-11 8-31 16-37 15-1-1-3 0-7 3-2 2-6 5-8 5-4 2-15 3-24 1l-10-2c-5 0-16-4-19-7-3-2-3-2-3 0v3l-8-12c-3-6-3-9-3-14 0-9 3-14 13-21a1095 1095 0 0 1 112-51 465 465 0 0 1 44-20c8-5 24-11 26-11s-4 10-9 15c-1 2-2 3-1 6 0 4 0 4 5-4 7-12 7-12 7-15 0-2 1-3 3-4l16-6a264 264 0 0 1 51-19l24 10Zm-902-1c-1 4-1 4-1 1l1-6c0-2 1-2 1 0l-1 5Zm265-6h-2v-1l2 1Zm5 0v1l-1-1v-1l1 1Zm20 0-1 1-1-1v-1l2 1Zm1175 3c1 1 1 1 0 0l-2-2 2 2Zm-1485 5c0 7-2 8-1 3v-6l1-1v4Zm1496 3-4-3-5-4 5 3 4 4Zm-428-1v3c-1 0-2-4-1-7l1 4Zm27-1h-2l-2-1h2l2 1Zm90 1-1-2c-1-1-1-1 0 0l1 2Zm-910 1c1 1 1 1 0 0l-2-2 2 2Zm810-1-5 1-3-1 4-1 4 1Zm424 9-9-5 2 1 7 4Zm-1405-5h-2c-3 0-2-1 0-1l2 1Zm976 1-2 3c-1 0-1-1 1-2 2-4 2-4 1-1Zm-96-1-1 2-1-1 1-1h1Zm-1111 1-2 2c-1 1-1 1 0 0l2-2Zm1118 4-3-1-3-2 4 1 2 2Zm191 0-4 1h-2l2-1 4-1v1Zm7 0h-4c-1-1 0-1 2-1s3 0 2 1Zm-1324 5c-3 3-4 5-3 6l-1 2c-2-2-1-5 3-9 4-5 5-5 1 1Zm1214-4-1 1-2 1-3 1 1-2v-1l2-1 3 1Zm433 2c1 1 1 1 0 0l-2-2 2 2Zm-1515 8c-1 1-1 1-1-2l1-5 1 2-1 5Zm1073-6-1 1-2-1 1-1 2 1Zm-44 4v1l-5 1v-1c3-2 3-2 5-1Zm-804 5c-1 0-4-2-4-4l2 2 2 2Zm807-3v1l-1-1 1-1v1Zm-12 3c-1 1-4-1-3-2h2l1 2Zm202 4c5 6 6 9 4 17-2 9-6 13-13 15-5 2-24 4-37 4l-10 1h-5l-2-1-2 1-8 1c-6 0-7 0-8-2-1-3 0-16 2-20 3-4 6-7 15-10 14-5 34-9 51-9 10 0 10 0 13 3Zm-1223 6a302 302 0 0 0-2 13c-1 2-2 2-8 1-6-2-10-3-7-3v-1l1-1 2-1 3-1 3-1 1-2c1 1 5-4 6-7 0-4 1-5 2-5l-1 8Zm327-3-8 6c-5 4-7 5-8 4-2-2-1-3 1-2 1 1 3 0 8-4l7-5v1Zm753 9-3 3 6-7-3 4Zm-914 1-1 1 1-2v1Zm51 1c6 0 14 2 17 3 7 2 15 7 18 11s4 5 4 12l-1 9c-3 0-29-1-48-4-22-2-27-6-27-18 0-6 2-10 6-13 5-3 8-3 31 0Zm-53 13c0 2-1 1-1-3s1-5 1-3v6Zm1221 5c7 16 10 42 10 87a185 185 0 0 1-9 68c-1 2-3 2-11 2a866 866 0 0 0-101 8 321 321 0 0 0-43 4l-27 3c-14 3-21 3-29 3-5-1-7-2-7-3 0-2 9-10 22-20 11-9 17-16 19-24v-8c-3-3-7-6-15-8-25-6-42-13-51-21-5-4-6-6-6-8l1-5a84 84 0 0 0-1-45l-2-8 21-2c45-4 65-7 76-13 5-2 7-3 12-3l12-1a2269 2269 0 0 0 123-11c3 0 3 0 6 5ZM372 186l97 7 9 3c7 5 14 7 27 8l13 2 10 1h12l7 1 6 1h6v5l-1 19a1273 1273 0 0 0-8 126l-16-2a2059 2059 0 0 0-215-14c-1 2-7-12-10-20-5-17-5-21-5-47a395 395 0 0 1 11-93c2-1-1-2 57 3Zm1623 5 3 15 1 3-9-2c-9-1-19-4-26-7-4-2-4-2-2-3 4-3 21-7 27-7l6 1ZM49 192l-2 3c-1 1-2 3-1 6 0 4-1 6-4 6-2 0-3-3 0-8 2-5 7-10 7-7Zm1123 34c0 2-6 5-9 5-4 0-1-3 5-5h4Zm41 21c-10 13-24 26-36 32l-15 4-25 8a205 205 0 0 1-42 11c-3 1-12-1-16-4-8-5-9-8-3-18 5-8 12-13 20-17 3-1 14-5 25-7 42-10 55-12 83-13h12Zm-321 10c9 2 17 10 19 18 1 5-3 12-12 19s-15 9-24 9c-10 1-13-1-19-8-5-5-6-8-6-13 0-11 8-21 20-26 5-1 16-1 22 1Zm952 2-2 1h-2l2-2 2 1Zm42 0 7 2c3 0 3 0 2 1h-11l-1-1-7-1c-5 0-7 0-5 1s2 1-2 1-5 0-5-2l10-2 12 1Zm17 5h-5c-1-1 0-1 2-1l3 1Zm4 2-1 1-2-1 2-1 1 1Zm-1072 4 1 11c0 7 0 10-2 12l-1 3-4-1c-5-1-12-8-15-13-2-4-3-6-1-5l1-1-1-1c-2-1 0-4 2-5h20Zm328 33c5 4 5 4 15 4a1536 1536 0 0 1 70-1c2 3-1 7-5 9-3 1-4 2-4 4 0 3-1 4-4 7s-8 5-27 12l-11 6-8 8c-6 4-13 11-15 15l-4 11a147 147 0 0 1-6 16c-2 2-2 2-7 2l-7-1 1-16 1-14-4-5c-6-5-14-7-20-6-12 3-40 16-52 25-9 6-18 15-20 21l-3 5-1 7c0 2 0 4-1 3 0-3-2-5-5-5l-2-1c-1-2-6-1-6 1l-3 3c-3 1-4 2-3 4l-1 3-1-1c0-1-4-3-9-3l-9 2h-6c-1-1-4-16-4-22l-1-5c-3-3-13-3-25-2l-12 1c-2-1 9-6 41-14 13-4 24-10 37-19l18-13 18-10c13-8 31-17 39-19 7-3 30-12 34-15 4-2 5-2 12 3Zm-223-1c4 2 8 8 8 13 0 6-8 17-14 19-7 3-20 0-29-6-5-4-7-7-7-10 0-6 8-14 17-17 7-3 20-2 25 1Zm-868 9-1 2-1-1 1-1h1Zm775 8c7 0 12 2 12 4l-4 4-2 3-1 1-6 11-2 6-3 7c0 2-1 2-4 0l-5-5-7-10-6-7 5-9c6-7 6-7 11-6l12 1Zm210 0c1 4-10 12-32 23-4 2-12 8-10 8l-2 3c-3 2-5 3-7 1-1-2 0-3 3-7s5-7 5-10c2-7 4-9 22-16 13-4 20-5 21-2Zm831 3c9 3 17 7 24 13l8 6c6 4 8 7 12 16 7 14 12 36 10 51-2 17-13 39-24 50a88 88 0 0 1-49 22c-17 0-39-12-50-28-8-10-16-26-17-34-5-23 2-54 15-73 9-12 18-19 33-24 6-2 8-2 18-2l20 3Zm-909 0 1 3-14 18c-3 3-3 3-5 2-5-3-5-6 0-13 9-11 15-14 18-10Zm359 1 16 3c29 8 51 39 51 72 0 20-7 46-17 58-4 5-16 15-23 18-8 4-21 7-31 7-8 0-8 0-13-4-7-5-14-8-23-9-7 0-7 0-11-5-5-5-13-17-17-26-5-9-6-17-6-34 0-30 8-51 23-65 9-8 28-17 38-17l13 2Zm-1176 1 13 5c6 3 13 5 22 14 12 13 17 16 21 32 1 5 3 12 5 14 3 6-2 15-5 27-7 33-28 57-56 63-11 2-15 1-35-6-11-4-16-7-25-16a89 89 0 0 1-23-61c0-10 0-13 2-20 3-10 7-16 17-26 12-13 22-20 35-25 6-2 20-3 29-1Zm536 2c12 3 22 10 34 23 12 12 16 24 16 45 0 29-17 58-42 74-3 2-5 3-8 2l-8 2-15 3-10 1c0 2-2 1-1 0l-1-2-2 1h-2l-22-9c-9-6-17-17-25-34-8-21-9-37-3-53 5-12 20-31 31-39 8-6 22-13 29-15 6-1 23-1 29 1Zm1111 10-2 2 1-2c2-3 2-2 1 0Zm-33 2c-1 1-1 0-1-1s0-2 1-1v2Zm-776 0-4 6c-6 8-18 16-22 16-2 0-4-6-3-8 1-3 11-10 19-13 5-2 10-3 10-1Zm-187 23 16 10 47 32c9 7 32 19 56 31a2416 2416 0 0 1 91 49c0 2-3 3-7 1l-34-8c-4-1-6-1-6 1-2 2-13 2-19 1l-8-2c-4 0-25-7-54-18-20-7-33-14-34-18l1-11v-10c-1-2-8-6-12-7-3-1-3-1-4 2l-2 9c0 4 0 5 3 6l6 3c4 0 6 2 6 5s-1 3-8-1c-11-6-18-11-23-18-3-5-7-9-8-9-3-2-7-2-7-1l-4 4-1 2-2 2c-2 0-1 5 1 9s2 4 0 2l-2-2c0 2-16-16-19-20-3-5-2-10 3-25l5-16c1-8 3-11 5-11l14 8Zm959-7h-1l-2-1h2l1 1Zm-75 6v1c2 0-2 2-5 2-2 0-2 0-1-2l3-2 3-1v2Zm-1449 1v1l-3-1v-1l3 1Zm710 4-1 3-4 9-4 8c-2 1-2 1-2-1l5-20 6 1Zm-54 13c0 3-2 4-5 4-3-1-3-2-1-4 3-4 6-3 6 0Zm214-1h-1l-5 2-4 2 5-3 5-3v2Zm651-1c1 1-3 9-4 10l-1 2-1 2-1-1v-3c-1-2-4-2-18-2a131 131 0 0 1-22-2h-49c1-1 5-2 17-2l17-1c25-3 61-5 62-3Zm-1511 6 22 2a2550 2550 0 0 1 68 5l50 2 27 2 30 2a620 620 0 0 0 58 3 364 364 0 0 1-44 2c3 0 3 0 2 2h-5l-1 1c1-1-2-1-8-1l-9 1-1 2c-2 0-2-2-1-2 1-1 0-1-1-1l-6-1c-3 0-3 0-1-1s2-1 0-1l-2 1-3 1c-1 0-2 0-1-1h-3a542 542 0 0 0-62-1l-14-2-2-1h-5l-4-1c0-2-2-3-7-2l-5-1c0-1-1-1-2 1l-9 1c-7 0-12-2-6-2l4-1h-11l-5 1-1 1-6-1c-6 0-12-2-6-2l3-1h-1l-4-1c-2 0-2 0 0-1h-12c-2 1-1 1 3 1 5 0 6 0 4 2v1h-2c-1-1-4-2-12-2l-11-1c-1-2-1 1-1 8 0 4 0 4-1 2l-1-1v1c-1-1-5-15-4-16h9Zm848 1-3 1-1 3c-1 2-2 2-4 2l-3 1v1h-2c-1-1 5-5 6-4l1-1 3-3c4-2 5-2 3 0Zm553 0h-2c-1-1 0-1 1-1s2 0 1 1Zm9 0h-4c-1-1 0-1 2-1s3 0 2 1Zm-17 0-5 1h-2l7-1Zm-13 2h-2c-1-1 0-1 1-1s2 0 1 1ZM54 389l1 1c1 2-3 1-5-2l-2-3 2 2 4 2Zm1558-2h-3c-1-1 0-1 2-1 1 0 2 0 1 1Zm356 3c0 1-1 2-3 2s-3-2-1-4c2-1 4-1 4 2Zm-385-1-15 1-12 2h-23c0-1 1-2 3-2h9a330 330 0 0 0 35-2c6 0 6 0 3 1Zm389 0-1 1-2-1 2-1 1 1Zm-442 4h-2c-1-1 0-1 1-1s2 0 1 1Zm-443 2-2 5-2 3c-2 1-4 5-4 7 0 1-1 2-3 2h-2c0-4 5-11 9-15 5-4 6-5 4-2Zm-551 5h-2v-1l2 1Zm-48 3h-4c-2 0-2 0 1-1 4-1 5 0 3 1Zm4-1-1 1-1-1v-1l2 1Zm-17 1h-2c-1-1 0-1 1-1s2 0 1 1Zm514 8c3 13 4 22 2 23l-11 1c-9 0-9 0-16-4l-16-9-8-5 46-15c1 1 2 2 3 9Zm-545-6h-2v-1l2 1Zm-185 6h-1l1-2v2Zm6 5c1-2 2-2 2-1h1c0-2 0-2 1 0h1l1-2 1 1c-1 1 0 2 2 2 3 2 3 2-8 2-6 1-7 0-6-1l-1-2v-1l2 1c2 2 2 2 4 1Zm864 3-1 3-5 12-4 1c-3 0-5 1-10 4a143 143 0 0 1-45 15l2-4c1-2 2-3 5-4l36-17c15-10 18-11 20-11l2 1Zm609 14 3 9c4 10 11 22 18 30l13 10 9 7a7124 7124 0 0 1-208-1l7-5c14-10 22-19 31-36l6-11 16-1 35-2 37-2a177 177 0 0 0 26-2c6 0 6 0 7 4Zm-1389 5a541 541 0 0 0 52 3h7l4 10 9 14c4 6 16 16 24 20l4 3a5064 5064 0 0 1-214-1l5-3c7-2 16-8 24-17 8-7 10-10 14-19l5-11h28l38 1Zm1079 18c4 9 8 15 18 24l8 8-28 1-41-1h-12l10-7c13-9 16-13 23-23l7-9 7-1c5 1 5 1 8 8Zm-811 14a136 136 0 0 0 23 17h-68l5-4c9-6 16-11 22-19l5-7 3 3 10 10Zm585 10 6 5c0 1-3 2-11 3-11 1-19 3-26 7-2 1-3 1-6-1-9-7-19-8-34-5-11 2-16 2-16-1s8-8 20-12l18-8 17-8 7-3 10 10 15 13Zm-344 7 11 10c6 6 12 15 11 17l-8 1a478 478 0 0 0-54-2l14-18c6-6 14-12 18-12l8 4Zm451 3c8 10 25 25 38 32 12 6 15 6 48 9 29 2 42 4 43 7l-5 1-5 2c-2 2-34 1-37-1l-9-2a175 175 0 0 1-31-6l1 2 4 2 7 3c3 2 4 3 3 5 0 2 0 2-12 2l-38-5a625 625 0 0 0-59-7c0-1 6-8 15-16 14-13 29-30 29-32l2-1c2 0 4 1 6 5Zm-571 12 13 12c8 7 9 9 7 10a324 324 0 0 1-51-2c0-2 2-4 9-10l10-10 5-5 7 5Zm411 2 31 30a451 451 0 0 1-70-2c0-3 4-8 10-12l11-9c6-5 12-9 14-9l4 2Zm-245 8c-1 1 0 1 0 0 2 0 2 0 1 2 0 2 0 2-2 0v-3l1 1Zm25 14c4 0 6 1 7 6v3h-15c-16-1-19-1-19-4-2-4 0-6 4-6 4-1 17 0 23 1ZM701 49l1 1 1-2h-1l-1 1Zm-5 34 2 1-2-1c-1-1-1-1 0 0Zm748-24h2l1-1-1-1-2 2Zm7-1 3 2-2-2h-1Zm-1 3 2 1-2-1c-1-1-1-1 0 0Zm-2 3 3 1c1 0 1-1-1-1l-2-2v2Zm-157 0a222 222 0 0 0-42 13l8-2 11-2 15-3 3-2h3l3-2c2-2 2-3-1-2Zm154 1h3l-3-1v1Zm-5 1h2l-2-1v1Zm4 1 1 1 1-1-2-1v1Zm-3 2 3 1h1c-3-2-4-2-4-1Zm-2 1 2 1h1l-3-1Zm-4 4 2 1h1l-3-1Zm-53 17 1 1v-1l-1-1v1Zm13 0h3l-1-1-2 1Zm-7 6h4l-2-1-2 1Zm5 3c0 1 1 2 2 1s2-2 0-2h-1c-1-1-1 0-1 1Zm-4 0c-1 1 0 1 0 0 2 0 3-1 1-1l-1 1Zm-3 1 1 1v-1l-1-1v1Zm15 3h2c1-1 0-1-1-1s-2 0-1 1Zm-24 1v1l2-1-1-1-1 1Zm33 1 3 1-1-1-2-1v1Zm-10 1 2 1 1-1-3-1v1Zm-1 2 3 1-1-1-2-1v1Zm-14 2v1l1-1v-1l-1 1Zm11 0c0 1 1 2 2 1 2 0 2 0 1-1h-3Zm-46 4h3l-2-1c-2 0-2 0-1 1Zm10 0-1 1h4l1-1h-4Zm-7 7c-2 1-2 1-1 2 3 1 5 0 4-2h-3Zm-26 9c-1 1 0 2 2 1 2 0 3-1 1-1h-3Zm597 109c-2 2-6 8-6 10l7 3c2-1 5-7 5-9s-3-5-4-5l-2 1Zm-94 21c0 1-1 2-2 1-2 0-2 0-1 1 2 1 3 1 4-1l1-2-2 1Zm4 4c-3 2-2 2 0 1l2-2c0-1-1-1-2 1Zm-445 14 1 1 1-2h-1l-1 1Zm3 1-1 1-2 2 3 6 1 1 3 5a315 315 0 0 1 26 32l1-10c0-3-6-15-9-18l-5-6c-1-3-14-15-16-15l-1 2ZM97 143c-1 3-1 3 1 1l2-3-3 2Zm-6 5c-3 2-4 3-2 3l6-6-4 3Zm17 42c-5 1-9 4-14 9-6 5-7 8-7 17 0 6 0 9 2 13 6 12 11 15 22 13 9-2 14-5 18-13 3-6 4-8 4-15 0-8 0-9-3-13-4-6-11-11-15-11h-7Zm7 16c1 1 3 6 3 11s-7 11-12 10c-2-1-6-8-6-12 0-3 2-6 6-8s7-2 9-1Zm478 40-4 4v2h3l3-1h-1l-1-1c1-2 8-4 9-3s-1 3-8 7c-7 3-7 3-6 7 2 9 10 11 19 7 7-3 9-6 9-12 0-5-3-8-10-9-7-2-9-2-13-1Zm-471 14-10 4-7 4-5 2c-8 5-10 8-6 9h2l-2-1v-1h1l1-1 1-1h6l-1-2v-1h2l2-1v1l-2 3c0 2 2 3 3 1h4l3-1 2-1 6-1 4-1 19-1a119 119 0 0 1 25 2 152 152 0 0 1 20 2l4 1 2 1c3 0 3-1-2-5-5-5-10-7-21-10-8-3-11-3-28-3l-23 1Zm566 7-5 1-4 1c-1 2 2 3 8 4h11l-3 1c-2 1-2 1 0 1l4-2-1-1h5l4-1v-1h-2c-2 0-3 0-2-1l-2-1c-7-2-11-2-13-1Zm-2 4h-2c-1-1 0-1 1-1s2 0 1 1Zm-11-2c-1 1-1 1 1 1l2-1h-3Zm-529 4h3c1-1 0-1-1-1-2 0-3 0-2 1Zm539 1 2 1h2l-2-1h-2Zm17 0 1 1v-2l-1 1Zm-614 7-1 1-1 2h2c2-2 3-4 1-4l-1 1Zm549 3 1 1 1-1-2-1v1ZM596 83v1l-1 1 2-1c2 0 2 0 1-2-2-1-4-1-2 1Zm-6 2c-1 1 0 2 1 2l2-2-1-1-2 1Zm-1 8 2 1 1-1-2-1-1 1Zm20 4 1 2-1-2c-1-1-1-1 0 0Zm1044-34 2 5 1 3-1-3-2-5-1-3Zm-11 20-1 1 3-1h-2Zm-126 15h2c1-1 0-1-1-1s-2 0-1 1Zm-6 15 2 1v-1h-2Zm53 2 1 1c2 0 3-1 1-1h-2ZM406 87v2c1 1 2 0 2-1 0-2-1-2-2-1Zm8 2 1 1v-1l-1-2v2Zm-11 2 1 1 1-1-2-1v1Zm15 1c0 2 2 3 2 2v-2l-1-1-1 1Zm18 2 1 2c1-1 0-4-1-4v2Zm-23 1-3 1h-2v4h2v-1c0-1 0-2 1-1l3-2v-2l-1 1Zm27 1 2 2c1-1 1 0 1 1-1 3 0 5 3 5 2-1 4-2 2-2-1 0-3-5-2-6h-2l-3-1c-1-1-1-1-1 1Zm-9 2h-2c1 2 4 3 4 0l-1-2-1 2Zm17 0v2l1-1 2-1c2 1 4 0 4-1 0-2-5-1-7 1Zm19 4v1l2-1 1-1-3 1Zm-15 4v1l1 1 2 2c1 2 4 4 4 2l2 1c1 1 3 2 4 1v-1l-2-1-3-3-3-3h-3l-2-1v1Zm20 0c-1 1-1 2 1 2v-3l-1 1Zm6 3v1l1-1v-1l-1 1Zm-12 2 2 1c4 0 5 0 4 1l-2 1-1 1 9-2h-1l-3-1c0-2-1-2-4-2l-4 1Zm13 3 1 1v-1l-1-2v2Zm-61 1 1 1 1-2h-1l-1 1Zm34 1 1 1 1-2-1-1-1 2Zm-17 0c-1 1 0 2 1 1v-1h-1Zm26 1 1 1 2-1h-3Zm5 0 1 1c1 1 4 0 4-1h-5Zm9 1c0 1 1 2 2 1v-1c-1-1-1-1 1-1h1c-1-2-4-1-4 1Zm-20 0h2l-2-1v1Zm-26 3h1l1 2 1 3c3 0 3-2 0-4-2-2-3-2-3-1Zm12 3 2 2 2 1-1 1-1 1 2-1h3l2-4c0-2 0-2-3 0h-1l-2-2c-3-1-3 0-3 2Zm20-1h-3v1c1 1 5 0 5-1h-2Zm30 5c0 2 2 3 2 1v-3l-1-1-1 3Zm-30 2h2l-2-1v1Zm33 1v1l2-1-1-1-1 1Zm-17 1h2l-2-1v1Zm9 1c-1 1-1 1 1 1h2v-2l-3 1Zm-16 6 2 1c2 0 2 0 1-1h-3Zm1218-67h2c1-1 1-1-1-1l-1 1Zm-1 9 1 1 1-1-2-1v1Zm54 6 2 1h1l-3-1ZM309 83v2l1-2v-3l-1 3Zm-2 14c0 1 0 2 1 1v-2c-1-1-1 0-1 1Zm329 63-1 4 1-2 1-1 1-2-2 1Zm782-55 1 1 1-2h-1l-1 1Zm-4 6c-1 1-1 1 0 0l2-2-2 2Zm-349 94c-9 3-22 10-24 13-2 2-2 3-1 5 1 4 6 7 10 7 5 0 13-4 19-10 7-6 9-10 9-15-1-4-4-4-13 0Zm-75 21c-2 3-3 5-2 8 1 2 2 3 6 4 3 1 6 2 8 1 3 0 4-1 4-4 0-2-1-4-4-7-4-5-8-5-12-2Zm673-16-10 2-10 1c-14 0-19 3-19 10 0 3 1 4 3 6s3 2 11 2l40-5c6-2 5-9-1-14-3-3-4-3-14-2Zm-179 46c-2 0-4 5-4 8 0 4 4 5 8 3 2-2 3-3 1-7s-3-5-5-4Zm60 48c-3 2-5 6-6 12-1 5 0 7 7 10 8 3 16-2 17-12 0-4 0-5-2-7-4-4-10-5-16-3ZM525 211c-3 0-5 1-5 2l-6 1c-6 1-11 4-11 7 0 2 5 8 9 9 6 3 22 0 33-6 9-5 11-7 10-9 0-3-19-5-30-4Zm-195 14c-3 3-4 8-2 11s9 4 28 6h24c4-2 7-6 5-10-1-4-8-7-16-7l-31-2c-5-1-6-1-8 2Zm541 47-3 3c-1 2 0 9 1 8l1-4h1l1-1 1-3c1 1 5-3 5-4-1-1-3-1-7 1Zm280 47-2 2 5-2h-3Zm705 14-9 4c-24 10-33 26-35 60-1 9 1 19 5 29 3 5 6 9 16 19 7 8 15 15 18 16l6 5c3 6 25-1 42-12 13-9 19-16 25-29 5-11 6-16 6-31-1-16-2-22-7-31a63 63 0 0 0-67-30Zm20 11 9 21c1 3 1 3-2 2-2-1-6-2-13-2-9 0-10 0-15 3l-8 9-3 5v-5a302 302 0 0 0-2-15l5-1c3-2 4-2 7 0l6 1c3 0 4-3 7-13 3-14 3-14 5-14l4 9Zm1 32c4 1 9 5 11 9s3 16 1 20c-2 3-6 6-12 10-4 2-4 2-9 0-7-3-12-8-14-12v-18c4-8 14-12 23-9Zm37 11c5 2 7 5 7 10-1 4-6 6-13 7-6 0-9-2-9-9-2-8-1-9 6-9l9 1Zm-70 6 1 9c1 2-2 3-13 3-9 0-12-1-12-6-1-5 0-9 3-9 4 1 16-1 18-2 3-2 3-1 3 5Zm22 32-1 2-2 3-1 1c0-1-2 0-3 2s-3 3-5 3h-2l-1-1 1-9 3-9 6 4 5 4Zm-550-88c-21 8-32 18-38 38-3 8-4 32-2 44 3 17 17 34 38 44 6 3 8 3 17 4 12 0 16-1 27-6 17-8 30-27 35-49 2-7 2-10 1-17a63 63 0 0 0-31-51c-7-4-20-9-24-9h-4l3 5c2 6 5 19 5 25 1 3 2 3-11 1l-7-1 2-4 3-12v-10c-2-5-5-5-14-2Zm4 27c1 1 1 2-2 4l-6 7c-2 5-2 5-3 2l-2-6c-2-4-1-6 2-8 3-1 10-1 11 1Zm21 17 8 6c3 4 3 5 4 11 0 6 0 6-3 10-4 5-12 10-17 10s-13-5-16-11c-4-9-2-22 6-26 4-3 13-2 18 0Zm-34 6v19h-6c-8-1-13-2-16-5-2-2-3-3-3-6 0-5 1-7 6-7l19-1Zm75 3 2 5c2 7-3 9-16 9l-5 1v-14l5-2c7-1 12-1 14 1Zm-40 49c-1 13-6 21-11 18-2-2-4-8-5-14a31 31 0 0 0-2-13c0-1 17-2 18-1v10Zm-12-2c-1 1 1 3 2 2l-1-1v-3l-1 2ZM137 336c-16 7-25 14-34 26a54 54 0 0 0-12 44c2 14 10 30 21 41 15 14 32 18 51 13 10-3 15-6 22-12 10-7 13-12 19-27 3-10 4-24 2-36-1-12-4-18-11-27-11-15-22-21-40-22l-7-2c-2-1-2-1-11 2Zm31 20c7 7 10 12 9 16-1 2-2 3-5 3l-6-2c-11-8-20-9-30-5-5 3-11 9-11 12l-1 1-1-8c0-7 0-8 3-11 6-7 14-7 19-2 3 3 3 3 7-5 3-8 4-8 6-7l10 8Zm-10 24c10 4 12 7 11 17 0 6 0 7-3 11-5 7-7 9-16 9-8 0-8 0-12-4-10-12-7-28 7-35 4-3 5-2 13 2Zm29 9c10 2 12 3 12 8 0 8-5 12-13 11-7-2-8-3-9-13 0-9-1-9 10-6Zm-67 1 2 10 4 12 2 6-7 1c-7 0-10 2-9 6v2l-2-6-3-9-3-10c-1-5-1-6 1-8 2-3 8-6 11-6l4 2Zm38 46c0 7-1 9-3 13l-3 4v-26l3-1c3 1 3 1 3 10Zm521-100c-10 1-18 4-28 10-10 7-25 24-31 36-4 8-4 8-4 17 0 6 1 11 3 17 3 12 5 15 10 22l4 5 1 2 2 3c1 0 1-1-1-2h2l2 3c-2-1-2-1-1 2l1 5 1 1c0 1-1 1-1-1h-2l4 3s2 0 2 2h1c0-2 0-2 2-2l4 2h3l4 2 6 2 1 1a58 58 0 0 0 30 2c6-2 18-8 17-9l-7 3c-4 1-9 3-14 3-7 0-7 0-6-1l6-5c3-1 6-3 6-5 1-1 3-3 5-3 10-5 26-19 30-28 4-6 7-17 8-27 0-6 0-9-2-15a60 60 0 0 0-41-42l-6-3-2-1-9 1Zm30 24c5 3 5 3 5 7l-1 7-2 7v4l-7-7-13-10c-8-4-8-4 1-9 7-4 10-4 17 1Zm-43 0 12 4 5 1-4 1c-8 2-14 5-20 11l-5 5v-3l-2-11c-3-9-3-7-1-9 2-3 7-2 15 1Zm24 19c4 2 8 6 11 12 2 3 2 4 1 9-3 14-16 21-30 15-7-3-9-7-10-18 0-9 0-9 4-13 6-6 16-9 24-5Zm-36 25v8l-7 4c-4 1-9 3-10 5-2 2-3 2-4 0-2-2-5-11-5-16v-5h6l12-3 6-2 2 9Zm64-4c4 2 7 6 8 12 0 7-1 8-8 8-4 0-6 0-8-2s-2-2-2-8c0-10 3-14 10-10Zm-38 25c2 1 2 2 1 10l-1 11c-3 6-3 7-6 7-2 0-2 0-2-7l-1-15v-8h3l6 2Zm211 8c0 6 3 10 4 10 2 0 4-5 4-8l-4-3-5-3Zm-472-36v1l1-1v-1l-1 1Zm-17 1h2c1-1 0-1-1-1s-2 0-1 1Zm-31 1 1 1v-1l-1-1v1Zm72 0 1 1 1-2h-1l-1 1Zm3 0 7 1 7-1h-14Zm191 121 1 7 7 1c5 0 6 0 8-2 3-5-1-10-10-11h-6Zm-32 4c-9 3-12 6-12 12l2 6c1 2 9 5 14 5 8 0 17-7 17-13 0-5-2-9-5-10-4-2-8-2-16 0Zm881 2c-4 3-5 8-4 10 2 5 16 7 24 3 4-1 4-2 4-4 0-4-1-5-5-8-6-4-15-4-19-1Zm-623 14c-3 3-4 8-1 12 1 2 6 3 11 1 4-2 4-2 4-5l-1-7c-2-4-2-4-6-4-3 0-5 1-7 3Zm-191 10c-5 4-4 7 2 11 5 3 5 3 7 1l5-9-2-3c-3-3-9-3-12 0Z"/><path fill="#fa9a39" d="M1406 566a1354 1354 0 0 1-96-5 443 443 0 0 1-19-6l-15-3a137 137 0 0 1-44-11l1-2c1-4 3-8 7-13a42 42 0 0 1 7-7l9-8 7-6-4-1a297 297 0 0 0-56-1h-9a57 57 0 0 1-11-1 261 261 0 0 1-9-1v3l10 11 12 13c2 4 3 12 2 16v1h-1c0 2-1 2-5 2l-13 1h-1a1890 1890 0 0 1-121-1l-1-2-1-5 11-2a278 278 0 0 0 24-4l-1-1-7-7c-6-5-12-7-17-5-8 2-10 4-11 12-1 5-2 6-4 7h-1v1l-2 1c-1 2-2 1-5-3l-1-2-5-4c-4-3-10-4-23-5-18-3-18-3-25-8s-12-7-15-7h-2c-4 2-19 11-23 15l-3 3a3 3 0 0 0 0 2c2 2 11 2 32 2h23v7c-1 3-1 5-4 6h-1l-49 1a468 468 0 0 1-53-2l-2-2-1-6v-4h1l4-1c5-1 3-3-3-4a1086 1086 0 0 0-94-3h-2c-3-3-2-10 2-16l3-7v-1l-18-1a519 519 0 0 0-18 1h-1l5 9 1 1 3 5 2 7v3c0 6-1 7-6 9l-7 2h-10a1253 1253 0 0 1-57-2c-4-2-6-5-6-8l1-6 9-13 7-7-18-1a503 503 0 0 1-16 1h-84a5938 5938 0 0 1-107-3l-7-1-5 2-158 2a10479 10479 0 0 1-307-2l-1-5c0-4 0-5 3-6l54-1 52-1-9-8-3-3a92 92 0 0 1-29-38l-4-8a30 30 0 0 1-2-7 110 110 0 0 1-2-11l-4-4-5-1-7-3c-7-3-11-6-15-14h-1a116 116 0 0 1-14-28c-2-2-4-7-5-14-3-11-4-24-4-47-1-29 0-37 8-45l1-1 2-6a260 260 0 0 0 1-29 42 42 0 0 1 2-9l3-11a402 402 0 0 1 7-20l8-16 1-1 9-14 6-8a41 41 0 0 0 7-5l5-4 4-3 65-44 10-6a382 382 0 0 1 36-20 1397 1397 0 0 1 34-17 31 31 0 0 0 6-1l1-1 4-1 6-2 3-2 12-6a209 209 0 0 1 71-16 500 500 0 0 1 69-6h2l12-1h1l8-1h5l13-1 6-1a1826 1826 0 0 1 149 0l1 1h5l65 6a238 238 0 0 1 32 6l8 2 7 1 12 3 1 1 13 4a171 171 0 0 1 40 16 454 454 0 0 1 12 5c10 5 16 6 28 6a330 330 0 0 1 48 4l17 2 14 2a556 556 0 0 1 27 4l15 3a378 378 0 0 1 26 5l6 1 12 2a187 187 0 0 0 26 5l9 2h4l24 4 11 4c3 1 5 4 7 6a54 54 0 0 1 8 15 49 49 0 0 1-1 30v3h1a30 30 0 0 0 7-3 209 209 0 0 1 21-10h1l1-1 13-7 14-10 10-8 2-1a526 526 0 0 1 31-24l12-8h2a405 405 0 0 1 66-32h1a162 162 0 0 1 19-6 235 235 0 0 1 34-8l6-2a139 139 0 0 0 9-2l7-1h1l20-4h3l11-2a304 304 0 0 1 35-4l4-1 10-1 7-1 13-1a612 612 0 0 0 61-6 551 551 0 0 1 80 1h1a1285 1285 0 0 0 53 3 317 317 0 0 1 47 4 194 194 0 0 1 13 2l13 2 20 5 4 1a166 166 0 0 1 28 9 385 385 0 0 1 82 43 139 139 0 0 0 18 10 142 142 0 0 1 9 7h1l1 1a9010 9010 0 0 1 41 31 271 271 0 0 1 7 7h1l5 5h28c24 0 28 0 33 2l8 2c5 2 8 5 13 9l6 9a27 27 0 0 1 5 12v1a12 12 0 0 0 1 2v1l10 17c3 6 5 12 6 21l1 20c1 19 1 21 3 27a301 301 0 0 1-1 85l-2 8a136 136 0 0 1-12 30c-3 6-7 11-11 15l-8 5c-8 4-19 8-23 8s-5 1-7 11a93 93 0 0 1-7 19 112 112 0 0 1-23 31 62 62 0 0 1-16 12c-9 4-9 4-6 5a1578 1578 0 0 0 129 2l15 2v5l-3 4-1 1-1 1h-5a14448 14448 0 0 1-403 0 25753 25753 0 0 0-258 0h-35l-2 1 8 4a135 135 0 0 0 11 5l10 2 21 3a463 463 0 0 1 54 6l5 2c7 3 11 7 12 12 0 3 0 5-2 7l-2 4-3 6-4 8v1h-1l-12 1-16 1-17 1Zm-728-3-4-2-2-1-3-4c-1-2 0-4 3-6l5-2h1l6 2 2 3-5 9-3 1Zm189-9h-1l-4-2c-3-4-2-9 1-12 2-2 4-3 7-3 4 0 4 0 6 4l1 7c0 2 0 3-2 4l-2 1-6 1Zm-258-7-6-1a19 19 0 0 1-8-4l-1-1a7 7 0 0 1-1-5l2-6c2-2 4-4 8-5l2-1c8-2 12-2 16 0 2 0 3 2 4 3l1 7c0 3-2 6-4 8a17 17 0 0 1-3 2c-3 2-7 3-10 3Zm885-6-6-1-6-4c-1-2 0-6 3-9l1-1 2-1 9-1 5 1 4 2c3 3 4 4 4 7v1c0 2 0 3-4 4l-9 2h-3Zm-74-3 12-2-4-2h-5l-28-3c-33-2-36-3-48-9-13-7-30-22-38-32a109 109 0 0 1-3-4 4 4 0 0 0-5-1 15 15 0 0 0 0 1 259 259 0 0 1-41 44l-1 2-1 1c-1 1 0 1 2 1 3 0 3-1 3-3l7-3 6-4h1l3-1c2-1 2-1 0-1h-2 5c-1 3-1 5 2 6l3 1 2 1c1 0 2-1 1-2s0-1 4-1l6-1 10-2c2 0 2 0 2-2-1-2-1-2 16 3a413 413 0 0 0 51 12l29 1h11Zm-135-1 1-1-1-1h-2l2 1v1Zm-6-1v-1c-1-2-5-2-7-1-1 1-1 1 2 1h4l1 1Zm-344-1 1-2v-1l-2-4-3-2a12 12 0 0 0-2 0c-6-1-19-2-23-1-4 0-6 2-4 6 0 3 3 3 19 4Zm226 0 19-1a455 455 0 0 0-36-32c-2 1-8 4-13 9l-11 9c-6 4-10 9-10 12v1l15 1 36 1Zm106 0h1l-2-1v1h1Zm16-1h1l-2-1v1h1Zm-1-2-1-3h-1l1 2 1 1Zm-637-4a31 31 0 0 1-4 0l-3-1-1-2v-10h6c9 1 13 6 10 11l-3 2h-5Zm105-4h8c2-1 1-3-7-10a1522 1522 0 0 1-20-17l-5 5-10 10a106 106 0 0 0-8 8l-1 2a853 853 0 0 0 43 2Zm155-8v-2c1-2 1-2-1-2 0 1-1 1 0 0l-1-2v4l2 2Zm-32-1 7-1-3-7c-4-7-12-15-19-20a33 33 0 0 0-9-4l-6 3c-6 4-13 11-18 17-3 5-3 5 2 8a199 199 0 0 0 46 4Zm296-20h3c6-4 14-6 25-7 8-1 11-2 11-3l-6-5-15-13-9-8-2-2-6 3a590 590 0 0 0-35 16c-7 3-13 5-17 8l-3 4v1l4 1h1l11-2c15-2 25-1 34 5l4 2Zm275-6 10-1-8-8c-10-9-14-15-18-24-3-8-3-7-8-8h-3a12 12 0 0 0-4 1l-7 9c-7 10-10 14-23 23l-9 6-1 1h12a4673 4673 0 0 1 59 1Zm232 0h1a18989 18989 0 0 0 103-1l-7-6a76 76 0 0 1-14-10 84 84 0 0 1-21-39l-1-3-6-1h-3a65 65 0 0 1-3 1l-20 1-37 2-35 2h-16l-6 11-1 3-1 1a84 84 0 0 1-31 34l-4 3-1 1 103 1Zm-1312 0a1931 1931 0 0 0 83-3l-2-1c-8-4-20-14-24-20l-3-4-4-7-2-4-1-3c-2-3-3-5-6-6h-4a609 609 0 0 0-51-3l-39-1h-28l-5 11-10 16-14 12a58 58 0 0 1-18 10l-1 1 35 1 94 1Zm236-1a438 438 0 0 0 40-1l-3-2v-1a136 136 0 0 1-30-24l-2-3h-1l-3 4-3 4c-6 7-12 12-21 18l-5 4h1a397 397 0 0 0 27 1Zm421-4 2-1v-2c-2-3-7-6-19-11a224 224 0 0 1-21-10 503 503 0 0 1-51-26 612 612 0 0 1-119-73l-14-8c-2 0-4 3-5 10l-5 17c-3 9-5 15-5 19a14 14 0 0 0 3 7h1l3 3 4 3-2-3c-3-3-3-5 1-4 2 0 6-4 6-7l-1-4c-2-4-2-8-1-8l1-1 1-5h1c0-2 3-1 4 1l4 4 20 33c3 6 5 7 11 11l17 9h2v-1c0-3-2-5-6-6-4 0-9-3-10-5l1-4v-1l2-9h6l8 5c3 3 3 3 3 8l-2 10v5l1 1 6 5c6 4 12 6 28 12 45 16 41 15 53 16 11 0 11 0 11-2v-6l-1-3c1 0 21 8 23 11l14 5a406 406 0 0 1 25 5Zm313-3a71 71 0 0 0 32-7c6-4 16-11 20-16l5-6c8-13 14-36 14-54 0-22-9-42-24-56v-1l-2-1c-7-7-16-12-25-14a180 180 0 0 0-32-5c-10 2-24 8-33 15a101 101 0 0 0-11 12 84 84 0 0 0-14 51v14c1 10 2 17 6 24a132 132 0 0 0 20 29c2 2 4 2 8 2 9 1 16 4 23 9 5 4 5 4 13 4Zm535-1c13 0 34-9 47-21 5-4 9-10 13-16v-1c7-10 12-23 13-34 2-15-3-37-10-52l-6-10a56 56 0 0 0-6-5l-8-7c-7-5-15-9-24-12a81 81 0 0 0-27-3l-8 1-3 1a63 63 0 0 0-27 17l-6 6c-13 20-20 51-15 73 1 9 9 25 17 35 11 16 33 28 50 28Zm-1715-1h4a64 64 0 0 0 26-10l15-12c9-11 16-25 19-41 3-13 1-33 0-39-4-16-11-23-23-35-9-9-14-10-20-13-4-2-10-5-13-5-9-2-23-1-29 1l-17 8v1l-18 15v1a60 60 0 0 0-19 46 89 89 0 0 0 23 61c9 9 14 12 25 16s17 6 22 6a131 131 0 0 0 5 0Zm510-2 1-1 10-1 15-3 8-2c3 1 5 0 8-2 25-16 42-45 42-74 0-21-4-33-16-45a78 78 0 0 0-34-23c-6-2-21-2-28-1l-5 1c-8 3-18 9-25 13-11 9-26 28-31 40-6 16-5 32 3 53 7 16 15 27 23 33l9 4c6 3 14 6 15 5l1 1h1l2-1 1 1v2Zm21-8h-3l-18-3-1-1-6-2-4-2h-1l-2-1-4-1c-2 0-2 0-2 2l-1-1-2-1-4-3h2c0 2 1 2 1 1l-1-2-1-4c-1-3-1-3 1-2l-2-3c-2-1-3-2-2 0 2 1 2 2 1 2l-2-3c-2-1-2-2-1-2l-4-5c-5-6-7-10-9-18l-1-4c-1 0 0 0 0 0-2-6-3-11-3-17 0-8 0-9 3-16l1-2 6-9 2-2c7-10 16-19 23-24 10-6 18-9 28-10l9-1 2 1 6 2 12 6c13 7 23 20 29 36 2 7 2 10 2 16-1 10-4 20-8 27-4 9-20 23-30 27l-5 4c0 2-3 4-6 5l-6 4c-1 2-1 2 6 2 5 0 10-2 14-3l7-3c1 1-11 7-17 8l-9 2Zm1177-1-5-2-6-5c-3-2-11-8-18-16-14-14-18-20-21-33-2-11 0-30 5-43 5-16 13-25 32-34a61 61 0 0 1 9-3l6-1h4c8 0 11 0 18 3 16 4 30 15 37 29 5 9 6 15 7 30a65 65 0 0 1-31 60c-13 9-29 15-37 15Zm-526-1h-5c-9-1-11-1-17-4-14-7-24-16-31-26l-4-8c-2-3-3-7-3-11-2-11-1-35 2-44l3-7c3-7 7-13 12-17a68 68 0 0 1 33-15c2 0 2 1 3 2l1 1v11a61 61 0 0 1-5 16l2 1h5c13 2 12 2 11-2 0-5-3-18-5-24l-3-5h5c4 0 16 5 23 9s13 9 18 15c8 12 11 20 13 36 1 7 1 10-1 17-5 22-18 41-35 49-9 4-14 6-22 6Zm-1189-5c-12 0-24-5-35-15a77 77 0 0 1-21-41c-2-17 1-28 11-43a73 73 0 0 1 35-27c4-2 14-1 18 0 18 1 29 7 40 22 7 9 10 15 11 26 2 13 1 27-2 36-6 15-9 21-19 28a63 63 0 0 1-38 14Zm1187-5h1c4-2 6-9 7-18v-10h-18l1 4 1 9c1 7 2 12 5 15h3Zm-1182-4 3-4c2-4 3-6 3-13 0-9 0-10-3-10l-3 1a114 114 0 0 0 0 26Zm522 0c3 0 3-1 6-7l1-11c1-8 1-9-1-11l-6-1h-2l-1 5v3l1 15c0 7 0 7 2 7Zm397-1c7 0 32-8 39-14l7-4c4-2 4-2 5-7l-1-5c-1 0-1-1 1-2l1-1-2 1-9 6a287 287 0 0 1-43 23c1-1 1-1 0 0-1 2 0 3 2 3Zm-175-8c-1 0-3-2-4-5a108 108 0 0 0-6-12l5 2 1 1 3 2 1 1c3 2 4 3 3 6l-1 3-2 2Zm435-5c-1 0-2-1-1-3l1-1v3l1 1h-1Zm522-3h1c2 0 4-1 5-3s3-3 3-2l1-1 2-3 1-2-5-4-6-4-3 9-1 9 1 1h1Zm-876-1h12l2-1 1-1v-5l-1-6-2-11c-1-7-2-8-3-9a344 344 0 0 0-45 16 106 106 0 0 0 7 4l16 9 9 4h4Zm-865-7v-3c-1-4 2-7 9-7h7l-2-6c-2-3-4-9-4-13l-2-6-1-4-3-1a21 21 0 0 0-12 7l-1 3 1 4 3 10 3 9 2 6v1Zm522-6h2a26 26 0 0 0 1-1c1-2 6-4 10-6l7-3v-8l-2-9-6 2-12 3h-4l-2 1v4c0 5 3 14 5 16l1 1Zm84-2 7-1v-1l1-1v-5c-1-6-4-10-8-13h-7a19 19 0 0 0-2 3l-1 8c-1 6 0 6 2 8s4 2 8 2Zm152-2c-3 0-6-2-8-5v-2l10 7h-2Zm463 0c5 0 13-5 17-10 3-4 3-5 3-11l-1-6-1-1-2-3-8-6c-4-2-12-3-17-1l-1 1a19 19 0 0 0-8 16v4l2 6c3 6 11 11 16 11Zm-327-1 1-2-1-4c-2-2-2-2-2 0v1l1 5h1Zm-324 0c10 0 18-6 20-17 1-5 1-6-1-9l-4-7-3-3-4-2a21 21 0 0 0-25 6l-3 4v8c1 11 3 15 10 18 3 2 7 2 10 2Zm-536 0h4c9 0 11-2 16-9 3-4 3-5 3-12 1-9-1-12-11-16-8-5-9-5-13-2a26 26 0 0 0-8 5 21 21 0 0 0-3 22l4 7c3 4 4 5 8 5Zm1727 0 1-1 2-1h1c5-3 9-6 11-9l2-9-2-12c-2-3-5-6-9-8l-8-2c-4 0-9 2-12 5-3 2-4 4-5 7v16c2 4 7 9 14 12l5 2Zm-798-5h1c2 0 2-1 3-2 0-2 2-6 4-7l2-3 2-5c2-3 1-3-4 2a19 19 0 0 0-1 1c-4 4-8 10-8 13l1 1Zm-71-4 1-4 1-4 1-2 1-3c2-1 2-1 2 2 0 2 1 3 5 2 6 0 15-3 17-5s5-3 8-2l5 1 7 1c3 1 4 1 5-1 2-2 4-3 3-1l5-5 6-5 2-1a91 91 0 0 1 4-3 195 195 0 0 1 39-20h1l12-4c6-1 13 1 19 7l5 3h2l-1-2v-2h2l1 1 4 3 3 2c-1 1 0 2 2 1l3-1 1-2 10-8c11-10 20-16 32-20 16-5 24-10 24-17 0-2 0-3 5-4l3-1 2-1 2-2v-5l-31-1a1537 1537 0 0 0-52 0l-2-2c-7-5-8-5-12-3a308 308 0 0 1-47 20 429 429 0 0 0-26 13l-18 11-18 12c-13 10-24 16-37 20a238 238 0 0 0-41 14l12-1c12-1 22-1 24 1l1 2 1 4 1 4 1 8Zm-815 0c5 0 8-2 9-6l1-5-1-4c-1-2-4-3-11-5-8-1-10-2-10 2v5c1 10 2 11 9 12l3 1Zm1118-2v-19l-19 1-5 1-1 5v1c0 3 1 4 3 6l2 1 1 1a47 47 0 0 0 13 3Zm523-1a279 279 0 0 0 8 0c6-1 8-2 7-4l-1-8c0-6 0-7-3-5-2 1-14 3-18 2l-2 1-2 5 1 6c1 2 4 3 10 3Zm-464-1h2c10 0 15-2 16-5a15 15 0 0 0 0-4l-2-5c-2-2-7-2-14-1l-5 1v13l3 1Zm542-1c5 0 10-1 12-4a7 7 0 0 0 1-4c0-3-3-7-7-8l-7-1h-2c-7 0-8 1-6 9 0 6 3 8 9 8Zm-814-11 1-1v-1l3-1c2 0 3-1 4-3l1-2 3-2c2-2 1-1-3 1-3 1-4 2-3 3l-1 1c-1-1-7 3-6 4l1 1Zm-34-1v-1l2-2c3-3 4-3 1 0l-3 3Zm-113-6 2-3 3-8 2-6c1-2 1-3-1-4l-1-1-3 10a99 99 0 0 0-2 10v2Zm-236 0v-4l2-7 1-8-1-3a16 16 0 0 0-4-4c-7-4-10-4-17 0-9 5-9 5-1 9l13 10Zm-57-3 4-4 5-5a30 30 0 0 1 16-7h2l-2-2h-2l-11-4c-8-3-13-4-15-1l-2 1 1 2 2 6 2 11v1Zm372 0 2-2 2-2-1 2-3 2Zm819-1 3-5c2-3 4-6 8-8 4-3 5-3 14-3h7l6 2c3 1 3 1 2-2l-9-21-4-9c-2 0-2 0-5 14-3 10-5 13-7 13l-6-1c-3-2-4-2-7 0l-4 1-1 1 2 14Zm-1721 0a57 57 0 0 1 1-1c0-3 6-9 11-12l8-2h9l13 7 6 2c3 0 4-1 5-3 1-4-2-9-9-16l-10-8c-2-1-3-1-6 7l-4 6v1h-1l-2-2c-3-3-6-4-9-4l-4 1-6 5-2 2a21 21 0 0 0-1 9l1 8Zm984 0 4-2 5-2 1-1v-1l-5 3-5 2v1Zm202-2v-1l2-3 1-1 2-3 3-3c3-2 3-3 2-4-1-2-8-3-11-1s-4 4-2 8a24 24 0 0 1 2 6l1 2Zm-157-7v-5c-1-1-1 0-1 2l1 3Zm539-9 1-1-1-1-1 1c-1 1-1 1 1 1Zm-265-2 1-2h-1l-1 1 1 1Zm-844-1h3l1-4 1-4 2-6 1-2v-1l1-10c0-11 0-14 4-21 15-27 40-34 65-43 7-2 14-3 24-3 10 1 22 1 29 4 3 2 17 11 27 21 13 13 21 26 19 27-1 0 2 0 6-5 6-5 7-9 6-13 0-2 0-2 2-2s3 0 0-1l-1-1 2-1 2-1h1c-1 1 0 1 0 0l1-1 2-1v-1l2-1h1c-1 0-1-1 1-3l2-5 2-8 2-2 2-2c1 1 1 0 2-2 1-4 5-7 10-10 0-1 1-2 3-2 4-3 6-3 13-4h5l13-2 1-1 2-2v-3l-1-4-1-1-3-3-31-11a833 833 0 0 0-187-34l-1-1a90 90 0 0 1-6-11 134 134 0 0 0-21-29l-4-5h-1a417 417 0 0 0-32-35 572 572 0 0 0-67-56c-11-6-20-10-40-17a506 506 0 0 1-26-8l-3-1-8-1a71 71 0 0 0-20-3l-27 1c-54 3-83 9-123 25a584 584 0 0 0-95 48l-53 35c-21 15-30 23-35 31l-1 2v1c-3 7-3 9 4 12 5 3 9 8 12 13l2 3 2 8v17l-2 8c-4 9-8 15-14 20-5 4-11 7-18 9-18 6-18 6-19 34 0 24 1 43 4 50l2 3 1-1 2-1c0-1 2-2 3-1 3 0 11-11 23-32l6-8c4-7 29-30 34-33l15-7c10-4 11-4 32-4s22 1 30 3c12 5 24 13 39 28 11 11 13 14 17 22 7 13 12 21 14 21 8 3 48 8 49 6l-1-8v-1l-1-1a181 181 0 0 1-4-23 476 476 0 0 1 6-105l2-10 1-3 1-6h-3l-25-3c-38-4-75-10-91-15a59 59 0 0 1-25-17l-2-3c-2-4-1-8 1-13l8-10 13-10 2-1a597 597 0 0 1 78-44 313 313 0 0 1 43-13l5-1h3l2-1h1c5-2 14-3 24-3 17-2 22-2 38-1l29 3a286 286 0 0 1 62 18 164 164 0 0 1 22 13c22 14 50 40 66 61a39 39 0 0 0 13 12l4 4 3 4a33 33 0 0 1 3 6 369 369 0 0 1 4 7l4 7-1 13-3 16v4h4c3 0 3 0 2 1l-4 1-2 2-2 10a938 938 0 0 0-6 101c0 19 0 19 3 22l1 2v3c0 3 0 3-2 1v1l2 2h2l6 1h3Zm391 0 6-3a67 67 0 0 0 15-12c1-2 2-3 1-4l1-1h2l1-2v-1h-1v1h-2l-1-1h-1l1 1-3 1a29 29 0 0 0-12 4h2l3 1 3 1c1-1 1-1 0 0l-2 1c-1-1-2 0-1 1l-1 1-5 4c-2 2-3 3-1 3h2l-1 1h-2c-2 0-2 0-1 1v1c-2 1-2 0-1-2l-1-2c-2 2-1-5 1-7l2-2-5 4-2 3v4l2 4h1Zm-427-3h3a3021 3021 0 0 0 3-64v-1a1047 1047 0 0 1 5-75l-11 7c-12 6-26 9-33 7-5-1-10-5-13-10-2-3-2-3 0-5l8-4c8-2 10-3 9-5l-1-2a66 66 0 0 0-13-1c-12-1-19-3-26-8l-9-3-97-7c-59-5-55-4-57-3l-6 21-2 15a397 397 0 0 0-2 87l8 28 3 5v1h11a840 840 0 0 1 81 5 1582 1582 0 0 1 139 12Zm462-2 4-3 2-2c-2 0 6-6 10-8 22-11 33-19 32-23l-1-1c-2-2-9-1-20 3-18 7-20 9-22 16 0 3-2 6-5 10s-4 5-3 7l3 1Zm486-7 20-2 15-2a325 325 0 0 0 45-4l33-2 36-4a607 607 0 0 1 45-3c2-2 3-4 4-10v-1a248 248 0 0 0 5-80 182 182 0 0 0-13-68l-4-1-9 1a2268 2268 0 0 1-125 11c-5 0-8 1-12 3-11 6-31 9-76 13l-21 1 5 18 1 20c0 16-7 24-7 24l15 9 1 1v1l13 6c9 3 20 7 31 9l11 5 4 3v7a28 28 0 0 1-1 3v1l-1 1v1c-3 5-7 10-14 16l-4 3c-11 10-13 12-9 16l4 2 2 1 6 1Zm-532-2 3-3 14-19-1-3c-3-3-9 0-18 11-5 7-5 10 0 13l2 1Zm23-3v-1h2l-2 1Zm-164-6v-1c-1-1-1-1 1-1h1l-2-4-1-3-2 4v1l3 4Zm106-2 6-1c5-2 11-10 13-16l1-3c0-5-4-11-8-13a24 24 0 0 0-11-3h-6l-8 2c-9 3-17 11-17 17 0 3 2 6 7 10 7 4 16 7 23 7Zm509-6h1l5-1 6-1c4 2 5 2 5 1l1-1c1 1 2 0 4-2 5-4 12-9 15-9l6 1-1 1a117 117 0 0 0 2-2v-1h-1l2-1c1 1 3 0 5-2l3-2v-1l-5-2c-8-2-12-3-37-19l-34-19c-13-7-20-12-23-16-2-3-2-3 1-6 2-3 4-3 8-4a35 35 0 0 1 4 0l7 4a51 51 0 0 0 12 8l6 2c2-1-5-26-5-41l-1-20-1-14c1-10 5-21 10-28l10-13a763 763 0 0 0 34-41c13-13 25-23 39-32l1-1 6-4a170 170 0 0 1 91-23 387 387 0 0 1 36 0l15 2a262 262 0 0 1 110 38c16 9 30 18 40 27h1c11 9 19 17 22 23s3 11-2 17c-2 3-4 5-3 6h-3l-1 1c-5 4-11 5-60 9l-24 2a984 984 0 0 1-43 6 87 87 0 0 1 9 25v1l2 8 1 10a470 470 0 0 1 1 78 144 144 0 0 1-6 34c0 2 0 2 6 2l22-2 27-1c10 0 11 0 16-3l5-1h1a208 208 0 0 0 1-2h-2l1-2 1-2 2-1h1a122 122 0 0 0 0-1h-1a87 87 0 0 1 6-22l3-6 1-2c1-4 15-16 24-23 20-12 32-16 52-16l20 1c8 1 23 6 26 8l17 12 17 12c14 12 13 11 27 11 16 0 24-1 26-3l2-2-1-22-1-3c-2-4-2-4-11-5a76 76 0 0 1-12-4c-8-3-14-8-23-17-11-11-15-18-17-27l-1-7 1-4c0-3 0-4 3-7l1-1c2-2 5-5 10-7l19-6 10-2-3-6c-3-5-5-8-9-10l-4-3-5-2h-20l-32 1c-9 0-9 0-15-4a601 601 0 0 1-52-40v-1h-1l-1-1-6-4-30-19a361 361 0 0 0-255-56 222 222 0 0 0-40 15 226 226 0 0 0-57 46c-13 13-19 20-39 45l-1 2a440 440 0 0 0-35 52l-1 3c-1 2-1 3-3 3l-1 1-13 1-59 5-32 3c-57 6-87 13-95 19l-4 3v1l-1 2a8 8 0 0 0-1 1v1l1 1h1l1-1c1-1 2-2 3-1l16-1a729 729 0 0 1 64-7c13-2 37-3 34-1l-2 3-2 5-4 4-13 6c-8 3-23 11-23 13s0 3-4 5c-3 2-7 4-11 4l-8 4a114 114 0 0 0-8 6l9 2h24c12 0 14 0 16-2l7-3 16-4c18-5 34-7 58-6h25l9 6 11 9c12 9 23 24 33 42 6 12 8 16 12 15Zm-615-2a48 48 0 0 0 4-4l-2 2-2 2Zm728 0-5-2h-3l-4-3v-7c1-5 3-9 6-11h2l4-1c4 0 7 1 10 4l2 4v1l-1 3c-1 7-6 12-11 12Zm-400-4-1-1c-2-1-2-1 0-2l2-1 4-1 1 1c0 1-3 4-6 4Zm-276-20h1c9 0 14-2 24-10 8-6 12-13 12-18-2-8-10-16-19-19h-22a41 41 0 0 0-9 5c-7 5-11 13-11 21 0 5 1 8 6 13 6 7 9 8 18 8Zm219-1h2l5-1c4 0 21-4 37-10a331 331 0 0 1 40-13c12-5 26-18 36-31l3-3-4-1h-8a312 312 0 0 0-119 27 68 68 0 0 0-9 10c-3 6-5 9-4 12l5 5 2 1c3 2 10 4 14 4Zm-261-6h1l1-3c2-3 2-5 2-12l-1-11h-20l-1 1h-1v4l1 1h-1c-2-1-1 2 1 6 3 5 10 12 15 13l3 1Zm-172-13h2l-2-1v1Zm209 0c-1 0-2-6-1-8l3-4h7c0 1-4 5-5 4l-1 3h-1l-1 1-1 3v1Zm615-15c-2 0-4-1-4-3l1-6 3-3 1-1c1 0 4 3 5 7 0 2 0 3-2 5l-4 1Zm-489-1h5c5-1 8-3 13-8s6-5 7-3l2 1 2-1 3-1c21-6 30-12 44-28 4-4 6-6 7-5l2-1v-1c1-2 2-3 5-4 5-1 17-8 26-15 11-8 12-9 9-5l-3 3 4-3c3-3 6-6 3-4l-1-1 2-1c1 1 2 0 4-2l4-2v-1h1c2 2 3 2 1 2l-1 1-2 1 1 1v2h-1c0 1 4 0 6-2h2l-1 1h-1l-1 2 1 2h4l-1-1h-1l1-2 2-3 2-2v1l1 1v-3l1-2v1l1 1v-3l1-2v1h1l2-2h-2l1-2 1-2 2-1c1 1 3-1 2-3l1-2 1 1 1-1h1v-1h-2l2-2 3-2a2781 2781 0 0 0 4-5l1-1v-1h-2l9-12h1l-1 2 2-2a294 294 0 0 1 26-30l1-1 2 1 2 1c1 1 2 2 3 1l5 2 21 10 8 3c2 2 16 7 23 9l6 2 1 1 10 4a423 423 0 0 0 40 19c21 10 33 15 32 12v-2a648 648 0 0 0-128-64l-24-10a450 450 0 0 1-51 18l-16 7c-2 1-3 2-3 4v1l-2 6-1 1-9 18a142 142 0 0 1-10 15c7-15 9-22 6-19l-1-1 2-1h1c-1-1 0-3 2-5l1-2 3-3a62 62 0 0 0 6-11v-1c-2 0-18 6-26 11a481 481 0 0 1-44 20l-24 10c-48 21-82 37-88 41l-10 9-2 4c-2 5-2 14 1 19 2 5 2 4 2-2 1-4 4-5 5-2 0 3 3 5 7 5l5 1h5l2 2 2 6c3 5 10 9 18 11l9 1Zm929-14-4-1-2-2 1-4 4-6 3-1h1c2 0 3 1 2 2l1 1c3 0-2 10-5 10v1h-1Zm-903-6-2-2-2-4c0-3 2-3 4 0 2 1 2 3 1 5l-1 1Zm-647-4h-4a320 320 0 0 1-38-5l-3-1-2-3v-3l2-5 1-1 1-1a13 13 0 0 1 0-1h1l4-1h2v1a885 885 0 0 0 40 4l6 2v1a6 6 0 0 1 2 3c1 4-2 8-9 10h-3Zm-270 0-5-2c-3-1-5-3-7-7a35 35 0 0 1-5-21c0-7 2-9 7-14a85 85 0 0 1 7-6 21 21 0 0 1 14-3l5 2a31 31 0 0 1 9 8h1c3 5 3 6 3 14a42 42 0 0 1-1 7l-3 8c-4 7-9 11-17 13a49 49 0 0 1-8 1Zm897-3-4-1a25 25 0 0 1-5-1l-3-2-1-5 1-4a6 6 0 0 1 1-1c3-2 6-3 9-1l5 4 2 4c1 4 0 5-4 6l-1 1Zm632-9c-3 0-6-1-8-3l-1-5v-1c0-6 5-9 18-9l11-1 10-2h12l2 1 2 3 2 4 1 2c0 4 0 4-3 5l-1 1-16 2-29 3Zm-470 0h1c2 0 8-4 8-5h-4c-6 2-9 5-5 5Zm-113-1c-4 0-9-4-10-7v-4a7 7 0 0 1 1-1 102 102 0 0 1 28-15h1c5-1 7-1 8 1v1c0 5-2 9-9 15-6 6-14 10-19 10Zm-942-3c4 0 9-4 10-9v-4l-2-7c-5-4-16 1-16 8l2 7a12 12 0 0 0 4 4l2 1Zm1889-19h2l-1-2-2-10c0-3-1-5-2-5l-5-1c-6 0-23 4-27 7l-1 1 8 4 21 5 2 1h5Zm-866 0 3-3-2 2-1 1Zm-587 0h1c1-1 0-1-1-1h-1c-1 0-2 0-1 1h2Zm-502-1a4 4 0 0 0 1 0c2-1 3-3 3-5v-1a12 12 0 0 1 0-3 7 7 0 0 1 1-3l2-3v-1a12 12 0 0 0-1 0l-6 8-2 5v1l2 2Zm1093-4 1-1a347 347 0 0 0-1 1Zm-1-4 2-1 2-2c0-2-2-1-3 1l-1 2Zm539-5h-5c-3-1-1-1 5-1s8 0 5 1h-5Zm-1119-1 4-1 1-1v-7c0-7-1-8-4-12s-11-9-18-11a226 226 0 0 0-45-4c-3 1-6 4-7 6l-1 3a38 38 0 0 0-1 6l2 8 3 4v-1l1 1 2 1 6 2 20 3 37 3Zm321-8 3-1 2-2v-4l-2-6a168 168 0 0 0-19-39l-1-1a83 83 0 0 1-15-27 157 157 0 0 0-2-8v-1l2 2a201 201 0 0 1 39 44c3 5 3 4 0-2-2-4-1-4 2 1l3 3 5 3c6 5 19 12 32 17l11 6c4 3 5 3 11 3l6-1c0-2-8-8-16-12l-19-11a302 302 0 0 1-30-23c-12-11-11-12 7-7 13 5 16 6 27 13l19 10c8 4 10 4 16 4 4 0 9 0 13-2l18-5 19-6c10-5 22-8 29-9 3 0 5-1 5-2 0-3 6-2 8 0l2 2v-5l-2-5c-4-8-7-10-22-12l-27-5-81-15a864 864 0 0 0-160-16h-5c-3 0-4 1-4 2-2 2-2 2 0 3a8 8 0 0 1 4 2 79 79 0 0 1 4 4c6 3 10 7 10 9l25 33a416 416 0 0 1 28 37l-1-3-1-1-1-5c-2-4-3-5-1-4l2 2c0 2 6 7 7 7l1 1 1 1v-1c0-1 1-1 3 1l8 4 5 3a98 98 0 0 0 26 21l6 3Zm639-9h1l3-1c-1-1-1-1 1-2h3v1l4-4a41 41 0 0 0 4-13l1-3-1-4a32 32 0 0 0-5-6c-2-3-3-3-12-3-25 0-56 8-63 16-2 1-3 4-4 7a59 59 0 0 0-1 6c0 3 0 3 2 2 0-2 1-2 1-1l1-1 13-5c4-1 13 0 13 1h2l2 1c0 2 3 3 11 2l3 2h3l6 1c7-1 13 1 8 1-2 0-3 0-2 1l2 1 4 1Zm-359-1-1-1 1-1h1l-1 1v1Zm367-2 1-2c2-2 3-2 1 0l-2 2Zm-361-6-1-1 1-1h1l-1 1v1Zm-520-13 7-7 6-6a257 257 0 0 0-13 13Zm-546-3a41 41 0 0 1-7 0c-1-1-1-1 1-2l2-1 3-2a368 368 0 0 0 17-12l-3 4-3 4c-2 2-4 4-3 6l-2 2c-2 0-2 0-1 1h-4Zm563-2 6-5a3259 3259 0 0 0 46-39 642 642 0 0 1 18-13l20-17v-2l-1-1-2-2h-1a66 66 0 0 1-4 2 274 274 0 0 0-51 40l-3 2-3 3-1 2-1 1-4 2-1 1 4-2-7 5-10 7c-8 7-10 9-6 7l2-2h5l-1 1-1 1 2-1 3-1c1 1-2 4-5 7l-4 4Zm11-10-1-1 1-1h1l-1 1v1Zm-7-3 3-3 5-4-7 7h-1Zm15-5 3-4 3-2h1l-4 3-3 3Zm-291-7h1c4-1 7-6 7-11a1004 1004 0 0 0-45-28c-10-4-11-4-15 5l-1 3-1 2c0 4 3 6 20 13a256 256 0 0 1 31 15l3 1Zm1256-4 10-1 16-3 6-1-1-8-1-10c0-2-1-2-3-1l-14 4-13 3-5 6a26 26 0 0 0 0 6l2 3c1 1 1 2 3 2Zm-446-1c-1 0-1-1 1-2h1l-2 2Zm-512-1 1-2c3-3 4-3 2 0l-3 2Zm113-2c-1 0-7-6-9-10-1-2 0-1 3 2l6 7v1Zm358-8 3-2 9-4 11-5c7-3 14-6 28-9l41-13a389 389 0 0 1 73-18 443 443 0 0 1 83-13l12-1 39-1h35l7-4a1841 1841 0 0 1 35-18l-11-1h-4a576 576 0 0 0-56 3l-34 2-22 1a328 328 0 0 0-53 8l-25 4c-60 11-86 19-128 41-25 12-28 14-37 24l-6 6Zm-514-7c7 0 7 0 7-2-1-8-11-17-25-21-10-3-14-4-16-2s-2 9 0 10l14 9c12 6 13 6 20 6Zm23-16c4 0 9-3 9-5 0-4-13-14-25-20-7-3-13-4-14-2-2 1-1 8 1 10 4 3 25 16 29 17ZM527 65l-1-1-5-4 3 3 3 2Zm-7-6 1-1v-1l-2-1-2 1 2 2h1Zm5-1v-1l-1-1v1l1 1Zm206-1 6-2a49 49 0 0 1 11-4l-4-3a402 402 0 0 0-125-25l-23-2a3647 3647 0 0 0-174 1l11 2c17 2 30 6 53 15 9 4 12 6 14 5h3l2-1 5-1 21-2h9a1373 1373 0 0 1 141 5 153 153 0 0 1 50 12ZM416 24l1-1h-1l-2-1 2 1v1Z"/><path fill="#6aa9bb" d="m436 4-10 1-22 2a2235 2235 0 0 1-67 5 315 315 0 0 0-52 7l-13 4a161 161 0 0 0-43 17l-6 2-7 1-5 1-6 4-15 8a627 627 0 0 1-53 30 2467 2467 0 0 0-80 57c-9 8-10 10-16 21l-10 18c-1 3-4 9-4 13l-6 20-1 21c-1 17-1 17-5 22-5 6-7 12-7 25-1 10 0 43 2 55 1 10 4 22 7 25l3 7c2 6 7 15 11 21 7 10 12 14 23 17l8 3 2 6c2 11 3 14 9 26 9 18 16 26 31 38l8 7-52 1-54 1c-3 1-3 2-3 6s0 5 4 6l230 1a3940 3940 0 0 0 244-2l92 2a2750 2750 0 0 0 122-1h12l-7 7c-11 12-14 20-8 26 4 4 6 4 28 4h30c7 1 10 1 15-1 9-2 10-3 10-10s-1-9-7-18l-4-7 19-1c19 1 19 1 18 3l-2 6c-6 6-6 15-1 16a1247 1247 0 0 0 97 3c6 0 6 0 6-3l-1-10c-3-11-3-11 2-11l12 3-2 4c-4 4-5 8-3 10l13 2c9 1 11 1 12 3 2 3 3 7 1 8l-33-3c-1-1-9 1-12 2-1 1-1 3 1 9l4 4h100c2 0 3-2 4-3l1-10h-39c-15 0-15-1-16-3 0-3 3-6 15-13s15-7 23-3l8 6c4 3 5 3 20 5l20 3c4 1 10 6 13 11 2 2 2 2 5 0l4-5 2-7c1-4 1-5 6-7 6-3 11-3 17 1 6 2 13 9 12 11l-10 3c-26 4-24 3-24 7l1 5h84c51-1 56-2 57-4 1-3 0-9-1-14-1-4-3-6-13-15-12-12-14-16-7-15 14 3 24 3 26 2 4-2 60-1 60 2l-8 7-12 11c-4 4-11 16-11 18l4 2 7 2c4 2 20 6 29 6a65 65 0 0 1 21 5l12 3a1073 1073 0 0 0 136 4h11l2-4 2-6 3-5c3-4 4-8 3-13-1-6-8-10-18-13-5-1-26-4-52-5l-27-3-23-11a1068 1068 0 0 1 134 0l161-1c385 1 408 1 409-1l4-4v-6c-1-2-3-2-55-2a25577 25577 0 0 0-92-2l9-5c6-3 11-6 16-12 13-12 25-32 29-46 3-14 4-15 7-15 7 0 26-8 32-13 9-9 19-27 24-47l2-8 3-48c0-28 0-28-3-35-2-6-2-8-3-26-1-24-2-32-8-42l-10-21c0-7-12-24-20-28-11-5-14-6-44-5h-28l-6-6a686 686 0 0 0-79-56c-14-11-56-33-81-43a313 313 0 0 0-101-21 896 896 0 0 0-85-5 699 699 0 0 0-170 9l-17 2a306 306 0 0 0-51 8l-7 1-3 1-4 1-8 2a413 413 0 0 1-28 6l-13 4a151 151 0 0 0-24 9c-38 16-60 27-79 43l-16 12-17 14c-10 8-19 13-34 19a295 295 0 0 0-24 11l2-8c2-7 1-19-1-25l-6-12c-6-8-11-12-20-13l-24-4-13-2a1040 1040 0 0 1-70-13l-15-3a479 479 0 0 0-41-6c-24-3-53-6-64-6-16 0-21-1-38-10a349 349 0 0 0-84-28l-30-5-67-7c-17-2-155-2-155-1Zm158 16 19 2 45 6c15 1 42 6 59 11 14 4 32 10 31 12l-14 5c-6 2-4-8-80-13a875 875 0 0 0-151 0c-4 2-4 2-15-3l-32-12c-9-2-30-5-31-4l-4-2 9-2h164Zm931 3-23 12-13 7h-37c-37 1-40 0-79 5a768 768 0 0 0-160 38c-12 4-21 6-35 13l-12 5-8 4-5 3 9-10c10-9 10-9 33-21 35-18 61-28 94-34l12-3 9-2a2149 2149 0 0 0 72-12l13-2 35-2c36-3 68-5 86-5h18ZM417 23c1 1 1 1-1 1l-3-1h4Zm1238 2 22 4a347 347 0 0 1 125 49l30 19 29 21 42 33 14 1 31-1c21 0 21 0 30 7 4 3 10 13 9 15l-4 1c-13 1-30 7-35 13-7 8-6 22 4 36 8 11 23 24 32 28l12 3 10 2a223 223 0 0 1-6 100c0 11-15 32-26 35-5 2-11 1-11 0l5-29-1-8-4-18c-3-19-12-33-29-50a79 79 0 0 0-60-23c-13 0-15 0-24 3-24 8-42 22-59 47a133 133 0 0 0-19 44l-23 2-38 3c-23 2-22 2-16-6 9-15 12-24 17-46 2-10 3-13 3-47a298 298 0 0 0-8-78l-3-8-3-7 6-1 35-3 57-6c22-2 26-3 33-10 10-10 10-17-4-31a300 300 0 0 0-280-67 194 194 0 0 0-70 46 449 449 0 0 0-34 41c-14 17-17 22-20 37-2 8-2 15-1 20l1 13c2 32 3 35 5 43 2 6 2 7 0 6l-7-3-11-7c-5-5-9-6-15-4-3 1-7 5-7 6 0 4 13 13 30 21l25 15c27 16 33 19 41 21s8 1-6 12a298 298 0 0 0-32 25l-13 11-8 6-1-7c-3-20-14-39-33-58a71 71 0 0 0-40-23c-9-2-11-2-24-2-18 1-25 3-36 10l-10 5-4-2c-6-6-15-8-45-12l-16-2 8-6 16-11c8-7 17-12 31-16 13-4 17-8 17-13l1-4-8-1-26 2a676 676 0 0 1-75 8l-6 2c-1 1-3 1-3-1 1-3 0-3-3-1l-6 2c-3 0-3 0-2-2 2-2 8-4 12-4l3-2 6-4c7-3 28-8 42-9l22-3a2071 2071 0 0 1 133-14l4-9a448 448 0 0 1 102-123c24-18 49-30 74-35 19-4 74-5 96-1ZM408 26c13 3 14 3 12 1l3 1c3 2 13 6 24 9 28 9 42 16 61 31a689 689 0 0 1 104 112c7 13 6 13 22 13a769 769 0 0 1 206 46c4 4 4 7 0 10-2 3-3 3-14 3-9 1-13 1-16 3-12 5-16 11-16 21 1 10 7 20 20 29 5 4 5 5 2 6l-8 4c-7 4-21 7-32 7-12 0-18-3-32-17l-16-13a125 125 0 0 0-44-10c-14-1-16-1-24 1-18 5-30 12-45 27-13 14-19 24-28 47l-3 13c-1 15 0 14-8 14h-6l-1-12-1-14a1010 1010 0 0 1 10-161c2-14 2-18-1-23l-7-11c-3-6-4-8-9-11-4-2-8-6-13-13-23-29-60-60-89-74a272 272 0 0 0-222 6c-16 8-24 12-39 23l-22 13c-18 12-24 20-24 30 0 7 0 8 11 17 9 6 15 9 36 13a766 766 0 0 0 99 13 469 469 0 0 0-10 124c2 13 7 31 11 41l9 16 5 8a624 624 0 0 1-68-6l-4-12c-2-12-4-16-15-31a87 87 0 0 0-61-43c-10-2-30-2-39 0-22 4-48 26-60 50-8 15-9 22-9 44l-1 21c-1 1-1 1-4-1-10-6-15-15-25-50-4-12-5-37-4-57 2-21 2-22 17-26 16-5 24-11 32-27 4-9 4-9 4-20 1-10 0-12-2-16-4-7-8-12-13-15-9-5-9-6-4-16 4-8 12-15 31-28a932 932 0 0 1 164-91 388 388 0 0 1 156-19Zm372 41c76 5 87 6 189 24l58 11c12 2 15 3 19 8s6 11 4 17c-2 8-5 12-14 21-10 10-21 18-32 23l-11 5-12 5c-11 4-30 13-39 19-13 7-16 12-20 26-1 6-1 6-3 5l-10-5c-9-3-16-7-17-10-1-1 0-5 2-13 5-13 5-13-1-33-6-17-11-29-18-39-11-14-21-24-26-27l-5-5-3-3 3 11c3 7 5 12 13 23 16 24 25 46 26 62 0 7 0 9-2 12-2 4-5 4-12 0-11-7-32-21-36-26l-26-37a383 383 0 0 0-58-68c0 2-15 15-35 29a270 270 0 0 0-40 34 969 969 0 0 0-42 38c-2 0-6-3-6-4 0-2 22-24 35-35l27-23a471 471 0 0 1 60-45h32Zm434 40a646 646 0 0 1 54 23c30 12 79 38 90 47 3 3 4 5 0 5-2 0-17-6-37-16a560 560 0 0 0-107-41l-7-5c-3-4-4-5-4-3l-11 12c-10 11-31 39-47 62a87 87 0 0 1-31 30l-19 11c-8 5-10 6-10 4l-1-10c-1-8-2-8-3-6v22l-20 20-42 18c-11 4-14 4-25 5-20 2-26 1-32-3-9-7-13-13-21-34-6-15-5-22 5-31 7-6 37-21 92-44a1130 1130 0 0 0 63-29l31-13a289 289 0 0 0 43-17l15-6 13-4 11 3Zm308 34 6 5c7 10 0 28-12 31l-14 2-18 2h-10l-5 1h-12l-10 1c-2-1-3-6-2-14 2-12 5-15 22-21a186 186 0 0 1 55-7ZM522 158c15 2 24 5 31 11 5 5 6 8 6 16 0 6 0 7-2 8l-19-1c-49-3-56-6-55-22 1-6 1-7 3-10 6-5 10-6 36-2Zm1164 14c4 5 9 27 11 48 2 18 2 70 0 81-3 23-9 38-21 54-6 9-8 10-26 10a1027 1027 0 0 0-82 6 2716 2716 0 0 0-96 7l-34 2c-11 0-13-1-6-4l11-8 6-4 1-1 1-1 1-1v-1l3-2 2-1 2-2 24-19 17-14c5-4 10-12 12-18v-8c-3-3-8-6-16-8-21-4-42-13-51-21-5-4-5-5-5-8l2-6 1-17c0-13 0-16-2-22l-2-10-1-5h13l52-5c19-3 26-5 31-8l11-3 13-1 47-4a1795 1795 0 0 0 81-6ZM369 186a8799 8799 0 0 1 105 7l7 5c8 4 16 6 44 8 12 0 31 2 33 3a1269 1269 0 0 0-5 162l1 12h-14a4876 4876 0 0 1-177-11l-22-1-8-7c-17-18-27-41-29-69-3-31 3-89 10-109 1-4 2-4 5-4l50 4Zm1624 4c1 1 3 2 3 4 2 4 5 28 5 37v8h-4c-8-1-24-13-30-22-5-7-7-14-7-18 1-2 1-3 6-4l23-6 4 1ZM54 195c5 5 6 10 6 19-1 8-4 15-9 20-4 5-12 10-16 10-2 0-2 0-2-4a139 139 0 0 1 7-36l3-8c4-6 6-6 11-1Zm1162 49-14 16c-6 6-18 15-25 19l-13 4c-10 2-21 6-29 9-12 5-35 10-44 10-8 0-19-7-19-12 0-7 13-22 22-27 6-3 48-13 65-16a290 290 0 0 1 57-3Zm-321 14c10 4 16 12 16 19 0 5-4 11-12 17-8 7-14 9-22 10-9 0-14-1-20-7-5-5-7-9-7-16 0-10 6-18 17-23 5-3 7-3 14-3s10 1 14 3Zm-59 18v14c0 7 0 7-3 6-8-1-16-7-19-14-4-6-4-8-1-11 3-2 5-3 15-3l8 1Zm321 23 6 5c4 3 5 3 9 3a1079 1079 0 0 1 77-1c1 3-1 7-5 8l-3 4c-2 8-7 11-26 18l-14 5-21 20c-4 3-7 10-10 21-3 9-6 14-7 15l-7 1c-5 0-6 0-7-2l3-27c0-3 0-4-2-7-3-3-10-7-15-8-6-1-21 4-41 14-18 9-33 22-38 32-3 6-2 15 2 29 6 17 6 17-2 19-4 1-7 2-8 4l-3 2c-1-1-7-12-12-26l-6-10c-1-2-6-2-12-1-9 2-10 2-10 0l-2-13-3-13c-2-2-10-3-23-1l-14 1 3-3c2-2 11-5 32-11 21-5 28-9 52-26 16-12 53-32 68-37 10-4 33-13 34-15h5Zm-216 3c4 3 7 8 7 12 0 7-5 15-12 19-4 2-5 2-11 2-5 0-9-1-13-3-6-3-14-9-14-12-2-6 8-17 19-20l12-1c7 1 9 1 12 3Zm-88 17c8 1 9 3 5 7-5 3-9 10-11 17l-3 9-2 4c-2 2-2 2-5 0l-5-6-8-10-5-8 3-6 5-7c2-3 2-3 11-2l15 2Zm201-2 3 3c0 3-7 9-21 17l-14 9c-12 10-16 12-19 11-2-1-2-1 2-5 6-8 8-10 10-16 1-4 2-6 4-7a231 231 0 0 1 33-13l2 1Zm828 3c14 3 21 7 33 17 13 10 17 15 21 28 3 8 6 22 7 30 1 15-4 33-14 48-9 14-18 23-34 30-20 10-34 9-52 0-15-8-26-19-35-38-6-12-8-20-8-34 0-10 0-13 2-22 6-21 12-33 24-44 11-11 23-16 40-16l16 1Zm-903 1c2 2 1 4-3 10l-7 10c-3 5-6 6-9 4-4-3-4-7 2-14 8-10 13-13 17-10Zm358 1c11 2 24 5 30 9 6 3 20 16 24 22 8 11 14 27 15 41 1 13-4 36-11 51-10 20-30 34-55 36-10 1-15 0-19-3-6-6-13-8-21-9-7 0-8 0-12-4-5-5-13-18-18-27-5-10-6-17-6-39 1-18 1-20 3-28a66 66 0 0 1 34-42c15-8 20-9 36-7Zm-1172 3c12 3 29 13 41 27 8 9 18 42 16 53-2 13-7 24-12 36-8 15-25 31-41 36-5 2-9 3-16 2-10 0-10 0-33-9-11-4-25-18-31-30s-9-22-10-36v-21c3-13 8-21 19-33 15-16 28-24 42-27 7-1 18 0 25 2Zm529 0c10 1 18 6 28 13 19 15 25 28 27 53 0 9 0 12-2 21a98 98 0 0 1-57 65c-8 3-21 2-31-1-13-5-24-10-29-15-11-11-23-36-25-54-2-17 4-33 19-51 9-11 17-18 25-23 16-9 31-12 45-8Zm1117 1-2 3-1 3h1l2-1 3-1-1 2-7 9-4 4 1-3 2-3c0-2 0-2-1 0-2 1-2 1-1-1 1-4 3-7 6-11 3-3 3-4 2-1Zm-543 1-1 1-1-1v-1l2 1Zm-1 2-1 1-1 1h-1l-1-1 1-1h3Zm-391 2 12 7 28 16c7 3 7 3 6 7s-2 4-4 4c-3 0-5 1-7 3-6 4-7 7-6 10 0 3 0 3 7 3h7l-1 2h-24c-2-2 0-4 5-7 4-3 4-3 4-11 0-7-1-7-3-9-4-3-6-1-6 5-1 7-3 10-6 11-3 0-20-3-27-6-6-3-6-4-1-17l6-13c1-5 2-7 4-7l6 2Zm124 7-12 14c-4 4-12 8-14 8s-3-1-3-5c-1-3-1-3 2-6 4-4 14-10 19-11h8Zm-186 23 16 11 48 32 56 31a1319 1319 0 0 1 66 33c20 8 24 11 23 17l-3 6c-2 2-3 3-7 2l-16-1-15-2-25 8a814 814 0 0 0-38-11 486 486 0 0 1-62-28c-16-6-31-14-38-18-6-5-31-31-33-36-3-6-2-12 3-24l5-17c0-4 2-8 3-10s1-3 17 7Zm146 4-2 4-3 8v1l-2 4c0 2-4 6-5 5-1 0 0-9 2-17v-6h5l5 1Zm-32 5c3 1 2 4 0 4s-3 0-3-2c0-3 1-3 3-2Zm205 3c0 3-1 10-4 13-3 5-16 13-29 20a551 551 0 0 0-26 14v-11c3-9 17-21 41-33 14-7 17-7 18-3Zm635 2a1655 1655 0 0 0-6 33l-3 5h-15a1356 1356 0 0 0-112 5 9398 9398 0 0 0-199 11c-12 0-12 0-9-9l2-12c0-8 1-9 3-10 5-2 31-4 68-6l34-2a1021 1021 0 0 1 85-6 1850 1850 0 0 0 97-7 829 829 0 0 0 55-2ZM307 385a4261 4261 0 0 0 267 13h10l1 6a291 291 0 0 0 3 25l1 4h-8a2355 2355 0 0 0-104-5 9399 9399 0 0 0-218-9c-2-3-11-34-11-37 0-2 18-1 59 3Zm683 27 2 16v7h-11l-13-1-15-9-13-8 45-15c3 0 3 0 5 10Zm175-1c1 2-1 3-3 2l-3 2-4 1-7 3h-3l-2 1-2 2c0-2-10 4-14 7l-3 5 5 6c4 3 5 5 7 9 2 10 2 12-8 12-7 0-7 0-21 6l-18 8a402 402 0 0 0-47 18l1-8c1-7 1-7-1-14l-3-8 4-2 13-7 11-6 13-5 36-20c8-5 20-10 26-11 16-3 22-3 23-1Zm571 19 5 9c3 11 6 17 13 26 6 8 10 12 19 18l8 5-105 1h-104l9-7c16-11 21-18 30-35l6-11 15-1a1589 1589 0 0 0 96-6c7-1 7-1 8 1Zm-1378 8 31 2c20 0 18 0 24 12s14 21 26 29c4 3 8 6 10 6 1 2-7 2-72 2-79 0-142-1-142-2l7-4c16-8 28-20 36-36l5-10h28l47 1Zm1070 18c4 9 8 15 18 24l8 8-35 1a858 858 0 0 0-46-1l9-7c13-9 17-13 24-23l7-9 7-1c5 1 5 1 8 8Zm-822 3a192 192 0 0 0 35 29 805 805 0 0 1-70-1l8-6c9-5 20-16 23-21 1-3 3-4 4-1Zm580 8 15 13c6 3 9 6 8 6l-12 2c-9 1-13 2-20 5-8 3-9 3-11 2l-7-4c-7-4-15-5-26-3l-13 2c-5 0-5 0-5-2 1-3 8-8 18-11a250 250 0 0 0 43-20l10 10Zm-329 19c7 4 16 14 20 21l3 7-9 1a491 491 0 0 0-53-2l13-17c5-6 15-13 18-13l8 3Zm451 3c8 8 18 18 27 24 19 14 21 15 59 18l44 5c4 0 4 2 0 5-3 2-7 2-13 3l-12 1a454 454 0 0 1-144-10c-15-1-15 0 0-14a275 275 0 0 0 34-37l5 5Zm-93-3-1 1-1-1v-1l2 1Zm-471 22c13 11 16 15 15 16l-52-1c-2 0 1-5 8-10l11-11c2-4 5-6 5-5l13 11Zm403-5 12 10a614 614 0 0 0 21 21c1 1-4 1-31 1-37 0-39 0-39-3s4-8 10-12l9-7c5-5 13-11 15-11l3 1Zm777-263c-2 2-6 8-6 10l7 3c2-1 5-7 5-9s-3-5-4-5l-2 1ZM88 150v1l2-1c2-2 1-2-2 0Zm20 40c-7 1-18 10-20 16-2 5-1 17 1 22 6 13 11 16 22 14 9-1 14-5 18-13 3-6 4-9 4-15 0-9-1-11-7-17-3-4-10-8-12-8l-6 1Zm7 16c2 1 3 6 3 10 0 5-4 10-9 11-4 0-6-1-9-9-1-4-1-4 1-7 3-4 11-7 14-5Zm478 40-4 4c-1 2-1 2 1 1l3-2 6-2c4 0 4 0 3 2l-8 5c-6 3-6 3-6 7 2 8 10 11 19 7 7-3 9-6 9-12 0-5-3-8-10-9-7-2-10-2-13-1Zm302-121-1 1v2c1 1 1 1-1 1-2-1-2-1-1 1 2 3 25 19 25 17l-2-3c-3-2-3-2-1-3l2-2v-1c2 0-2-5-6-8s-13-7-15-7v2Zm52 32v3c1 2 0 2-3 2h-3l8 6c4 3 6 4 9 4h3c0-4-9-17-12-17l-2 2Zm186-24-5 8-4 6 4-3c5-5 9-12 6-12l-1 1Zm-65 71c-8 3-24 11-27 14-2 2-2 2-1 5 2 4 7 7 12 7 13-3 28-18 26-26-1-2-4-2-10 0Zm-78 22c-2 3-3 7-1 10 1 2 9 4 13 3 3 0 4-1 4-4 0-2-1-4-4-7-4-5-8-5-12-2Zm-24 44c-3 0-4 1-5 2 0 1 4 4 7 4l9-1c6-1 8-2 8-3l-1-1-8-1h-10Zm697-60-10 2-10 1c-14 0-19 3-19 10 0 3 1 4 3 6 4 2 6 2 32 0 16-2 19-3 21-5 3-2 2-9-4-13-2-2-3-2-13-1Zm-180 47c-2 3-4 9-2 10 2 2 5 1 7-1 2-1 2-2 1-5-2-5-3-7-6-4Zm62 47c-5 3-10 14-7 18 4 4 15 6 19 2 3-4 5-8 5-12s-4-8-9-8h-8Zm-71 50c-5 1-8 3-11 6l-4 3-1 2 1 2 2 1c1 2 2 2 4 1l13-3c21-2 22-2 25-5 5-5 1-7-14-7h-15ZM330 225c-3 4-4 9-1 11 3 3 6 4 26 6 23 2 27 1 30-4v-6c-2-5-6-6-21-7l-22-2c-10-1-9-1-12 2Zm1653-18h2l-2-1v1Zm-125 125-7 3c-7 3-19 11-24 16-10 11-15 29-15 51 0 17 5 27 22 44 10 11 14 14 21 17l10 4c4 0 17-4 23-8 19-9 31-22 39-40 2-7 3-8 2-21 0-17-1-24-5-33-8-14-22-26-37-31-8-2-28-4-29-2Zm19 13a102 102 0 0 0 12 24l-5-1c-4-2-6-3-12-3-13 0-19 3-24 12l-4 5-1-5-1-9c-1-4 0-7 5-8h8c7 4 8 3 12-14 3-11 3-11 5-11l5 10Zm5 34c6 4 8 8 8 16 0 10-2 14-13 19l-5 3-6-3c-10-5-13-9-13-19 0-7 1-11 6-15 6-6 16-6 23-1Zm-37 16v9l-11 1-13-1c-1-2-2-11-1-13l11-2 10-2c2-2 3-1 4 8Zm71-8c4 2 5 5 5 9-1 4-4 7-11 8-7 0-10-1-11-6v-11c1-2 13-1 17 0Zm-55 34 5 4c0 4-11 18-14 18l-2-3c-2-2-2-2 1-11l3-11c0-2 0-2 7 3Zm-542-84c-7 1-18 7-24 12-14 10-21 30-20 58 1 20 4 27 17 40 6 7 17 14 25 17 7 3 20 4 27 2 22-5 42-26 48-51 4-14 2-32-5-45-4-8-11-17-17-21-9-7-31-16-34-14l2 5 3 12c2 8 5 14 8 19 2 3 2 3-1 1-4-3-7-4-15-5l-8-2 2-5 3-11v-10c-2-4-3-5-11-2Zm0 25c3 2 3 3-2 7l-5 6-2 3c-1 1-1 1-1-1l-2-5c-3-4-2-7 2-9s6-2 10-1Zm25 21c8 5 11 13 9 20-1 4-8 11-13 13-5 3-11 3-16-1-6-5-9-10-9-18 0-10 5-17 13-18 6-1 12 0 16 4Zm-37 14-1 10c0 1-14-2-18-4-5-2-6-3-6-9s3-8 19-8l7 1Zm76-7 1 6c1 4 0 5-3 6-3 2-5 2-11 3-7 0-7-1-8-3l-1-7c1-4 1-5 5-6 8-1 15-1 17 1Zm-39 40-1 10-4 12c-2 5-3 6-5 6-5 0-7-5-8-16l-2-11-1-2h7l10-1c4-2 5-1 4 2ZM136 337c-20 9-31 20-40 37-4 8-4 8-4 24s0 16 4 24c10 21 22 33 39 38 10 3 16 3 27-1 10-3 16-6 24-11 7-6 12-13 16-24 4-12 5-18 4-34s-3-22-12-33c-12-14-22-20-37-21-6 0-11-3-21 1Zm29 17c9 7 10 9 12 14 1 2 1 3-1 6l-1 4v1l-9-5c-11-8-17-10-23-8-9 2-14 6-19 16-1 1-1 0-1-7 0-12 2-15 8-17 6-3 10-2 14 2l3 2 4-7 5-8 8 7Zm-9 24c10 5 14 10 14 18 0 6-1 9-5 14s-8 7-16 7c-7 1-7 0-10-3-6-7-9-17-6-25 2-5 11-13 16-13l7 2Zm-37 10 3 11a68 68 0 0 0 7 18c0 1-6 3-10 3s-5 1-5 6l-1 2c-2 0-4-4-4-8l-3-12c-5-12-4-15 5-19 5-2 7-2 8-1Zm74 2c6 2 6 2 6 7-1 6-1 7-3 9-3 2-4 2-9 2-8-1-10-4-10-14v-7h5l11 3Zm-31 36c1 1-2 17-3 22-2 3-5 7-7 7l-1-13-1-15c-1-2 0-2 5-2l7 1Zm508-88c-6 1-16 6-21 10l-23 24-6 9a57 57 0 0 0 16 63c10 10 11 11 23 17 15 7 23 9 31 7l12-4-7 1-14 1c-7-1-9-1-17-5-10-5-19-12-22-15s-2-3 2 0 5 1 1-2l-10-12c-3-5-2-5 1 0 5 7 10 12 20 16 16 8 15 9 15-9s0-18 7-16c4 2 4 2 4 11v15c0 6 1 7 10 4 9-2 14-5 22-11 15-12 20-20 23-38 3-12 2-18-2-29-7-17-19-28-35-35l-9-3h-8c-2-1-6-1-13 1Zm37 20 7 6c1 2 1 3-1 8l-2 11v5l-2-5c-3-4-13-12-20-16-6-2-6-2-4-4l15-8 7 3Zm-42 1 12 5 6 1-5 1c-8 2-16 7-20 12l-4 5v-3l-3-12c-2-6-2-8-1-9 2-3 8-2 15 0Zm25 20c4 2 9 7 12 12 3 7-1 19-9 24-9 6-25 3-29-7-2-4-3-14-2-18s6-9 11-11 12-2 17 0Zm-36 22v12l-18 8c-2 2-2 2-3 0-4-3-7-17-5-19 0-2 2-2 6-2l12-3 6-2 2 6Zm67 0c4 4 6 13 4 17s-14 3-17-1c-2-2-1-11 1-15l3-4c2-1 6 1 9 3Zm-44 55h6l-5-1c-4 0-4 0-1 1Zm169-42c-2 3-3 10-2 12 0 2 5 5 9 5 3 0 6 3 6 7 0 3 2 5 11 11 10 6 10 5 1-1l-9-7v-21c-1-3-6-6-11-8-3-1-3-1-5 2Zm45 17c0 1 1 2 3 2l2 2c-1 2 0 3 2 2 2-2 1-3-3-5l-4-1Zm4 10 1 2v-2c0-3-1-2-1 0Zm-12 14 3 1-1-1-2-1v1Zm109 26c7 2 16 4 16 2l-19-4c-2 0 0 1 3 2Zm-355 39c0 7 1 8 9 8 4 0 5 0 7-2 3-5-1-10-10-11h-6Zm-31 4c-10 3-13 6-13 13 0 4 4 8 10 9 8 2 15 0 20-6 5-5 4-13-1-16-4-2-7-2-16 0Zm5 16h-2v-1c2-1 2 0 2 1Zm875-14c-3 2-5 7-4 9 0 1 2 3 5 4 3 2 5 2 11 2 8-1 12-3 12-7 0-3-3-7-8-9-3-2-13-1-16 1Zm-623 14c-3 3-4 8-1 12 1 2 2 2 5 2 8-1 10-2 10-6l-1-7c-2-4-2-4-6-4-3 0-5 1-7 3Zm-191 10c-2 2-3 3-3 5s1 3 5 6c5 3 6 2 9-2s3-7 1-9c-3-3-9-3-12 0Z"/><path fill="#faf5db" fill-rule="evenodd" d="M340 83c-5 1-8 9-7 14 2 6 45 27 52 26 5-1 12-6 10-10-10-20-53-31-55-30ZM613 76c-4 0-5 0-6 2v8s18 12 28 15c11 3 13 0 13 0s2-9-11-16-20-9-24-9ZM636 57c-3 1-7 5-2 9s20 18 28 18c4 0 12 1 11-3-1-7-32-26-37-24ZM1673 95l1 21s-15 5-23 4c-3 0-6-2-7-4-2-3-2-8-1-11s5-5 8-6c6-3 22-4 22-4Z"/><path stroke="#000" stroke-width="2" d="m436 4-10 1-22 2a2235 2235 0 0 1-66 5 325 325 0 0 0-53 7l-13 4a161 161 0 0 0-43 17l-6 2-7 1-5 1-6 4-13 8a619 619 0 0 1-55 30 2467 2467 0 0 0-80 57c-9 8-10 10-16 21l-10 18c-1 3-4 9-4 13l-6 20-1 21c-1 17-1 17-5 22-5 6-7 12-7 25-1 10 0 43 2 55 1 10 4 22 7 25l3 7c2 6 7 15 11 21 7 10 12 14 23 17l8 3 2 6c2 11 3 14 9 26 9 18 16 26 31 38l8 7-52 1-54 1c-3 1-3 2-3 6s0 5 4 6l230 1a26183 26183 0 0 1 458-1h12l-7 7c-11 12-14 20-8 26 4 4 6 4 28 4h30c7 1 10 1 15-1 9-2 10-3 10-10s-1-9-7-18l-4-7 19-1c19 1 19 1 18 3l-2 6c-6 6-6 15-1 16a1155 1155 0 0 0 97 3c6 0 6 0 6-3l-1-10c-3-11-3-11 2-11l12 3-2 4c-4 4-5 8-3 10l13 2c9 1 11 1 12 3 2 3 3 7 1 8l-33-3c-1-1-9 1-12 2-1 1-1 3 1 9l4 4h100c2 0 3-2 4-3l1-10h-39c-15 0-15-1-16-3 0-3 3-6 15-13s15-7 23-3l8 6c4 3 5 3 20 5l20 3c4 1 10 6 13 11 2 2 2 2 5 0l4-5 2-7c1-4 1-5 6-7 6-3 11-3 17 1 6 2 13 9 12 11l-10 3c-26 4-24 3-24 7l1 5h84c51-1 56-2 57-4 1-3 0-9-1-14-1-4-3-6-13-15-12-12-14-16-7-15 14 3 24 3 26 2 4-2 60-1 60 2l-8 7-12 11c-4 4-11 16-11 18l4 2 7 2c4 2 20 6 29 6a65 65 0 0 1 21 5l12 3a1073 1073 0 0 0 136 4h11l2-4 2-6 3-5c3-4 4-8 3-13-1-6-8-10-18-13-5-1-26-4-52-5l-27-3-23-11a1068 1068 0 0 1 134 0l161-1c385 1 408 1 409-1l4-4v-6c-1-2-3-2-55-2a25577 25577 0 0 0-92-2l9-5c6-3 11-6 16-12 13-12 25-32 29-46 3-14 4-15 7-15 7 0 26-8 32-13 9-9 19-27 24-47l2-8 3-48c0-28 0-28-3-35-2-6-2-8-3-26-1-24-2-32-8-42l-10-21c0-7-12-24-20-28-11-5-14-6-44-5h-28l-6-6a686 686 0 0 0-79-56c-14-11-56-33-81-43a313 313 0 0 0-101-21 896 896 0 0 0-85-5 699 699 0 0 0-170 9l-17 2a306 306 0 0 0-51 8l-7 1-3 1-4 1-8 2a413 413 0 0 1-28 6l-13 4a151 151 0 0 0-24 9c-37 15-60 28-80 44l-15 12c-6 3-13 9-17 13-10 8-17 12-33 19a237 237 0 0 0-25 11l2-8c2-7 1-19-1-25l-6-12c-6-8-11-12-20-13l-24-4-13-2a1040 1040 0 0 1-70-13l-15-3a479 479 0 0 0-41-6c-24-3-53-6-64-6-16 0-21-1-38-10a349 349 0 0 0-84-28l-30-5-67-7c-17-2-155-2-155-1Zm158 16 19 2 45 6c15 1 42 6 59 11 14 4 31 10 31 12l-3 1c-6 2-11 4-22 14l-25 21a704 704 0 0 0-78 68c-5 4-5 4-7 1a722 722 0 0 0-96-99c0-1 13-3 29-4l34-3a585 585 0 0 1 58-3l21-2a760 760 0 0 0-155-1c-5 1-5 1-16-4l-32-12c-9-2-30-5-31-4l-4-2 9-2h164Zm931 3-23 12-13 7h-37c-29 1-41 1-55 3l-18 2-1 1 64 3 33 1-4 5a466 466 0 0 0-95 107l-2 3-11-6c-18-10-104-53-118-58l-25-10c-11-5-11-5-18-4-10 3-16 4-22 7l-11 6-12 5-4 3 9-10c10-9 10-9 33-21 35-18 61-28 94-34l12-3 9-2a2149 2149 0 0 0 72-12l13-2 35-2c36-3 68-5 86-5h18ZM417 23c1 1 1 1-1 1l-3-1h4Zm1238 2 22 4a347 347 0 0 1 125 49l30 19 29 21 42 33 14 1 31-1c21 0 21 0 30 7 4 3 10 13 9 15l-4 1c-13 1-30 7-35 13-7 8-6 22 4 36 8 11 23 24 32 28l12 3 10 2a223 223 0 0 1-6 100c0 11-15 32-26 35-5 2-11 1-11 0l5-29-1-8-4-18c-3-19-12-33-29-50a79 79 0 0 0-60-23c-13 0-15 0-24 3-24 8-42 22-59 47a133 133 0 0 0-19 44l-23 2-38 3c-23 2-22 2-16-6 9-15 12-24 17-46 2-10 3-13 3-47a298 298 0 0 0-8-78l-3-8-3-7 6-1 35-3 57-6c22-2 26-3 33-10 10-10 10-17-4-31a300 300 0 0 0-280-67 194 194 0 0 0-70 46 449 449 0 0 0-34 41c-14 17-17 22-20 37-2 8-2 15-1 20l1 13c2 32 3 35 5 43 2 6 2 7 0 6l-7-3-11-7c-5-5-9-6-15-4-3 1-7 5-7 6 0 4 13 13 30 21l25 15c27 16 33 19 41 21s8 1-6 12a298 298 0 0 0-32 25l-13 11-8 6-1-7c-3-20-14-39-33-58a71 71 0 0 0-40-23c-9-2-11-2-24-2-18 1-25 3-36 10l-10 5-4-2c-6-6-15-8-45-12l-16-2 8-6 16-11c8-7 17-12 31-16 13-4 17-8 17-13l1-4-8-1-26 2a676 676 0 0 1-75 8l-6 2c-1 1-3 1-3-1 1-3 0-3-3-1l-6 2c-3 0-3 0-2-2 2-2 8-4 12-4l3-2 6-4c7-3 28-8 42-9l22-3a2071 2071 0 0 1 133-14l4-9a448 448 0 0 1 102-123c24-18 49-30 74-35 19-4 74-5 96-1ZM408 26c13 3 14 3 12 1l3 1c3 2 13 6 24 9 28 9 42 16 61 31a689 689 0 0 1 104 112c7 13 6 13 22 13a769 769 0 0 1 206 46c4 4 4 7 0 10-2 3-3 3-14 3-9 1-13 1-16 3-12 5-16 11-16 21 1 10 7 20 20 29 5 4 5 5 2 6l-8 4c-7 4-21 7-32 7-12 0-18-3-32-17l-16-13a125 125 0 0 0-44-10c-14-1-16-1-24 1-18 5-30 12-45 27-13 14-19 24-28 47l-3 13c-1 15 0 14-8 14h-6l-1-12-1-14a1010 1010 0 0 1 10-161c2-14 2-18-1-23l-7-11c-3-6-4-8-9-11-4-2-8-6-13-13-23-29-60-60-89-74a272 272 0 0 0-222 6c-16 8-24 12-39 23l-22 13c-18 12-24 20-24 30 0 7 0 8 11 17 9 6 15 9 36 13a766 766 0 0 0 99 13 469 469 0 0 0-10 124c2 13 7 31 11 41l9 16 5 8a624 624 0 0 1-68-6l-4-12c-2-12-4-16-15-31a87 87 0 0 0-61-43c-10-2-30-2-39 0-22 4-48 26-60 50-8 15-9 22-9 44l-1 21c-1 1-1 1-4-1-10-6-15-15-25-50-4-12-5-37-4-57 2-21 2-22 17-26 16-5 24-11 32-27 4-9 4-9 4-20 1-10 0-12-2-16-4-7-8-12-13-15-9-5-9-6-4-16 4-8 12-15 31-28a932 932 0 0 1 164-91 388 388 0 0 1 156-19Zm1241 28c4 1 4 1 9 16a298 298 0 0 0 9 25h3c2-1 3 0 4 12 0 8 0 9-2 9v1l1 5 2 10 5 25-15 1-33 3-34 2-50 6c-2 0-2 0-1-7 2-15 0-20-8-28s-10-8-27-8c-18 0-42 4-47 7l-1-1a393 393 0 0 1 66-59c19-11 44-16 78-19h41ZM387 60c28 3 44 7 70 19a293 293 0 0 1 73 61l-20 1c-22 0-24 0-32 6-7 6-10 11-11 22 0 9 0 9-3 9a2815 2815 0 0 1-129-9c-17-1-16-1-15-11a429 429 0 0 1 20-93l1-2 3-3h43Zm1303 2c30 4 68 23 109 52 23 16 24 17 26 20 3 6-2 10-15 11a853 853 0 0 0-63 6 4498 4498 0 0 0-43 4h-7l-1-8a1467 1467 0 0 1-10-65l-2-10-3-9c0-3 0-3 3-3l6 2ZM316 63l-2 10a2064 2064 0 0 1-15 92l-13-1-47-6c-50-6-58-8-68-16-5-5-5-7 2-14 17-17 32-26 60-40a234 234 0 0 1 70-24l10-3c3 0 3 0 3 2Zm464 4c76 5 87 6 189 24l58 11c12 2 15 3 19 8s6 11 4 17c-2 8-5 12-14 21-10 10-21 18-32 23l-11 5-12 5c-11 4-30 13-39 19-13 7-16 12-20 26-1 6-1 6-3 5l-10-5c-9-3-16-7-17-10-1-1 0-5 2-13 5-13 5-13-1-33-6-17-11-29-18-39-11-14-21-24-26-27l-5-5-3-3 3 11c3 7 5 12 13 23 16 24 25 46 26 62 0 7 0 9-2 12-2 4-5 4-12 0-11-7-32-21-36-26l-26-37a383 383 0 0 0-58-68c0 2-15 15-35 29a270 270 0 0 0-40 34 969 969 0 0 0-42 38c-2 0-6-3-6-4 0-2 22-24 35-35l27-23a471 471 0 0 1 60-45h32Zm434 40a646 646 0 0 1 54 23c30 12 79 38 90 47 3 3 4 5 0 5-2 0-17-6-37-16a560 560 0 0 0-107-41l-7-5c-3-4-4-5-4-3l-11 12c-10 11-31 39-47 62a87 87 0 0 1-31 30l-19 11c-8 5-10 6-10 4l-1-10c-1-8-2-8-3-6v22l-20 20-42 18c-11 4-14 4-25 5-20 2-26 1-32-3-9-7-13-13-21-34-6-15-5-22 5-31 7-6 37-21 92-44a1130 1130 0 0 0 63-29l31-13a289 289 0 0 0 43-17l15-6 13-4 11 3Zm308 34 6 5c7 10 0 28-12 31l-14 2-18 2h-10l-5 1h-12l-10 1c-2-1-3-6-2-14 2-12 5-15 22-21a186 186 0 0 1 55-7ZM522 158c15 2 24 5 31 11 5 5 6 8 6 16 0 6 0 7-2 8l-19-1c-49-3-56-6-55-22 1-6 1-7 3-10 6-5 10-6 36-2Zm1164 14c4 5 9 27 11 48 2 18 2 70 0 81-3 23-9 38-21 54-6 9-8 10-26 10a1027 1027 0 0 0-82 6 2716 2716 0 0 0-96 7l-34 2c-11 0-13-1-6-4l11-8 6-4 1-1 1-1 1-1v-1l3-2 2-1 2-2 24-19 17-14c5-4 10-12 12-18v-8c-3-3-8-6-16-8-21-4-42-13-51-21-5-4-5-5-5-8l2-6 1-17c0-13 0-16-2-22l-2-10-1-5h13l52-5c19-3 26-5 31-8l11-3 13-1 47-4a1795 1795 0 0 0 81-6ZM369 186a8799 8799 0 0 1 105 7l7 5c8 4 16 6 44 8 12 0 31 2 33 3a1269 1269 0 0 0-5 162l1 12h-14a4876 4876 0 0 1-177-11l-22-1-8-7c-17-18-27-41-29-69-3-31 3-89 10-109 1-4 2-4 5-4l50 4Zm1624 4c1 1 3 2 3 4 2 4 5 28 5 37v8h-4c-8-1-24-13-30-22-5-7-7-14-7-18 1-2 1-3 6-4l23-6 4 1ZM54 195c5 5 6 10 6 19-1 8-4 15-9 20-4 5-12 10-16 10-2 0-2 0-2-4a139 139 0 0 1 7-36l3-8c4-6 6-6 11-1Zm1162 49-14 16c-6 6-18 15-25 19l-13 4c-10 2-21 6-29 9-12 5-35 10-44 10-8 0-19-7-19-12 0-7 13-22 22-27 6-3 48-13 65-16a290 290 0 0 1 57-3Zm-321 14c10 4 16 12 16 19 0 5-4 11-12 17-8 7-14 9-22 10-9 0-14-1-20-7-5-5-7-9-7-16 0-10 6-18 17-23 5-3 7-3 14-3s10 1 14 3Zm-59 18v14c0 7 0 7-3 6-8-1-16-7-19-14-4-6-4-8-1-11 3-2 5-3 15-3l8 1Zm321 23 6 5c4 3 5 3 9 3a1079 1079 0 0 1 77-1c1 3-1 7-5 8l-3 4c-2 8-7 11-26 18l-14 5-21 20c-4 3-7 10-10 21-3 9-6 14-7 15l-7 1c-5 0-6 0-7-2l3-27c0-3 0-4-2-7-3-3-10-7-15-8-6-1-21 4-41 14-18 9-33 22-38 32-3 6-2 15 2 29 6 17 6 17-2 19-4 1-7 2-8 4l-3 2c-1-1-7-12-12-26l-6-10c-1-2-6-2-12-1-9 2-10 2-10 0l-2-13-3-13c-2-2-10-3-23-1l-14 1 3-3c2-2 11-5 32-11 21-5 28-9 52-26 16-12 53-32 68-37 10-4 33-13 34-15h5Zm-216 3c4 3 7 8 7 12 0 7-5 15-12 19-4 2-5 2-11 2-5 0-9-1-13-3-6-3-14-9-14-12-2-6 8-17 19-20l12-1c7 1 9 1 12 3Zm-772 5c7 1 19 7 17 8l-3-1c-3-2-2 1 1 4l3 3-6-3c-9-5-22-7-36-7-9 1-11 0-10-1 0-4 23-6 34-3Zm1105 17-10 14c-4 6-5 8-4 9l2 1v2c-1 2-1 2-2 1 0-1-1-1-2 1v2l-5 15a95 95 0 0 0-4 46c-1 1-36 3-37 2v-9c0-3 0-3 1-1l4-9c3-12 7-20 19-39 6-11 29-36 37-41 6-4 7-2 1 6Zm-421-5c8 1 9 3 5 7-5 3-9 10-11 17l-3 9-2 4c-2 2-2 2-5 0l-5-6-8-10-5-8 3-6 5-7c2-3 2-3 11-2l15 2Zm201-2 3 3c0 3-7 9-21 17l-14 9c-12 10-16 12-19 11-2-1-2-1 2-5 6-8 8-10 10-16 1-4 2-6 4-7a231 231 0 0 1 33-13l2 1Zm763 2-1 1-3 6c-5 6-7 10-2 4l3-2 1-1c-1-2-1-2 1-1l2-1-1-1v-1l2-2v1c-2 1 0 2 2 1l-6 7-11 14c-3 4-4 6-4 4l1-2 1-6 4-9 12-14-1 2Zm65 1c14 3 21 7 33 17 13 10 17 15 21 28 3 8 6 22 7 30 1 15-4 33-14 48-9 14-18 23-34 30-20 10-34 9-52 0-15-8-26-19-35-38-6-12-8-20-8-34 0-10 0-13 2-22 6-21 12-33 24-44 11-11 23-16 40-16l16 1Zm-903 1c2 2 1 4-3 10l-7 10c-3 5-6 6-9 4-4-3-4-7 2-14 8-10 13-13 17-10Zm358 1c11 2 24 5 30 9 6 3 20 16 24 22 8 11 14 27 15 41 1 13-4 36-11 51-10 20-30 34-55 36-10 1-15 0-19-3-6-6-13-8-21-9-7 0-8 0-12-4-5-5-13-18-18-27-5-10-6-17-6-39 1-18 1-20 3-28a66 66 0 0 1 34-42c15-8 20-9 36-7Zm-1172 3c12 3 24 9 36 23 8 9 17 26 19 39v22c-2 13-5 20-10 32-8 15-25 31-41 36-5 2-9 3-16 2-10 0-10 0-33-9-11-4-25-18-31-30s-9-22-10-36v-21c3-13 8-21 19-33 15-16 28-24 42-27 7-1 18 0 25 2Zm529 0c10 1 18 6 28 13 19 15 25 28 27 53 0 9 0 12-2 21a98 98 0 0 1-57 65c-8 3-21 2-31-1-13-5-24-10-29-15-11-11-23-36-25-54-2-17 4-33 19-51 9-11 17-18 25-23 16-9 31-12 45-8Zm182 6 12 7 28 16c7 3 7 3 6 7s-2 4-4 4c-3 0-5 1-7 3-6 4-7 7-6 10 0 3 0 3 7 3h7l-1 2h-24c-2-2 0-4 5-7 4-3 4-3 4-11 0-7-1-7-3-9-4-3-6-1-6 5-1 7-3 10-6 11-3 0-20-3-27-6-6-3-6-4-1-17l6-13c1-5 2-7 4-7l6 2Zm124 7-12 14c-4 4-12 8-14 8s-3-1-3-5c-1-3-1-3 2-6 4-4 14-10 19-11h8Zm-186 23 16 11 48 32 56 31a1319 1319 0 0 1 66 33c20 8 24 11 23 17l-3 6c-2 2-3 3-7 2l-16-1-15-2-25 8a814 814 0 0 0-38-11 486 486 0 0 1-62-28c-16-6-31-14-38-18-6-5-31-31-33-36-3-6-2-12 3-24l5-17c0-4 2-8 3-10s1-3 17 7Zm146 4-2 4-3 8v1l-2 4c0 2-4 6-5 5-1 0 0-9 2-17v-6h5l5 1Zm-32 5c3 1 2 4 0 4s-3 0-3-2c0-3 1-3 3-2Zm205 3c0 3-1 10-4 13-3 5-16 13-29 20a551 551 0 0 0-26 14v-11c3-9 17-21 41-33 14-7 17-7 18-3Zm635 2a1655 1655 0 0 0-6 33l-3 5h-15a1356 1356 0 0 0-112 5 9398 9398 0 0 0-199 11c-12 0-12 0-9-9l2-12c0-8 1-9 3-10 5-2 31-4 68-6l34-2a1021 1021 0 0 1 85-6 1850 1850 0 0 0 97-7 829 829 0 0 0 55-2ZM307 385a4261 4261 0 0 0 267 13h10l1 6a291 291 0 0 0 3 25l1 4h-8a2355 2355 0 0 0-104-5 9399 9399 0 0 0-218-9c-2-3-11-34-11-37 0-2 18-1 59 3Zm683 27 2 16v7h-11l-13-1-15-9-13-8 45-15c3 0 3 0 5 10Zm175-1c1 2-1 3-3 2l-3 2-4 1-7 3h-3l-2 1-2 2c0-2-10 4-14 7l-3 5 5 6c4 3 5 5 7 9 2 10 2 12-8 12-7 0-7 0-21 6l-18 8a402 402 0 0 0-47 18l1-8c1-7 1-7-1-14l-3-8 4-2 13-7 11-6 13-5 36-20c8-5 20-10 26-11 16-3 22-3 23-1Zm571 19 5 9c3 11 6 17 13 26 6 8 10 12 19 18l8 5-105 1h-104l9-7c16-11 21-18 30-35l6-11 15-1a1589 1589 0 0 0 96-6c7-1 7-1 8 1Zm-1378 8 31 2c20 0 18 0 24 12s14 21 26 29c4 3 8 6 10 6 1 2-7 2-72 2-79 0-142-1-142-2l7-4c16-8 28-20 36-36l5-10h28l47 1Zm1070 18c4 9 8 15 18 24l8 8-35 1a858 858 0 0 0-46-1l9-7c13-9 17-13 24-23l7-9 7-1c5 1 5 1 8 8Zm-822 3a192 192 0 0 0 35 29 805 805 0 0 1-70-1l8-6c9-5 20-16 23-21 1-3 3-4 4-1Zm580 8 15 13c6 3 9 6 8 6l-12 2c-9 1-13 2-20 5-8 3-9 3-11 2l-7-4c-7-4-15-5-26-3l-13 2c-5 0-5 0-5-2 1-3 8-8 18-11a250 250 0 0 0 43-20l10 10Zm-329 19c7 4 16 14 20 21l3 7-9 1a491 491 0 0 0-53-2l13-17c5-6 15-13 18-13l8 3Zm451 3c8 8 18 18 27 24 19 14 21 15 59 18l44 5c4 0 4 2 0 5-3 2-7 2-13 3l-12 1a454 454 0 0 1-144-10c-15-1-15 0 0-14a275 275 0 0 0 34-37l5 5Zm-93-3-1 1-1-1v-1l2 1Zm-471 22c13 11 16 15 15 16l-52-1c-2 0 1-5 8-10l11-11c2-4 5-6 5-5l13 11Zm403-5 12 10a614 614 0 0 0 21 21c1 1-4 1-31 1-37 0-39 0-39-3s4-8 10-12l9-7c5-5 13-11 15-11l3 1Zm777-263c-2 2-6 8-6 10l7 3c2-1 5-7 5-9s-3-5-4-5l-2 1ZM88 150v1l2-1c2-2 1-2-2 0Zm20 40c-7 1-18 10-20 16-2 5-1 17 1 22 6 13 11 16 22 14 9-1 14-5 18-13 3-6 4-9 4-15 0-9-1-11-7-17-3-4-10-8-12-8l-6 1Zm7 16c2 1 3 6 3 10 0 5-4 10-9 11-4 0-6-1-9-9-1-4-1-4 1-7 3-4 11-7 14-5Zm478 40-4 4c-1 2-1 2 1 1l3-2 6-2c4 0 4 0 2 2l-7 5c-6 3-6 3-6 7 2 8 10 11 19 7 7-3 9-6 9-12 0-5-3-8-10-9-7-2-10-2-13-1Zm302-121-1 1v2c1 1 1 1-1 1-2-1-2-1-1 1 2 3 25 19 25 17l-2-3c-3-2-3-2-1-3l2-2v-1c2 0-2-5-6-8s-13-7-15-7v2Zm52 32v3c1 2 0 2-3 2h-3l8 6c4 3 6 4 9 4h3c0-4-9-17-12-17l-2 2Zm186-24-5 8-4 6 4-3c5-5 9-12 6-12l-1 1Zm-65 71c-8 3-24 11-27 14-2 2-2 2-1 5 2 4 7 7 12 7 13-3 28-18 26-26-1-2-4-2-10 0Zm-78 22c-2 3-3 7-1 10 1 2 9 4 13 3 3 0 4-1 4-4 0-2-1-4-4-7-4-5-8-5-12-2Zm-24 44c-3 0-4 1-5 2 0 1 4 4 7 4l9-1c6-1 8-2 8-3l-1-1-8-1h-10Zm697-60-10 2-10 1c-14 0-19 3-19 10 0 3 1 4 3 6 4 2 6 2 32 0 16-2 19-3 21-5 3-2 2-9-4-13-2-2-3-2-13-1Zm-180 47c-2 3-4 9-2 10 2 2 5 1 7-1 2-1 2-2 1-5-2-5-3-7-6-4Zm62 47c-5 3-10 14-7 18 4 4 15 6 19 2 3-4 5-8 5-12s-4-8-9-8h-8Zm-71 50c-5 1-8 3-11 6l-4 3-1 2 1 2 2 1c1 2 2 2 4 1l13-3c21-2 22-2 25-5 5-5 1-7-14-7h-15ZM330 225c-3 4-4 9-1 11 3 3 6 4 26 6 23 2 27 1 30-4v-6c-2-5-6-6-21-7l-22-2c-10-1-9-1-12 2Zm1653-18h2l-2-1v1ZM136 310h2c1-1 0-1-1-1s-2 0-1 1Zm1668 29c-1 1-1 1 0 0l1-1-1 1Zm48-4c-20 8-30 18-36 36-4 11-5 35-2 45 3 11 7 17 20 30 10 11 14 14 21 17l10 4c4 0 17-4 23-8 19-9 31-22 39-40 2-7 3-8 2-21l-1-20c-3-15-13-29-26-37-11-7-20-9-32-10-10 0-11 0-18 4Zm25 10a102 102 0 0 0 12 24l-5-1c-5-3-6-3-15-3-8 1-9 1-14 4-3 2-5 4-7 8l-4 5-1-5-1-9c-1-4 0-7 5-8h8c7 4 8 3 12-14 3-11 3-11 5-11l5 10Zm5 34c6 4 8 8 8 16 0 10-2 14-13 19l-5 3-6-3c-10-5-13-9-13-19 0-7 1-11 6-15 6-6 16-6 23-1Zm-37 16v9l-11 1-13-1c-1-2-2-11-1-13l11-2 10-2c2-2 3-1 4 8Zm71-8c4 2 5 5 5 9-1 4-4 7-11 8-7 0-10-1-11-6v-11c1-2 13-1 17 0Zm-55 34 5 4c0 4-11 18-14 18l-2-3c-2-2-2-2 1-11l3-11c0-2 0-2 7 3Zm-542-84c-7 1-18 7-24 12-14 10-21 30-20 58 1 20 4 27 17 40 6 7 17 14 25 17 7 3 20 4 27 2 22-5 42-26 48-51 4-14 2-32-5-45-4-8-11-17-17-21-9-7-31-16-34-14l2 5 3 12c2 8 5 14 8 19 2 3 2 3-1 1-4-3-7-4-15-5l-8-2 2-5 3-11v-10c-2-4-3-5-11-2Zm0 25c3 2 3 3-2 7l-5 6-2 3c-1 1-1 1-1-1l-2-5c-3-4-2-7 2-9s6-2 10-1Zm25 21c8 5 11 13 9 20-1 4-8 11-13 13-5 3-11 3-16-1-6-5-9-10-9-18 0-10 5-17 13-18 6-1 12 0 16 4Zm-37 14-1 10c0 1-14-2-18-4-5-2-6-3-6-9s3-8 19-8l7 1Zm76-7 1 6c1 4 0 5-3 6-3 2-5 2-11 3-7 0-7-1-8-3l-1-7c1-4 1-5 5-6 8-1 15-1 17 1Zm-39 40-1 10-4 12c-2 5-3 6-5 6-5 0-7-5-8-16l-2-11-1-2h7l10-1c4-2 5-1 4 2ZM141 336c-22 8-36 20-45 38-4 8-4 8-4 24s0 16 4 24c10 21 22 33 39 38 10 3 16 3 27-1 10-3 16-6 24-11 7-6 12-13 16-24 4-12 5-18 4-34s-3-22-12-33c-12-14-22-21-38-22-6 0-10-1-15 1Zm24 18c9 7 10 9 12 14 1 2 1 3-1 6l-1 4v1l-9-5c-11-8-17-10-23-8-9 2-14 6-19 16-1 1-1 0-1-7 0-12 2-15 8-17 6-3 10-2 14 2l3 2 4-7 5-8 8 7Zm-9 24c10 5 14 10 14 18 0 6-1 9-5 14s-8 7-16 7c-7 1-7 0-10-3-6-7-9-17-6-25 2-5 11-13 16-13l7 2Zm-37 10 3 11a68 68 0 0 0 7 18c0 1-6 3-10 3s-5 1-5 6l-1 2c-2 0-4-4-4-8l-3-12c-5-12-4-15 5-19 5-2 7-2 8-1Zm74 2c5 2 6 2 6 6l-1 7c-2 4-6 6-13 5-6-1-8-4-8-14v-7h5l11 3Zm-31 36c1 1-2 17-3 22-2 3-5 7-7 7l-1-13-1-15c-1-2 0-2 5-2l7 1Zm508-88c-6 1-16 6-21 10l-23 24-6 9a57 57 0 0 0 16 63c10 10 11 11 23 17 15 7 23 9 31 7l12-4-7 1c-10 2-20 1-29-3l-25-16c-2-3-2-3 3 0 4 3 5 1 1-2l-10-12c-3-5-2-5 1 0 5 7 10 12 20 16 16 8 15 9 15-9s0-18 7-16c4 2 4 2 4 11v15c0 6 1 7 10 4 9-2 14-5 22-11 15-12 20-20 23-38 3-12 2-18-2-29-7-17-19-28-35-35l-9-3h-8c-2-1-6-1-13 1Zm37 20 7 6c1 2 1 3-1 8l-2 11v5l-2-5c-3-4-13-12-20-16-6-2-6-2-4-4l15-8 7 3Zm-42 1 12 5 6 1-5 1c-8 2-16 7-20 12l-4 5v-3l-3-12c-2-6-2-8-1-9 2-3 8-2 15 0Zm25 20c4 2 9 7 12 12 3 7-1 19-9 24-9 6-25 3-29-7-2-4-3-14-2-18s6-9 11-11 12-2 17 0Zm-36 22v12l-18 8c-2 2-2 2-3 0-4-3-7-17-5-19 0-2 2-2 6-2l12-3 6-2 2 6Zm67 0c4 4 6 13 4 17s-14 3-17-1c-2-2-1-11 1-15l3-4c2-1 6 1 9 3Zm-44 55h6l-5-1c-4 0-4 0-1 1Zm169-42c-2 3-3 10-2 12 0 2 5 5 9 5 3 0 6 3 6 7 0 3 2 5 11 11 10 6 10 5 1-1l-9-7v-21c-1-3-6-6-11-8-3-1-3-1-5 2Zm45 17c0 1 1 2 3 2l2 2c-1 2 0 3 2 2 2-2 1-3-3-5l-4-1Zm4 10 1 2v-2c0-3-1-2-1 0Zm-12 14 3 1-1-1-2-1v1Zm109 26c7 2 16 4 16 2l-19-4c-2 0 0 1 3 2Zm-355 39c0 7 1 8 9 8 4 0 5 0 7-2 3-5-1-10-10-11h-6Zm-31 4c-10 3-13 6-13 13 0 4 4 8 10 9 8 2 15 0 20-6 5-5 4-13-1-16-4-2-7-2-16 0Zm5 16h-2v-1c2-1 2 0 2 1Zm875-14c-3 2-5 7-4 9 0 1 2 3 5 4 3 2 5 2 11 2 8-1 12-3 12-7 0-3-3-7-8-9-3-2-13-1-16 1Zm-623 14c-3 3-4 8-1 12 1 2 2 2 5 2 8-1 10-2 10-6l-1-7c-2-4-2-4-6-4-3 0-5 1-7 3Zm-191 10c-2 2-3 3-3 5s1 3 5 6c5 3 6 2 9-2s3-7 1-9c-3-3-9-3-12 0Z"/></svg>