<?xml version="1.0" encoding="UTF-8"?>
<!-- Generated by Pixelmator Pro 3.6.5 -->
<svg width="60" height="60" viewBox="0 0 60 60" xmlns="http://www.w3.org/2000/svg">
    <path id="Path-copy" fill="#000000" stroke="none" d="M 43 58 L 17 58 C 15.9 58 15 57.099998 15 56 L 15 4 C 15 2.900002 15.9 2 17 2 L 43 2 C 44.099998 2 45 2.900002 45 4 L 45 56 C 45 57.099998 44.099998 58 43 58 Z M 43 60 C 45.200001 60 47 58.200001 47 56 L 47 4 C 47 1.800003 45.200001 0 43 0 L 17 0 C 14.8 0 13 1.800003 13 4 L 13 56 C 13 58.200001 14.8 60 17 60 L 43 60 Z"/>
    <path id="path1-copy" fill="#000000" stroke="none" d="M 13 52 L 47 52 L 47 6 L 13 6 L 13 52 Z M 15 8 L 45 8 L 45 50 L 15 50 L 15 8 Z"/>
    <path id="path2-copy" fill="#000000" stroke="none" d="M 29 5 L 34 5 C 34.599998 5 35 4.599998 35 4 C 35 3.400002 34.599998 3 34 3 L 29 3 C 28.4 3 28 3.400002 28 4 C 28 4.599998 28.4 5 29 5 Z"/>
    <path id="Circle" fill="none" stroke="#f7ba00" stroke-width="2" d="M 41.772442 27.72422 C 41.772442 21.249111 36.523327 16 30.04822 16 C 23.573112 16 18.323999 21.249111 18.323999 27.72422 C 18.323999 34.199329 23.573112 39.448441 30.04822 39.448441 C 36.523327 39.448441 41.772442 34.199329 41.772442 27.72422 Z"/>
    <path id="Line" fill="none" stroke="#f7ba00" stroke-width="2" d="M 25 28 L 29 33 M 29 33 L 36 23"/>
    <path id="path3-copy" fill="#000000" stroke="none" d="M 25 5 L 26 5 C 26.6 5 27 4.599998 27 4 C 27 3.400002 26.6 3 26 3 L 25 3 C 24.4 3 24 3.400002 24 4 C 24 4.599998 24.4 5 25 5 Z"/>
    <path id="path4-copy" fill="#000000" stroke="none" d="M 12 10 L 12 11 C 12 11.599998 12.4 12 13 12 C 13.6 12 14 11.599998 14 11 L 14 10 C 14 9.400002 13.6 9 13 9 C 12.4 9 12 9.400002 12 10 Z"/>
    <path id="path5-copy" fill="#000000" stroke="none" d="M 12 14 L 12 15 C 12 15.599998 12.4 16 13 16 C 13.6 16 14 15.599998 14 15 L 14 14 C 14 13.400002 13.6 13 13 13 C 12.4 13 12 13.400002 12 14 Z"/>
    <path id="path6-copy" fill="#000000" stroke="none" d="M 12 18 L 12 19 C 12 19.599998 12.4 20 13 20 C 13.6 20 14 19.599998 14 19 L 14 18 C 14 17.400002 13.6 17 13 17 C 12.4 17 12 17.400002 12 18 Z"/>
    <path id="path7-copy" fill="#000000" stroke="none" d="M 32 55 C 32 56.099998 31.1 57 30 57 C 28.9 57 28 56.099998 28 55 C 28 53.900002 28.9 53 30 53 C 31.1 53 32 53.900002 32 55 Z M 34 55 C 34 52.799999 32.200001 51 30 51 C 27.799999 51 26 52.799999 26 55 C 26 57.200001 27.799999 59 30 59 C 32.200001 59 34 57.200001 34 55 Z"/>
</svg>
