<svg xmlns="http://www.w3.org/2000/svg" width="1669" height="880"><path fill="#fdfcef" d="m289 5-9 3-3 2-1 1-3 1h-2l-2 1-1 1-3 1-2 1h-2l-2 1-2 1-2 1h-3l-5 2-5 2-4 1h-4l-3 1-3 1-3 1h-4l-10 3-3 1-5 1-9 1-10 1-5 2h-3l-6 2-6 2-14 13-1 4v18l1 4c2 3 11 12 13 12l4 1c2 2 2 2 2 22v22l5 10 1 2 1 2c1 0 2 5 2 18 0 16 0 15-6 15l-5 1-4 1-4 1h-4l-3 1-2 1-3 1-3 1-3 1-1 1-2 1-7 4-4 4-6 6-3 3a97 97 0 0 0-9 15l-1 1-1 2-1 1-3 5a309 309 0 0 0-12 21 442 442 0 0 1-26 47l-5 9 1 2v1l-2 2-2 4-1 2-1 2-2 4-2 2c-2 2-7 13-9 20v19l1 2 1 2 1 2 1 2c0 3 12 17 17 19l2 2 1 1h2l2 1 1 1 2 1 2 1h3l3 1c0 1 9 2 20 2l7 1-1 1 1 422v2l-32 1a2768 2768 0 0 0-70 3l-2 4c0 2 1 3 3 4l639 1h638l3 7c3 5 5 9 10 13l6 6 2 1h2l2 1 3 1 3 1 24 1h22l3-3 5-7c2-3 3-5 6-5l2-1h17l17 1 2 2 4 3 1 2h2c0 2 5 2 6 0h1c2 0 3-2 5-5l4-7c2-2 3-4 3-7v-4h196v-11h-10a767 767 0 0 1-65-1l-37-1 6-5 11-7 4-3 11-12 5-5 2-2 1-3 5-7 1-2 1-1c0-2 3-3 13-3a106 106 0 0 0 36-2l4-2 3-1 1-1 1-1 4-3 3-2V642a3747 3747 0 0 0-2-128 75 75 0 0 0-17-17l-10-7-3-1-1-1-3-1-3-2h-4l-2-1c0-1-4-2-10-2l-5-1-19-1c-16 0-18 0-20 2-3 1-7 2-8 0h-1l-4-3a79 79 0 0 1-12-17l-1-2-3-4-1-2-1-1-1-1-2-4-3-3-1-3-3-5-3-3-1-1-1-3-2-3-2-3-3-4v-1l-2-2-3-3-3-4-2-3-2-4-3-3-2-3-3-4-4-4-4-5-4-5-6-7-6-7a446 446 0 0 0-125-94l-2-1-2-1-2-1h-1l-10-4-2-1-6-2-3-1-3-1a97 97 0 0 0-17-5l-10-2-5-1-13-2-7-1-90-1c-88 0-174 3-177 3a331 331 0 0 1-52-37h-3l-3-2-4-1-2-1h-5l-4-1-45-1c-45 0-45 0-47-2l-3-4-2-4-2-4 5-6 6-7 2-2v-1l1-2 1-3 1-2v-14l-1-2-3-6v-1l-10-10-2-2-3-1-1-1c0-1-4-2-14-3-18-2-195 0-202 2-9 3-22 15-22 22l-1 2-1 6 1 7 1 3 1 4 3 5 6 6c4 5 5 6 4 9l-3 5-3 6c0 1-1 2-3 2h-3l-3 1-3 1-2 1-3 1-5 2a63 63 0 0 0-16 10l-4 3a321 321 0 0 0-38 39 216 216 0 0 0-21 22l-8 9a197 197 0 0 1-19 21l-8 9a185 185 0 0 0-17 19l-8 8a214 214 0 0 1-19 21c-4 5-3 5-16 5-12 0-12 0-12-2l4-8 1-5 5-4 2-1 1-1 11-11 4-4 1-2 2-2 6-10 2-2 1-3 1-1 3-4a87 87 0 0 1 6-11l1-1 5-8c0-2 8-8 9-8h1l2-2 9-9 2-3c2-1 6-11 6-13l1-2 1-9-1-10-1-3-1-1-1-2v-2l-1-1-1-2-2-2c-2-3-3-5-7-7l-5-5-3-2-2-1-4-4-10-8-8-8h-14c-2 0-8 5-8 7l-1 2c-1 1-2 1-4-1l-5-4-4-4-5-3-2-1-1-1-6-3c-1 0-7 3-8 5-2 1-3 0-7-3-2-2-4-5-6-5l-2-2-2-1c-3 0-6 3-6 6-1 2 0 3 6 9l8 8 12 10c9 10 9 10 9 13l-1 28 1 2 1 2 1 2v1l1 2 1 2 1 4c0 3-1 3-2 4-2 0-4-3-12-10l-12-13-12-12a205 205 0 0 1-18-20l-6-8-7-7c-4-4-4-4-2-5l2-2a53 53 0 0 0 23-26v-1l1-2 1-1 1-3 1-2v-5l1-5 1-7v-7h4c7-1 12-2 14-4l2-1 2-3 1-2 1-1 1-2 1-6-1-5-1-3-6-12-2-3-2-2-1-2c0-1 4-6 10-11 10-10 15-18 15-22l1-3 1-5-1-6-1-3c0-3-3-11-6-13l-2-3-4-4-6-5-5-3-1-1-2-2a285 285 0 0 1-16-7l-2-1h-14Zm172 778 5 6a81 81 0 0 0 7 10 116 116 0 0 0 43 33l-95 1a2124 2124 0 0 1-95-2l3-2 2-1 2-1 1-1 3-1 2-2 3-2c1-1 3-3 5-3l2-2 1-1a184 184 0 0 0 28-29l2-3a2171 2171 0 0 1 81 0Zm308 1 3 5 3 5 1 2 1 1 1 3 3 4a100 100 0 0 0 23 20l13 7 1 1-94 1-93-1 4-3 5-3 4-2 2-2 1-1 3-2 5-4a87 87 0 0 0 18-18l3-4 3-5 2-2 1-2h87Zm298 24v25h-62l-62-1 3-3 5-4 5-4a83 83 0 0 0 18-20l4-5 1-2 3-4 2-4 1-2 41-1h41Z"/><path fill="#fec89f" d="m289 5-9 3-3 2-1 1-3 1h-2l-2 1-1 1-3 1-2 1h-2l-2 1-2 1-2 1h-3l-5 2-5 2-11 2-3 1-3 1h-4l-10 3-3 1-5 1-9 1-10 1-5 2h-3l-6 2-6 2c-3 1-10 8-13 12-4 7-4 17-1 27 2 2 11 12 13 12l4 1c2 2 2 2 2 21l1 23 4 10 2 4c2 4 2 5 2 18 0 16 0 15-6 15l-5 1-4 1-4 1h-4l-3 1-2 1-3 1-3 1-3 1-1 1-2 1-7 4-4 4-6 6-3 3a145 145 0 0 0-15 25 323 323 0 0 0-12 20 442 442 0 0 1-15 28l-6 12-4 6c-6 7-7 11-5 12v1l-2 2-2 4-1 2-1 2-2 4-2 2c-2 2-7 13-9 20-4 11 2 28 13 39 5 6 9 8 12 9l1 1 2 1 1 1 2 1 2 1h3l3 1 21 2 6 1-1 1-1 2c-1 3 1 418 2 420v2l-32 1a2661 2661 0 0 0-70 3l-2 4c0 2 1 3 3 4l640 1h637l3 7c6 12 16 20 26 23h26l22 1 3-3 5-7c2-3 3-5 6-5l2-1h17l17 1 2 2 4 3 1 2h2c0 2 2 2 6 0 3-1 4-2 6-5l4-7c2-2 3-4 3-7v-4h196v-11h-29l-46-1-37-1 6-5 11-7 4-3 11-12 4-4 3-4 2-3 4-6 1-2 1-1c0-2 2-3 12-3a109 109 0 0 0 37-2l4-2 3-1 1-1 1-1 4-3 3-2V642a3747 3747 0 0 0-2-128 75 75 0 0 0-17-17 80 80 0 0 0-36-15l-5-1-19-1c-16 0-18 0-20 2-7 3-12 0-21-14a115 115 0 0 1-8-11l-1-3-1-1-1-1-2-4-3-3-1-3-3-5-3-3-1-1-1-3-2-3-2-3-3-4v-1l-2-2-3-3-3-4-2-3-2-4-3-3-2-3-3-4-4-4-4-5-4-5-6-7-6-7a454 454 0 0 0-112-88l-8-3-10-5-1-1h-1l-4-2-6-2-8-4h-3l-3-1a97 97 0 0 0-17-5l-10-2-5-1-13-2-7-1-90-1c-88 0-165 8-170 7a432 432 0 0 1-62-41l-3-2-4-1h-2c-2-2-11-2-54-3-45 0-45 0-47-2l-3-4-2-4-2-4 5-6 6-6 4-9 1-2v-14l-1-2-3-6v-1l-10-10-2-2-3-1-1-1c0-1-4-2-15-3-19-2-194 0-201 2-5 1-9 4-14 8-8 9-11 19-8 31 1 5 5 12 10 17 4 4 5 5 4 8l-3 5-3 6c0 1-1 2-3 2h-3l-3 1-3 1-2 1-3 1-5 2a63 63 0 0 0-16 10l-4 3a300 300 0 0 0-39 40 269 269 0 0 0-19 21l-8 9-11 11-9 10-8 9a167 167 0 0 0-17 19l-8 8a214 214 0 0 1-19 21c-4 5-3 5-16 5-12 0-12 0-12-2l4-8 1-5 5-4 2-1 1-1 11-11 4-4 1-2 2-2 6-10 2-2 1-3 1-1 3-4a87 87 0 0 1 6-11l1-1 5-8c0-2 8-8 9-8h1l2-2 9-9 2-3 6-13 1-2v-9c0-10-1-14-2-14l-1-2v-2l-1-1-1-2-2-2c-2-3-3-5-7-7l-5-5-3-2-2-1-4-4-10-8-8-8h-14c-2 0-8 5-8 7l-1 2c-1 1-2 1-4-1l-5-4-4-4-5-3-2-1-1-1-6-3c-1 0-7 3-8 5-2 1-3 0-7-3-2-2-4-5-6-5l-2-2-2-1c-3 0-6 3-6 6-1 2 0 3 6 9l9 8 11 10c9 9 9 9 9 13l-1 28 1 1 1 3 1 2v1l1 2 1 2c1 1 2 5 1 6-2 3-4 2-14-8l-12-13-12-13a181 181 0 0 1-18-19l-6-8-7-7c-4-4-4-4-2-5l2-2a53 53 0 0 0 23-26v-1l1-2 1-1 1-3 1-2v-5l1-5 1-7v-7h4c7-1 12-2 14-4l2-1 2-3 1-2 1-1 1-2 1-6-1-5-1-3-6-12-2-3-2-2-1-2c0-1 4-6 10-11 10-10 15-18 15-22l1-3 1-5-1-6-1-3c0-3-3-11-6-13l-2-3-4-4-6-5-5-3-1-1-2-2a285 285 0 0 1-14-6c0-2-16-3-18-2Zm15 33 7 5 2 2-3-1h-3l-5-1c-7-2-18 2-23 7-2 2-3 4-2 5 0 1-1 2-2 0V45c1-2 9-6 12-7 6-2 12-2 17 0ZM188 95l1 26c0 2 1 2 2 2h2l3-2 9-5h1a44 44 0 0 1-19 10c-2 1 0 16 1 17l1 2 1 1 2 4 2 4 1 22 1 21c1 5 0 4-3-2s-3-4-2-29v-16l-3-5c-7-12-7-10-7-31V94h3l4 1Zm594 49c5 2 10 8 12 12 2 3 2 6 1 6s-3-1-3-3l-8-8c-3-2-6-2-51-2h-47v32h-13v-3l-1-15v-13l-47-1c-46 0-46 0-49 2-6 4-8 8-8 13 0 4 0 4-1 2h-2l-1-1-1-2c-2 1-2 0-1-3 1-7 4-12 9-15l16-2a7999 7999 0 0 1 195 1Zm-219 26-1-3 1 3Zm11 9h-3v-1l3 1Zm180 17h4l-6 3-8 4c-3 0-3 0-3-3s1-4 2-4h11Zm-169 1c2 1 1 3-2 5l-5 1c-3 0-3 0-2-2 1-5 2-5 5-5l4 1Zm112 0c-2 3-11 9-12 8v-8l7-1c5 0 6 0 5 1Zm-302 20 16 13c6 5 12 12 12 16 1 4 0 3-6-1-2-3-8-6-12-9l-14-9a75 75 0 0 0-15-12c-2 0 1-5 4-7h4l11 9Zm490 4c19 1 33 7 49 21l14 16-4 2-33 15-10 5-5-7c-11-16-17-21-26-24-5-2-7-2-143-2l-142 1c-9 3-13 7-28 22-17 19-36 40-46 49l-7 7-12 1a78 78 0 0 0-17 2l-10 5-5 5c-6 5-9 10-12 16-2 5-3 7-3 12 0 13 7 26 18 31 4 3 4 3 31 3 32 0 33 0 41-7l5-4h235l-6 7c-8 8-13 16-26 35l-16 26c0-1 2 17-14 24-19 7-56 5-56 4a2101 2101 0 0 0-232 60l-3 2-1-67c0-68 0-70-4-79-4-8-13-15-21-18l-4-1c-1-1 13-18 52-59a3622 3622 0 0 0 80-84c12-11 19-15 32-18l145-1 158-1 26 1Zm-748 4c1 1-2 7-5 9l-5 6-5 5-3 4-6 10-8 10c-3 5-3 5-3 2 0-8 2-11 9-25 8-14 12-20 13-19l5-1c5-1 7-2 8-1Zm219 11-2 1c0-1 2-3 3-2l-1 1Zm1 14 1 5 3 8c4 8 5 11 2 6-5-7-7-14-8-21-1-5 0-4 2 2Zm-81 11c6 3 10 6 6 5h-3c-1 1-3 1-6-1-7-2-10-2-15 1a50 50 0 0 1-11 4c-1 1-1 1-1-1 0-3 2-5 9-8 9-4 13-4 21 0Zm948-1c35 3 64 12 94 27a353 353 0 0 1 94 68 486 486 0 0 1 91 117l12 17 3 4h29c27 0 28 0 36 2l13 4c6 3 17 10 17 12v1c1-1 3 1 5 3l3 5c-3-1-4 0-4 1 0 2-1 3-3 2-1-1-1-1 0 0l-5-4c-7-7-16-11-24-13h-157l-152-1-4-4-6-6-3-3h219l18-1a613 613 0 0 0-109-140c-18-17-22-19-39-31-34-23-59-34-91-41-33-7-65-5-100 8a326 326 0 0 0-66 37 480 480 0 0 0-122 166l19 1h20v14h-20c-59 0-248 71-274 106l-9 12c-1 1-2 0-4-4l-5-5c-2-2-1-4 5-12 3-4-32-35-33-32l-5 4-3 4-2 2c-2 0-2 0-1 1l-8 1c-9 0-15 1-20 4-3 2-3 2-2 0l3-2 3-1 7-2 5-3h2c3 0 3 0 1-1l-3-1h-2c-5-2-20-2-37 0-13 2-16 2-94 2a1254 1254 0 0 0-84 2l-2 2-4 6c-2 2-3 4-2 5l-7-4c-6-5-11-7-15-7l-3-1c0-2 10-11 17-15a385 385 0 0 1 105-45l13-3 16-3 27-5a1089 1089 0 0 1 250-18h131l1-4 6-12a476 476 0 0 1 138-180c1 0-47-15-73-15-49 0-58 1-58 2s-2 2-5 2a404 404 0 0 0-147 101 515 515 0 0 0-66 87l-3 5h-9l-10 1a272 272 0 0 1 43-69c28-35 62-68 91-90a252 252 0 0 1 110-55l8-2 8-2h7a6970 6970 0 0 1 225-1Zm-867 24v1l-2 4c-2 3-7 10-8 9l-4 3-4 4 8-11 6-10c1-1 4-2 4 0Zm-66 41v3l1 2h-2v12l1 1 6 2c2 0 3 0 2 1v1l6-8c2-6 3-6 9-2l4 2c-1 0-1 0 0 0l2 1-2 1-1 1v1l-2 1v1l-2 6v-3c-2 2-4 6-2 5l-1 2c-1 2-2 3-3 2-2 0-2 0-1 1v1l-1-2h-2v-1c2-2 0-2-1 0h-1v-1c-2 0-2 0-1-1h-2v-1h-2l1-1h1-4v-1c1-1 1-1-1-1-1 1-6 0-6-2 0 0 0-1 0 0l-14-7-1-1c-1 1 5-13 9-18l2-2 4 2 4 3Zm-216-2 3 2-3 6-4 8-3 4c-6 9-9 20-10 29l-2-4c-3-6-2-16 2-23l13-24 4 2Zm181 1c1 1 1 1 0 0l-2-1 2 1Zm-8 0c1 2 0 2-2 1l-1-1h3Zm11 6h-1v-1l1 1Zm32 2-1 1v-1c1-2 1-1 1 0Zm-57 3v2c1 1 0 2-1 1s0-3 1-3Zm4 1-1 1 1-1c0-2 1-1 0 0Zm19 1c1-1 4 0 7 5 3 4 4 6 9 8a2009 2009 0 0 1 39 19l4-3c2-3 2-3 5-2l4 4c2 2 2 2-2 10l-8 15-10 18a1566 1566 0 0 0-23 45c-2 2-2 2-11-3a3776 3776 0 0 0-59-28c-3-2-3-4-1-6 1-2 2-2 14-2 16 0 20-1 28-5 5-3 15-13 17-17 1-2 1-1 2 2 0 5 3 9 8 11 4 2 5 3 9 2 8 0 15-7 16-17 0-4 0-5-2-8-6-6-16-11-22-8l-5 6-3 4v-7c0-10-2-18-6-23s-11-11-16-13c-4-3-5-4-3-6l4-1h5Zm-16 16c11 3 19 12 19 19 0 2 0 1-2-1-3-4-5-5-11-8l-6-3h-57c-92 0-93 0-95-2s-2-6 0-7h74c73 0 73 0 78 2Zm51 33 3 7c0 2-1 5-4 7-4 2-10 0-10-4l3-9c1-1 6-2 8-1Zm-20 6v-2 2Zm-86 48 3 2h-21c-7 1-7 1-7-1l1-3h11c11 0 11 0 13 2Zm937 14 10 9c3 2 6 6 5 6l-39 1c-37 0-37 0-43 3-5 2-10 15-10 26l-1 16h-4c-4 0-7-3-11-9-3-5-3-9-1-20 3-18 10-28 25-33 4-2 8-2 34-2l30 1Zm116 39c6 2 12 5 18 10l4 4-11-1h-94l1-5 2-7c0-2 0-2 37-2l43 1Zm384 30c0 2 0 2-1 0l-1-2c1-1 1 0 2 2Zm2 2-1 1v-2l1 1Zm-5 6-2-2-3-4 5 6Zm-997 63-4 3 4-3 3-4-3 4Zm-220 2c8 3 15 9 18 17 2 3 1 3-4 0-4-3-10-5-18-5-6-1-9 0-12 1-10 2-17 9-19 17-1 5-1 8 2 13l2 3-2 1c-2 0-3-1-5-5s-2-5-2-13c0-7 0-9 2-12 3-6 10-13 16-16 4-2 6-2 12-2l10 1Zm257 0c8 2 15 8 18 15l1 3c-1 1-3 0-9-3-7-4-7-4-16-3l-13 1c-6 3-10 6-13 11-2 3-2 4-2 9a72 72 0 0 0 1 14l-2-3c-4-8-4-20-1-27 3-5 10-12 15-15 7-3 14-4 21-2Zm243 45a85 85 0 0 1 71 80c1 18-2 31-9 45-8 16-22 31-36 38l-7 3c-3 0-3 0-2 1 0 1-2 2-3 1h-1c1 1-2 2-3 2h-1c1 1-3 2-8 2l-2 1-3-1h-2l-2 1h-13l-2-1h-2l-3-1h-4c1-1 1-1-1-1h-3l-2-1c1 0 1 0 0 0l-9-3a94 94 0 0 1-47-53c-3-11-3-15-3-28 0-15 1-21 6-33 11-27 36-47 65-52h26Zm587 0c31 7 57 29 67 61 8 26 3 55-17 80-5 8-27 26-31 25-2 0-11 8-33 8-47 0-39-19-39-21l-1-5 3 1c6 4 16 8 20 8s5-1 8-3l3-3v-12c-1-14-1-16-5-18l-16-11-4-8-4-5a105 105 0 0 0-28 0c-6 2-7 8-5 16 2 6 7 14 12 20l4 5h-4l-6 4-3 3-1-3c-4-3-10-13-12-16a83 83 0 0 1-7-24c-2-3-2-16-2-25 2-19 10-36 24-51 9-10 27-21 42-25 9-2 25-2 35-1Zm-880 10c3 2 6 5 7 9 1 6 1 6-7 8l-14 4c-8 4-8 4-24 4h-67c-56 0-54 0-65 4-8 4-16 5-32 5-17 1-21 2-29 6-8 5-16 13-19 22l-3 4c-3 0-10-4-10-6s3-9 7-14c8-15 27-26 47-27 8-1 9-1 13-3l3-1c-2 3-1 3 6 3l12-2c5-1 12-5 13-7l4 2 7 3a1100 1100 0 0 0 133-1c5-2 10-6 13-11l2-3 3 1Zm73 16c7 0 9 0 11 4s2 4-1 8c-6 5-6 5-33 6-26 1-28 1-38 5-4 2-6 5-11 10a65 65 0 0 0-11 15l-5 1h-5v-3l3-8c1-5 9-18 12-22 4-4 20-12 26-12l3-1h32l6-3c2-1 3-2 4-1l7 1Zm-146 58v21l-23-1h-51v-42h74Zm566-6h-1l1-1v1Zm1 20 1 3v1c0 1 0 1 0 0l-4 2c-1 2-4 3-6 4l-7 4-2 1 7-6c6-4 9-7 9-9s0-2 1-1l1 1Zm30 25 1 1v-1l4 1c4 2 5 3 2 3-2-1-2 0-2 1 1 1-1 2-8 2-6 0-6 0-6-2l3-3 3-3c0-1 2-1 3 1Zm-49 9 5 2c2 1 2 1 2 10v9l-3 1h-8v-12l1-11 3 1Zm18-1h-1c-1 0-1 0 0 0h1Zm-642 11 5 6a135 135 0 0 0 8 10 117 117 0 0 0 43 33l-96 1a2145 2145 0 0 1-95-2l3-2 3-1 1-1 1-1 3-1 2-2 3-2c1-1 3-3 5-3l2-2 1-1a169 169 0 0 0 25-25l3-4 2-3a2159 2159 0 0 1 81 0Zm308 1 3 5 3 5 1 2 1 1 1 3 3 4a94 94 0 0 0 37 28l-94 1-94-1 4-2 6-4 4-2 2-2 1-1 3-2 6-4a89 89 0 0 0 17-18l3-4 3-5 2-2 1-2h87Zm298 24v25h-62l-62-1 3-3 5-4 5-4a86 86 0 0 0 18-20l4-5 1-2 3-4 2-4 1-2 41-1h41Zm355-8v8l-36 1-38 1c-2 0-4 5-5 10l-2 4h-16l-17 1-2 1-1 4c0 3-1 3-2 3s-2 0-1 1l-2 5-1 3 1 4-2-3c-1-4-2-19 0-24s5-10 9-13c3-2 4-2 9-2l21-4a934 934 0 0 1 85 0Zm196-283 2 2-1-2c-2-2-2-2-1 0ZM869 657a70 70 0 0 0-47 52c-1 8-1 12 4 15 3 2 3 2 14 2l15-1 3-3a41 41 0 0 1 20-23c8-4 8-4 8-21 0-14 0-15-2-17-3-5-8-6-15-4Zm30 1c-4 4-5 6-4 21l1 16 8 6c10 6 12 9 18 21 1 3 5 4 17 4s14 0 17-5c2-4 2-8 0-15-5-19-19-36-35-44-5-3-15-6-18-6l-4 2Zm-14 54c-8 3-12 9-12 17 0 10 6 17 16 17 6 1 12-2 15-8 2-3 3-5 3-9 0-9-5-15-13-17l-4-1-5 1Zm9 13c4 3-1 11-6 9-2-2-3-3-3-6 0-5 5-7 9-3Zm-66 13c-3 1-6 7-6 10 2 6 9 18 14 24 11 13 30 25 40 25 3 0 4-1 6-3l3-3v-13c-1-13-1-13-3-15l-6-4c-5-3-13-11-15-16l-4-5c-3-2-26-1-29 0Zm97-1-5 4c-7 12-6 12-18 19-3 2-6 4-6 6l-1 13c0 12 0 12 2 14 6 6 15 4 31-6 6-5 16-14 21-21 4-5 7-14 8-18 0-4-1-7-5-9-2-2-3-2-14-2h-13Zm527-79c-17 6-31 19-40 35-4 9-5 13-5 20-1 7 1 10 5 12s23 2 27 0l5-7c4-8 8-13 16-17 10-6 9-5 10-23v-15l-3-4c-4-3-7-4-15-1Zm32 0-4 3-1 14c0 18 1 21 9 25 9 5 15 12 18 22l3 3 14 1 14-1c6-4 7-10 4-20-2-10-6-17-13-25-8-10-18-17-31-21-7-3-10-3-13-1Zm-18 55c-4 2-5 3-7 7-5 11 0 22 10 26 10 3 20-3 22-14s-5-20-17-20c-3-1-5 0-8 1Zm12 10c1 1 3 6 2 8l-3 3c-3 2-8-1-8-5 0-5 5-8 9-6Zm36 14-7 1-3 5c-4 7-10 13-16 17-8 4-9 5-9 20l1 13 4 3c3 2 10 1 17-1 10-4 27-18 33-27 4-6 8-15 8-20 1-4 0-5-2-7-1-2-3-3-5-3l-21-1Z"/><path fill="#ffc901" d="m289 5-9 3-3 2-1 1h-3a60 60 0 0 1-12 5 125 125 0 0 1-19 7l-11 2-3 1-3 1h-3l-4 2a173 173 0 0 0-14 3l-19 3a893 893 0 0 0-21 5c-4 2-12 10-14 15-3 7-3 20 2 26l11 10 4 1c2 1 2 1 2 21l1 23a42 42 0 0 0 6 14c2 3 2 4 2 18v15h-5l-6 1-4 1-4 1h-4l-3 1-2 1-4 1-5 2-1 1-1 1-5 2c-10 8-17 16-25 30l-7 13-7 12-6 11a893 893 0 0 0-31 59c-16 25-19 33-16 45 2 9 6 17 12 23 5 5 11 11 13 11h1l2 1 1 1 2 1 2 1h3l3 1 21 2c5 0 7 0 6 1l-1 1-1 2c-1 2 0 409 1 413l1 6v3l-31 1c-66 1-68 1-71 3l-2 4c0 3 1 3 3 4l640 1h637l2 4c6 14 16 23 27 26h26l22 1 3-3 5-6c3-7 5-7 25-7l17 1 2 2 4 3 1 2 2 1h4c5-2 6-2 7-6l5-6c2-4 3-5 3-8v-4h196v-11h-29l-47-1-37-1 3-2c1-1 3-3 5-3a66 66 0 0 0 14-10l11-12 4-4 10-15c0-2 2-3 2-3h25c13 0 26-3 32-8l1-1 3-2 3-2 24-56 2-72a279 279 0 0 0-28-128 77 77 0 0 0-30-25l-13-5-6-2h-5l-4-1-19-1c-16 0-18 0-20 2-4 1-5 2-8 0-5-2-8-6-21-27a1419 1419 0 0 0-62-83l-7-7a451 451 0 0 0-95-79l-8-4a226 226 0 0 0-43-20 216 216 0 0 0-54-13l-7-1-90-1h-90s-77 5-88 3c-7-1-49-35-50-36l-18-6-49-1-46-1-6-10-2-3 4-5c8-8 12-16 12-26v-6l-1-2c0-4-10-17-13-17l-2-1-9-5-116-2c-98 2-91 1-96 3-6 2-8 4-13 8-4 5-6 8-8 14-2 7-2 13 1 22 2 4 11 14 13 14l-2 8-3 8c-1 2-1 3-4 3l-9 2-5 2c-9 4-18 9-28 18a321 321 0 0 0-31 32l-11 11-13 15-9 10a205 205 0 0 1-18 19l-8 9a223 223 0 0 0-17 19l-8 9-8 8c-6 6-13 13-14 16-2 2-2 2-14 2-14 0-14 0-9-9l2-6c0-1 3-4 7-5l12-12 3-3 2-3 3-4 5-8 1-1 2-2 2-4 3-4 6-11 5-8 11-9c5-4 8-7 12-13 3-4 6-11 6-13l1-2c2-1 0-21-2-23l-1-2v-2l-2-2a61 61 0 0 0-18-18l-4-3-10-9c-9-8-10-9-16-9l-5 1h-2c-2 0-6 4-7 6-2 4-3 4-6 2l-5-4a190 190 0 0 0-16-11c-3-1-4-1-9 3l-3 1-5-3-6-5-2-2-2-1c-3 0-5 3-6 7-1 1 0 2 6 8l9 8 11 11c10 9 10 9 9 12l-1 28 1 1 2 5c3 7 4 9 3 11-2 3-4 2-14-8l-12-13a305 305 0 0 0-24-26l-6-7-7-7-6-7c-4-4-5-5-3-5l2-1 1-1 11-8a65 65 0 0 0 16-27v-5l1-5 1-7v-7h4c8-1 12-2 14-4l1-1 3-3 1-2c1-1 3-7 2-10 0-6-4-15-6-18-3-2-6-7-6-8s4-6 10-11c10-10 13-15 16-23V47l-1-3-5-12-3-4-3-3-5-5-5-4-2-1a59 59 0 0 0-17-8c-2-2-14-3-18-2Zm-23 23h-2 2Zm12 1h-1l-2-1h2l1 1Zm-4 1a114 114 0 0 1-22 7l-2 1h-4c1 1-1 2-4 2l-2 1-3 1h-2l-2 1a318 318 0 0 0-19 5h-3l-6 1h-5l-2 1-1 1h-3l-3-1-1 1-1 1c-1 0-2 0-1-1 1 0 1 0 0 0h-2c1 1 0 1-1 1-2-1-3 0-4 1-3 2-2 2-4 1l-1-1c1-1 0-1 0 0l-2-1c-2-2-2-2 0-2h2c2 1 3 1 2-1h2l3-1 19-3c3 0 4 1 3 3h2v-1c-2-2 0-3 3-3l5-1 2-1 3-1h4c1 0 3 0 2-1 0-1 4-2 6-1l2-1h1l1-1h2l1 1 1-1c-2 0-1-2 0-1l3-1h3-1l-1 1 4-1 2-1c-1 0-2 0-1-1l2-1 3-1h2l2-1 2-1v1c-1 1 0 1 1 1h2l2 1 2-1c0-2 4-3 6-2l1 1Zm30 8 8 6c3 3 3 3 3 7 0 3-2 7-3 7l1-2 1-5c1-4 1-4-2-5l-7-1-9-1c-9 0-17 5-18 11 0 2 0 3-1 2-2-2-2-3-2-7 0-6 0-7 7-10l6-3 6-1 10 2ZM174 55l-1 1v-1h1Zm128 13-2 1c-2 2-2 2 0 0l2-1Zm-140 4v1l-1-2c0-1 1-1 1 1Zm136 0-2 1c-1 1-1 1 0 0 1-2 2-2 2-1ZM191 95l1 9c1 8 2 11 3 9l3-5c2-3 3-3 5-3l4-1 1 2-1 4c-1 1 0 7 2 10s5 4 8 2c4-1 5-5 5-13 0-6 0-6 2-6h3l12 10c3 3 9 14 10 17 2 8 2 8 8 8l6 2c1 1 2 1 4-1 5-2 7-2 12 2 10 6 11 8 9 15-1 6-7 18-9 20-4 4-10 7-16 8-13 2-41-2-45-7l-5-2-5-4-3-3-3-2-2-1v19h7l7-1c0-1 1-2 2-1 2 0 2 0 0 1l-2 1v3c-1 2 0 3 1 5v2c-1 1 4 5 6 5l2 1 3 1h1l4 4 11 11c0 3-3 11-5 12l-11 2h-2c-3 3-26-24-32-37-2-4-2-5-2-24v-20l-4-7-5-10V95l5-1 5 1Zm592 49 6 4c5 4 9 14 5 14l-2-2c-1-4-4-7-9-9-3-2-4-2-49-2l-47 1c-2 1-2 1-1 16v15h-7l-7-1v-15l-1-15h-46c-50 0-48-1-52 4-6 7-6 13 0 22 2 3 2 4 1 4-3 0-9-5-11-8-5-12 1-26 13-29a5277 5277 0 0 1 207 1Zm-560 42s1 0 0 0h-2v-1l2 1Zm535 10-15 7c-1 0-2 0-2-3l1-4h16Zm-579 3-1 1h-2v1h-1l-1-1v1l-1 1v-1h-3c3 1 1 2-2 2-2 0-3 0-2-1l-1-2v-1s0-1 0 0l3-1c1-1 6-2 9-1l2 2Zm409 1c-4 5-4 5-8 4-3 0-5 1-5 2-2 2-2-1 0-5l2-5h14Zm48-3c-1 4-3 6-7 7-2 1-2 1-2-4v-4h5c4 0 5 0 4 1Zm62 0-4 4c-8 5-10 6-10 1 0-6 0-6 7-6l7 1Zm-533 0h-1c-1 0-1 0 0 0h1Zm-3 7-1 1-1-1 1-1 1 1Zm-11 3c-2 1-2 1 0 0l-2 2-4 1-1 1v1h-2l-1 1v1c-1-1-4 1-3 2h-1c-2 0-2 0-1 1v1l-2 1-4 2 1-2 1-4-1-1c2 1 3 0 7-3 5-5 7-7 9-5h1c-1-1-1-1 1-1h3l-1 2Zm235 1 10 9 13 12c9 6 15 14 15 19 0 2-1 2-5-1-3-3-6-4-4-1 1 1 1 1 0 0l-3-1c-1-1-1-1-1 1h-1l-3-1v-1c0-2 0-2-1-1h-1l-1 1h-2v-1h1l-2-1-2-1-1-1c-1 0-1 1 1 5l1 4c-1 1-3 0-4-2-1-3-6-11-11-16l-8-10c-4-4-4-4-2-7 2-4 5-7 7-7l4 1Zm512 14a97 97 0 0 1 51 36l-9 4a398 398 0 0 0-39 18l-10-14c-7-9-11-13-18-16l-6-3H729l-142 1c-10 2-14 6-31 24-15 17-31 34-42 44l-10 10-11 1a86 86 0 0 0-18 3c-6 0-19 11-24 19-4 7-6 12-5 20 0 7 0 8 3 14 3 7 8 12 13 15 4 2 4 2 34 2 33 0 31 0 40-7l4-4h114l117 1h4l-5 6a460 460 0 0 0-39 53c1-2-14 29-17 29l-59 6-6 1c-9 2-9 2-8-2 2-9 2-13 1-19a44 44 0 0 0-39-34c-6-1-8-1-14 1-3 0-8 2-11 4-6 3-15 12-18 18-3 5-5 15-5 19a46 46 0 0 0 8 25l-24 6a389 389 0 0 0-110 40l-7 4-1-67-1-69c-3-11-10-20-20-25l-7-3c-4 0 0-4 46-53l33-36 58-60c10-8 21-12 35-13a11656 11656 0 0 1 333 1Zm-761 7c-1-1-4 4-9 10-3 3-12 16-15 18l-9 15v4l1 1c-3 0-4-2-3-7 0-5 0-5-1-3a519 519 0 0 1 25-41l4-1c4-1 9 4 7 4Zm224 9 6 4 2 2c3 8 13 20 15 20l7 4c4 3 5 4 8 4l5-1c1-1 2-1 2 1 1 3 0 4-7 7-5 2-6 2-11 1-6-1-10-4-15-8-4-3-9-9-9-11h-1c-2 0-2 0 1 5l3 9-9-14c-3-8-5-18-4-22 0-3 2-5 3-5l4 4Zm-85 23 7 4c1 2 1 2-1 2h-3l-7-1-7-2-9 4c-7 4-8 4-8 6 0 3-1 1-2-3 0-4 1-6 6-9 10-5 15-5 24-1Zm340 405-24 8c-5 2-5 2-74 2l-67 1-9 3c-10 4-14 4-33 5l-23 3c-13 5-22 15-27 27-1 3-1 3-6 1-4-2-4-2-5 0-1 1-2 1-2-1l2-1v-1c-3-3 4-17 13-26 5-5 7-6 15-10 11-5 17-7 26-7 7 0 13-3 20-9 7-7 11-14 16-28 1-3 1-3 1 4 1 8 2 11 4 15 4 6 6 8 10 10l5 3h131l5-2c6-3 11-8 13-15 3-7 3-7 5-3 3 6 8 12 14 18l8 6 19 1 15-1 6-4c10-6 28-19 31-30l3-11-10-13 7-10 6-8 2-4 3-2 24-26c3-3 23-20 44-32 28-14 58-22 57-23s-275 0-293 3c-19 4-37 11-39 11l-49 19c-19 10-47 23-52 31l-5 6c-1 1-3 2-3 4-1 2-1 2 1 3h-1c-4-1 24 13 38 45 7 15 163 1 169-7 4-7-2-7-7-13-4-4-7-5-11-7s-4-2-65-2h-61l-5 3c-9 4-14 10-18 22-2 6-2 6-3-4 0-9-7-21-15-28-7-5-17-10-21-10l-3-1c0-1 12-12 17-15l35-19c27-14 53-23 87-30a1608 1608 0 0 1 157-24l135-1 129-1 3-8a539 539 0 0 1 132-176c5-3 10-10 10-14s-1-6-5-9l-3-2h-61l-62 1-5 3c-18 5-48 20-72 37l-41 31a634 634 0 0 0-97 115l-6 10h-19l5-12a471 471 0 0 1 164-171 226 226 0 0 1 93-35 8614 8614 0 0 1 235-1c38 4 74 17 112 40 38 22 76 56 108 95 16 20 25 33 49 70 11 17 17 25 20 26l30 1c28 1 29 1 36 3 19 5 31 14 40 28 5 8 6 12 6 16 0 3 0 3-2 3l-3-3-16-20c-5-5-12-9-19-11-4-2-7-2-25-2h-289l-2-3-7-7-4-4h100a664 664 0 0 0 101-2l18 1h17a477 477 0 0 0-171-185c-23-14-52-24-77-28-10-2-34-3-44-2-15 2-32 6-45 11a257 257 0 0 0-108 78l-8 10a332 332 0 0 0-23 28c-24 36-28 42-44 74-6 13-6 13-4 13a226 226 0 0 0 38-1v2l-1 9 1 6h-24c-36 0-63 2-90 6-43 5-86 19-113 35l-26 19a324 324 0 0 0-57 69c-1 6-11 11-12 13l-7 9-3 4-4 4 9 2c5 0 7 1 9 5 1 3 1 3-2 7l-7 5-27 1c-26 1-28 2-38 6-6 3-15 13-19 21-2 4-2 4-7 4l-5 1v-4c1-5 5-15 11-23l3-5 10-7c5-3 15-7 21-7l-3-2-6-6-7-7-9-13c-2 0-3 7-3 7l6 3 3 6 1 4-1 3ZM226 272l-3 2 2-2h1Zm-49 1-1 1-1-1 1-1 1 1Zm240 2-2 2v-1l2-1Zm-305 2-3 1 1-1h2c0-1 0 0 0 0Zm298 5-3 3 1-2c4-4 5-4 2-1Zm-52 2 2 3c-2 0 7 8 9 8l3 2v5l-1 4-10 24c-4 6-4 7-10 11-4 3-4 3-8 2l-6-1c-2-2-10-17-10-22-1-3 0-4 1-6l2-4 2-1c3 0 6-3 12-13l11-14 3 2Zm-112 36h2l9 5 1 1c2 1 4 5 2 5-1 0-4-1-3-2h-1l-5-2c-7-3-9-3-8 1h-1c-1-1-1 0-1 1v1c-1 0-2 0-1 2 0 1 0 2-1 1l-1 1 1 1v1l-2 1h-1l1 1 1 1h-1c-6-1-6-1-5-3l1-1c2 0 4-5 3-6s0-1 0 0l1-1v-2l1 1 1-1 1-3 1-1 1-1c0-2 3-3 4-1Zm43 2 5 3-2 5c-4 8-2 13 4 14 5 1 5 0 9-6l3-4 12 5-12 20-27-13-9-7 10-19c1-1 1-1 7 2Zm-213 1 4 4c-1 1 0 2 1 3 4 4 5 7 5 13l1 7c2 1 2 1 4-1l2-1v2l70 1c76 0 75 0 84 4 8 4 13 11 14 19 0 5-2 5-3 1s-9-12-10-10l1 3 1 10c0 5 0 6-2 8l-1 3c0 2-8 7-11 7l-40 1-7-4-7-5-46-1-47-1-11-2c-4-1-9-2-11-4-4-2-5-2-3 0l-2-1c-3-4-6-9-7-14-2-5 0-15 2-20l14-25 5 3Zm187 4c2 1 2 1 0 1l-2-1-2-1h1l3 1Zm38 8-1 1-1-1 1-1 1 1Zm-49 2h5c3-1 4-1 7 5 3 5 3 5 16 11l22 12 9 5 4-3c4-4 5-4 9 0l3 3-4 8a1513 1513 0 0 1-42 80l-69-33c-3-2-4-4-2-7l17-1 20-2c9-4 14-8 21-17 2-3 3-5 4-11 2-8 2-8 1-14-2-11-4-14-11-21l-11-8-5-3 4-5 2 1Zm274 9 1 1-1-1-1-2 1 2Zm-50 4h-1c-1 0-1 0 0 0h1Zm-217 37-1 1 1-4v3Zm-121 21c5 1 9 4 9 5s-1 2-4 1l-11-1c-7 0-9 2-11 7-2 4-2 4-3 2-4-6 4-15 14-15l6 1Zm45 29 4 4 4 3h-28l-1 3v-9h9l10-1h2Zm428 11c5 3 9 6 12 11s4 15 1 21c-3 7-7 10-18 11l-22 2c-3-1-8-6-10-12-3-8-1-18 4-26 3-3 10-8 14-9 5-1 14 0 19 2Zm511 7c6 3 12 8 15 12 2 3 2 3 0 2-1-2-16-1-19-1h-30l-29 1c-7 3-10 5-12 9s-2 4-2 20v17h-3c-4 0-7-2-11-7-3-5-3-5-3-11 0-17 5-30 15-37 3-3 12-6 18-7l29-1c27 0 27 0 32 3Zm-830 16-1 1c0 1 0 1 0 0-1 0-1-2 1-2v1Zm952 24c6 2 15 8 16 11 2 2 2 2-1 2a560 560 0 0 0-104-1l4-15a855 855 0 0 1 85 3Zm-38 42-3 1c-2 0-2 0-1-1h4Zm39 0h-5 5Zm-47 3c-1 2-2 2-3 2l5-4-2 2Zm-794 56c7 3 14 9 17 15 2 4 2 6 0 5-2 0-2 0-2 5 0 11-8 20-19 23-6 2-19 2-24 1-5-2-8-2-7-1s1 1 0 0c-2-1-5-8-7-13-3-16 10-34 26-36 4-1 11 0 16 1Zm260 1c6 3 12 9 14 13 2 3 2 4 1 8-2 12-6 19-14 24l-6 4h-12c-11 0-12 0-15-2h-4c0 2-3-3-5-8-2-7-2-17 1-23 4-8 12-14 20-17 5-2 15-1 20 1Zm604 24c0 1-1 1-1-1l1-2v3Zm0 14-1-1 1-2v3Zm0 4-1-1 1-1v2Zm216 1c9 1 20 5 28 8 14 8 28 20 36 34 10 17 12 26 12 45 0 11 0 14-2 21a94 94 0 0 1-50 60c-11 5-18 6-32 7-10 0-12 0-19-2-8-2-13-4-17-7-3-2-3-2-3-8l-1-8-2-3 5 2c8 6 19 9 24 8l4-3 3-2-1-12-1-15-4-4c-10-5-16-11-20-18-2-5-2-5-18-6-9 0-11 0-14 2-3 1-5 5-5 9 0 5 8 20 15 27 4 4 4 5 2 5-3-1-6 0-9 3l-4 3-2-3a89 89 0 0 1-18-75 87 87 0 0 1 93-68Zm-573 3a84 84 0 0 1 63 92c-1 11-3 19-7 28-9 19-23 33-41 43-15 7-24 9-38 9-9 0-12-1-19-3-16-5-27-12-39-25a84 84 0 0 1-24-44 88 88 0 0 1 62-100c9-2 10-3 24-2 10 0 14 0 19 2Zm215 37h-2 2Zm6 3v1l-2-2c0-2 1-1 2 1Zm-40-1-2 1c-1 1-1 1 0 0l2-1Zm42 9-1-1c0-1 0-2 1-1v2Zm-14 4c0 2 0 2-7 2h-6v5a511 511 0 0 0-2 44c-1 2-2 4-6 7-3 1-7 5-9 7-4 3-4 4-4 7v5c0 2 1 2 4 3 4 1 6 0 5-1l1-1h10l-3 1h-6l-1 10c0 10 0 11-2 11h-3c-2 1-2 1-2 15 0 15 0 15-5 15l-2-1-1-32-1-30 3-4 8-8c12-8 11-5 11-31v-24c1-2 1-2 9-2 9 0 9 0 9 2Zm14 3c-1 1-1 0-1-1l1-2v3Zm-734 4h-4l3-1h3l-2 1Zm249-1h-3 3Zm-241 1h-2 2Zm235 0h-1c-1 0-1 0 0 0h1Zm-7 3-5 6-2 2c-1-1 8-10 11-10l-4 2Zm-249 3c-3 3-4 4-6 9l-1 1c-1-1 3-7 7-11l4-3-4 4Zm242 8h-1c0-1 0-2 1-1v1Zm510 49 4 3c0 3-5 4-12 4-6 0-7 0-7-2l-1-2c-2-1-5 1-6 3h-2c0-2 5-6 9-7 4-2 10-2 15 1Zm-26 9h-3 3Zm-978 3h-1v-1l1 1Zm1008 11v-6 6Zm-686-6c4 0 5 1 7 4a130 130 0 0 0 37 38l15 8c3 1-4 1-112 1a825 825 0 0 1-78-2l3-1 5-4 4-2v-1l5-3 5-4c9-6 26-23 31-32l33-2a2234 2234 0 0 0 45 0Zm311 1 9 14a103 103 0 0 0 22 24c1 2 12 8 19 11h-94l-95 1 4-3a194 194 0 0 0 22-15 110 110 0 0 0 24-26c3-6 3-6 8-6h81Zm281 0h18v50h-62a1188 1188 0 0 1-60-3 111 111 0 0 0 9-8 112 112 0 0 0 27-31l4-7 23-2 41 1Zm300 1 1 2-17 1-18 1-6 2-7 2c-2 1-2 1 0-1l4-2c1 0 1 0 0 0-1-1 0-2 4-3 4-3 10-3 30-4 8 0 9 0 9 2Zm-1147 7 3 2 1 1 3 1c3 2 3 2-6 2h-11a729 729 0 0 1-67 1v22c0-5-2-1-2 6 0 1 0 2-2 0-1-1-2-4-1-6v1l1 2 1-5 1-7v-1l-1-2v-1l-1 3-1 5-1-12 1-11v-1h82Zm93 2 5 4v1l-1-1-5 1c1-1-1-1-6-1h-32l-26 1-1-3-1-4a402 402 0 0 1 67 2Zm1127 16v7-5l-36-1-36 1c-3 0-5 4-5 10l-2 4-5 1-17-1c-13-1-13-1-14 1-1 4-2 10 0 18v11l1 1-8-10c-3-6-5-16-3-22 1-9 5-15 11-18 3-2 4-2 10-3l9-1c7-3 20-4 63-3h32Zm-1118-7c1 1 1 1 0 0l-1-1 1 1ZM269 30h1-1s-1 0 0 0Zm-15 2v1l2-1h-2Zm-51 16h1-1c-1 0-1 0 0 0Zm56 117c-4 1-5 3-5 5s3 4 9 4 6 0 8-2v-4c-3-5-8-6-12-3Zm-47 22 1 1v-1l-1-1v1Zm274 248-1 36 1 33h14v-10l1-11h5l21-2c7-2 12-8 14-17 3-13-3-23-15-29-6-3-6-3-23-3h-17Zm34 13c6 3 8 9 6 15-2 4-4 5-15 5h-11v-21h9l11 1Zm-85 159 1 1 1 3 1-1-1-3h-2Zm3 7h1l1-1h-1l-1 1Zm1 4-1 4c0 2 0 2 1 0l1-4c-1-2-1-2-1 0Zm-10 35-7 9c-2 2-8 5-7 7h11c4-1 11-2 16-5l7-4s-8-9-9-13l-2-19c-1 0-7 23-9 25ZM280 378c-3 2-9 14-9 18 0 7 9 14 16 14 9 1 17-8 17-18 0-6-2-9-10-13-6-3-11-4-14-1Zm14 10 1 5c0 7-8 11-13 6-2-2-2-4 1-10 1-3 1-3 5-3 3 0 4 0 6 2Zm1161 270-10 3c-19 10-36 31-38 49v9c3 6 5 7 19 7s14 0 18-10c4-7 9-12 17-16s8-5 9-20c0-17 0-18-4-21s-5-3-11-1Zm30 0c-5 3-6 4-6 19 0 17 1 18 8 22 11 6 16 12 18 20l3 5 26 2c4 0 7-4 8-9 1-4 1-5-1-12-3-12-8-20-17-29-8-9-17-14-29-18-7-2-7-2-10 0Zm-18 55c-10 4-13 17-7 26 4 5 8 7 14 7 12 1 21-13 16-25-4-8-14-12-23-8Zm12 11c2 2 2 8 0 10-5 4-13-3-9-9 2-4 6-4 9-1Zm25 20c-4 7-9 12-16 16s-8 5-8 19c-1 13 0 15 4 17 3 1 4 2 9 1l11-4c10-4 24-17 31-27 3-4 7-17 7-20 0-2-2-6-4-7l-17-1h-14Zm-634-87c-10 3-25 13-34 23-5 7-11 20-13 28-2 7-2 7-1 11l6 6c3 1 4 2 14 1 13 0 15-1 17-6 3-9 9-15 20-21 7-4 7-5 7-22 0-13 0-14-2-16-3-4-7-5-14-4Zm30 0c-4 2-5 5-5 21l1 16 8 6c10 6 15 12 17 20 2 5 4 6 17 6 11 1 11 1 14-1 6-4 7-10 4-20-6-21-24-40-44-46-8-3-8-3-12-2Zm-18 57c-6 3-8 7-9 14 0 10 6 18 16 18 6 0 8-1 12-4 4-4 5-6 6-11 1-8-4-16-11-18-6-2-9-2-14 1Zm11 10c2 1 2 2 2 5 0 6-7 7-10 2-1-3-1-5 2-7 2-2 4-2 6 0Zm-63 13c-3 1-7 5-7 9 0 6 8 20 16 29 10 11 26 21 35 21 5 1 9-1 10-5v-26l-8-6c-8-6-14-11-16-16-1-5-2-5-15-6h-15Zm92 2-4 6c-3 6-7 10-15 15l-6 4c-1 1-2 6-2 14 0 13 0 13 2 15 4 4 11 4 22-1 18-10 33-26 37-42 1-5 0-8-3-11l-16-1-15 1Z"/><path fill="#f6a266" d="m289 5-9 3-3 2-1 1h-3a60 60 0 0 1-12 5 125 125 0 0 1-19 7l-11 2-3 1-3 1h-3l-4 2a173 173 0 0 0-14 3l-19 3a893 893 0 0 0-21 5c-4 2-12 10-14 15-3 7-3 20 2 26l11 10 4 1c2 1 2 1 2 21l1 23a42 42 0 0 0 6 14c2 3 2 4 2 18v15h-5l-6 1-4 1-4 1h-4l-3 1-2 1-4 1-5 2-1 1-1 1-5 2c-10 8-17 16-25 30l-7 13-7 12-6 11a893 893 0 0 0-31 59c-16 25-19 33-16 45 2 9 6 17 12 23 5 5 11 11 13 11h1l2 1 1 1 2 1 2 1h3l3 1 21 2c5 0 7 0 6 1l-1 1 1 421v3l-31 1c-66 1-68 1-71 3l-2 4c0 3 1 3 3 4l640 1h637l2 4c6 14 16 23 27 26h26l22 1 3-3 5-6c3-7 5-7 25-7l17 1 2 2 4 3 1 2 2 1h4c5-2 6-2 7-6l5-6c2-4 3-5 3-8v-4h196v-11h-29l-47-1-37-1 3-2c1-1 3-3 5-3a66 66 0 0 0 14-10l11-12 4-4 10-15c0-2 2-3 2-3h25c13 0 26-3 32-8l1-1 3-2 23-36 10-94a253 253 0 0 0-32-128 77 77 0 0 0-30-25l-13-5-6-2h-5l-4-1-19-1c-16 0-18 0-20 2-4 1-5 2-8 0-5-2-8-6-21-27a1419 1419 0 0 0-62-83l-7-7a451 451 0 0 0-95-79l-8-4a226 226 0 0 0-43-20 216 216 0 0 0-54-13l-7-1-90-1h-90s-77 6-89 4c-7-1-48-36-49-37l-18-6-49-1-46-1-6-10-2-3 4-5c8-8 12-16 12-26v-6l-1-2c0-4-10-17-13-17l-2-1-9-5-116-2c-98 2-91 1-96 3-6 2-8 4-13 8-4 5-6 8-8 14-2 7-2 13 1 22 2 4 11 14 13 14l-2 8-3 8c-1 2-1 3-4 3l-9 2-5 2c-9 4-18 9-28 18a321 321 0 0 0-31 32l-11 11-13 15-9 10a205 205 0 0 1-18 19l-8 9a223 223 0 0 0-17 19l-8 9-8 8c-6 6-13 13-14 16-2 2-2 2-14 2-14 0-14 0-9-9l2-6c0-1 3-4 7-5l12-12 3-3 2-3 3-4 5-8 1-1 2-2 2-4 3-4 6-11 5-8 11-9c5-4 8-7 12-13 3-4 6-11 6-13l1-2c2-1 0-21-2-23l-1-2v-2l-2-2a61 61 0 0 0-18-18l-4-3-10-9c-9-8-10-9-16-9l-5 1h-2c-2 0-6 4-7 6-2 4-3 4-6 2l-5-4a190 190 0 0 0-16-11c-3-1-4-1-9 3l-3 1-5-3-6-5-2-2-2-1c-3 0-5 3-6 7-1 1 0 2 6 8l9 8 11 11c10 9 10 9 9 12l-1 28 1 1 2 5c3 7 4 9 3 11-2 3-4 2-14-8l-12-13a305 305 0 0 0-24-26l-6-7-7-7-6-7c-4-4-5-5-3-5l2-1 1-1 11-8a65 65 0 0 0 16-27v-5l1-5 1-7v-7h4c8-1 12-2 14-4l1-1 3-3 1-2c1-1 3-7 2-10 0-6-4-15-6-18-3-2-6-7-6-8s4-6 10-11c10-10 13-15 16-23V47l-1-3-5-12-3-4-3-3-5-5-5-4-2-1a59 59 0 0 0-17-8c-2-2-14-3-18-2Zm-23 23h-2 2Zm12 1h-1l-2-1h2l1 1Zm-4 1a114 114 0 0 1-22 7l-2 1h-4c1 1-1 2-4 2l-2 1-3 1h-2l-2 1a318 318 0 0 0-19 5h-3l-6 1h-5l-2 1-1 1h-3l-3-1-1 1-1 1c-1 0-2 0-1-1 1 0 1 0 0 0h-2c1 1 0 1-1 1-2-1-3 0-4 1-3 2-2 2-4 1l-1-1c1-1 0-1 0 0l-2-1c-2-2-2-2 0-2h2c2 1 3 1 2-1h2l3-1 19-3c3 0 4 1 3 3h2v-1c-2-2 0-3 3-3l5-1 2-1 3-1h4c1 0 3 0 2-1 0-1 4-2 6-1l2-1h1l1-1h2l1 1 1-1c-2 0-1-2 0-1l3-1h3-1l-1 1 4-1 2-1c-1 0-2 0-1-1l2-1 3-1h2l2-1 2-1v1c-1 1 0 1 1 1h2l2 1 2-1c0-2 4-3 6-2l1 1Zm30 9c3 1 7 3 8 5 3 2 3 3 3 7 0 3 0 4-2 6l-11 10-8 9-5-7-12-12c-2-2-2-3-2-7 0-6 0-6 8-11 8-4 14-4 21 0ZM174 55l-1 1v-1h1Zm-12 17v1l-1-2c0-1 1-1 1 1Zm41 23h4v15c-1 1 2 10 4 11 2 2 5 2 8-1 2-2 2-3 2-7l2-19 6 5 4 6-3-3-4-4c-1-2-2-1-2 2 0 2 0 3 2 3l13 10c3 3 9 14 10 17 2 9 2 8 8 8 4 0 6 1 6 2 1 1 1 1 4-1 5-2 7-2 12 2 10 6 11 8 9 15-1 6-7 18-9 20-4 4-10 7-16 8-13 2-41-2-45-7l-5-2-5-4-3-3-3-2-2-1v19h7l7-1c0-1 1-2 2-1 2 0 2 0 0 1-2 2-2 6 2 10 2 4 9 8 11 8l-1 1 3 3 11 11-2 7c-1 3-2 4-5 5l-6 2-1 1v1h2c2 1 7-1 10-4l2-1c-1 3-5 6-8 8-3 1-3 1-6-1-9-5-19-15-28-28-10-15-10-14-10-37v-20l-4-7-5-10V94h9l13 1Zm580 49c5 3 9 7 11 11s2 7 0 7l-2-1c0-2-3-6-7-9l-4-2h-95v31h-7l-7-1v-15l-1-15h-46c-50 0-48-1-52 4-6 7-6 13 0 22 2 3 2 4 1 4-3 0-9-5-11-8-5-12 1-26 13-29a5277 5277 0 0 1 207 1Zm-492 26c-1 2-1 3-2 2l3-4-1 2Zm-4 8-5 5-3 3 3-3 4-6c2-3 3-3 1 1Zm-64 8h-2l1-1 1 1Zm3 1c1 1 0 1 0 0-2 0-2-1-1-1l1 1Zm6 3c1 0 1 0 0 0l-4-1 1-1 3 2Zm7 2h-1c-2 0-2-1-1-1l2 1Zm520 4-13 7-4 2-1-4 1-5h17Zm-580 3-1 1h-2v1h-1l-1-1v1l-1 1v-1h-3c3 1 1 2-2 2-2 0-3 0-2-1l-1-2v-1s0-1 0 0l3-1c1-1 6-2 9-1l2 2Zm409 1c-4 5-4 5-8 4-3 0-5 1-5 2-2 2-2-1 0-5l2-5h14Zm48-3c-1 4-3 6-7 7-2 1-2 1-2-4v-4h5c4 0 5 0 4 1Zm63-1-4 4c-4 3-8 6-10 5l-1-7c1-2 1-2 9-2h6Zm6 0h-2 2Zm-540 1h-1c-1 0-1 0 0 0h1Zm180 7 3 3-3-3-4-3 4 3Zm-183 0-1 1-1-1 1-1 1 1Zm-11 3c-2 1-2 1 0 0l-2 2-4 1-1 1v1h-2l-1 1v1c-1-1-4 1-3 2h-1c-2 0-2 0-1 1v1l-2 1-4 2 1-2 1-4-1-1c2 1 3 0 7-3 5-5 7-7 9-5h1c-1-1-1-1 1-1h3l-1 2Zm85-3h-1c-1 0-1 0 0 0h1Zm12 7v4l-1-3v-6l1 5Zm138-3 10 9 13 12c7 5 12 11 14 16l2 5c0 1-4-1-7-4-2-2-5-2-3 0 1 1 1 1 0 0l-3-1c-1-1-1-1-1 1h-1l-3-1v-1c0-2 0-2-1-1h-1l-1 1h-2v-1h1l-2-1-2-1-1-1c-1 0-1 1 1 5s2 4-1 4l-4-5-8-12c-11-13-13-14-12-17 1-2 6-8 8-8l4 1Zm-28 8c3 2 5 5 4 5a61 61 0 0 1-9-10l5 5Zm-111 1-1 2 1-3v1Zm-2 6-2 2 1-3 2-2-1 3Zm653-1a97 97 0 0 1 51 36l-9 4a398 398 0 0 0-39 18l-10-14c-7-9-11-13-18-16l-6-3H729l-142 1c-10 2-14 6-31 24-15 17-31 34-42 44l-10 10-11 1a86 86 0 0 0-18 3c-6 0-19 11-24 19-4 7-6 12-5 20 0 7 0 8 3 14 3 7 8 12 13 15 4 2 4 2 34 2 33 0 31 0 40-7l4-4h114l117 1h4l-5 6c-7 8-53 83-53 83l-62 5-6 1c-9 2-9 2-8-2 2-9 2-13 1-19a44 44 0 0 0-39-34c-6-1-8-1-14 1-3 0-8 2-11 4-6 3-15 12-18 18-3 5-5 15-5 19a46 46 0 0 0 8 25l-24 6a389 389 0 0 0-110 40l-7 4-1-67-1-69c-3-11-10-20-20-25l-7-3c-4 0 0-4 46-53l33-36 58-60c10-8 21-12 35-13a11656 11656 0 0 1 333 1Zm-761 3 3 4 3 4 2 2c2 1 5 6 6 9a25 25 0 0 1-7 22l-8 6-15 4-8 1c-4 1-9 0-11-1v-6c0-5 0-5-1-3a519 519 0 0 1 25-41l4-1h7Zm223 12 6 5 4 3c0 4 12 19 14 19l7 4c4 3 5 4 8 4l5-1c1-1 2-1 2 1 1 3 0 4-7 7-5 2-6 2-11 1l-8-3c-4-1-10-7-14-12-3-3-3-2-1 3l2 5c0 2 0 2-2-1a59 59 0 0 1-11-23c-1-3-1-12 1-14 2-1 2-1 5 2Zm65 18c0 1 0 1 0 0v-2 2Zm-147 7c6 3 6 3 7 7 0 5 0 6-5 9l-13 10c-2 2-4 1-7-3l-6-6c-6-3-8-5-8-9 0-3 0-4 3-6l13-6c5-1 8 0 16 4Zm951-2c38 4 74 17 112 40 38 22 76 56 108 95 16 20 25 32 49 70 11 17 17 25 20 27h30c28 1 29 1 36 3 10 3 19 7 26 13 7 5 11 9 16 18 3 5 4 8 4 11 0 5 0 5-2 5s-3 0-4-2c-2-5-13-19-18-23s-14-9-20-10l-41-1a229 229 0 0 0 25 34c3 4 11 10 18 13l23 2 39-1 15 89c0 93-30 120-31 122-2 3-9-5-12-5s-3 2-3-27l-1-16-4-1h-3l-1-8-2-16c-10-39-36-70-74-89-13-7-24-11-40-15a244 244 0 0 0-46 1l-20 5-24 10a104 104 0 0 0-19 12 251 251 0 0 0-31 33l-2 5a174 174 0 0 0-23 60c-1 2-2 2-1 0h-5c-3 1-4 2-2 3h1l-1-1 1-1 1 2h2c2 0 2 0 0 1-1 1-1 1 2 1 3-1 3 0 1 1l-1 1-1 1h-3c-2 0-2-1-2-2l-1-1-2 1-1 1s0 1 0 0c-2-1-1-5 1-5v-2c-2-1-2-1 0-1h2l-1-1h-4v1l-2 1-2-2-2-3c0-2-5-3-9-2h-19a543 543 0 0 0 1-98c0-86 0-86-2-92-2-8-6-14-12-20l-5-5h99l100-1a353 353 0 0 0-116-142 256 256 0 0 0-104-43 107 107 0 0 0-36 0c-4 0-23 4-33 8a258 258 0 0 0-125 104l-4 6c-11 18-24 42-27 53-6 19-6 28 1 36l3 6c1 3 1 3-1 4-4 2-8 7-9 12-3 9-1 16 6 20 4 3 14 4 18 2h5l8-2 9-5 3-3h28c30 0 32 0 40-5 5-3 10-7 14-12 3-3 5-9 4-9l2-2c5-6 9-15 10-24l1-3h81l5 3c9 4 15 9 18 15 5 10 5 6 5 98l-1 88c-2 7-4 11-5 11a1606 1606 0 0 0-115-2c-10 0-13 0-13 2-1 1-1-4-1-10 0-11 0-12-2-14-3-3-7-4-23-3-19 0-15 15-15 30 0 6-30 36-50 28-15-6-25-65-27-68l-14-26c-3-5-22-24-28-29-13-9-32-18-48-23l-10-2c-9-3-39-3-53-1a168 168 0 0 0-58 24 127 127 0 0 0-33 35l-4 6c-10 17-11 21-14 31l-3 8-1 4-1 3-1 7-1 5-1 3-1 4-1 1 1 2c0 2 0 2-1 1h-1c-2 1-5 0-5-2l-1-1v3l-1 3v-2c0-2 0-2-2 0-1 3-2 3-1 1 0-2-2-1-3 1h-2v-2l-1 1c-1 2-2 2-3 0h-3l-3-1h-4l-20-1a180 180 0 0 1-25-1h-1l-1 1c-1 1-2 1-1-3 0-5-1-9-6-13-6-5-15-7-22-3-6 4-9 8-9 15l-1 4-7-1-5 4c-4 3-4 3-12 5-13 2-13 2-13 4l-1-3-1-13c1-10 3-15 13-30l2-4-4-1c-5 0-7 1-12 7-6 6-10 13-12 25-1 4-1 4-6 4h-9l-4-1-109 1h-13l-14 1v-1c0-7-5-13-11-16-13-7-32 6-29 19 2 6 3 5-10 5h-25v-7l1-7 1-4 3-10c5-10 13-17 25-23 11-5 17-7 26-7 5 0 6-1 11-3 6-3 13-9 16-15 3-4 7-14 8-18l1-4v-2l-1-7c-1-11-6-21-16-29-7-6-15-10-20-10l-3-1c0-1 12-12 17-15l35-19c27-14 53-23 87-30a1608 1608 0 0 1 157-24l135-1 129-1 3-8a425 425 0 0 1 97-143c11-12 31-30 35-33 4-2 5-4 8-8 4-8 3-12-4-16l-63-1-62 1-5 3c-18 5-48 20-72 37l-41 31a634 634 0 0 0-97 115l-6 10h-19l5-12a471 471 0 0 1 164-171 226 226 0 0 1 93-35 8614 8614 0 0 1 235-1Zm-805 2h-1l1-2v2Zm-2 5-2 3 1-2 1-3 1-1-1 3Zm-197-1c1 1 2 5 1 6 0 2-4 2-26 2-25 0-25 0-25-2v-5l1-3h24c20 0 24 1 25 2Zm193 9-11 10c-3 2-3 1 1-2l7-7c3-3 4-3 3-1Zm-57 12 11 7 5 3-4-1c-2-1-2-1-1 1 1 4 0 9-5 20l-10 19-6 5c-4 3-4 3-8 2-6 0-7-2-12-11-5-10-5-15-3-18s2-5 0-6h-1l4 1c3 1 7-3 12-10l12-17 6 5Zm39 3-2 2c-2 2-2 2 0 0l2-2Zm-19 8 1 1-3-1h2Zm7 9Zm-2-8h-2c-1-1 0-1 1-1l1 1Zm-64 7-2 2c-2 1-2 1-1-1l2-1h1Zm-6 5c-2 2-2 2 0 0l2-2-2 2Zm-3 4-1 1h-1l2-1Zm-67 5c0-2 0-2 5 1l9 4c5 2 5 4 2 5-2 1-6 0-5-1h-1l-5-2-6-2h-2v1l-2 7c-3 7-3 7-6 6l-4-1 2-3 2-2 4-7 3-6v-2c1-1 1-1 3 1l1 1Zm43 2 5 3-2 5c-4 8-2 13 4 14 5 1 6 0 9-6l3-4 12 5-12 20-27-13-9-7 10-19c1-1 1-1 7 2Zm-213 1c3 2 5 3 4 4-1 0-1 1 1 3 4 4 5 7 5 13 0 4 1 8 3 8 1 0 6-5 8-9l3-3-4 6-3 5 70 1c76 0 75 0 84 4 8 4 13 11 14 20 0 4 0 5-1 4l-2-3c-1-4-7-11-9-11s-2 0 0 3l1 10c0 5 0 6-2 8l-1 3c0 2-8 7-11 7l-40 1-7-4-7-5-46-1-47-1-11-2c-4-1-9-2-11-4-4-2-5-2-2 1 1 2 1 2-2 0l-6-10c-3-5-3-6-3-12s0-8 3-13l14-26 5 3Zm162 3-3 4 1-3 3-4 1-2-2 5Zm63 8c0 2 0 3-2 2l1-2c1-3 2-3 1 0Zm-49 3h5c3-1 4-1 7 5 3 5 3 5 16 11l22 12 9 5 4-3c4-4 5-4 9 0l3 3-4 8a1513 1513 0 0 1-42 80l-69-33c-3-2-4-4-2-7l17-1 20-2c9-4 14-8 21-17 2-3 3-5 4-11 2-8 2-8 1-14-2-11-4-14-11-21l-11-8-5-3 4-5 2 1Zm274 9 1 1-1-1-1-2 1 2Zm-50 4h-1c-1 0-1 0 0 0h1Zm-141 11 2 2 1 1-3-2c-2-1-2-2-1-2l1 1Zm-76 26-4 7 1-2 2-5 2-5-1 5Zm-7 11-2 1c-1 1-1 1 0 0l2-1Zm-114 10c5 1 9 4 9 5s-1 2-4 1l-11-1c-7 0-9 2-11 7-2 4-2 4-3 2-4-6 4-15 14-15l6 1Zm175 16-1 1v-1l2-2-1 2Zm-114 7c3 2 4 2 2 0h3l3 3h1l7 2 6 3h1c-1 1 1 1 2 1l2 1c2 2 3 3 5 2v1l3 1 1 1 2 1h1l2 1 1 1a437 437 0 0 0 37 19l1 1 3-1 5-1 1-2a350 350 0 0 0 12-21l1 1 2-6 1-1h1l2-4 1 2-1 2h-1l1 1v1h-1l-1 1c0 3 0 4-1 3v1c0 1-6 13-7 12 1 1 0 4-2 7l-2 6-1 1-1 1v1h-2l-2 1h-2c-2 1-2 1-17-6l-6-2-1-1v-1c-2 0-5-2-5-3h-3l-2-2-10-5-7-3-1-1h-1l-8-5h-2l-10-5-5-2-3-2-1-1-2-1-2-1-3-2c-3-3-2-3 3 0Zm110 1-1 1v-1l1-2v2Zm-121 9c4 4 13 9 24 13 4 2 6 4 3 5h-27l-27 1v-11c0-13-1-12 13-12h9Zm423 7c5 3 9 6 12 11s4 15 1 21c-3 7-7 10-18 11l-22 2c-3-1-8-6-10-12-3-8-1-18 4-26 3-3 10-8 14-9 5-1 14 0 19 2Zm511 7c6 3 14 10 16 14 1 2 1 2-1 2l-6 1-16 1h-11v3c2 4-1 14-5 18-1 2-8 6-13 8l-23 2h-18l1 5v6h-4c-5 0-7-1-11-8-3-4-3-5-3-10 0-17 5-30 15-37 3-3 12-6 18-7l29-1h27Zm-983 67-3 2c-1 1-2 3 0 4 1 1 1 0 1-2h1l2-1h1v4c1 2 0 5-1 2h-2l-1 2v1l-1-2v-1c-2 3-1 4 3 4l8-2h-2l-2-1h1l3-1c2-2 2-2 2 1l1 3v241c0 1-3 2-9 2h-8l1-128a7154 7154 0 0 1 3-128l2-3v3Zm265 74c7 3 14 9 17 15 2 4 2 6 0 5-2 0-2 0-2 5 0 11-8 20-19 23-6 2-19 2-24 1-5-2-8-2-7-1s1 1 0 0c-2-1-5-8-7-13-3-16 10-34 26-36 4-1 11 0 16 1Zm1080 44c9 1 20 5 28 8 14 8 28 20 36 34 10 17 12 26 12 45 0 11 0 14-2 21a94 94 0 0 1-50 60c-11 5-18 6-32 7-10 0-12 0-19-2-8-2-13-4-17-7-3-2-3-2-3-8l-1-8-2-3 5 2c8 6 19 9 24 8l4-3 3-2-1-12-1-15-4-4c-10-5-16-11-20-18-2-5-2-5-18-6-9 0-11 0-14 2-3 1-5 5-5 9 0 5 8 20 15 27 4 4 4 5 2 5-3-1-6 0-9 3l-4 3-2-3a89 89 0 0 1-19-74 88 88 0 0 1 94-69Zm-573 3a84 84 0 0 1 63 92c-1 11-3 19-7 28-9 19-23 33-41 43-15 7-24 9-38 9-9 0-12-1-19-3-16-5-27-12-39-25a83 83 0 0 1-23-42c-3-14-2-32 2-45 9-28 31-49 60-57 8-2 9-3 23-2 10 0 14 0 19 2Zm209 52c0 2 0 2-7 2h-6v5a511 511 0 0 0-2 44c-1 2-2 4-6 7-3 1-7 5-9 7-4 3-4 4-4 7v5c0 3 4 4 9 2 4-2 9-2 16-1 3 1 3 1 3-2l6-7 3-1c4-2 16 0 19 3l1 15 1 14h-23a251 251 0 0 1-30 0c-2 1-2 1-2 8v15l-1 7h-3c-2 0-3 0-4-2l-1-32c0-29 0-29 3-33l8-8c12-8 11-5 11-31v-24c1-2 1-2 9-2 9 0 9 0 9 2Zm187 20h-1l-1-1 1-1 1 2Zm-660 1c2 0 3 0 3 2l-2 2-1-1-1-1-1-1c-1-1 0-3 1-2l1 1Zm-4 1v1l2 2v1c-2 0-3-4-3-4h1Zm98 8-1 1-1-1 1-1 1 1Zm-12 4-1 1v-1h1Zm8-1-2 2-2-1 3-1h1Zm-280 54c4 0 5 1 7 4a130 130 0 0 0 37 38l15 8c3 1-4 1-112 1a825 825 0 0 1-78-2l3-1 5-4 4-2v-1l5-3 5-4c9-6 26-23 31-32l33-2a2234 2234 0 0 0 45 0Zm311 1 9 14a103 103 0 0 0 22 24c1 2 12 8 19 11h-94l-95 1 4-3a194 194 0 0 0 22-15 110 110 0 0 0 24-26c3-6 3-6 8-6h81Zm281 0h18v50h-62a1188 1188 0 0 1-60-3 111 111 0 0 0 9-8 112 112 0 0 0 27-31l4-7 23-2 41 1Zm300 1 1 2-17 1-18 1-6 2-7 2c-2 1-2 1 0-1l4-2c1 0 1 0 0 0-1-1 0-2 4-3 4-3 10-3 30-4 8 0 9 0 9 2Zm-1147 7 3 2 1 1 3 1c3 2 3 2-6 2h-11a729 729 0 0 1-67 1v22c0-5-2-1-2 6 0 1 0 2-2 0-1-1-2-4-1-6v1l1 2 1-5 1-7v-1l-1-2v-1l-1 3-1 5-1-12 1-11v-1h82Zm93 2 5 4v1l-1-1-5 1c1-1-1-1-6-1h-32l-26 1-1-3-1-4a402 402 0 0 1 67 2Zm1128 19-1 14a1278 1278 0 0 1-115 2v1l-1 2c-1 1 0 8 1 17v7c3 3 1 3-2-1-8-8-11-26-7-36 5-11 10-14 20-15l9-1c7-3 20-4 63-3h32ZM304 802c1 1 1 1 0 0l-1-1 1 1ZM269 30h1-1s-1 0 0 0Zm-15 2v1l2-1h-2Zm-51 16h1-1c-1 0-1 0 0 0Zm56 117c-2 1-4 2-4 4-2 3 0 4 8 4l6 1c-1-1 0-1 1-2 3-2 1-5-4-8-2-1-3-1-7 1Zm-43 32c4 3 5 3 2 0l-3-3 1 3Zm270 238-1 36 1 33h14v-10l1-11h5l21-2c7-2 12-8 14-17 3-13-3-23-15-29-6-3-6-3-23-3h-17Zm34 13c6 3 8 9 6 15-2 4-4 5-15 5h-11v-21h9l11 1ZM362 261v1l1-1h-1Zm1130 253c-4 2-7 6-8 11-3 12 10 23 22 17l6-5c2-2 2-4 2-7 0-7-1-10-4-13-4-6-12-7-18-3Zm-292 25c-5 3-5 8-1 11 3 2 4 3 3 6l-1 5c1 4 4 4 26 4 19 0 19 0 21-2l3-9 2-5c3-3 3-5 1-7-3-4-4-5-28-5-21 0-23 1-26 2Zm-553 43c-8 1-14 4-21 9-8 7-16 20-17 28v4l-3-5c-3-6-9-13-14-16-5-2-5-2-24-3H463l-5 3c-9 4-15 11-18 22-2 9-1 20 3 28 3 5 6 8 11 11 4 2 4 2 69 2h66l5-2c7-4 12-10 14-17 1-5 2-4 7 3 5 8 14 17 18 20l19 1 16-1 5-3c7-4 10-7 14-12 7-11 9-18 9-31-1-9-1-10-4-15-6-13-20-24-32-26h-13Zm17 15c6 3 12 9 14 13 2 3 2 4 1 8-2 12-6 19-14 24l-6 4h-12c-11 0-12 0-15-2h-4c0 2-3-3-5-8-2-7-2-17 1-23 4-8 12-14 20-17 5-2 15-1 20 1Zm663 113h2l-1-1-1 1Zm-6 10 3 1c2 0 2 0 0-1-2-2-3-2-3 0ZM366 293l1 2c2 1 2 1 1-1s-2-2-2-1Zm-108 33 2 2 2 1c0-1-3-4-5-4l1 1Zm-16 2-1 1 1-1c1-1 0-2 0 0Zm-2 3v1l1-1-1-1v1Zm-2 3h1l1-1h-1l-1 1Zm42 44c-3 2-9 14-9 18 0 7 9 14 16 14 9 1 17-8 17-18 0-6-2-9-10-13-6-3-11-4-14-1Zm14 10 1 5c0 7-8 11-13 6-2-2-2-4 1-10 1-3 1-3 5-3 3 0 4 0 6 2Zm-91 45 1 1 1-1h-2Zm96 14c0 1 0 1 0 0l1-1-1 1Zm-2 3 1 1 1-1-1-1-1 1Zm1158 208-10 3c-19 10-36 31-38 49v9c3 6 5 7 19 7s14 0 18-10c4-7 9-12 17-16s8-5 9-20c0-17 0-18-4-21s-5-3-11-1Zm30 0c-5 3-6 4-6 19 0 17 1 18 8 22 11 6 16 12 18 20l3 5 26 2c4 0 7-4 8-9 1-4 1-5-1-12-3-12-8-20-17-29-8-9-17-14-29-18-7-2-7-2-10 0Zm-18 55c-10 4-13 17-7 26 4 5 8 7 14 7 12 1 21-13 16-25-4-8-14-12-23-8Zm12 11c2 2 2 8 0 10-5 4-13-3-9-9 2-4 6-4 9-1Zm25 20c-4 7-9 12-16 16s-8 5-8 19c-1 13 0 15 4 17 3 1 4 2 9 1l11-4c10-4 24-17 31-27 3-4 7-17 7-20 0-2-2-6-4-7l-17-1h-14Zm-634-87c-10 3-25 13-34 23-5 7-11 20-13 28-2 7-2 7-1 11l6 6c3 1 4 2 14 1 13 0 15-1 17-6 3-9 9-15 20-21 7-4 7-5 7-22 0-13 0-14-2-16-3-4-7-5-14-4Zm30 0c-4 2-5 5-5 21l1 16 8 6c10 6 15 12 17 20 2 5 4 6 17 6 11 1 11 1 14-1 6-4 7-10 4-20-6-21-24-40-44-46-8-3-8-3-12-2Zm-18 57c-6 3-8 7-9 14 0 10 6 18 16 18 6 0 8-1 12-4 4-4 5-6 6-11 1-8-4-16-11-18-6-2-9-2-14 1Zm11 10c2 1 2 2 2 5 0 6-7 7-10 2-1-3-1-5 2-7 2-2 4-2 6 0Zm-63 13c-3 1-7 5-7 9 0 6 8 20 16 29 10 11 26 21 35 21 5 1 9-1 10-5v-26l-8-6c-8-6-14-11-16-16-1-5-2-5-15-6h-15Zm92 2-4 6c-3 6-7 10-15 15l-6 4c-1 1-2 6-2 14 0 13 0 13 2 15 4 4 11 4 22-1 18-10 33-26 37-42 1-5 0-8-3-11l-16-1-15 1Z"/><path fill="#97b6c9" d="m289 5-9 3-3 2-1 1h-3a60 60 0 0 1-12 5 125 125 0 0 1-19 7l-11 2-3 1-3 1h-3l-4 2a173 173 0 0 0-14 3l-19 3a893 893 0 0 0-21 5c-4 2-12 10-14 15-3 7-3 20 2 26l11 10 4 1c2 1 2 1 2 21l1 23a42 42 0 0 0 6 14c2 3 2 4 2 18v15h-5l-6 1-4 1-4 1h-4l-3 1-2 1-4 1-5 2-1 1-1 1-5 2c-10 8-17 16-25 30l-7 13-7 12-6 11a893 893 0 0 0-31 59c-16 25-19 33-16 45 2 9 6 17 12 23 5 5 11 11 13 11h1l2 1 1 1 2 1 2 1h3l3 1 21 2c5 0 7 0 6 1l-1 1-1 2c-1 2 0 409 1 413l1 6v3l-31 1c-66 1-68 1-71 3l-2 4c0 3 1 3 3 4l640 1h637l2 4c6 14 16 23 27 26h26l22 1 3-3 5-6c3-7 5-7 25-7l17 1 2 2 4 3 1 2 2 1h4c5-2 6-2 7-6l5-6c2-4 3-5 3-8v-4h196v-11h-29l-47-1-37-1 3-2c1-1 3-3 5-3a66 66 0 0 0 14-10l11-12 4-4 10-15c0-2 2-3 2-3h25c13 0 26-3 32-8l1-1 3-2 3-2 21-39 8-90a253 253 0 0 0-31-127 77 77 0 0 0-30-25l-13-5-6-2h-5l-4-1-19-1c-16 0-18 0-20 2-4 1-5 2-8 0-5-2-8-6-21-27a1419 1419 0 0 0-62-83l-7-7a451 451 0 0 0-95-79l-8-4a226 226 0 0 0-43-20 216 216 0 0 0-54-13l-7-1-90-1h-90s-76 6-87 4c-8-1-50-36-51-37l-18-6-49-1-46-1-6-10-2-3 4-5c8-8 12-16 12-26v-6l-1-2c0-4-10-17-13-17l-2-1-9-5-116-2c-98 2-91 1-96 3-6 2-8 4-13 8-4 5-6 8-8 14-2 7-2 13 1 22 2 4 11 14 13 14l-2 8-3 8c-1 2-1 3-4 3l-9 2-5 2c-9 4-18 9-28 18a321 321 0 0 0-31 32l-11 11-13 15-9 10a205 205 0 0 1-18 19l-8 9a223 223 0 0 0-17 19l-8 9-8 8c-6 6-13 13-14 16-2 2-2 2-14 2-14 0-14 0-9-9l2-6c0-1 3-4 7-5l12-12 3-3 2-3 3-4 5-8 1-1 2-2 2-4 3-4 6-11 5-8 11-9c5-4 8-7 12-13 3-4 6-11 6-13l1-2c2-1 0-21-2-23l-1-2v-2l-2-2a61 61 0 0 0-18-18l-4-3-10-9c-9-8-10-9-16-9l-5 1h-2c-2 0-6 4-7 6-2 4-3 4-6 2l-5-4a190 190 0 0 0-16-11c-3-1-4-1-9 3l-3 1-5-3-6-5-2-2-2-1c-3 0-5 3-6 7-1 1 0 2 6 8l9 8 11 11c10 9 10 9 9 12l-1 28 1 1 2 5c3 7 4 9 3 11-2 3-4 2-14-8l-12-13a305 305 0 0 0-24-26l-6-7-7-7-6-7c-4-4-5-5-3-5l2-1 1-1 11-8a65 65 0 0 0 16-27v-5l1-5 1-7v-7h4c8-1 12-2 14-4l1-1 3-3 1-2c1-1 3-7 2-10 0-6-4-15-6-18-3-2-6-7-6-8s4-6 10-11c10-10 13-15 16-23V47l-1-3-5-12-3-4-3-3-5-5-5-4-2-1a59 59 0 0 0-17-8c-2-2-14-3-18-2Zm-23 23h-2 2Zm12 1h-1l-2-1h2l1 1Zm-4 1a114 114 0 0 1-22 7l-2 1h-4c1 1-1 2-4 2l-2 1-3 1h-2l-2 1a318 318 0 0 0-19 5h-3l-6 1h-5l-2 1-1 1h-3l-3-1-1 1-1 1c-1 0-2 0-1-1 1 0 1 0 0 0h-2c1 1 0 1-1 1-2-1-3 0-4 1-3 2-2 2-4 1l-1-1c1-1 0-1 0 0l-2-1c-2-2-2-2 0-2h2c2 1 3 1 2-1h2l3-1 19-3c3 0 4 1 3 3h2v-1c-2-2 0-3 3-3l5-1 2-1 3-1h4c1 0 3 0 2-1 0-1 4-2 6-1l2-1h1l1-1h2l1 1 1-1c-2 0-1-2 0-1l3-1h3-1l-1 1 4-1 2-1c-1 0-2 0-1-1l2-1 3-1h2l2-1 2-1v1c-1 1 0 1 1 1h2l2 1 2-1c0-2 4-3 6-2l1 1Zm30 8 8 5c3 3 3 3 3 7s0 5-2 6l-11 11c-7 7-8 9-9 7-2-4-11-13-16-17-2-2-2-3-2-7 0-6 0-6 8-11 8-3 14-4 21-1ZM174 55l-1 1v-1h1Zm-12 17v1l-1-2c0-1 1-1 1 1Zm41 23h4v11c0 8 1 11 2 13 2 4 6 5 10 1 2-2 2-2 3-13 0-14 1-15 4-10 5 6 12 12 21 18 10 6 11 7 9 8v-1l-1 4-2 5c-1 2-2 3-1 4h2l2 1c0 1 1 2 3 1h5c3 0 3-1 4-2 0-2 6-6 6-5l2 1c1-1 6 1 16 6l4 2v9c3 6-6 28-14 35s-21 11-34 10c-10-1-9 0-24-6l-5-3c-3-2-4-1-4 3s5 10 13 14c4 2 14 5 18 5 2 0 2 0 2 4l-1 8c-4 9-7 14-13 16-3 2-3 2-6 0-9-5-19-15-28-28-10-15-10-14-10-37v-20l-4-7-5-10V94h9l13 1Zm55 37h-1c0-1 1-3 2-2l-1 2Zm-1 2-1 1v-1h1Zm526 10c7 4 13 11 13 16 0 3-3 3-4 0s-4-6-9-9l-50-1h-47v31h-7l-7-1v-15l-1-15h-46c-50 0-48-1-52 4-6 7-6 13 0 22 2 3 2 4 1 4-3 0-9-5-11-8-5-12 1-26 13-29a5277 5277 0 0 1 207 1Zm-22 51-9 5-10 6-1-5 1-5 19-1Zm-173 5c-4 5-4 5-8 4-3 0-5 1-5 2-2 2-2-1 0-5l2-5h14Zm48-3c-1 4-3 6-7 7-2 1-2 1-2-4v-4h5c4 0 5 0 4 1Zm72 0h-6c-3 0-5 1-6 3-3 3-9 6-11 5l-1-7c1-2 1-2 13-2 8 0 12 0 11 1Zm-362 8c2 2 3 3 1 2l-6-6 5 4Zm-6-3v2l-1 1-1-2c0-2 2-2 2-1Zm46 6 10 9 13 12c17 13 20 27 10 44-3 4-11 11-15 13s-12 3-17 3c-7-2-10-4-16-9-8-9-13-17-15-25l-2-6c-1-3-1-12 1-14 2-1 2-1 6 3l6 4 3 1 6 4 8 4 2 3 3-2 6-2h2c0-3-6-13-11-18-11-13-13-14-12-17 1-2 6-8 8-8l4 1Zm-28 8c4 4 5 5 1 2s-7-7-6-7l5 5Zm-3 2 1 2-2-2-1-1 2 1Zm543 4a97 97 0 0 1 51 36l-9 4a398 398 0 0 0-39 18l-10-14c-7-9-11-13-18-16l-6-3H729l-142 1c-10 2-14 6-31 24-15 17-31 34-42 44l-10 10-11 1a86 86 0 0 0-18 3c-6 0-19 11-24 19-4 7-6 12-5 20 0 7 0 8 3 14 3 7 8 12 13 15 4 2 4 2 34 2 33 0 31 0 40-7l4-4h114l117 1h4l-5 6a415 415 0 0 0-55 82l-60 6-6 1c-9 2-9 2-8-2 2-9 2-13 1-19a44 44 0 0 0-39-34c-6-1-8-1-14 1-3 0-8 2-11 4-6 3-15 12-18 18-3 5-5 15-5 19a46 46 0 0 0 8 25l-24 6a389 389 0 0 0-110 40l-7 4-1-67-1-69c-3-11-10-20-20-25l-7-3c-4 0 0-4 46-53l33-36 58-60c10-8 21-12 35-13a11656 11656 0 0 1 333 1Zm-761 3 10 11c4 4 5 11 5 13l-3 10-6 9-2 1-5 3-15 4-8 1h-7c-4 0-5-1-4-8 0-4 0-4-1-2a519 519 0 0 1 25-41l4-1h7Zm141 37 7 6c1 6 0 7-4 9l-9 7c-6 6-7 7-11 1l-7-6c-7-3-8-5-8-9 0-3 0-4 3-6l13-6c5-1 8 0 16 4Zm951-2c38 4 74 17 112 40 38 22 76 56 108 95 16 20 25 32 49 70 11 17 17 25 20 27h30c28 1 29 1 36 3 10 3 19 7 26 13 7 5 11 9 16 18 3 5 4 8 4 11 0 5 0 5-2 5s-3 0-4-3c-3-6-14-19-19-23l-9-5c-8-4-12-5-32-5l-18 1a209 209 0 0 0 24 33c2 3 12 10 18 13 4 1 5 2 23 2h39l12 86c0 106-27 116-31 119l-6 1c1-2 1-2-2-1h-4v-27l-1-16-4-1h-3l-1-8-2-16c-10-39-36-70-74-89-13-7-24-11-40-15a244 244 0 0 0-46 1l-20 5-24 10a104 104 0 0 0-19 12 251 251 0 0 0-31 33l-2 5a174 174 0 0 0-19 44l-1 12-23 1-30-2s-1-2 1-9c2-6 2-7 2-91 0-86 0-86-2-92-2-8-6-14-12-20l-5-5h99l100-1a329 329 0 0 0-164-169 287 287 0 0 0-54-16 141 141 0 0 0-38 0l-33 8a256 256 0 0 0-128 109l-21 37c-8 15-13 32-12 41 1 5 3 10 5 12 2 1 6 9 5 9-3 1-7 4-9 7-3 5-5 14-2 19 1 4 6 8 10 9h19l8-2 9-5 3-3h28c30 0 32 0 40-5 5-3 10-7 14-12 3-3 5-9 4-9l2-2c5-6 9-15 10-24l1-3h81l6 3c8 5 14 9 17 15 5 10 5 7 5 98 0 86 0 87-4 96l-2 3-53-1a2408 2408 0 0 1-75 1c-1 1-1-4-1-10 0-12 0-12-2-14-3-3-7-4-23-3-19 0-19 20-19 35 0 10-56 8-56 9-1 1-15-47-18-54-4-9-11-22-15-26-3-5-22-24-28-29-12-9-30-17-46-21l-10-3c-9-2-39-3-53 0a167 167 0 0 0-58 23c-2 0-21 15-35 42-15 28-24 68-25 68h-79v-4c0-5-1-9-6-13-8-7-20-7-27 2-4 3-4 7-4 13v2l-3-2c-6 0-7 1-10 4-4 3-4 3-12 5-13 2-13 2-13 4l-1-3-1-13c1-10 3-15 13-30l2-4-3-1c-5 0-7 1-12 5-7 7-13 21-14 32 0 1 0 1 0 0l-6-1-9-1h-3l-109 1h-13l-14 1v-1c0-7-5-13-11-16-10-5-25 2-29 13l1 7 1 4h-35c-2 0-2 0-2-7l1-7 1-4 3-10c5-10 13-17 25-23 11-5 17-7 26-7 5 0 6-1 11-3 9-5 16-13 21-23 3-9 4-13 3-22-1-12-5-20-14-28-7-7-17-12-22-12l-3-1c0-1 12-12 17-15l35-19c27-14 53-23 87-30a1608 1608 0 0 1 157-24l135-1 129-1 3-8a425 425 0 0 1 97-143c11-12 30-29 35-33 5-3 9-9 10-14 1-4 0-6-6-9-3-2-3-2-64-2l-61 1-5 3c-18 5-48 20-72 37l-41 31a634 634 0 0 0-97 115l-6 10h-19l5-12a471 471 0 0 1 164-171 226 226 0 0 1 93-35 8614 8614 0 0 1 235-1Zm-1004 6c1 1 2 5 1 6 0 2-4 2-26 2-25 0-25 0-25-2v-5l1-3h24c20 0 24 1 25 2Zm136 20c5 5 11 9 17 11 4 1 11 2 13 1 4-3 2 2-13 25a508 508 0 0 0-17 24l-2 2-4 2c-7 0-10 0-17-4-7-3-7-3-6-6 0-4 0-4-3-7l-11-9-8-6 9-12c2-1 2-1 7 1 9 2 10 1 20-14l9-12 6 4Zm40 3-2 3-3 2 2-3 3-2Zm-151 32 11 4c4 2 4 4 0 5-2 1-3 0-9-2l-7-3-4 8c-3 7-3 7-6 6l-4-1c-1-1 11-21 12-21l7 4Zm39 1 5 3-2 5c-4 8-2 13 4 14 5 1 6 0 9-6l3-4 12 5-12 20-27-13-9-7 10-19c1-1 1-1 7 2Zm-209 4 20 14-4 5-3 5 70 1c76 0 75 0 84 4 9 5 14 12 14 22-1 14-9 25-21 27l-19 1-15 1-8 17c-1 3-1 3 1 4l10 6a1293 1293 0 0 1 71 34h7a186 186 0 0 1 14-25v3l2-6 1-1h1c0-1 2-5 3-4l-1 3v2-1l1-1 8-16a931 931 0 0 1 4-3c-29 56-28 55-31 56a628 628 0 0 1-94-44c-4-2-4-2-4-6l3-9 4-8-11-12-50-1c-49 0-49 0-55-2-12-4-20-11-25-21-3-5-3-6-3-12s0-8 3-13c3-8 14-26 15-25l8 5Zm221 8c0 2 0 3-2 2l1-2c1-3 2-3 1 0Zm-49 3h5c3-1 4-1 7 5 3 5 3 5 16 11l22 12 9 5 4-3c4-4 5-4 9 0l3 3-4 8a1513 1513 0 0 1-42 80l-69-33c-3-2-4-4-2-7l17-1 20-2c9-4 14-8 21-17 2-3 3-5 4-11 2-8 2-8 1-14-2-11-4-14-11-21l-11-8-5-3 4-5 2 1Zm274 9 1 1-1-1-1-2 1 2Zm-50 4h-1c-1 0-1 0 0 0h1Zm-141 7c8 5 11 7 9 8v-1l-1-1-4-2c-3-1-3-2-4 0s0 2 2 2l1 1c0 1-1 1-8-2l-7-4 3-5 9 4Zm3 11-1 2v-2l1-1v1Zm-3 7v2l-1 2-1 2-3 5-3 5-2 4 4-11 7-11-1 2Zm-12 24-2 1 1-1 1-2v2Zm-5 8-1 1v-1c1-2 2-1 1 0Zm-180 1c5 1 9 4 9 5s-1 2-4 1l-11-1c-7 0-9 2-11 7-2 4-2 4-3 2-4-6 4-15 14-15l6 1Zm172 15-2 3 1-3 2-3-1 3Zm3 1-1 1v-1l2-2-1 2Zm-7 6-1 3v-3l2-2-1 2Zm3 2-1 1v-1l1-2v2Zm-6 4-2 3 1-3 2-2-1 2Zm-116 4c4 4 15 10 28 15 2 1 2 2 1 3l-28 1-27 1v-11c0-13-1-12 13-12h9Zm424 8c5 3 9 6 12 11s4 15 1 21c-3 7-7 10-18 11l-22 2c-3-1-8-6-10-12-3-8-1-18 4-26 3-3 10-8 14-9 5-1 14 0 19 2Zm511 7c6 3 15 11 17 15v1c-1-1-3-1-8 1l-16 1h-11v3c2 4-1 14-5 18-1 2-8 6-13 8l-23 2h-18l1 5v6h-4c-5 0-7-1-11-8-3-4-3-5-3-10 0-17 5-30 15-37 3-3 12-6 18-7l29-1h27Zm-895 6h-1v-1l1 1Zm-78 45v-3h1l-1 3Zm992 0-1 1h-1l2-1Zm-47 9Zm-955 7-3 2c-1 1-2 3 0 4 1 1 1 0 1-2h1l2-1h1v4c1 2 0 5-1 2h-2l-1 2v1l-1-2v-1c-2 3-1 4 3 4l8-2h-2l-2-1h1l3-1c2-2 2-2 2 1l1 3v241c0 1-3 2-9 2h-8l1-128a7154 7154 0 0 1 3-128l2-3v3Zm901 10-3-2-1-3 2 3 2 2Zm-1 6-1 2 1-3 1-1-1 2Zm-21 7-4-7 2 3 2 4Zm-912 19v24-48Zm931-21c-2 2-9 5-13 5l-4-2c-1-1-1-1 0 0l5 1c3 0 10-3 11-5l2-1-1 2Zm426 55-1 1v-1h1Zm6 0-2 1 1-1h1Zm18 1h-1c-1 0-1 0 0 0h1Zm-38 1-2 1v-1h2Zm-7 2h-1v-1c1 0 2 0 1 1Zm-5 1h-2 2Zm-7 2h-2l2-1v1Zm86 0 1 1-2-1-1-1 2 1Zm-93 3h-2c-1 0 0 0 0 0l2-1v1Zm-8 3-5 2 3-2 5-2-3 2Zm-6 3-2 1 1-1h1Zm-10 6-2 1c-2 1-2 1 0-1 2-1 3-2 2 0Zm-8 5-2 2c-2 2-2 2 0 0l2-2Zm-7 7-3 2-3 3 3-3 3-2Zm181 6c1 1 1 1 0 0l-2-1c0-1 1-1 2 1Zm-189 2-2 2c-2 1-2 1 0-1 2-3 3-3 2-1Zm108 0c9 1 20 5 28 8 14 8 28 20 36 34 10 17 12 26 12 45 0 11 0 14-2 21a94 94 0 0 1-50 60c-11 5-18 6-32 7-10 0-12 0-19-2-8-2-13-4-17-7-3-2-3-2-3-8l-1-8-2-3 5 2c8 6 19 9 24 8l4-3 3-2-1-12-1-15-4-4c-10-5-16-11-20-18-2-5-2-5-18-6-9 0-11 0-14 2-3 1-5 5-5 9 0 5 8 20 15 27 4 4 4 5 2 5-3-1-6 0-9 3l-4 3-2-3a89 89 0 0 1-19-74 88 88 0 0 1 94-69Zm-573 3a84 84 0 0 1 63 92c-1 11-3 19-7 28-9 19-23 33-41 43-15 7-24 9-38 9-9 0-12-1-19-3-16-5-27-12-39-25a83 83 0 0 1-23-42c-3-14-2-32 2-45 9-28 31-49 60-57 8-2 9-3 23-2 10 0 14 0 19 2Zm457 6-4 6c-2 2-2 2-1-1l7-8-2 3Zm-10 16-2 3 3-7-1 4Zm-238 30c0 2 0 2-7 2h-6v5a511 511 0 0 0-2 44c-1 2-2 4-6 7-3 1-7 5-9 7-4 3-2 4-1 7l-1 3v2c0 3 2 4 7 1h16c3 1 3 0 3-2 1-5 8-9 15-9 5 0 11 2 13 4l1 15 1 14h-41c-7 0-8 1-8 2l1 10a47 47 0 0 0 1 11c-1 1 1 1 7 1h8l-6 1-12 3-8 2c-4 1-4 0-5-2l-1-32c0-29 0-29 3-33l8-8c12-8 11-5 11-31v-24c1-2 1-2 9-2 9 0 9 0 9 2Zm227 1v1-2l1-1-1 2Zm-1 6v-2 2Zm-2 10v-3 3Zm-84 0-13 12c-3 1-3 1 1-2 4-2 9-7 12-11s3-4 0 1Zm-862 4-3 2 4-4-1 2Zm9 1c1 2 0 2-2 0-2-3-2-3 0-2l2 2Zm240-1c2 0 3 0 3 2l-2 2-1-1-1-1-1-1c-1-1 0-3 1-2l1 1Zm-4 1v1l2 2c1 1 1 2-1 1v1h-1l-1-2c1 1 2 0 1-2v-2 1Zm-247 4 1 2-2-4 1 2Zm10 2-1-1 1-1v2Zm245-1-2 1 1-1h1Zm438 9v-6 6Zm-687-7h-3l2-1 1 1Zm866-1-2 3-2 2 2-3 2-2Zm-24 2-7 4 3-2 4-2Zm-580 2c-1 1-1 1 0 0l1-1-1 1Zm-30 4 1 2-2-2-2-2 3 2Zm28-1-2 2-2 2 2-2 2-2Zm570 1h-2 2Zm-53 1c-4 3-5 4-3 1l3-2v1Zm-91 3-4 3-8 6-2 2a55 55 0 0 1 14-11Zm160 3-1 1v-1h1Zm-879 27h-2l-1-2 1 1 2 1Zm65 1-2 1c-1 1-1 1 0 0l2-1Zm23 16c4 0 5 1 7 4a130 130 0 0 0 37 38l15 8c3 1-4 1-112 1a825 825 0 0 1-78-2l3-1 5-4 4-2v-1l5-3 5-4c9-6 26-23 31-32l33-2a2234 2234 0 0 0 45 0Zm311 1 9 14a103 103 0 0 0 22 24c1 2 12 8 19 11h-94l-95 1 4-3a194 194 0 0 0 22-15 110 110 0 0 0 24-26c3-6 3-6 8-6h81Zm281 0h18v50h-62a1188 1188 0 0 1-60-3 111 111 0 0 0 9-8 112 112 0 0 0 27-31l4-7 23-2 41 1Zm300 1 1 2-17 1-18 1-6 2-7 2c-2 1-2 1 0-1l4-2c1 0 1 0 0 0-1-1 0-2 4-3 4-3 10-3 30-4 8 0 9 0 9 2Zm-1147 7 3 2 1 1 3 1c3 2 3 2-6 2h-11a729 729 0 0 1-67 1v22c0-5-2-1-2 6 0 1 0 2-2 0-1-1-2-4-1-6v1l1 2 1-5 1-7v-1l-1-2v-1l-1 3-1 5-1-12 1-11v-1h82Zm93 2 5 4v1l-1-1-5 1c1-1-1-1-6-1h-32l-26 1-1-3-1-4a402 402 0 0 1 67 2Zm1128 19-1 14h-114l-1 4v12l4 11 1 4v2l-2-1c-12-6-18-27-12-40 5-11 10-14 20-15l9-1c7-3 20-4 63-3h32ZM304 802c1 1 1 1 0 0l-1-1 1 1ZM269 30h1-1s-1 0 0 0Zm-15 2v1l2-1h-2Zm-51 16h1-1c-1 0-1 0 0 0Zm56 117c-2 1-4 2-4 4-2 3 0 4 7 4 6 1 9-1 9-3 0-3-5-7-8-7l-4 2Zm227 270-1 36 1 33h14v-10l1-11h5l21-2c7-2 12-8 14-17 3-13-3-23-15-29-6-3-6-3-23-3h-17Zm34 13c6 3 8 9 6 15-2 4-4 5-15 5h-11v-21h9l11 1Zm972 66c-4 2-7 6-8 11-3 12 10 23 22 17l6-5c2-2 2-4 2-7 0-7-1-10-4-13-4-6-12-7-18-3Zm11 3c4 1 6 5 6 9 0 3-1 4-4 6-4 3-7 3-12 0-4-2-5-4-5-7 0-8 8-12 15-8Zm-303 22c-5 3-5 8-1 11 3 2 4 3 3 6l-1 5c1 4 4 4 26 4 19 0 19 0 21-2l3-9 2-5c3-3 3-5 1-7-3-4-4-5-28-5-21 0-23 1-26 2Zm-553 43c-9 1-17 5-24 12-8 8-14 20-14 27 0 2 0 2-3-3-3-6-9-13-14-16-5-2-5-2-29-3h-62c-38 1-38 1-43 3-8 3-13 9-16 16-7 18-1 38 13 45 3 2 5 2 68 2h66l5-2c5-3 9-7 12-11l3-12c0-2 0-2 1 1 2 7 16 24 23 27 3 2 5 2 19 2l16-1 5-3c11-7 20-19 22-30l1-14c-1-8-1-9-4-14-6-13-20-24-32-26h-13ZM198 412h2l-1-1-1 1Zm-1 3-2 3-1 2v3l3-4c2-5 2-6 0-4Zm-4 11c-1 2 0 3 2 3v1c-1 0-1 1 0 0l4 1c4 3 4 1-1-2-4-4-4-4-5-3Zm10 7 1 1 1-1h-2Zm102 8 1 1v-1h-1Zm-6 6c0 1 0 1 0 0l1-1-1 1Zm-2 3 1 1 1-1-1-1-1 1Zm-62 2h2-2Zm3 1 1 1h1l-2-1Zm42-75c-3 2-9 14-9 18 0 7 9 14 16 14 9 1 17-8 17-18 0-6-2-9-10-13-6-3-11-4-14-1Zm14 10 1 5c0 7-8 11-13 6-2-2-2-4 1-10 1-3 1-3 5-3 3 0 4 0 6 2Zm33-31 1 2c1 0 2-1 1-2v-1l-1-1-1 2Zm1128 301-10 3c-19 10-36 31-38 49v9c3 6 5 7 19 7s14 0 18-10c4-7 9-12 17-16s8-5 9-20c0-17 0-18-4-21s-5-3-11-1Zm30 0c-5 3-6 4-6 19 0 17 1 18 8 22 11 6 16 12 18 20l3 5 26 2c4 0 7-4 8-9 1-4 1-5-1-12-3-12-8-20-17-29-8-9-17-14-29-18-7-2-7-2-10 0Zm-18 55c-10 4-13 17-7 26 4 5 8 7 14 7 12 1 21-13 16-25-4-8-14-12-23-8Zm12 11c2 2 2 8 0 10-5 4-13-3-9-9 2-4 6-4 9-1Zm25 20c-4 7-9 12-16 16s-8 5-8 19c-1 13 0 15 4 17 3 1 4 2 9 1l11-4c10-4 24-17 31-27 3-4 7-17 7-20 0-2-2-6-4-7l-17-1h-14Zm-634-87c-10 3-25 13-34 23-5 7-11 20-13 28-2 7-2 7-1 11l6 6c3 1 4 2 14 1 13 0 15-1 17-6 3-9 9-15 20-21 7-4 7-5 7-22 0-13 0-14-2-16-3-4-7-5-14-4Zm30 0c-4 2-5 5-5 21l1 16 8 6c10 6 15 12 17 20 2 5 4 6 17 6 11 1 11 1 14-1 6-4 7-10 4-20-6-21-24-40-44-46-8-3-8-3-12-2Zm-18 57c-6 3-8 7-9 14 0 10 6 18 16 18 6 0 8-1 12-4 4-4 5-6 6-11 1-8-4-16-11-18-6-2-9-2-14 1Zm11 10c2 1 2 2 2 5 0 6-7 7-10 2-1-3-1-5 2-7 2-2 4-2 6 0Zm-63 13c-3 1-7 5-7 9 0 6 8 20 16 29 10 11 26 21 35 21 5 1 9-1 10-5v-26l-8-6c-8-6-14-11-16-16-1-5-2-5-15-6h-15Zm92 2-4 6c-3 6-7 10-15 15l-6 4c-1 1-2 6-2 14 0 13 0 13 2 15 4 4 11 4 22-1 18-10 33-26 37-42 1-5 0-8-3-11l-16-1-15 1Z"/><path fill="#fd9f17" d="M286 6a189 189 0 0 0-18 8 201 201 0 0 1-46 13l-3 2-7 1-17 3-19 3c-11 2-23 11-27 20-2 7-1 19 3 25 2 3 9 9 11 9l4 2c2 1 2 1 2 21 0 22 0 23 6 35l3 6v29h-5l-5 1-4 1h-5l-6 2a51 51 0 0 0-11 4 76 76 0 0 0-15 10l-7 7c-7 9-11 16-40 68l-15 26c-5 8-6 10-4 11l-6 11c-14 22-16 29-13 41s9 22 18 29a61 61 0 0 0 22 10l15 2c11 0 12 0 11 1l-2 4v194l-1 3a12227 12227 0 0 0 2 225l-50 1c-48 0-48 0-50 2-4 2-4 6 0 8l640 1h637l4 8c4 7 11 16 16 18l5 2 4 1 3 1 23 1h22l3-3 5-6c3-7 6-7 25-7l17 1 3 2 2 2c3 5 11 5 14 0l5-8c3-4 4-5 4-8v-4h196v-11h-17a3282 3282 0 0 0-95-2l1-2c2 0 2-1 2-2h1l14-9c11-8 22-21 27-32 3-5 0-5 28-5 17 0 19 0 23-2 4-1 11-6 14-9 2-1 32-9 32-136a210 210 0 0 0-32-121 71 71 0 0 0-18-18c-3-3-15-9-23-11l-8-3h-6l-4-1-17-1c-17 0-18 0-21 2-5 2-9 1-13-3l-11-15a1185 1185 0 0 0-60-84 632 632 0 0 0-58-58l-3-2a364 364 0 0 0-49-34l-7-4a338 338 0 0 0-74-29l-14-3c-9-2-20-3-107-3h-90s-48 9-85 0c-31-7-51-32-52-33-6-3-11-4-23-6l-47-1h-42l-3-3-4-8-2-3 4-5c8-7 12-17 12-25 0-5 0-8-3-14-2-4-9-12-11-12l-2-1-10-5c-4-2-202-1-208 0-6 2-11 5-16 9a30 30 0 0 0-5 38c2 4 4 7 9 11 3 3 3 3 2 7-5 10-6 13-8 13l-12 3c-13 4-25 13-42 30a1482 1482 0 0 0-81 87 218 218 0 0 0-17 19 227 227 0 0 0-18 19l-9 11-3 3h-12l-13-1 3-7 3-7c0-1 2-3 6-5 5-2 9-7 16-15a87 87 0 0 0 11-16l2-2 2-4 3-4c3-8 5-10 7-13l4-5c2-4 2-4 10-10l9-8a57 57 0 0 0 11-20v-19a48 48 0 0 0-22-26l-1-2-4-3-10-9c-8-8-10-9-16-9l-5 1h-2c-2 0-6 4-7 6-3 5-4 5-8 0-8-6-19-14-21-14l-7 4c-3 2-3 2-6-1a212 212 0 0 0-12-9c-3 0-5 3-6 7-1 1 0 2 6 8l9 8 12 11c9 9 9 9 8 12l-1 28 1 1 3 6c3 7 3 10 0 11-2 1-2 1-12-9a343 343 0 0 1-25-26 198 198 0 0 1-17-19l-6-7-6-6-5-6 4-3 11-9c6-6 7-8 11-15 5-11 6-16 7-29 0-6 0-6 2-6l16-4c6-4 9-13 6-22l-6-12-5-8c0-1 4-6 10-11 8-8 11-11 13-16 3-6 4-13 4-16-2-11-4-16-8-20l-3-4-2-2-5-4c-6-6-18-12-28-16-5-1-11-1-17 1Zm20 13 18 11v2l1 1 2 1h-2c-1 1 1 3 2 2s3 1 3 2-5-1-10-5l-12-7c-8-4-13-4-20-1l-9 3a288 288 0 0 1-68 20l-35 8c-5 1-10 6-10 9 0 10-5 12-6 2-1-8 3-14 13-17l7-2 5-1 12-2a398 398 0 0 0 61-15l17-7c14-5 17-6 22-6l9 2Zm-2 19 8 5c3 3 3 3 3 7s0 5-2 6l-11 11c-7 7-8 9-9 7-2-4-11-13-16-17-2-2-2-3-2-7 0-6 0-6 8-11 8-3 14-4 21-1ZM166 75h-1v-1l1 1Zm37 20h4v11c0 8 1 11 2 13 2 4 6 5 10 1 2-2 2-2 3-13 0-14 1-15 4-10 5 6 12 12 21 18 10 6 11 7 9 8v-1l-1 4-2 5c-1 2-2 3-1 4h2l2 1c0 1 1 2 3 1h5c3 0 3-1 4-2 0-2 6-6 6-5l2 1c1-1 6 1 16 6l4 2v9c3 6-6 28-14 35s-21 11-34 10c-10-1-9 0-24-6l-5-3c-3-2-4-1-4 3s5 10 13 14c4 2 14 5 18 5 2 0 2 0 2 4l-1 8c-4 9-7 14-13 16-3 2-3 2-6 0-9-5-19-15-28-28-10-14-9-12-10-36v-22l-5-7-4-7v-20l-1-20h9l14 1Zm55 37h-1c0-1 1-3 2-2l-1 2Zm-1 2-1 1v-1h1Zm526 10 6 5c5 4 9 13 5 13l-2-2c-1-3-4-6-9-9l-50-1h-47v31h-6l-8-1v-15c0-11-1-14-2-15h-90l-4 2c-5 3-8 9-7 13 0 4 3 10 5 12 3 3 1 4-3 2-7-4-9-8-10-15 0-4 0-6 2-10s7-10 11-11h104c101-1 101-1 105 1Zm-190 52-5 6c-5 5-5 5-10 4h-5l4-10h16Zm168-1-9 5-10 6c-1 1-1-7-1-9 1-2 2-2 10-2h10Zm-580 7 1 3-10-1c-7-1-13 1-22 5-5 3-13 8-16 12-1 2-2 3-5 3h-4l1-3c9-15 27-25 46-25h6Zm460-5c0 2-4 7-6 8l-5 1c-2 0-3 0-3-2-1-2-2-7-1-8s15 0 15 1Zm67 0h-6c-3 0-5 1-6 3-3 3-9 6-11 5l-1-3c0-6-1-6 13-6 8 0 12 0 11 1Zm-362 8c2 2 3 3 1 2l-6-6 5 4Zm-6-3v2l-1 1-1-2c0-2 2-2 2-1Zm54 14 14 12c11 8 14 12 16 21 2 7 0 15-5 24-3 4-11 11-15 13-6 4-17 4-24 0-7-3-22-21-23-28l-2-6c-1-4-2-14-1-16 2-3 3-2 7 2l6 4 3 1 6 4 8 4 2 3 3-2 6-2h2c0-3-6-13-11-18-12-13-13-14-12-17s6-8 9-8l11 9Zm-36 0c4 4 5 5 1 2s-7-7-6-7l5 5Zm-3 2 1 2-2-2-1-1 2 1Zm542 4a93 93 0 0 1 52 36l-2 1a274 274 0 0 0-46 21l-7-9c-8-12-14-18-22-21l-5-3H730l-142 1c-8 1-12 4-23 14l-18 20-33 35-10 10h-7a58 58 0 0 0-23 3l-4 2-3 1-8 7c-6 6-8 8-10 13-3 6-3 8-4 13 0 14 8 28 19 33l32 1c33 0 31 0 40-7l4-4h118l117 1-9 10c-10 11-34 48-44 67-1 2-3 13-13 15-16 4-41 1-41 1l-12 2h-4l-8 1c-4 1-4 1-4-1a39 39 0 0 0-10-42c-3-4-6-6-11-8-8-4-12-5-20-5-16-1-32 10-39 24-2 2-3 7-4 11l-1 12c1 7 4 13 7 17l2 3-3 1-5 2-30 6a354 354 0 0 0-96 36l-8 5-1-67c0-70 0-69-4-77-5-9-10-14-19-18l-6-3 3-6 51-54 29-31c30-33 50-53 58-59s18-10 30-11a10325 10325 0 0 1 334 1Zm-760 3 8 10c5 4 6 9 6 14 0 4-6 16-8 19l-2 1-5 3-15 4-8 1-7 1c-4-1-4-1-6 2l-7 13-8 13-1 4-6-3 22-41 11-20c9-16 12-21 13-20l4-1h9Zm141 37 7 6c1 6 0 7-4 9l-9 7c-6 6-7 7-11 1l-7-6c-7-3-8-5-8-9 0-3 0-4 3-6l13-6c5-1 8 0 16 4Zm953-2c49 5 99 27 149 66a486 486 0 0 1 124 147l10 15 4 4h26c30 0 35 0 48 5l13 6c12 9 24 25 25 34 0 5 0 5-2 5s-3 0-4-3c-3-6-14-19-19-23l-9-5c-8-4-12-5-32-5l-18 1a209 209 0 0 0 24 33c2 3 12 10 18 13 4 1 5 2 23 2h37l13 67c0 106-18 135-22 138l-14 1c1-2 1-2-2-1h-4v-27l-1-16-4-1h-3l-1-8-2-16c-10-39-36-70-74-89-13-7-24-11-40-15a134 134 0 0 0-66 6l-24 10a104 104 0 0 0-19 12 207 207 0 0 0-33 38 196 196 0 0 0-19 44l-2 9h-51c-3 2-2 0 0-7 2-6 2-7 2-91 0-86 0-86-2-92-2-8-7-15-13-21l-5-4a9432 9432 0 0 1 200-1 335 335 0 0 0-164-169 287 287 0 0 0-54-16 141 141 0 0 0-38 0l-33 8c-43 15-83 47-118 94l-5 7-2 3-3 5-9 15c-17 29-23 45-23 61 0 7 1 11 4 14 2 1 6 9 5 9-3 1-7 4-9 7-3 5-5 14-2 19 1 4 6 8 10 9h19l8-2 9-5 3-3h28c30 0 32 0 40-5 5-3 10-7 14-12 3-3 5-9 4-9l2-3a50 50 0 0 0 10-24c1-2 1-2 40-2 44 0 44 0 54 7 9 5 12 11 15 21l1 88c0 86 0 87-4 96l-2 3-53-1a2408 2408 0 0 1-75 1c-1 1-1-4-1-10 0-12 0-12-2-14-3-3-7-4-23-3-19 0-19 0-19 15 0 11 0 15-4 14l-50-1c-9-9-15-31-19-38l-14-26c-3-5-22-24-28-29-13-9-32-18-48-23l-10-2c-9-3-39-3-53-1a168 168 0 0 0-58 24 127 127 0 0 0-33 35l-4 6c-10 17-11 21-14 31l-9 37-51 1h-27c-1 1-2 1-1-3 0-5-1-9-6-13-8-7-20-7-27 2-4 3-4 7-4 13v2l-3-2c-6 0-7 1-10 4-4 3-4 3-12 5-13 2-13 2-13 4l-1-3-1-13c1-9 3-15 10-26l5-8-3-1c-5 0-7 1-12 5-7 7-13 21-14 32 0 1 0 1 0 0l-6-1-9-1h-3l-109 1h-13l-14 1v-1c0-7-5-13-11-16-10-5-25 2-29 13l1 7 1 4h-35c-2 0-2 0-2-7l1-7v-3c0-4 6-16 13-23 10-10 25-17 40-18 9-1 10-1 15-4 9-5 15-13 19-23 3-8 4-12 3-20-1-12-4-19-11-27-7-7-19-14-25-14l-3-1 16-14a422 422 0 0 1 157-56 1235 1235 0 0 1 282-19h104l6-13a519 519 0 0 1 80-124c14-16 39-40 50-48 5-4 9-8 10-14 1-4 0-6-6-9-3-2-3-2-64-2-60 0-60 0-61 2-2 2-2 10-1 11l1 4c0 4 0 4-5 5l-6 3-10 4c-24 10-50 27-75 47-4 3-7 7-9 7a686 686 0 0 0-59 64c-13 15-28 37-32 43l-4 6h-10l-11 1h-19l11-22 27-41c32-42 78-86 117-111 41-27 65-37 105-44a2438 2438 0 0 1 239-1Zm-1006 6c1 1 2 5 1 6 0 2-4 2-26 2-25 0-25 0-25-2v-5l1-3h24c20 0 24 1 25 2Zm136 20c5 5 11 9 17 11 4 1 11 2 13 1 4-3 2 2-13 25a508 508 0 0 0-17 24l-2 2-4 2c-7 0-10 0-17-4-7-3-7-3-6-6 0-4 0-4-3-7l-11-9-8-6 9-12c2-1 2-1 8 1h8l7-9 9-12 4-5 6 4Zm40 3-2 3-3 2 2-3 3-2Zm-151 32 11 4c4 2 4 4 0 5-2 1-3 0-9-2l-7-3-4 8c-3 7-3 7-6 6l-4-1c-1-1 11-21 12-21l7 4Zm39 1 6 3-3 5-2 7c0 3 2 6 4 7l4 1c2 0 4-1 7-7l3-4 12 6-1 2-6 9-5 8a1083 1083 0 0 1-36-21c1-4 9-18 11-18l6 2Zm-209 4 20 14-4 5-3 5 71 1c77 0 74-1 84 5 9 5 14 13 13 23-2 13-10 23-21 25l-19 1-15 1c-1 2-5-1-3-1 0 0-11-5-14-8l-2-2-50-1c-49 0-49 0-55-2-14-5-22-13-27-24-2-8-2-16 3-25l13-23 9 6Zm221 8c0 2 0 3-2 2l1-2c1-3 2-3 1 0Zm-48 3h3c1-1 4-1 5 1l4 5c2 3 3 4 16 11l22 11 8 5 4-3 4-4 8 7-41 78-5 10a955 955 0 0 1-70-34c-3-2-3-2-1-5l2-3h15l18-1c16-5 25-15 28-32 1-5 0-15-4-22-2-5-11-13-17-17l-6-3c0-1 2-5 4-5l3 1Zm268 4 7 7-23 1c-21 0-25 1-29 2-5 1-9 5-13 11s-4 3-1-5c3-6 7-10 13-13s8-4 26-4l20 1Zm-142 54c4 2 6 4 6 6-1 2-1 2-20 2h-26l4-5 3-5h15c13 0 16 1 18 2Zm-237 14c3 1 7 5 6 6l-7-1c-8-2-14-1-18 2-2 2-2 4-2 6 0 3-2 3-3 0-3-5 0-11 7-14 3-2 13-2 17 1Zm-22 18-1 4c-2 3-2 4-2 39 0 40 1 39-4 35l-2-35 1-35 3-6c4-4 5-4 5-2Zm67 13c4 4 15 10 28 15 2 1 2 2 1 3l-28 1-27 1v-11c0-13-1-12 13-12h9Zm424 8c11 6 16 14 15 25-2 12-7 17-20 18-20 3-23 2-27 0l-4-7-3-10c0-10 4-18 12-24 5-4 8-4 16-4 6 0 8 1 11 2Zm512 7c6 4 14 10 16 15v1c-1-1-3-1-8 1l-16 1h-11v3c2 4-1 14-5 18-1 2-8 6-13 8l-23 2h-18l1 5v6h-4c-4 0-5 0-8-3l-5-8c-2-3-2-4-1-12 2-22 10-34 28-38 5-2 8-2 33-2h28Zm-896 6h-1v-1l1 1Zm-78 45v-3h1l-1 3Zm992 0-1 1h-1l2-1Zm-47 9Zm-955 7-3 2c-1 1-2 3 0 4 1 1 1 0 1-2h1l2-1h1v4c1 2 0 5-1 2h-2l-1 2v1l-1-2v-1c-2 3-1 4 3 4l8-2h-2l-2-1h1l3-1c2-2 2-2 2 1l1 3v241c0 1-3 2-9 2h-8l1-128a7154 7154 0 0 1 3-128l2-3v3Zm-14 128v128h-6V521l3 1h3Zm915-118-3-2-1-3 2 3 2 2Zm-1 6-1 2 1-3 1-1-1 2Zm-21 7-4-7 2 3 2 4Zm-912 19v24-48Zm931-21c-2 2-9 5-13 5l-4-2c-1-1-1-1 0 0l5 1c3 0 10-3 11-5l2-1-1 2Zm-631 54c11 5 17 14 18 27 0 10-2 17-8 24-6 8-19 12-27 10-13-3-22-12-26-24-2-6-2-11 0-18 3-8 9-15 18-19 7-4 17-4 25 0Zm502 16c23 4 46 16 63 34 6 6 20 28 19 26-3-4-2 3-4 0-4-4-23-27-29-31a114 114 0 0 0-56-23 166 166 0 0 0-32 1c-19 3-46 17-59 31l-21 30s-5-2-4-3c16-33 29-41 37-47l9-5a104 104 0 0 1 44-14c5-2 20-1 33 1Zm585 0c22 5 42 15 58 30 6 6 28 35 25 33-1 0-2 6-1 9 0 1-29-39-35-44-11-8-30-17-44-20-7-2-32-3-41-2-14 2-30 9-45 19-7 5-34 33-34 33 1-1-2-1-3-1-2-1 5-10 8-15 12-18 41-36 65-41 14-3 35-3 47-1Zm-592 28c27 4 50 19 63 43a87 87 0 0 1-25 113c-6 5-21 13-27 15-9 3-13 3-24 3-10 0-13-1-19-3-14-4-27-12-38-23a86 86 0 0 1-1-124c20-19 46-28 71-24Zm585-1a92 92 0 0 1 73 64l1 22c0 12 0 14-2 22-2 9-9 23-14 30a94 94 0 0 1-52 35c-9 3-26 3-35 0-8-2-16-6-19-9-1-1-2-3-2-7l-1-8c-2-3-1-3 3 0 6 4 15 8 21 8 4 1 4 1 8-3l3-3-1-12-1-13c0-2-3-4-7-6-9-5-14-10-17-16s-3-6-19-6c-12 0-12 0-15 2-3 4-4 7-2 13 3 7 9 16 14 23l3 4c-4-1-7 0-10 3l-4 3-3-4c-8-9-15-24-18-40v-32c4-18 12-33 26-47 19-18 45-26 70-23ZM285 681c7 2 13 9 13 16 0 4 0 4-9 5-10 1-10 1-9-12v-11l5 2Zm726 10-1-1 1-1v2Zm108 2 1 2c0 1-1 2-7 2h-6v12l-1 25c-1 15 0 15-10 21-7 5-9 7-8 12v6l2 1h5c5-3 5-3 11-2 8 2 8 2 8-1 1-5 8-9 15-9 5 0 11 2 13 4l1 15 1 14h-41c-7 0-8 1-8 2l1 10a47 47 0 0 0 1 11c-1 1 1 1 7 1h8l-6 1-12 3-8 2c-4 1-4 0-5-3v-32c0-30 0-30 2-33s5-6 10-9c4-2 7-5 7-6l1-20c1-27 1-28 3-29h15Zm141 19-13 12c-3 1-3 1 1-2 4-2 9-7 12-11s3-4 0 1Zm-500 5v-3 3Zm-362-1-3 2 4-4-1 2Zm9 1c1 2 0 2-2 0-2-3-2-3 0-2l2 2Zm-11 4 1 2-2-4 1 2Zm10 2-1-1 1-1v2Zm683 8v-6 6Zm-687-7h-3l2-1 1 1Zm866-1-2 3-2 2 2-3 2-2Zm-24 2-7 4 3-2 4-2Zm-12 6h-2 2Zm-53 1c-4 3-5 4-3 1l3-2v1Zm-91 3-4 3-8 6-2 2a55 55 0 0 1 14-11Zm160 3-1 1v-1h1Zm-879 27h-2l-1-2 1 1 2 1Zm65 1-2 1c-1 1-1 1 0 0l2-1Zm29 18 7 10c5 7 15 18 23 24a94 94 0 0 0 25 15 4030 4030 0 0 1-189-4l2-1 17-11c9-7 18-17 26-26l6-8 31-1c54-1 49-1 52 2Zm308 3a114 114 0 0 0 29 34 87 87 0 0 0 21 12H638l-9-1 5-2c17-10 33-25 45-42 2-3 4-5 6-5h83Zm294-4c2 0 2 0 2 25v24l-9 1H943c0-1 2-4 6-7l21-20a149 149 0 0 0 15-22c2-2 4-2 40-2l40 1Zm284 0 1 3-16 1-18 1-7 2-9 3 2-2c3-3 11-7 14-8a306 306 0 0 1 33 0Zm-1076 7c19 1 19 1 23 3 4 3 10 9 9 10l-6-2c-5-2-5-2-36-3h-32l-3-3-3-4c-2-1 1-1 14-1h34Zm-69 2c4 1 10 6 11 9h-2l-8-2h-78l-1 15-1 15-4-2c-2-2-2-2-2-17v-20h41c38 0 41 0 44 2Zm1219 20-1 14h-114l-1 4v12l4 11 1 4v2l-2-1c-11-6-17-24-13-38 2-6 5-11 10-14 3-2 4-2 11-3l11-1 8-2c4-1 14-2 45-2h41ZM320 31l2 1 1 1-1-1-2-1Zm-61 134c-2 1-4 2-4 4-2 3 0 4 7 4 6 1 9-1 9-3 0-3-5-7-8-7l-4 2Zm227 269-1 36 1 34h14v-11l1-10 12-1c14 0 17-1 22-6 3-3 5-7 6-13 2-13-3-22-15-28-5-3-5-3-22-3s-17 0-18 2Zm35 15c7 4 8 12 3 17-3 2-3 2-13 2h-11v-10c0-12 0-12 11-11 5 0 8 0 10 2Zm232 27v1l1-1v-1l-1 1Zm739 38c-4 2-7 6-8 11-3 12 10 23 22 17l6-5c2-2 2-4 2-7 0-7-1-10-4-13-4-6-12-7-18-3Zm11 3c4 1 6 5 6 9 0 3-1 4-4 6-4 3-7 3-12 0-4-2-5-4-5-7 0-8 8-12 15-8Zm-303 22c-5 3-5 8-1 11 3 2 4 3 3 6l-1 5c1 4 4 4 26 4 19 0 19 0 21-2l3-9 2-5c3-3 3-5 1-7-3-4-4-5-28-5-21 0-23 1-26 2Zm-553 43c-9 1-17 5-24 12-8 8-14 20-14 27 0 2 0 2-3-3-3-6-9-13-14-16-5-2-5-2-29-3h-62c-38 1-38 1-43 3-8 3-13 9-16 16-7 18-1 39 13 45 3 2 7 2 68 2 71 0 68 0 75-4 5-4 11-14 11-21 0-2 0-2 1 1 2 7 16 24 23 27a139 139 0 0 0 34 1c7-2 18-11 23-21 5-8 6-15 6-26-1-8-1-9-4-14-6-13-20-24-32-26h-13Zm18 16c10 5 15 12 16 23 1 7 0 14-2 20-3 7-12 14-17 15h-2l-2 1h-1l-7 1-10-2c-6-3-13-10-16-16-2-5-2-6-2-14s0-10 2-13c4-8 11-14 19-17 6-2 15-2 22 2ZM280 377l-4 7c-5 9-6 15-1 20 3 3 9 6 12 6 4 0 8-1 11-4 4-4 6-8 6-14 0-4 0-5-3-8-5-6-16-10-21-7Zm14 11c3 5 2 10-4 13-3 1-5 0-8-2-2-2-2-4 1-10 1-3 1-3 5-3s5 1 6 2Zm576 270c-18 4-36 21-44 40-4 9-5 17-4 20 1 4 5 7 10 8 4 1 20 0 23-1l4-6 5-9c3-4 11-9 18-13 3-2 4-5 4-20s-1-17-7-19c-3-2-3-2-9 0Zm31-1-4 4c-2 2-2 3-1 18l1 17 7 4c8 5 14 11 16 18 3 7 4 8 19 8 11 0 12-1 14-2 3-3 5-7 4-12-1-15-12-32-26-43-9-8-24-13-30-12Zm-18 56c-5 2-6 4-8 9-2 3-2 5-2 8 1 6 3 9 7 12 4 4 8 5 13 4 17-4 19-29 2-34-5-1-7-1-12 1Zm11 11c4 3 1 10-4 10-2 0-6-3-6-6 0-2 3-6 6-6l4 2Zm-69 16c-3 4-3 6 0 13 7 17 26 36 43 42 6 2 9 2 12 0 5-2 5-4 5-17-1-12-1-12-3-14-1-2-4-4-7-5-5-3-12-10-14-15-3-7-2-6-19-6h-14Zm97-1-3 5c-3 6-8 11-14 14-10 6-9 6-10 19l1 14c0 2 5 5 9 5 7 0 19-6 29-14 12-10 21-25 22-34 0-5 0-6-2-8s-2-2-16-2l-16 1Zm562-81-4 4v31l8 7c9 5 13 9 17 17l4 8 15 1c12 0 13 0 14-2 5-4 6-11 3-21-7-20-24-38-44-45-8-2-10-2-13 0Zm-35 1c-20 8-39 30-42 50-2 8 0 12 5 15 2 2 4 2 13 2 15 0 15 0 19-9 4-8 9-13 16-17 9-4 8-3 9-18 1-17 1-19-3-22-2-3-3-3-6-3l-11 2Zm19 53c-7 3-11 11-11 18 2 12 14 20 24 15 11-5 14-20 6-28-4-5-13-7-19-5Zm10 11c2 2 3 5 2 8-1 4-5 5-9 3-3-3-3-8 0-10 2-3 4-3 7-1Zm29 15-3 6c-4 7-9 12-16 16s-8 5-8 19c-1 13 0 15 4 17h9l12-3c7-4 16-11 23-18 10-11 16-27 13-33-2-4-5-4-19-4h-15Z"/><path fill="#4ba8e3" d="M676 209c2-4-3-29-4-29v-15c0-11-1-14-2-15h-90l-4 2c-5 3-8 9-7 13 0 4 4 11 6 14 2 1-13 32 1 34 24 2 97 5 100-4Z"/><path fill="#f85554" d="M784 207c1 2 12-22 14-37 1-6-6-10-6-10-1-3-4-6-9-9l-50-1h-47v31s-18 23 5 28c25 7 93-5 93-2Zm-431 4c5 5 17 15 15 18-1 1-10-7-13-9-6-7-20-15-17-19 3-2 4-1 15 10Zm1276 332-5-3c-2-5-14-19-19-24l-9-5c-8-4-12-5-31-5l-18 1 3 5 15 21c1 1 9 10 15 14 9 6 10 6 31 6 0 0 11 1 14-1 6-4 6-9 4-9Z"/><path fill="#1a1a1a" stroke="#000" stroke-width="2.4" d="m292 5-15 5a247 247 0 0 1-61 19l-3 1a154 154 0 0 0-15 3l-8 1-11 2c-14 2-24 9-29 18-4 8-3 21 3 28l10 9 4 1c2 1 2 1 2 20 0 22 0 25 6 35l3 6v29l-5 1-5 1-4 1h-5c-16 5-21 8-30 14-8 7-14 15-27 38l-7 14a1452 1452 0 0 0-54 107 50 50 0 0 0 29 42 39 39 0 0 0 12 4l14 1 13 1-4 6c-1 1 1 189 1 189v8l1 224H80l-49 1c-23 0-26 1-26 5-1 2 0 4 3 5l639 1h637l3 7c6 11 16 20 26 22l26 1 21 1 3-3 6-7c3-6 5-6 25-6l17 1 2 2 4 3c3 3 4 3 6 3 5-1 7-2 9-6l4-7 3-7v-4h196v-11h-14c-50 0-98-1-98-2l7-6c14-7 31-25 39-40l3-4a1169 1169 0 0 1 46-2c4-1 11-5 16-9 1-1 31-8 31-128s-30-127-31-129c-9-10-20-20-31-25-9-4-21-8-25-7l-3-1-18-1c-16 0-18 0-21 2-5 2-10 1-14-4l-22-32a591 591 0 0 0-109-126 370 370 0 0 0-133-67l-10-3-12-2-96-1h-90s-76-1-84 2c-6-2-17-13-21-17-9-7-15-12-25-15l-7-3-7-2c-12-5-17-5-64-5l-43-1-7-13 5-6c5-5 8-9 10-15s2-11 0-18c-3-8-6-12-14-17-11-8-1-7-115-7-95 0-101 0-105 2-7 2-10 4-15 8-7 8-11 18-9 27 2 8 5 15 11 20 6 6 6 4 0 16-2 5-2 6-4 6h-4l-5 2c-7 2-19 8-26 14-5 3-13 11-20 18a1946 1946 0 0 0-97 105 816 816 0 0 1-28 30l-2 3h-12l-12-1 2-6 3-8c0-1 2-3 5-4 6-4 10-8 17-17a264 264 0 0 0 25-37l5-9 8-6 9-8c15-17 17-38 4-55l-8-7-23-19c-6-7-8-8-14-8s-11 3-14 8l-3 3-9-7-13-9-4-2-5 3-5 3-3-3-7-5c-5-5-7-5-9-2-4 5-3 7 6 15 5 3 13 11 18 16l10 10-1 4c-1 5-2 25-1 26l1 2 3 7c3 7 3 9 1 10-2 2-2 2-13-9a1459 1459 0 0 1-54-59l-6-5 5-3c10-6 17-14 22-25 5-10 6-17 6-28l1-7h6c9-1 14-4 17-9s3-9 1-15c-1-6-3-10-8-16l-3-5c0-1 4-6 10-11l13-16c3-6 3-7 3-15s-1-9-2-13c-3-7-8-12-14-18-8-6-13-9-25-14-4-2-11-3-15-2Zm15 14c8 5 17 11 20 15l4 5-12-6c-8-6-15-9-21-10-4 0-6 0-16 5l-25 9-11 3c-12 4-17 5-34 8-33 7-39 8-42 11s-4 5-4 11v6l-2-2c-4-2-5-8-4-12 2-7 11-13 19-14a532 532 0 0 0 118-31l10 2Zm-3 19 8 5c3 3 3 3 3 7 0 5 0 5-10 15l-11 11-6-7-10-11c-3-3-3-3-3-8l1-7c8-6 20-9 28-5Zm-74 62c4 5 13 12 20 16 10 6 11 8 8 16l-1 4h4c4 0 5 0 8-3l5-3 16 5c7 3 7 3 7 11 0 9-2 17-7 25-8 17-21 23-43 22-7 0-15-2-20-5l-11-4-1 3c0 3 6 10 12 13 4 3 13 6 18 6 3 0 3 0 3 4 0 5-2 11-6 18-2 3-3 4-7 6l-4 2-5-3c-10-6-27-25-34-38-2-5-2-5-2-26v-21l-4-5c-5-9-5-9-5-30V94h28l-1 12c0 12 0 12 2 14s3 3 5 2c5-1 6-2 6-15 0-9 1-11 2-13 1-1 1-1 2 1l5 5Zm553 44c4 2 9 7 11 11 4 9 0 22-9 25l-58 1h-55l-97-1s-2 1-6-2c-6-4-8-8-8-16 0-5 2-10 6-14 6-6-1-5 111-5 97-1 101 0 105 1Zm-4 52c2 1 4 4 4 8l1 3h-42l-1-5c-1-7-1-7 15-7l23 1Zm-160 10c-3 2-36 1-41 1s-5 0-5-2l3-6 1-4h45s-1 10-3 11Zm54-10c3 0 3 0 2 3-1 5-4 7-11 8-5 0-37 0-37-2l-1-6 1-3h46Zm-493 3 5 10 3 4-4-2-1-2v-1l-2-1c-3-4-13-4-23-1-9 3-15 7-21 12-5 5-6 7-3 6 2 0 3 1 6 4l5 7c2 1 4 4 5 7 4 6 3 9-2 18-5 8-7 11-15 13l-25 5h-6l-9 15-9 17c-1 1-6-2-6-3l15-30 18-31c18-32 26-42 42-47 10-3 11-3 18-3 8 0 8 0 9 3Zm548 2v6h-19l-22-1c-3-1-3-1-3-5l1-5h44Zm-375 10c12 12 18 20 13 17l-23-19c-6-6-7-8-2-8l12 10Zm-170 1c2 2 3 3 2 1 0-1 0-1 0 0l2 2v2l1 3 2 2h-1l-12-17c0-1 5 4 6 7Zm88 3 7 9v2c2 0 2 0 1-1l1 1 3 4-14-11-9-10 4-2 7 8Zm117-5 9 8 13 11c9 7 12 12 14 20 2 4 2 6 1 10-2 10-8 18-20 27l-8 8-14 21c-16 27-19 31-23 33-3 3-4 3-9 3-5 1-5 0-13-3l-7-5 1-3c0-2 0-3-4-6l-10-8c-10-7-10-6-5-13 6-7 7-7 13-6 6 2 8 2 11-2l9-12 9-11 7 5c7 6 17 11 23 11s7-1 7-5c0-3 0-3-2-3-11-3-13-4-20-12-6-6-13-17-13-20l-1-3c-2-3-2-7-2-13-1-9 2-10 7-5l16 10 7 4c2 3 2 3 5 1l4-2c3 0 3-2 1-6s-4-7-14-18l-7-9 6-9c2-2 6-1 9 2Zm511 12c12 4 26 11 35 19l15 17-11 5a399 399 0 0 0-37 17l-8-10c-8-11-13-16-20-20l-4-2H730c-149-1-143-1-152 3a4421 4421 0 0 1-66 68l-7 8h-12a47 47 0 0 0-19 3l-4 2-3 1-8 7c-9 9-13 16-13 25-1 14 7 28 17 33 4 2 4 2 33 2 32 0 31 0 40-7l4-4h236l-7 8a429 429 0 0 0-55 82l-17 1-22 1-7 1-1-13v-37h-11v53h-6l-8 2c-3 0-3 0-1-5 4-15 0-28-11-39a44 44 0 0 0-62 0c-6 6-10 14-12 23l-1 11a57 57 0 0 0 9 21l-33 7a319 319 0 0 0-110 42v-65l-1-70c-2-7-5-14-10-18-4-5-12-9-17-10l-2-2 29-32 68-73c20-22 39-41 45-45s10-7 17-9c11-3 9-3 180-3 163 0 163 0 169 2Zm-706 4h-1l-1-1c0-2 1-1 2 1Zm82 34 8 5c2 1 2 2 2 6s0 4-4 7c-3 1-6 4-9 7l-6 5-5-4-8-7c-6-3-7-5-7-10 0-4 0-4 7-7 10-5 14-6 22-2Zm954 0c14 1 22 2 44 8 23 7 53 21 80 38a430 430 0 0 1 103 97 787 787 0 0 1 58 85l4 4h28c27 0 28 0 35 2a66 66 0 0 1 47 35c2 4 2 6 2 9v5h-36l-7-4c-8-5-8-5-14-5l-6 2c0 1 7 8 13 12 9 6 10 6 31 6h36s14 49 12 81c-3 35 0 81-13 108-5 11-18 17-23 21-6 4-12 6-20 7l-7-1a463 463 0 0 1 1-58l-1-4a120 120 0 0 0-58-91c-9-5-11-7-21-11a119 119 0 0 0-39-7l-8-1-10 1a47 47 0 0 0-13 2l-18 5c-12 3-29 12-39 21-6 5-18 17-23 24-7 9-12 20-16 33l-4 13c-2 6-3 23-3 46l-1 25a4829 4829 0 0 1-187 2c-2 0-2-1-2-8-1-8-3-12-8-17l-9-8-4-4v-23l-1-26-4-3-19-1-16 1-2 2c-2 3-2 3-2 27v24l-5 5c-11 8-15 14-16 24l-1 7h-54v-3a393 393 0 0 0-2-71c-2-12-10-33-17-43-27-39-76-60-124-53-25 3-51 15-68 30-17 16-28 33-35 54-5 16-6 25-6 57v28l-67 1c-72 0-73 0-81-4s-18-16-21-25-4-15-3-23c1-9 3-14 10-25l4-8-3-1c-9 0-18 11-23 26-2 8-2 20 1 28l2 7h-12l-11-1-109-1h-4l-4 2-4 14c0 6-1 7-4 9-3 1-5 2-27 2l-28-1c-7-2-12-5-18-11-10-9-13-19-13-34v-10l1-1c-1-1 1-8 4-13 5-10 12-17 23-23 9-5 16-6 26-7l14-3c10-6 18-17 21-29l2-6c1-3 0-16-2-21l-10-16c-6-6-19-13-24-13l-3-1c0-2 11-11 18-15a362 362 0 0 1 130-50l21-4a1376 1376 0 0 1 120-19l139-1h131l5-10a553 553 0 0 1 132-175c5-4 9-11 9-17 0-2-5-6-8-7l-62-1s-37-1-55 1l-6 1c-1 4-2 10 0 11v4c0 4 0 4-4 5l-6 3-12 5c-43 19-89 55-130 102a705 705 0 0 0-48 64l-21 1h-20l6-11a481 481 0 0 1 148-162c36-24 63-36 94-43 19-4 19-4 119-4 102-1 118-1 131 1Zm-1006 4c3 1 5 6 4 8s-2 2-27 2h-25v-9l23-1a613 613 0 0 0 25 0Zm27 57 11 4c4 2 4 4 2 5-3 1-5 1-11-2l-7-3-4 7c-3 8-3 8-6 7-4 0-5-1-3-5l11-17 7 4Zm44 4-2 5-2 7c0 4 3 7 7 7 3 1 3 0 5-2 3-3 3-4 1-4l-1-1h1v-1h2l1-1c0-2 2-2 7 0l6 3c2 1 2 1 1 3a315 315 0 0 0-12 18c-1 1-10-4-21-10l-11-6c-5-3-5-3-4-6l10-17c1-1 1-1 6 2l6 3Zm-213 1 19 14-4 5-3 5a2987 2987 0 0 0 145 2c10 2 18 8 22 16 4 10-1 26-11 32-5 4-9 5-25 5l-17 1c-2 2-8 14-8 18-1 2 0 3 1 4l20 10a3462 3462 0 0 1 64 30c2-1 6-7 23-41a1512 1512 0 0 1 30-59c0-3 1-3-9-7l-5-3s0-2 2-3l2-2 7 4c9 4 12 6 12 8a1387 1387 0 0 1-56 109c-4 3-6 3-47-17l-35-17c-10-5-15-9-17-12-1-3 0-7 3-14l3-7-5-7-5-5h-8l-94-2c-7-2-15-6-21-12-7-6-10-12-10-20-1-7 0-11 4-19l13-22 10 6Zm222 6 2 2h-2c-1-1-1-1-2 1l-1 1c-2 0-2 0-1-2 1-3 1-3 4-2Zm-50 5h3c3-1 5 0 8 4l2 4 10 6c3 2 13 6 20 11l15 7 4-3 4-3c2 0 8 5 8 7l-16 31a1856 1856 0 0 0-31 57l-12-6a2984 2984 0 0 0-60-31l2-3c2-2 2-2 16-2l20-1c9-3 14-7 20-15 4-5 5-7 7-17 2-7-2-20-7-27-2-3-12-10-16-12-4-3-5-3-3-6 1-2 4-2 6-1Zm268 5c4 1 7 5 7 6 0 2-1 2-21 1-20 0-22 0-28 2-8 1-11 4-15 11-3 4-4 5-4 2 0-6 7-16 13-19 6-4 9-5 28-5 15 0 18 1 20 2Zm-144 52c4 1 10 6 9 8 0 2 0 2-23 2-25 0-25 0-22-4 5-8 3-7 19-7l17 1Zm-237 14c4 1 8 4 8 7 0 1-1 1-6-1-12-2-21 1-21 8 0 3-2 3-4-1v-6c3-5 8-8 15-8l8 1Zm-20 19-1 4c-2 4-2 4-2 38l1 37c-1 2-3 1-5-1s-2-2-2-37v-35l3-4c4-3 6-4 6-2Zm68 13c4 4 10 7 34 18l14 7c1 1-4 1-37 1h-38v-12c-1-14 0-16 2-17h20Zm424 8c13 7 18 20 12 33-3 8-9 10-28 12-11 1-15 0-18-4-10-12-7-31 7-40 6-3 6-3 15-3 6 0 8 0 12 2ZM151 639v139h-18V650l1-128 3-2 6-5 6-13 1-1 1 138Zm-25-42v181h-3c-4 0-4 0-4-4V522l3-1h3Zm-20-33v24-49Zm1523-18c0 2-2 2-3 0 0-2 0-2 2-2l1 2ZM406 597l10 7c4 4 5 6 6 10 3 10 2 23-2 30-6 9-18 15-28 14-9 0-19-6-25-15s-7-21-3-30c4-8 13-16 22-18 5-2 15 0 20 2Zm495 15a115 115 0 0 1 85 55l1 4h-1l1 1 1 3v2l-5-7-11-14a115 115 0 0 0-99-37l-4 1a112 112 0 0 0-82 66l1-6c1-1 0-1-2-1s-2 0-1-4c6-13 9-18 16-26a117 117 0 0 1 100-37Zm582 0 13 2 26 8c20 10 40 29 50 49 3 6 3 7 1 9-1 1-1 1-2-1-3-8-13-21-23-30-15-15-39-27-59-29h-33c-27 3-56 21-72 42l-6 8-1 1h-3c-3-1-3-2 2-9a103 103 0 0 1 64-46l9-2a103 103 0 0 1 19-3c1-1 7 0 15 1Zm-579 29c34 6 60 31 69 65 3 14 2 36-3 49a93 93 0 0 1-67 59c-9 2-23 1-33-1-27-8-50-30-60-56-4-11-5-18-5-31 0-16 2-25 9-39 6-10 15-22 25-30a96 96 0 0 1 40-17c1-1 18-1 25 1Zm585 0c11 2 23 6 32 12 8 5 19 17 24 24 16 24 20 46 13 72-9 33-35 58-69 65-17 4-41 0-51-9-1-2-2-2-2-8 0-4 0-6-2-9l-2-3 4 3c7 5 21 10 26 9l5-3 2-2v-12c0-14-1-16-4-18-6-2-14-9-17-11l-4-8-2-4-14-1c-13 0-16 0-18 3l-2 4c-2 7 6 22 17 33l3 4c-5-4-9-3-13 1l-4 4-2-3c-9-10-16-26-18-37l-2-8v-25c1-8 5-19 8-26 4-8 14-21 21-27a96 96 0 0 1 43-21c4-1 22-1 28 1ZM287 681c6 3 10 8 11 16 1 4 1 4-1 5l-5 1h-6l-6-1-1-5c0-19 0-18 2-18l6 2Zm498 8-1 1v-1l2-1-1 1Zm335 6c0 2 0 2-6 2h-6l-1 4v21c0 22-1 26-5 29l-4 4h4v2h2c2-1 4 0 2 1l-2 1v1c1 2 2 2 2 0h2l1 1c-2 1-2 3 0 1 1-1 1-1 1 1v1l1 1 1-1v-1l1 2v3c1 2 0 4-3 4v1c2 1 3 0 5-4s7-7 14-7c6 0 11 2 13 4 1 1 2 2 2 28v27h-4l-20-1c-19 0-19 0-30 5l-6 1c-3 0-4-2-4-35 0-29 1-30 2-33 3-4 5-6 12-11 4-2 7-5 7-6a407 407 0 0 0 1-48l9-1c9 1 9 1 9 3Zm-653 95a117 117 0 0 0 53 43 5650 5650 0 0 1-193-3l11-7c15-9 29-22 38-35l6-6h41l38-1Zm882-7 1 3-17 1-17 1-7 2-8 3-3 1 3-2 8-6c6-3 6-3 20-4a977 977 0 0 0 20 1Zm-580 1 5 8c9 16 23 29 40 37l8 4h-97c-62 0-97 0-96-1l9-5c18-11 28-21 41-38l4-6a1380 1380 0 0 1 86 1Zm298 24v25H943l9-9a118 118 0 0 0 33-39l1-3h40l41 1Zm-863-16c3 1 10 7 12 10l-3-1c-4-2-5-2-45-2h-41l-1 15c0 15 0 15-2 15l-3-2c-2-2-2-3-2-19l-1-18h39c41 0 43 0 47 2Zm85-2c5 1 11 5 14 10 3 3 3 5 1 3l-6-3-36-2h-32l-2-4-3-4h64Zm1134 29c1 22 0 29-1 29a854 854 0 0 1-50 0l-8 7c-10 8-8 8-23 8-19 0-25-1-31-4-8-6-13-15-14-27s3-21 11-26c3-2 4-3 11-3 6 0 14-2 20-4l43-1h42Zm-327 6-3 1 1-1h2ZM258 166c-3 2-4 5-2 6l7 1c5 0 6-1 7-2l1-3c-2-4-9-5-13-2Zm228 267v69c1 3 1 3 7 3s7-1 7-2v-20l13-1 15-1c7-3 11-9 13-18 2-13-3-23-16-28-4-2-5-3-21-3l-18 1Zm36 16c4 3 6 7 5 10-1 5-2 7-5 8-3 2-4 2-12 1l-10-1v-19c1-2 2-2 10-2 8 1 9 1 12 3Zm695-144-10 1-10 1-8 3c-19 4-46 16-64 29-30 21-62 55-82 87-22 36-30 57-30 73 0 6 0 8 6 16 3 4 4 8 2 8s-7 5-9 9c-4 8-3 15 3 21 11 11 34 2 36-16l3-5c2-2 2-2 36-2l38-1c7-1 15-5 19-10 5-5 9-14 10-22l1-6h17l41 1h24l7 3c11 6 17 13 20 24l1 88c0 92 0 90-4 99-3 6-13 16-20 20-11 6-12 6-40 6h-25l-3 3c-3 3-3 4 1 7l2 3h25c25 0 25 0 32-3 10-3 17-7 23-12 13-10 19-20 22-35a2694 2694 0 0 0-1-176c-2-9-5-15-12-21l-6-7h201l-6-11c-21-42-51-81-87-112-22-19-49-36-74-47a187 187 0 0 0-79-16Zm-94 150c14 7 22 21 22 36 0 10-4 19-13 22-4 2-4 2-47 3l-46-1c-4-1-8-6-10-11-2-3-2-4-1-13 1-14 4-20 11-28 4-4 9-7 16-9 5-2 8-2 34-2h29Zm-91 71 6 3c3 3 3 3 2 6-1 7-3 10-12 13s-17-9-13-18l4-4c4-3 5-3 13 0Zm189 12-23 2c-2 3-2 6 0 9 3 2 3 2 28 2 23 0 25 0 27-2 2-1 2-5 0-8-1-2-6-4-9-3h-23Zm-579 45c-7 2-12 5-19 12s-11 13-13 22l-2 6-2-6c-3-6-9-12-15-15l-5-2h-62c-62 0-62 0-66 2-6 3-11 8-15 15-3 6-3 6-3 17 0 10 0 11 3 16 3 6 7 11 12 13 4 2 4 2 69 2 66 0 66 0 70-2 4-3 9-7 11-11l4-13c0-2 0-2 1 1 2 5 10 17 16 22 7 7 9 8 24 8l17-1c7-2 16-10 22-19 5-9 7-16 6-29 0-7-1-9-3-14-5-9-13-17-22-21-7-3-8-4-16-4l-12 1Zm20 13c4 2 12 7 15 11 3 5 5 13 5 19 0 16-10 28-25 32-9 2-19-2-27-10-6-7-8-11-8-21 0-8 0-9 2-13 3-7 9-13 15-16 8-4 14-5 23-2ZM395 703c-7 2-14 11-14 17 1 9 11 17 22 16 9-1 16-7 17-14 1-11-7-20-18-19h-7Zm9 12c4 1 4 6 1 8l-5 1c-3 0-4-1-5-2v-5c2-3 5-4 9-2Zm237-12c-4 1-9 6-11 10-3 7 0 16 8 20 3 2 4 3 9 2 8 0 12-2 15-7 6-9 4-18-6-23-4-2-10-3-15-2Zm8 12c4 1 5 5 2 7-2 2-4 2-6 1-6-2-5-8 1-9l3 1ZM281 377c-2 1-6 8-8 13v12c2 3 7 7 11 8 9 2 20-7 20-18 0-4 0-5-3-8s-11-8-15-8l-5 1Zm10 9c3 1 6 5 5 9-1 2-5 6-8 6-2 1-7-1-7-4-1-3 2-10 4-11h6Zm1280 290 1 1 1-1-1-1-1 1Zm-700-19c-18 5-34 19-44 39l-4 13c-2 6-2 6 0 10 3 6 7 8 22 7 11-1 12-1 15-9 2-6 10-14 18-18l6-5 1-17c0-14 0-14-2-16-3-4-6-5-12-4Zm27 3c-3 3-3 3-2 18l1 17 7 6c10 5 15 10 17 18 2 6 4 7 17 7s15-1 17-5c5-7 0-24-10-38l-20-19c-6-3-17-7-21-7-3 0-4 0-6 3Zm-14 53c-7 3-10 8-10 16 0 10 5 16 15 16 4 1 6 0 9-1 5-3 8-7 8-13 1-9-3-15-10-18-6-2-8-2-12 0Zm10 12c2 1 2 2 2 4-1 5-6 7-10 3-2-2-2-5 0-8 2-2 6-2 8 1Zm-68 15c-4 4-4 7 1 17a74 74 0 0 0 47 39c7 1 12-4 11-11l-1-11-1-9-8-6c-7-5-13-11-15-16s-2-5-18-5c-14 0-14 0-16 2Zm98-2c-1 0-3 2-5 6-3 6-7 11-15 15-9 5-9 5-9 20 0 12 1 13 4 16 6 3 22-3 36-14 14-12 24-31 20-39-2-4-4-4-17-4h-14Zm528-79c-15 5-30 17-38 31-7 13-9 25-6 30s5 6 18 6l13-1 4-7c4-8 9-13 17-18l8-6 1-17c0-15 0-15-3-17-2-3-3-3-6-3l-8 2Zm32-1c-4 2-5 5-5 18l1 15c1 4 4 6 9 9 7 4 14 12 17 19 2 6 3 7 17 7 12 0 13-1 15-2 5-4 6-11 2-21-7-21-23-37-42-44-7-2-11-2-14-1Zm-15 54c-6 3-9 6-11 12-4 13 8 25 20 22 5-2 9-4 11-8 5-11 1-22-10-25-5-2-6-2-10-1Zm9 10 2 4v6c-4 6-11 3-11-4 0-2 0-3 2-5 2-1 5-2 7-1Zm42 16h-13l-3 6c-4 7-9 12-16 16s-8 5-8 19c-1 12 0 15 3 16 5 3 15 1 22-2 10-5 25-19 30-28 4-6 7-14 7-18 0-3-1-4-3-6-2-3-2-3-19-3Zm-409 28h1-1c-1 0-1 0 0 0Zm-7 4-1 1 2 1c3 0 4 0 3-2h-4Z"/><path fill="none" stroke="#97b6c9" stroke-width="4" d="M313 694c0-19-16-35-35-35v70c19 0 35-16 35-35Z"/><path fill="#1a1a1a" fill-rule="evenodd" stroke="#000" stroke-width="4.4" d="M701 432c-2 2-2 7 0 9h14v44h8v-44h13c2-2 2-7 0-9h-35Z"/><path fill="#97b6c9" fill-rule="evenodd" d="M204 776a3 3 0 0 0 5 0V543a3 3 0 0 0-5 0ZM275 776a3 3 0 0 0 6 0V486a3 3 0 0 0-6 0Z"/></svg>