<svg xmlns="http://www.w3.org/2000/svg" width="1641" height="763"><path fill="#fff" d="m671 13-4 4-1 2-1 15c1 19 1 21 9 21 4 0 5 0 8-3 4-3 4-5 5-23 0-13 0-13-7-16l-5-2-4 2Zm331 0-7 3-3 1-4 1-8 2a204 204 0 0 0-35 13 192 192 0 0 0-34 17 69 69 0 0 0-15 9l-16 11-6 5-9 7-9 7a329 329 0 0 0-77 95l-3 5c-3 3-3 4-5 2l-2-4a110 110 0 0 0-6-25l-2-6-1-24c0-21-1-28-2-30l-1-2c0-4-7-13-13-17l-4-3-6-3-2-1-5-1a16466 16466 0 0 0-409-1c-8 3-15 8-21 15l-9 12a219 219 0 0 0 1 41l3 5c2 3 2 5 2 7 0 3 0 3-8 4l-21 1c-17 1-17 1-29 7-10 5-17 10-23 19-4 5-9 17-11 29l-2 8-1 5-1 3-2 14-2 5v2c0 3-3 9-4 10l-4-1-6-3h-39c-7 3-11 6-16 10-6 6-10 13-10 20v46c0 38 0 37 7 47l2 4h-16c-16 0-19 1-24 4l-3 2-5 3-4 2-8 5-7 5a81 81 0 0 0-18 20l-1 1-2 3-1 5-1 4-1 4-1 4-1 14c0 13 0 13-3 19l-5 11-2 8a60 60 0 0 0 5 38l1 2 1 2 2 3 1 24c0 21-1 22-2 22l-2 1-2 1-1 1-2 1-13 12-2 3-2 5-1 2-1 4-1 5a129 129 0 0 0 4 42l1 2 1 2 1 1a58 58 0 0 0 16 16l2 1 2 1 3 1 3 1 17 1c18 0 19 0 19 5l1 2 1 2 1 2 1 1 1 2 1 2v2l1 1 2 3a675 675 0 0 1 17 18l5 4 5 5 142-1 5-4c8-8 10-8 12-8l1-1 1-1c3 0 24-34 24-35 0-3 75-2 75-2s12 18 21 25c16 13-16 27 56 27l92-2 3-3 8-5 5-4 5-3 5-4c2-2 8-24 9-27 2-5 296-4 296-4l1 3c4 7 6 24 12 31 5 6 8 8 13 11l8 3 3 1c1 2-28-45 170-45 0 0 285 14 293 7 4-5 10-6 13-10a163 163 0 0 1 17-20l5-7 8-8a306 306 0 0 1 21-23l4-5 4-5 6-7 8-8a304 304 0 0 1 29-32l8-8 7-8 15-17a451 451 0 0 0 45-48l4-5 5-6 5-5c2-4 7-9 8-9a475 475 0 0 1-4 83l-4 1c-4 0-13 6-19 13l-6 12-1 2c-2 1-5 25-4 30l1 8c2 4 6 14 8 15l3 4 3 3 4 4c4 4 8 5 13 6h5v23c1 25 1 30 4 33 2 2 6 4 10 4s8-2 8-4l1-2 1-28v-26h2l4-1 2-1 14-10c5-5 10-12 13-22 2-3 1-27 0-32l-5-12-17-16-11-4h-4l1-35a1761 1761 0 0 1 3-58l2-1h2l7-3 3-3 7-6a61 61 0 0 0 12-24l1-11c0-11 0-15-2-19l-1-4c0-3-13-18-15-18l-2-1-15-7a668 668 0 0 0-106 8c-2 0-5 1-20 9l-6 4-3 1-13 10-7 5-5 5-4 2-5 4a76 76 0 0 1-12 8l-14 11-15 14-9 7-6 5-4 3h-1c-1 2-14 10-18 11l-7 5h-2l7-12 6-8 5-6 1-2 1-2 5-8 1-2 2-3a171 171 0 0 0 14-27l4-9 1-5 2-5 1-2 1-3 1-2 1-4 1-3 1-3v-3l2-4 1-8 2-9 1-7 1-5c0-5 0-5 2-6l2-1 1-1a178 178 0 0 0 45-58l1-3 1-3c3-5 3-6 3-8l1-2 1-6 1-5v-22l-1-5-1-5-1-3-1-3-2-5c-1-4-2-8-4-10v-3a120 120 0 0 0-13-24l-12-13-12-10-2-2a107 107 0 0 0-31-15c-2 0-8-1-10-3h-7l-6-1-4-1-4-1-1-1c-2 0-5-2-9-6a304 304 0 0 0-109-77l-4-2-9-4-9-4h-3l-5-2-6-2-2-1-4-1a3084 3084 0 0 0-192 0ZM843 528l5 3 7 5 9 6c5 3 7 4 6 6l-14 1h-14l-1-7-1-11c-1-5 0-6 3-3ZM472 14c-4 3-4 4-4 19l1 17 3 3 1 1c0 2 8 1 11 0 3-2 4-5 4-19 0-17 0-17-2-19s-4-3-7-3l-7 1Z"/><path fill="#fcd632" fill-rule="evenodd" d="m106 741-4-4-6-6a115 115 0 0 1-21-27l-1-1-1-2-1-2-1-3c0-4-1-4-19-4l-17-1-2-1-5-2-6-3-13-14-1-1-1-2-1-3c-3-6-4-9-4-27v-14l1-5 1-4 1-2 2-5 2-3c0-1 11-12 13-12l1-1 2-1 2-1 2-1 2-21-1-25-2-3-1-2-1-2-3-10c-3-7-3-11-3-16 0-9 3-21 7-29 3-6 3-7 4-20a168 168 0 0 1 3-26c1-4 10-18 15-24a144 144 0 0 1 27-18l10-6c6-3 6-3 22-3h16l-3-4-4-8c-2-5-2-3-3-77 0-5 1-13 3-17 3-6 12-15 17-18 8-3 9-4 26-4 15 0 17 1 23 3 4 1 7 2 8 1l4-16a161 161 0 0 1 4-17c5-23 9-36 14-43l4-4c4-6 15-13 24-16 7-3 10-4 24-5 25-1 28-1 29-4 1-2 1-3-3-8-4-6-4-9-4-26l1-19c3-6 6-11 13-17 6-6 11-9 18-10a25286 25286 0 0 1 415 2l6 3 4 3c6 4 13 13 13 17l1 2c1 2 3 19 2 35l1 19a116 116 0 0 1 4 12l4 19 2 4c1 2 2 1 4-1l15-24 11-16 7-10a342 342 0 0 1 66-65l6-5a101 101 0 0 1 18-12 250 250 0 0 1 50-26 338 338 0 0 1 53-18l7-3 91 1a1524 1524 0 0 1 101 3l7 2 4 2h3l9 4a179 179 0 0 1 15 6 295 295 0 0 1 78 49l6 5 23 23c6 6 10 8 24 10l9 1 13 4a113 113 0 0 1 40 25c8 8 8 8 14 17a92 92 0 0 1 11 23c2 2 3 6 4 10l2 5 1 3 1 4c2 1 3 30 2 31l-1 5-1 5-2 6-2 5-1 3-1 3-5 11a75 75 0 0 1-15 21l-2 3a184 184 0 0 1-26 25c-2 0-2 2-2 5a523 523 0 0 1-10 47l-1 2-1 3-1 2-2 5-2 5-3 8-5 11a111 111 0 0 1-12 21 143 143 0 0 1-12 19l-6 9c-3 2-8 10-7 11s14-6 20-10a195 195 0 0 0 29-23 223 223 0 0 1 29-24l10-7 5-4 4-2 5-5 7-5a94 94 0 0 1 16-11 122 122 0 0 1 29-14l13-3c17-3 82-6 90-4a59 59 0 0 1 17 8c2 0 15 15 15 18l1 4c2 4 2 8 2 19l-1 11v3c0 3-8 17-12 21a57 57 0 0 1-10 9l-9 3-4 2-1 11v46l-1 35h4l11 4 17 16 5 12c1 5 2 29 0 32-3 10-8 17-13 22a54 54 0 0 1-20 12h-2v26c0 28 0 30-5 33-4 2-12 0-15-3s-3-10-4-34v-22h-5c-5-1-9-3-13-7l-4-3-3-3-4-5-6-14c-3-11-3-18 0-32 2-6 5-15 8-19 7-8 16-14 20-14l6-2 3-1v-40l1-42c-2 0-7 5-10 10l-5 5-5 6-4 5-5 6a217 217 0 0 1-22 23 450 450 0 0 1-33 36l-7 8-8 8a322 322 0 0 1-29 31l-6 7a140 140 0 0 0-13 15l-3 4-9 10a376 376 0 0 0-31 35l-10 12c-8 10-58 14-58 14l-236-8c-195 0-181 45-183 43l-4-1-8-4c-7-3-18-22-23-31l-3-6h-33l-56 1c-28 0-201-7-203-2-4 9-15 27-27 36l-8 5-6 3-89 2c-72 0-74-52-74-52l-79 1-5 16-1 1c0 3-14 19-17 19l-1 1-2 1-10 9-5 4Zm686-52 325-2 6-72 28-51 42-25 49-1 44 23 26 45 8 82h38l-3-80-43-85-39-30-218 1-68 63-213 8Zm423-2c7 0 14-1 21-5 18-9 28-34 21-56-4-12-10-18-23-24-6-3-8-3-16-3-10-1-15 1-23 6-14 9-22 27-19 44 1 11 5 18 14 27a33 33 0 0 0 25 11Zm-733-5c10 0 19-4 28-13 8-9 13-17 15-27 1-6 1-8-1-15-2-10-5-16-12-24a41 41 0 0 0-51-9c-13 7-18 13-22 28-5 20-1 37 14 49a41 41 0 0 0 29 11Zm-343-12c66 0 135-7 169-9 4 0 8-4 11-6l3-3c1-5 1-12-2-16-1-2-3-4-6-4-56-3-150-6-226-2-18 1-43-8-53 6-3 4 0 9 2 13 3 5 7 9 12 12l3 2 4 1 1 1h2c24 4 52 5 80 5Zm1074-2c-8 0-15-6-19-14-3-7-4-13-1-20 3-8 6-11 11-13 9-5 22-2 29 6 8 9 6 25-5 34-4 4-11 7-15 7Zm-621 7 3-1c7-7 7-43 6-57-2-24-6-41-14-58-5-10-10-17-21-29-12-14-22-22-37-29-17-9-26-12-39-13l-25-1c-25 2-43 8-63 23a107 107 0 0 0-41 60l-3 11c-1 2 0 3 1 3 4 0 13 10 15 16l1 4 2-7c7-23 13-39 32-53 24-20 35-24 61-26 25-3 51-1 71 16 23 19 34 33 42 56 5 16 6 24 6 51 0 24-6 34 2 34h1Zm-114-15c-9 0-17-5-21-15-3-6-3-15 0-21s11-13 17-15c5-1 6-1 11 1s13 9 16 15c8 15-3 33-21 34l-2 1Zm1097-33 3-3c4-4 7-6 12-6s9 3 11 6l2 3 2-3 7-7c3-5 3-6 3-13 1-10 0-19-4-23-2-2-7-8-9-8-2 1-2 7-2 8l-2 3c-2 2-9 2-13 0-2-1 1-5 2-8l1-5c0-5-15 4-18 11-5 8-7 20-4 30 1 6 5 12 8 14l1 1Zm-907-24 13-1h3V258c-1-53-1-53-3-59-3-7-12-17-20-19-5-3-5-3-60-3a6661 6661 0 0 1-118-1l-123 1c-110 1-106 1-116 6-13 7-18 16-26 50a916 916 0 0 1-16 60l-6 24-5 22a1027 1027 0 0 1-9 40l8 1 8-1 4-13a4090 4090 0 0 0 37-146c3-5 9-11 16-14 5-2 5-2 35-3h182c7 3 14 11 14 18a2898 2898 0 0 0-37 163c-3 7-8 12-13 13-5 2-65 3-86 2a10138 10138 0 0 0-248 2c-9 1-26 10-36 19-9 7-14 19-15 33 0 7 0 8 1 7 8-3 28-3 37-1 11 4 20 11 27 22 6 10 8 15 9 25l1 6h100l1-6 1-9v-3l-36 1h-52c-14-1-14-1-16-4s-3-8-2-11c1-4 4-5 58-5 50 0 51 0 54 2l3 2 7-7c13-12 21-16 39-15 8 0 11 1 15 3 11 5 18 12 25 25 7 14 8 28 2 44-6 15-14 25-26 31-7 3-7 3-19 3-11 0-12 0-17-2-7-3-18-11-22-15l-7-10c-2-3-4-6-5-5a2020 2020 0 0 1-103 0l-6-2-4 8c-4 6-5 9-11 13a50 50 0 0 1-50 10l-5-1-1 15v14h141l144-1c3-1 3-2 4-5l8-27c4-10 13-26 19-34 12-16 42-38 58-43 19-7 43-9 63-8 21 2 33 5 50 14 17 8 27 15 38 27 26 26 38 50 44 82l1 9h30l19 1Zm696-25 10-5 15-9c7-4 22-15 35-26l40-34 29-24 23-20c28-24 41-36 48-40 3-2 5-5 8-10l7-9 9-5h7c3 1 7-1 10 4 2 3 8 3 8 4 0 0 3-1 3-4-1-4-5-9-6-9l-8-8c-4-1-8-2-13-1-6 2-12 7-27 20a550 550 0 0 1-41 35l-21 18-16 13-17 14a1924 1924 0 0 0-100 86l-11 11 8-1ZM178 567c-55 0-55 0-57-2-3-4-3-8 0-12l5-2a836 836 0 0 1 69-2c38 0 39 0 41 2l2 7c0 4 0 5-2 7s-2 2-58 2Zm1170-2 215-183-22-3-36 4-39 18-76 62-18 9-15 2-19 7-12 7-19 16Zm-550-15 20-1c4 0 4 0 4-4l-5-21a3476 3476 0 0 1-38-187c-1-5-1-5-11-2-5 2-9 2-18 2h-11v5a785 785 0 0 0 15 87l2 18a1847 1847 0 0 0 14 76l5 26 23 1Zm43-1h14l15-1c1-1-1-3-6-6l-9-6-7-5c-2 0-4-2-5-3-4-3-4-2-4 3l2 12Zm155-14 1-1 1-1-2 1v1Zm-691-7 1-2c2-3 3-13 2-18 0-11-12-25-20-29-4-2-13-2-16-1-8 1-15 8-19 15-4 9-8 24-4 30l2 2c-2-4-2-14-1-18l6-9 13-8c4-2 9-2 13-2s10 2 13 5c7 5 12 9 12 19l-1 11-1 5ZM41 513l3-6 3-6 11-10c5-2 10-2 16-2l10 1 10 2s2 0-3-6l-9-7c-12-6-30-1-36 11-2 5-5 16-5 21v2Zm326-39c-4 0-8-1-10-3-5-2-8-7-8-12s4-10 9-12c4-3 9-3 13-1 5 2 10 8 10 13s-3 10-7 13l-7 2Zm258-30-12-1c-4-3-8-9-7-12 2-5 4-6 13-6l18-1c19-2 26 0 28 5 1 4 0 9-3 12a730 730 0 0 1-37 4Zm-119-2c-4 0-12-4-14-7s-3-9-1-13c2-3 6-7 10-9l10-7 8-7-15-1c-19 0-26-1-28-4-1-2 0-7 8-41l19-80c7-33 10-48 13-53 2-6 7-10 14-13l6-3h46a930 930 0 0 0 54-1c12 1 23 9 26 19 2 5 2 11 2 87l-1 83c-2 6-3 6-34 6l-29 1-54-1s-2 7-8 12l-12 9c-4 3-5 4-4 6 3 6-7 17-16 17Zm-210-61c4 0 5-1 6-2s4-8 7-20a1422 1422 0 0 1 26-87 821 821 0 0 1 17-49c1-1 0-1-12-1h-14c-1 1-3 4-11 30l-13 39a4620 4620 0 0 1-26 88l13 1 7 1Zm47 0 8-1 3-13a496 496 0 0 1 14-46 546 546 0 0 1 17-54l9-23 6-19v-3h-22l-3 6-7 20a3012 3012 0 0 1-28 84c-4 12-12 40-12 45-1 3-1 3 11 4h4Zm226-2 14-1c4-1 14-6 14-13v-40l1-33-3-5c-3-5-6-7-15-9-14-2-26 1-31 8-2 3-2 4-1 41 0 38 0 38 3 43 4 8 5 9 18 9Zm-433-13s7 15 12 16c22 1 17-20 18-23l1-8c4-13 8-37 8-56 0-12 0-12-3-14-1-2-4-3-6-3-4-2-11-2-16-1-7 2-13 6-15 10a715 715 0 0 0 1 79Zm663-30 1-1-1-2v3Zm-6-30v-3 3Zm-1-5v-9c-1-18 5-40 19-69 5-9 23-38 34-52 7-11 39-42 57-57a191 191 0 0 1 32-21 340 340 0 0 1 286-26 353 353 0 0 1 131 86l5 3 5 2-5-5-12-15a239 239 0 0 0-64-61 285 285 0 0 0-155-55 312 312 0 0 0-135 15c-11 2-42 14-52 18a341 341 0 0 0-148 144l-8 13c-5 8-5 9-3 21a3719 3719 0 0 0 13 68Zm596-13v-2 2Zm-660-25 3-1 18-3 15-2a924 924 0 0 1-17-87l-1-23-11 1c-3 1-6 2-16 2-13 0-13 0-14 2-1 3 6 23 8 36a11007 11007 0 0 1 15 75Zm231-11c10 0 22-7 24-16 1-10-9-24-20-24-11-1-24 11-24 22 0 9 10 17 19 18h1Zm-87-33 3-1c4-1 8-2 10-6 2-3 3-4 3-10 0-9-2-12-8-15-5-3-10-3-15-1-6 2-8 4-10 9-2 3-2 5-2 8 1 4 2 5 6 9 4 5 8 7 13 7Zm561-32a120 120 0 0 0-17-28 97 97 0 0 0-45-24c-6-1-6-1-3 6 4 6 4 11 3 14-2 3-2 3 1 1h5l13 5 22 10c13 7 17 10 20 16h1Zm-526-7c4 0 6 0 9-2 12-5 17-17 12-27-3-4-10-10-16-12-7-2-14 0-21 7-4 4-6 8-7 16 0 4 0 6 2 9l6 6c3 3 4 3 11 3h4Zm61-22 5-1c7-2 14-6 17-12s3-13 0-19c-3-5-8-10-14-12-4-2-10-2-15 0s-11 7-13 13c-2 8 0 19 5 26 2 3 6 3 9 4l6 1Zm-437-43h1c0-5 3-5 28-7l19-2c4-1 4-1 4-6 1-5 0-5-2-6h-43l-7 1v20Zm-221-1 7-2c7-2 19-3 40-4l13-2v-6l1-5h-25c-28 0-29 0-33 4-3 3-4 7-4 11l1 4Zm150-2 3-1 16-2c17-1 30-3 31-5l2-5c0-4 0-4-5-5h-44c-2 1-2 1-3 5v13Zm146-1 41-3c5-1 5-1 7-7l2-6-21-1c-18 0-29 1-30 2l-1 7c0 8 0 8 2 8Zm131-1 2-1c0-5-7-12-13-13-3-1-41-2-46-1-4 1-6 3-7 6l-1 5c-1 2-1 2 32 3a663 663 0 0 1 33 1Zm-298-1 1-7v-7l-13-1h-38v7l1 7h24l25 1Zm613-3c12 0 22-8 22-18 0-6-3-9-9-13-7-4-13-3-21 2-9 5-13 19-8 24 4 4 9 5 16 5ZM479 55a12 12 0 0 1-6-1c-4-2-5-6-5-22 0-14 0-14 3-16 2-2 3-3 7-3s6 1 8 3l2 4-1 30c-1 3-5 5-8 5Zm196 0h-1c-8 0-9-2-9-20 0-15 1-19 6-22 4-2 11 0 14 3 2 2 2 3 2 13-1 20-1 20-5 23-3 3-4 3-7 3Z"/><path fill="#85c1cc" fill-rule="evenodd" d="M451 739c-48 0-36-38-74-47-13-3-66-2-72-3H52l-17-1-2-1c-2 0-6-1-12-5-9-7-13-16-15-29a162 162 0 0 1 1-38l1-2 2-5 2-3 10-9 2-1 1-1 2-1 2-1c1 0 3-4 4-25v-24c-5-9-6-12-8-20-2-7-3-9-3-16 1-10 2-17 7-26 4-8 4-8 4-19a100 100 0 0 1 3-24l1-5c0-3 10-17 14-22 4-4 11-9 26-18s15-6 33-6c9 0 16-3 16-3l-2-3-4-8c-3-5-3-5-3-40-1-43-1-48 3-55 4-9 12-15 21-18l20-1c15 0 16-1 22 2l9 2a71 71 0 0 0 6-24l2-7 2-9c4-21 8-33 13-39l4-4c3-4 12-9 19-13 11-6 17-6 28-6l19-1c10-1 11-1 12-3s0-3-2-7c-5-8-6-13-6-30 0-15 0-16 3-21 3-7 14-16 20-19l8-3a28754 28754 0 0 1 414 3l12 6c9 9 12 22 12 51l1 19a117 117 0 0 1 3 12l3 9c2 15 7 19 10 16l16-25A365 365 0 0 1 898 60l1-3 14-6 13-7 31-14c6-3 26-10 36-12l8-2c7-3 7-3 97-3a752 752 0 0 1 101 4l6 2 6 2 6 3 13 5 36 16 34 24 9 6 4 3c2 1 2 4 4 6l16 11c14 15 18 18 22 19l7 3h6l7 1 6 2a108 108 0 0 1 37 17c8 5 17 15 24 25 6 9 11 17 16 34 5 14 6 20 6 32 0 13-2 22-6 32l-2 6a108 108 0 0 1-22 35c0 2-20 21-23 23-5 3-5 1-8 18a130 130 0 0 1-5 25l-1 4-4 11a51 51 0 0 1-4 12l-10 24c-6 12-21 36-28 44-3 3-9 14-8 14 1 1 20-8 28-14 12-8 15-11 26-21l17-14 14-10 17-13a360 360 0 0 1 29-22l14-7 13-5 2-1c2-2 23-2 62-4 38-1 36-3 46 1l12 8c4 4 10 12 10 15l1 3c2 4 3 8 3 19l-1 11-1 3c0 3-6 15-11 19-4 4-14 12-16 12l-4 1c-3 1-4 2-4 14l-1 46 1 36h2l12 4 16 15 6 14v30c-4 10-7 13-13 19-6 7-16 13-20 13-2 0-3 2-3 28 0 28 2 28-2 31-4 2-13 0-16-4-2-3-1-8-2-31l-1-24h-5c-6-1-11-4-19-12-11-10-14-25-12-42 1-11 4-17 10-26s14-14 19-14l6-1 3-1 1-42c0-33-1-42-2-42-2 0-7 4-11 10l-5 5-5 6-4 5-4 6a225 225 0 0 1-23 23 526 526 0 0 1-34 37l-8 8-6 7a438 438 0 0 1-29 31l-6 7-7 8-5 6-4 5-9 10a280 280 0 0 0-25 28l-7 8-8 10-11 14c-5 4-45 1-45 1l-71 38h-80c-38 0-36-44-65-46-114-5-231 22-237 12-3-6-3-14-7-14h-52c-59 1-241-2-241 0s-6 21-10 25l-11 9-10 6-4 5-85 1Zm762-52h2c7 0 10 0 15-2 12-5 17-9 22-18s7-16 7-25c0-20-9-34-28-41-24-9-50 6-55 33-2 12 0 24 5 32 6 9 13 15 20 19 5 2 7 2 12 2Zm-418 0 318-3 2-47 7-34 14-29 28-30 40-14h25l25 9 36 22 22 26 9 28 1 27 2 41h31l-8-103-26-41-40-41-220-2-66 60-217 8Zm-314-5c10 1 20-4 28-12 21-20 22-48 2-68-7-7-14-10-21-12h-18c-5 1-18 7-22 11-7 7-12 18-13 33-1 14 4 26 14 36 9 8 20 12 30 12Zm-251-5h53c32 0 71 0 77-5 9-9 2-48 2-49 0-3-6-14-9-17l-3-3-54 1-157 1c-105 0-105 0-108 2l-6 7c-2 3-4 6-4 14-2 19 0 28 7 36 7 7 10 12 41 12a3559 3559 0 0 1 161 1Zm363 0c3 0 5-2 5-5 10-45 1-100-21-129-8-11-22-26-30-32-9-7-28-17-39-20l-16-3c-16-2-38-1-51 2-14 4-24 9-39 20-21 16-36 38-42 63-2 10-2 10 0 11 4 1 11 9 14 16 1 3 1 4 2 3 0-3 8-25 12-33 5-8 8-17 20-26 42-33 78-35 115-23 15 5 37 27 46 41 16 23 22 51 19 88-1 16-4 27 5 27Zm620-10c-9 0-15-4-20-15-3-6-2-13 2-21 3-6 6-9 12-11 7-3 14-2 21 3 5 3 8 8 9 14 1 4 1 6-1 11-3 12-12 19-23 19Zm-735-7c-8 0-16-5-20-14-6-11-4-20 4-28 5-5 8-8 13-9 4-1 6-1 11 2 14 6 21 21 16 32-3 7-6 11-12 14l-12 3Zm1125-32 5-6c6-7 8-11 8-20 0-14-8-29-14-28-2 0-1 5-2 7l-3 3c-2 2-8 2-12 0-2-1-2-2-2-3l4-7c1-4-1-5-6-3-8 4-15 16-16 28-1 10 2 22 8 27 2 2 2 2 5-1l6-5c5-3 14-1 17 4Zm-936-25h15l3-1-1-196c0-211 0-201-5-210-2-6-11-13-17-16-3-2-7-3-15-3a4543 4543 0 0 0-254-1c-121 1-133 1-141 4-10 3-19 10-24 20-4 7-6 13-11 33a930 930 0 0 1-13 54 855 855 0 0 1-13 54 577 577 0 0 1-8 37c0 2 1 2 8 2h8l1-7 6-24a2567 2567 0 0 0 33-129c3-5 9-10 16-14l5-2 99-1h106l10 2c6 4 11 11 11 16 0 7-3 25-13 62l-12 55c-8 37-8 39-12 47-3 5-6 9-10 11-6 3-26 3-200 3l-127 1c-14 1-14 1-23 5-11 5-18 10-24 16-8 7-14 22-14 35 0 4 0 4 2 4 11-3 29-3 37 0 18 7 32 25 35 44l1 8h101v-4l1-9v-5H125l-2-4c-2-5-2-10 0-12 3-2 20-3 65-3 40 0 42 0 45 2l4 2 8-8 15-11c7-3 7-3 20-3s13 0 19 3c12 6 23 19 27 33 2 5 2 9 2 16 0 10 0 11-3 19-4 10-7 17-14 23-9 9-19 13-32 13-10 0-16-2-27-10-10-7-15-12-19-19-2-5-2-5-6-5a1129 1129 0 0 1-106-1c-1 0-2 1-4 6-6 12-18 22-30 26-8 2-20 2-30 0l-8-2v29h142a8665 8665 0 0 0 147-3c0-4 6-23 9-31s11-23 17-30c9-13 29-30 48-41 9-5 22-9 37-11 12-2 46-2 56 1 26 5 52 20 69 38 26 26 38 49 44 82l1 9 31 1h17Zm696-25 11-6a560 560 0 0 1 29-18l10-7a1492 1492 0 0 0 41-35l17-14a1931 1931 0 0 1 61-52l12-10 37-38c4-3 10-2 15-3l5 1c3 2 7 5 11 6h2c2-2 1-2-1-6-3-6-12-13-16-14-11-3-14 1-32 18a615 615 0 0 1-44 37l-23 20a2798 2798 0 0 0-133 113l-9 9 7-1ZM123 567l-2-3c-3-3-3-6-1-9 4-5 4-5 44-5l53-1c18 0 20 1 21 8 1 5 0 8-4 9l-56 1Zm1225-2 215-183-22-3-36 4-39 18-76 62-18 9-15 2-19 7-12 7-19 16Zm-548-15a681 681 0 0 0 22-1c1-1 0-4-4-23l-8-34-7-37a1729 1729 0 0 1-17-83l-7-33c0-5-1-6-3-6l-8 2c-5 2-9 2-18 2h-11v6a850 850 0 0 0 16 98 1314 1314 0 0 0 14 78l6 30 25 1Zm41-1h14l15-1c1-1-1-4-6-6l-9-6-7-5c-2 0-4-2-4-3-2-2-5-3-5-2v5l2 12Zm-557-2c5 0 9-1 13-3 7-5 10-17 11-22 3-8 3-18-1-26s-12-15-18-19c-6-3-14-4-21-2-3 1-6 3-10 8-7 7-11 17-11 31 0 9 0 9 3 14a38 38 0 0 0 34 19Zm-213-2h1c10 0 20-9 26-19 5-10 6-21 2-30-2-7-11-17-16-19-11-5-28-1-36 8-4 4-9 16-9 24 0 7 3 15 6 19l4 6c2 3 13 11 22 11Zm925-10 1-1 1-1-2 1v1Zm9-9 3-3 2-2-3 2Zm1-42a349 349 0 0 0 85-6c18-2 62-13 78-19l47-20a307 307 0 0 0 145-156l4-15 4-17c3-10 6-26 7-37 1-9 1-11 3-13l4-2c3 2 6 7 12 25 1 5 3 8 4 9 0 0 10 66 11 65 1-2 26-29 31-44 7-24-2-49-2-50 0-5-9-26-16-36-7-11-17-19-33-26-7-4-12-5-22-8-3 0-3 1 1 8 2 4 2 6 2 9-1 10-5 6-11 3-5-2-4-1-17-19-17-24-36-41-64-60a291 291 0 0 0-151-54c-13-1-46-2-57-1a464 464 0 0 0-130 34c-12 5-42 24-56 34a439 439 0 0 0-87 96l-7 11c-1 4-6 14-10 19s-4 7 0 28a1200 1200 0 0 0 41 165c3 8 5 10 16 21 20 19 29 27 61 39 20 8 30 10 45 12 19 3 28 5 62 5Zm-51-63-6-2c-3-1-4-2-6-6-3-7-1-14 6-17 4-2 6-2 10 0 10 4 12 14 4 21-2 2-5 4-8 4Zm250-18c-6 0-11-4-12-10-1-8 2-15 9-17 5-3 12 0 15 6l2 7c0 7-3 11-9 13l-5 1Zm-612-7h-91c-24 0-26 1-26-5l8-38c13-49 14-55 17-70 8-40 12-58 15-64 4-7 14-14 22-15h55c51 0 51 0 55 2 6 3 11 8 13 13 2 3 2 7 3 21v135c-1 25 2 21-35 21h-36Zm-256-15h14l2-6 4-16a2173 2173 0 0 1 43-136l-11-1h-11l-3 7-8 20a1355 1355 0 0 1-27 83c-5 15-14 46-12 48l9 1Zm-40 0c4 0 5-1 6-2l7-23a1095 1095 0 0 1 27-89l14-42 2-3h-14l-15 1a2418 2418 0 0 0-31 98l-5 17-7 23-4 18 13 2h7Zm270-2h3c14 0 17-1 22-8 4-5 4-5 5-14l1-38c0-28 0-28-3-32-2-3-3-5-7-7l-14-2c-14-1-20 1-24 8-3 3-3 3-2 41 0 39 0 39 3 44 4 7 5 8 16 8Zm-405 0c2-3 3-11 3-12l7-36c2-12 4-36 3-43s-2-9-8-10c-7-3-21-1-26 3-6 4-6 4-6 45l2 39 4 8c4 4 9 6 13 7 3 0 6 1 8-1Zm845-18c-4 0-7-2-9-6-3-7-1-17 6-20l5-2c7 0 13 7 12 15s-8 13-14 13Zm139-5-5-1c-5-1-7-3-8-8-2-7 1-14 7-17 4-2 7-2 11 0 7 4 9 12 6 18-2 5-6 8-11 8Zm-294-1c-2 0-4 0-6-2-9-4-9-17-1-22 2-2 5-2 7-2 5 0 9 2 11 8 2 5 2 8-2 12-2 4-6 6-9 6Zm-111-36 29-3c2 0 2-1 2-5 0-10-5-33-8-33h-27c-5 1-6 7-3 22 1 11 3 18 6 19h1Zm546-22c-4 0-8-2-11-6-5-9-2-18 7-23 5-2 10-2 14 2 8 6 7 21-2 25a20 20 0 0 1-8 2Zm-560-35h5l18-3 14-2a951 951 0 0 1-16-80l-3-23c0-3-3-5-4-5l-3 1-17 1h-14l6 38 6 34a259 259 0 0 0 8 39Zm-41-124 24-1 19-2c7-1 14 1 14 1l-2-31c0-3-9-11-12-12h-54c-2 0-3 4-4 7-2 6-3 18-2 27l1 10Zm-58-1h23l3-15c0-14-1-13 1-19l4-9v-3h-22c-23 0-33 2-35 4l1 40s12 2 25 2Zm-319 0 11-1h50c2 2 1-5 1-16l2-17V93c0-2-4 0-28 0-29 0-35 2-39 8-2 4 0 5 0 15l2 17Zm79-1 53-1V93l-54-2 1 45Zm125 0 1-44h-55c-1 0-2 41 0 43l54 1Zm16 0 56-1V91l-54 1Zm-51-81-5-1c-4-3-5-7-5-22 0-14 0-14 3-16 2-2 3-3 7-3s6 1 8 3l2 4c1 8 0 27-1 30s-5 5-9 5Zm196 0h-1c-6 0-7-3-7-20-1-15 0-19 5-22 4-2 11 0 14 3 2 2 2 3 2 9 0 12-2 24-4 26-2 3-5 4-9 4Z"/><path fill="#fff" fill-rule="evenodd" d="m1158 128-6-1-4-4-2-5 1-5 4-5 7-3c4 0 4 0 7 3s4 5 4 8l-2 7-5 4-4 1ZM1223 159l-6-1-4-4-2-5 1-5 4-5 7-3c4 0 4 0 7 3s4 5 4 8l-2 7-5 4-4 1Z"/><path fill="#4ec7df" d="M275 399c123 0 156-1 160-2 6-1 11-6 14-13 3-6 5-14 13-50a3172 3172 0 0 1 24-113c0-5-6-13-12-16-3-2-9-2-105-2l-108 1c-6 2-14 7-19 12-4 5-6 11-12 35l-28 118-3 11-5 18s-17 1 81 1Zm78-177-1 2a364 364 0 0 0-21 63 456 456 0 0 0-10 35 1160 1160 0 0 0-18 57c-1 1-3 2-11 2l-13-1c-4-1-4-1 0-13l7-24 12-40 24-75 2-6h29Zm46 0c2 1 1 6-2 15a649 649 0 0 0-22 62l-3 11a716 716 0 0 0-17 59l-3 11c-2 1-17 2-21 1-4 0-4-1-4-3 0-5 8-31 13-46l8-22a3101 3101 0 0 1 26-81l4-7 7-1a288 288 0 0 0 14 1Zm172-18c-37 1-38 1-42 3-5 3-11 8-13 12l-14 57a1450 1450 0 0 1-26 115c0 4 0 4 3 5 2 1 9 2 23 2a177 177 0 0 1 18 1l-9 7-10 8c-11 4-14 14-7 22 7 9 22 6 27-5 1-3 2-4 1-5l-1-3 8-7 13-11 6-5 15 1c16 1 28 1 35-2l32-1c26 0 27 0 30-2 1-1 3-3 3-5a2993 2993 0 0 0-2-172c-2-6-8-11-14-13-5-3 2-3-76-2Zm13 75c7 2 9 4 12 10 3 5 3 5 2 34l-1 36c-1 7-1 8-5 13-5 6-8 7-22 7-13 0-15 0-19-8-3-5-3-5-3-44l-1-40 4-3c3-3 6-5 8-5 6-2 19-2 25 0Z"/><path fill="#c9a70c" d="m1399 235-2-5-3-9c-2-9-8-20-9-22-2-2-3-2-5-1-3 1-4 2-5 14-1 16-10 60-15 74a305 305 0 0 1-150 156l-21 9a375 375 0 0 1-141 31c-14 2-69 1-85 0a216 216 0 0 1-124-53c-7-6-13-14-17-22-4-6-5-14-8-21-3-11-9-36-10-35-10 10 6 42 6 42l8 41 7 36 5 22 65 50 15 6 76 2 64-60 250 2 42-37 42-82 15-91Z"/><path fill="#7194a3" fill-rule="evenodd" d="M492 589c4 0 7 2 10 4 7 5 18 16 21 25 5 18 4 36-8 51-7 9-25 15-37 16-5 0-13-4-17-6-11-8-22-19-26-32-3-13 0-28 7-39 5-9 17-16 26-19 8-2 16-2 24 0Zm741 12c16 7 23 17 26 35 3 15-5 35-18 43-7 5-19 9-26 9-12 0-25-8-34-22-12-19-6-47 12-60 13-9 26-11 40-5Zm-763 10c-6 2-11 8-14 15-2 6-1 14 1 20 3 5 9 11 15 13s12 1 18-2c5-3 11-9 12-15 2-9 0-21-7-27-6-6-17-7-25-4Zm737 9c-5 2-8 4-11 9-6 9-6 19 0 28 6 10 17 13 27 8 16-8 19-33 5-42-7-5-14-6-21-3ZM83 693h57l7 17 19 26-27 1-32-8-11-17-13-19Z"/><path fill-rule="evenodd" stroke="#000" stroke-linecap="round" stroke-linejoin="round" stroke-width="2.7" d="M178 752c-95 0-101-43-106-54l-2-6H55c-22 0-29-3-40-14-10-10-12-17-12-41 0-19 1-23 5-30 4-5 13-14 18-16l5-2v-18c1-27 1-26-1-30a76 76 0 0 1-9-31c0-11 2-20 7-30 3-6 3-6 3-18 0-17 3-28 9-37 8-13 14-19 37-33 14-7 16-8 33-7l15-1-3-4c-6-10-6-8-7-47-1-46-1-48 2-54s9-13 15-17c7-4 13-6 29-6 13 0 15 1 22 3l8 3 5-20c10-45 12-53 24-64 4-5 8-7 14-11 12-6 20-7 40-8l19-1c3-2 2-5-1-11-4-7-5-13-5-29 0-11 1-14 2-17 4-7 9-14 16-19 11-8-11-8 219-7 204 0 204 0 209 2 10 4 19 12 23 20 3 9 4 18 4 50l3 17 5 19c1 6 3 9 5 9s4-3 12-16A356 356 0 0 1 952 31l22-8 27-8s49-12 97-12c44 0 90 10 92 10a329 329 0 0 1 160 97c3 3 12 6 17 6l27 7 24 12c7 5 16 14 23 23s13 21 18 38c8 24 9 35 4 55-2 7-7 21-11 27-6 13-34 44-41 47-3 1-3 1-4 12a250 250 0 0 1-48 117 269 269 0 0 0-15 20c0 1 1 1 5-1l7-3a203 203 0 0 0 40-30l20-16 21-16 13-10c14-12 38-26 51-29 9-3 16-3 34-5 22-1 62-3 66-2l11 4a47 47 0 0 1 26 44c0 9-2 17-6 25-5 11-18 21-27 23-2 0-3 1-4 3l-1 47v44l4 1 9 3c6 3 18 15 21 20 6 13 6 36-1 49-5 11-17 21-27 24l-5 1 1 18-1 28c0 7-1 9-2 11-5 4-16 2-18-4-1-2-2-12-2-28l-1-25-6-1c-6-1-10-4-17-11-16-16-19-45-7-65l7-9c4-5 13-11 17-11l5-1c2-1 3-2 3-6v-77a985 985 0 0 1-92 98l-18 20a787 787 0 0 0-52 58 483 483 0 0 0-39 45l-9 10c-4 5-48 2-48 2s-31 58-107 58c-75 0-108-37-117-53l-3-4c-1-2-225-5-229-5h-28c-62 1-243-4-253-4-11 9-41 66-116 65-80-1-104-64-106-68s-65-1-68-1l-5 8c-6 14-19 54-112 54Zm1036-15c10 0 23-2 30-5 15-5 28-13 36-21 9-8 19-31 23-51 4-16 3-37-2-51-5-15-19-33-32-43a90 90 0 0 0-64-16c-12 3-25 7-31 10-15 8-33 30-39 48-6 20-8 51-4 66 8 30 25 49 52 58 8 3 21 5 31 5Zm-1061-1 16-1-13-11c-7-7-9-10-13-19l-6-11h-24c-20-1-25 0-25 1 0 3 14 24 25 30a93 93 0 0 0 40 11Zm327-1c10 0 21-3 31-7 10-3 23-10 28-14 7-4 16-14 19-19l13-35a107 107 0 0 0-26-93l-13-12c-10-6-26-12-42-14a99 99 0 0 0-70 19c-6 4-16 18-22 30s-10 40-9 56c1 13 3 26 7 33 9 18 25 36 39 44 15 8 30 12 45 12Zm737-29s0 0 0 0c-18-1-29-5-40-17a63 63 0 0 1-20-53c3-20 9-32 25-44 7-6 13-9 19-10 7-2 20-2 29-1 13 3 30 14 37 24 8 12 11 24 10 41-1 18-7 29-17 39a81 81 0 0 1-43 21Zm-735-5c-9 0-18-2-26-6-11-5-25-19-31-30-6-13-7-38-2-51 4-11 8-17 15-24 9-9 18-14 30-17s30 0 43 6c13 7 27 26 31 44 4 12 1 31-6 44s-23 27-36 31c-5 2-12 3-18 3Zm733-12 11-2c13-4 21-10 27-20 9-16 9-35 0-50-3-6-10-11-19-16-6-3-8-3-15-3-10-1-15 1-22 4a47 47 0 0 0-19 59c5 11 15 21 26 26l11 2Zm-435-14-35-192a3529 3529 0 0 1-41-245c-2-3-2-2-2 5l1 27 1 377v29l76-1Zm160 2h63l47-2 20 2 1-15c0-20 1-24 3-43 2-17 9-38 18-54 6-10 15-19 25-26 11-9 34-18 35-17l-4 4c-7 4-18 15-24 23l-9 11c-6 8-14 26-19 41-6 20-12 76-8 78h22l1-24c0-31 3-43 14-67a116 116 0 0 1 71-59c9-2 37-3 51 2s17 7 32 17c20 13 31 26 39 45 7 18 9 31 10 67l1 22h9c9 0 9 0 10-3 1-4 2-29 1-40-4-37-13-53-24-78l-6-10-5-8-9-13c-7-8-16-17-25-23-2-2-7-3-7-3l-60-1h-149c-5 1-5 1-17 12-17 15-32 30-34 33-2 2-2 2 34 2 27 0 36 1 38 2s4 6 4 11v3h-29a14230 14230 0 0 1-280 3 842 842 0 0 1 17 107h27l53 1Zm-459 6c11 0 21-4 30-13 16-16 19-36 11-55-5-10-16-20-26-24-6-2-17-3-24-2-6 1-17 7-22 12-9 7-14 21-14 37 0 9 1 10 4 16 3 9 9 16 18 22a37 37 0 0 0 23 7Zm887-6 6-8 12-15 32-36a2329 2329 0 0 1 101-112 1210 1210 0 0 0 46-51c13-13 13-14 11-22v-16c1-9 2-14 5-16l6-2c5-2 5-2 7-1 5 4 5 6 6 20s1 17 3 17 12-11 13-15c6-15 2-29-10-36-5-3-13-4-18-2s-12 7-23 17a646 646 0 0 1-37 31 1732 1732 0 0 1-86 72 3212 3212 0 0 1-87 77l3 6 4 11a475 475 0 0 1 6 81Zm-718 0c27 0 29-1 32-2 2-2 3-3 3-6V437c0-249 0-233-5-242-3-5-12-13-17-15-8-4-13-4-71-5a4118 4118 0 0 1-82 0l-126 1c-111 0-125 1-129 2-15 4-24 12-30 27l-8 26a1158 1158 0 0 1-21 83 487 487 0 0 0-14 65c0 1 3 2 9 2 8 0 8 0 9-3l5-20 25-101c6-29 8-34 11-39 5-6 12-11 17-12a1912 1912 0 0 1 216-1c2 1 5 3 8 7s3 5 3 10c0 6-3 22-9 47l-16 72c-8 37-11 45-16 51-6 5-7 5-45 6l-51 1H124c-23 1-25 1-30 3-7 3-12 5-21 11-11 8-16 14-20 27-2 6-4 21-2 21l5-1c8-2 20-3 26-2 12 3 23 9 30 19 8 10 11 17 12 28l2 8h101l1-7 1-9 1-4H126l-2-4-2-7c0-6 0-6 58-6 48 0 51 0 54 2l4 2 8-8c10-10 16-13 27-14 16-3 27 1 38 12 12 12 18 26 17 42-2 26-19 47-41 51-12 2-22-1-33-8-11-8-16-13-21-23l-2-2h-76c-22 1-27 1-34-1-2-1-2 0-6 7-3 7-4 9-10 13a49 49 0 0 1-47 11l-8-2c-2 0-2 0-2 15l1 16h139a9941 9941 0 0 0 151-3l1-4c0-6 4-21 7-27 4-8 11-22 17-30 10-14 27-29 49-42 20-12 63-16 95-9a145 145 0 0 1 108 112c0 6 2 13 3 16v25a136 136 0 0 1-7 47c0 2 9 3 38 3Zm-422-2 111-1c15 0 19-2 22-8 2-4 2-6 2-19l-1-20c-2-10-7-18-14-21l-46-1-270 2c-3 2-6 6-8 11-2 3-2 6-2 18 0 15 0 15 3 21 3 7 10 13 17 16a20134 20134 0 0 0 187 2Zm359 0 3-1c6-1 7-3 10-13 2-8 2-12 2-31a145 145 0 0 0-20-82c-6-9-23-28-30-34l-25-16c-14-6-24-10-35-11-23-3-47 0-63 7-15 6-31 17-41 27a124 124 0 0 0-30 58c-2 5-1 6 2 6 1 0 3 1 6 5 5 5 6 7 8 14l1 5 2-6c2-14 10-32 18-43 12-17 39-37 67-42 23-5 51-2 72 11 23 13 46 52 49 63 5 18 6 30 4 66Zm626-8-8-2c-8-4-13-14-13-23 1-10 6-17 13-21 3-1 6-2 11-1 8 0 14 3 18 10 2 4 3 5 3 11-1 12-7 22-18 25l-6 1Zm-735-7c-5-1-9-1-11-3-9-6-13-19-11-29 1-7 7-13 13-17 4-1 17-1 21 1 9 4 12 13 13 23 0 9-6 18-14 22-2 2-7 3-11 3Zm737-9h1c4 0 7-5 7-9 0-3-4-8-7-8-5 0-10 6-9 10 0 4 4 7 8 7Zm-738-3c4 0 7-1 10-3 2-2 2-5 2-7 0-4-2-8-5-11l-6-1c-3 0-6 1-8 3-2 1-3 4-3 6 0 4 2 10 6 12l4 1Zm394 0a16 16 0 1 1 0-33 16 16 0 0 1 0 33Zm70 0a16 16 0 1 1 0-33 16 16 0 0 1 0 33Zm63 0a16 16 0 1 1 0-33 16 16 0 0 1 0 33Zm571-20 3-2c2-5 7-7 15-7 3 0 8 4 9 8 0 1 2 0 6-4 6-7 8-11 8-20 1-12-2-21-9-26-5-4-7-5-8-1 0 6-1 8-4 9-4 1-10 0-11-2l2-7 2-6c0-2-11 3-15 7-8 7-12 25-7 38 1 4 7 13 9 13 0 0 0 0 0 0ZM200 567l-34-1h-44l-2-3c-2-4-1-7 3-10 2-2 4-2 45-2a4270 4270 0 0 1 68 2c2 2 2 9 0 11-1 2-3 2-14 2l-22 1Zm1146-8a655 655 0 0 0 88-72 917 917 0 0 0 58-51l43-36c6-4 19-17 19-18l-8-1c-11 0-13 0-30 3-16 2-24 5-33 11l-31 23-41 34-34 27c-18 14-56 39-54 41a154 154 0 0 1 23 39Zm-548-8 23-1c3-1 2-4-2-23a3851 3851 0 0 1-39-190c-1-5-2-6-11-3-5 2-9 2-19 2h-12v4l2 12a1084 1084 0 0 0 15 91 1005 1005 0 0 0 14 77l5 29c1 2 2 2 24 2Zm46-1h7a178 178 0 0 1 20-2c1-2-1-4-6-6l-9-6-7-5-5-3-5-3v10l2 9 1 6h2Zm120-1h7l13-1 16-15c17-17 40-39 46-43a1441 1441 0 0 1 139-5l73 1c22 0 30 1 35 3l4 1 23-22a267 267 0 0 0 70-182 567 567 0 0 1 4-63l6 15c6 17 7 21 8 41l1 19a137 137 0 0 0 32-48c2-6 2-8 2-20l-1-18-3-11-8-21c-7-13-8-15-15-21a92 92 0 0 0-50-26c-2 0-1 4 1 7l4 8c1 3 0 4-1 7-2 2-2 3-5 3-4 0-6-2-25-28-8-11-23-27-36-38-12-10-47-33-61-40l-39-16a388 388 0 0 0-158-14c-16 2-54 12-70 18-34 12-44 17-71 34a363 363 0 0 0-87 81c-11 13-35 56-39 61-3 4-3 4 6 55l15 70 14 71 16 78 5 5 16 12 42 28 17 11 54 3Zm-686-5c12 0 25-10 29-23 4-16-4-36-19-42-5-3-16-3-22 0-5 3-11 9-14 15-2 5-4 17-3 22 1 8 8 17 17 24 6 4 8 4 12 4Zm-207 0c10 0 21-9 27-21 2-6 3-7 3-14s-1-9-3-14c-4-8-9-13-15-17-15-6-33 0-39 15-3 7-4 16-4 21 3 14 18 30 31 30Zm555-100-8-1c-11-1-15-15-6-17l8-1h40c5 2 6 7 3 13-1 2-2 3-5 4l-32 2Zm677-2-7-1c-2-1-5-8-5-12 0-5 3-9 8-11 3-2 7-2 10-1 1 0 3 2 4 5 3 3 4 5 4 8 0 4-2 9-5 11l-9 1Zm-797-1c-7 0-14-5-15-11-2-6 1-11 9-15l12-9 9-7 3-1-20-1-23-1c-4-1-4-1-4-6l10-47a2373 2373 0 0 0 29-123c3-5 8-10 14-13 5-2 5-2 52-3h47s19 0 26 6 7 10 8 26v149c-1 7-1 8-3 10-3 2-3 2-30 2-22 0-28 0-33 2l-29 1c-20-1-22-1-23 1l-2 3-11 9-11 10v2c3 5-4 13-11 15l-4 1Zm449-21c-7 0-12-6-12-13 0-4 1-7 5-10 8-5 19 1 18 11 0 5-1 8-5 10l-6 2Zm249-17c-2 0-3-1-5-3-5-3-5-4-5-12 1-6 2-8 7-11 8-5 17 1 17 12 0 8-4 13-12 13l-2 1Zm-589-21h14c10 0 15-1 16-2a2646 2646 0 0 0-3-157c-2-2-1-2-62-1-43 0-44 0-46 2-2 3-37 154-36 154l30 2v-9c-2-7-2-13-1-45 0-45 1-48 11-56 9-9 22-12 44-10 11 1 14 1 18 3 5 3 11 9 15 16l2 4v43a376 376 0 0 1-2 56Zm-330-1h75c80 0 72 1 75-8l16-66 6-25 11-58-2-3a4265 4265 0 0 1-123 0h-83l-2 3c-2 2-3 6-5 13a892 892 0 0 0-18 75l-16 67a3879 3879 0 0 0 66 2Zm285-1 14-1c4-1 8-5 12-10 2-4 2-4 3-41v-37l-3-4c-3-6-8-8-16-10-15-2-26 1-31 8-2 4-2 4-2 39l1 41c2 6 5 12 9 14l13 1Zm-411-1c4 0 4 0 7-15l4-18c3-14 6-34 6-49s-1-16-6-19c-7-4-23-3-29 2l-5 6c-2 4-2 5-2 39 0 41 0 39 8 47 5 5 9 7 17 7Zm847-19c-3 0-5-2-7-4-4-7-1-17 5-20 4-3 8-2 12 0 2 3 4 6 4 9l-1 4c0 5-4 10-9 10l-4 1Zm140-5h-1l-6-1c-8-4-8-17 0-22 4-3 9-3 13 0 6 5 7 11 3 17-2 4-5 6-9 6Zm-296-1-6-3c-3-3-3-3-4-8 0-6 0-6 3-9 2-2 4-4 6-4 7-2 12 2 14 9v7c-3 5-6 7-11 8h-2Zm-107-34c7 0 29-2 30-4 3-2-2-26-7-33-3-5-4-5-9-6h-5l-6 1c-3 0-9 1-12 4-2 2-2 2-2 10 0 10 2 20 5 25 1 2 2 3 5 3h1Zm544-24c-4 0-5-1-8-3-7-7-5-20 4-24 12-6 23 7 17 20-2 5-6 7-13 7Zm-559-33h2l18-3 17-2c1-1 0-5-1-11a950 950 0 0 1-16-76l-3-19-2-2a386 386 0 0 1-38 2l2 3 2 15 12 69c3 19 4 24 7 24Zm-29-77-1-11-1-12-1-6-5-4-7-2H377a3707 3707 0 0 1-69 2c-1 2 9 5 9 5h109l226-1 26 2h8l3 4 2 7 4 10c0 3 4 6 4 6Zm-18-51 45-1c14-1 14-1 15-3 1-4-1-23-3-26-2-4-8-9-12-10l-23-1c-19 0-26 0-28 2l-3 9c-2 8-2 11-2 19l2 11h9Zm-30 0 1-14c0-13 1-15 3-20l2-7-19-1c-21 0-33 1-34 2v39l24 1Zm-340 0h58l1-7 1-20V94h-25l-28 1c-3 1-8 5-9 9-2 5-1 24 0 28Zm80 0 24-1 24-1 1-19V94l-51-1a525 525 0 0 0 2 42Zm80-1h40v-11a207 207 0 0 1 1-29l-46-1-6 1-1 8c-1 10 1 30 3 31l9 1Zm86 0c25 0 25 0 26-2l1-20V94l-7-1-34 1h-12l-1 18 1 20c0 2 0 2 26 2Zm116-79c-1 0-3 0-4-2-2-1-2-2-2-17-1-18 0-20 4-22 5-3 13 0 15 4 1 2 0 25-1 30-1 2-2 4-5 5l-7 2Zm-195 0-4-1c-5-2-6-5-6-21 0-13 1-14 2-16l4-3c3-1 7-1 9 1 5 2 5 5 4 21 0 17 0 17-6 18l-3 1Z"/><path fill-rule="evenodd" stroke="#000" stroke-linecap="round" stroke-linejoin="round" stroke-width="2.7" d="M1096 690c-6 0-6 0-10 9l-8 14a75 75 0 0 1-40 30 155 155 0 0 1-65 7c-32 0-36 0-43-2a224 224 0 0 1-29-9l-13-8a62 62 0 0 1-16-21l-5-11c-3-7-3-7-12-7l241-2Zm-165 4c-45-1-45 0-45 1l3 6a106 106 0 0 0 15 18 53 53 0 0 0 23 11l11 2a117 117 0 0 0 22 0l-6-5-9-10-9-14Z"/><path fill="#7194a3" fill-rule="evenodd" stroke="#000" stroke-linecap="round" stroke-linejoin="round" stroke-width="2.7" d="m931 694 14 23 9 10 6 5-9 1a117 117 0 0 1-24-3l-13-5-10-6a79 79 0 0 1-18-24c0-1 0-2 22-2l23 1Z"/></svg>