<?xml version="1.0" encoding="UTF-8"?>
<!-- Generated by Pixelmator Pro 3.6.5 -->
<svg width="1000" height="641" viewBox="0 0 1000 641" xmlns="http://www.w3.org/2000/svg">
    <g id="Group-copy-4">
        <path id="VIP-copy" fill="#fcf7ea" fill-rule="evenodd" stroke="none" d="M 779.005371 201.898682 L 816.746277 201.898682 C 858.551392 201.898682 879.453918 183.706421 879.453918 147.319458 C 879.453918 110.933289 858.551392 92.740234 816.746277 92.740234 L 779.005371 92.740234 Z M 779.005371 438.796936 L 665.201172 438.796936 L 665.201172 1 L 846.358765 1 C 895.519043 1 933.16333 13.774109 959.291504 39.322388 C 985.419678 64.869873 998.483765 100.868652 998.483765 147.319458 C 998.483765 193.770264 985.419678 229.769012 959.291504 255.317291 C 933.16333 280.864777 895.519043 293.638916 846.358765 293.638916 L 779.005371 293.638916 Z M 596.686401 1 L 596.686401 438.796936 L 482.882202 438.796936 L 482.882202 1 Z M 124.632874 1 L 230.307053 267.510712 L 336.562744 1 L 460.238312 1 L 275.596436 438.796936 L 185.019272 438.796936 L 0.958922 1 Z"/>
        <path id="Path" fill="#fcf7ea" stroke="none" d="M 787.452332 340.110107 C 791.130737 340.422546 794.482422 340.510468 798.495422 340.950928 C 803.602844 341.511505 807.371399 344.425446 811.055969 344.65213 C 814.244873 344.854736 817.585327 345.360992 818.445618 345.715302 C 821.330933 347.081787 824.468628 355.58493 822.747986 357.356476 C 822.444458 357.609741 821.887634 359.128113 821.482544 360.798248 C 820.672607 363.936249 818.445618 367.833557 816.522217 369.453491 C 814.548462 371.174316 812.625 372.237122 811.612793 372.237122 C 811.055969 372.237122 810.448792 372.439758 810.296814 372.743378 C 810.144897 372.996521 809.436218 373.249451 808.778198 373.249451 C 808.120361 373.249451 807.462341 373.451874 807.310425 373.65451 C 806.95636 374.211243 801.186218 375.172882 796.631104 375.476501 C 793.492615 375.678772 792.986633 375.830841 791.721191 377.248016 C 790.354431 378.817078 790.304077 378.968811 790.304077 384.890625 C 790.304077 388.231384 790.101685 391.926086 789.797791 393.090485 C 789.544983 394.305054 789.089478 396.279175 788.735107 397.544434 C 787.823975 401.289856 788.9245 396.771301 788.468994 401.326599 C 788.013428 405.628601 791.360474 408.483582 793.435791 410.811829 C 796.421936 414.051208 796.773987 415.098907 798.446533 417.239868 C 800.451538 419.806458 802.171875 422.625183 804.469604 424.93335 C 806.367798 426.840118 809.385742 427.710693 810.802734 429.937683 C 811.460754 430.899353 812.523865 432.265808 813.181702 432.974487 C 816.674255 436.720093 821.22937 444.463928 822.393616 448.664886 C 822.900024 450.487091 823.507141 452.511719 823.709473 453.220215 C 824.114685 454.38443 824.57019 456.61145 825.835327 463.849365 C 826.088501 465.367798 826.493225 470.935394 826.746399 476.249908 C 826.87207 479.51355 826.710327 509.71698 826.77887 541.782532 C 826.820862 561.435791 825.987244 605.114258 825.683655 605.873413 C 825.430542 606.683289 824.165039 608.35376 822.950317 609.669556 C 821.735657 610.985657 819.913513 613.313782 818.901184 614.882813 C 815.712341 619.843201 810.549683 625.309448 806.602051 627.890991 C 798.30127 633.357422 787.975952 637.102844 778.91571 638.013733 C 772.082764 638.722229 769.929077 639.999146 735.106628 639.999146 C 700.182556 639.999146 702.487915 638.722229 683.254395 638.317383 C 666.146729 638.013733 663.413513 636.449829 658.70636 635.4375 C 653.391785 634.323975 653.391785 634.323975 498.967224 634.172119 C 344.542236 634.070862 344.542236 634.070862 340.543823 635.133728 C 336.950195 636.09552 334.2677 637.659607 315.287262 638.165466 C 294.029022 638.722229 287.720215 639.999146 251.075592 639.999146 C 214.430557 639.999146 202.108078 634.825073 195.730713 631.282104 C 195.173981 630.978455 193.706131 630.168396 192.440674 629.510559 C 188.745865 627.485962 187.126404 626.068787 180.394699 619.286255 C 176.193527 615.034912 173.713394 612.149719 173.05545 610.631348 C 172.498688 609.365906 171.688782 607.898193 171.182816 607.341431 C 170.676498 606.784668 170.119766 605.46875 169.96814 604.355225 C 169.816177 603.292175 169.30986 602.178833 168.85466 601.824524 C 168.449509 601.520691 167.892792 600.002136 167.639603 598.483765 C 167.386826 596.965393 168.134537 571.152222 168.134537 541.137695 C 168.033325 488.296265 166.325729 494.431274 168.240875 471.188354 C 168.61882 466.60144 169.961517 458.636108 170.214676 457.522583 C 171.226974 453.422791 173.201172 446.336792 173.707108 445.020691 C 174.111893 444.008362 180.551956 430.535034 182.401566 428.0625 C 186.836746 422.133545 185.278564 424.528625 199.287537 413.630707 L 199.287537 413.630707 L 208.817993 405.461761 L 207.456512 383.677917 L 206.095016 372.785919 L 199.287537 372.785919 L 185.672623 371.424438 C 185.672623 371.424438 182.989517 371.668762 176.142166 364.616974 C 169.294815 357.565186 174.271423 347.752716 178.011398 345.027588 C 181.751373 342.302429 185.672623 341.471619 185.672623 341.471619 L 199.287537 340.110107 C 199.287537 340.110107 212.758957 339.834045 216.511353 339.788025 C 220.263748 339.741974 225.155914 342.83313 225.155914 342.83313 L 231.963364 351.002075 L 241.493805 361.893982 L 244.216797 355.086517 L 251.024261 344.19458 L 261.916199 326.495178 L 274.169647 306.072815 L 285.061584 289.734863 L 297.315002 273.396942 C 297.315002 273.396942 309.927399 258.603668 317.737427 252.974548 C 322.67688 249.414459 325.746094 248.083344 334.075317 244.805634 C 341.644501 241.826996 372.796906 240.323181 372.898102 240.525787 C 373.151245 240.930573 415.144623 240.546143 415.144623 240.546143 C 415.144623 240.546143 411.141205 240.546143 482.643494 240.341064 L 596.070618 240.645874 C 596.070618 240.645874 626.202698 238.897949 641.890442 241.812408 C 650.096558 243.336945 667.338745 249.738708 667.642212 249.738708 C 668.148499 249.738708 682.617432 263.866516 682.617432 263.866516 C 682.617432 263.866516 690.922119 272.883423 695.074524 277.391846 L 703.039856 288.373383 L 713.931824 303.349823 L 724.823669 319.687714 L 741.161621 342.83313 L 754.776611 361.893982 L 762.945557 351.002075 C 762.945557 351.002075 770.05896 338.632935 787.452332 340.110107 Z"/>
        <text id="VIP" visibility="hidden" xml:space="preserve" x="3.532829" y="433" font-family="Futura" font-size="569.494716" font-weight="700" fill="#000000" letter-spacing="-17.084841">VIP</text>
        <path id="Path-copy-2" fill="#81a8b9" stroke="none" d="M 257.030792 641 C 220.537811 641 220.384552 638.772949 214.563934 638.013733 C 214.503189 638.005615 214.441345 637.995483 214.380447 637.987183 C 205.278473 637.030518 195.07222 634.034973 187.034103 628.746582 C 181.933395 625.390686 178.091705 620.261475 174.78067 615.131653 C 171.214386 609.606201 167.106308 601.165222 166.85318 597.065247 C 166.610077 593.782227 166.721054 524.182861 166.776062 492.304779 C 166.69429 486.473083 166.664459 482.372467 166.797333 478.623383 C 166.798019 478.080261 166.802658 475.642273 166.802658 475.389832 C 166.802658 471.188843 167.006912 467.038879 167.26004 466.178467 C 167.563599 465.318085 168.169052 462.330505 168.624191 459.546509 C 170.34523 449.423767 174.293045 434.510651 180.417587 426.868042 C 181.682648 425.298798 184.653549 422.920166 187.065506 421.344971 C 189.129822 419.996582 192.301666 418.248352 194.569656 417.215271 C 197.45752 413.953308 201.916931 411.215515 203.632095 406.998779 C 204.946716 403.766724 203.969666 400.028564 204.124039 396.542908 C 204.296066 392.65921 204.608017 388.231201 204.608017 384.890442 C 204.608017 378.968658 203.195908 378.817078 201.829178 377.248016 C 200.46254 375.729645 200.157211 375.629242 195.399323 375.274902 C 190.185867 374.819366 189.024124 374.565247 183.659103 372.844421 C 179.407516 371.427429 178.496262 370.920349 176.420853 368.693481 C 174.193909 366.365387 172.775116 363.479858 171.307281 358.468994 C 170.295029 355.027191 170.245407 354.318695 170.802048 352.445984 C 171.510788 350.067017 173.280823 347.031097 174.59668 345.968262 C 175.659668 345.057159 185.5811 344.500732 204.004379 344.298309 C 217.670563 344.146393 217.671661 344.147064 219.746643 345.412476 C 220.910919 346.121307 222.529236 347.487457 223.339172 348.449249 C 224.807053 350.170074 230.020233 357.761658 233.816284 363.784668 C 234.457703 364.811096 235.893372 367.371033 237.3237 369.99646 C 237.957169 369.39267 238.318283 369.105469 238.352798 369.201385 C 239.618271 372.896301 242.503311 376.589874 245.692108 378.766388 C 247.429611 379.895721 259.664886 384.861206 266.787262 388.318115 C 275.4263 392.511108 283.261627 396.486389 291.655762 400.231201 C 295.240814 401.830505 312.094116 410.040833 312.094116 410.040833 C 312.094116 410.040833 308.657013 406.451782 291.599915 398.505371 C 276.567505 391.46991 261.93985 383.827454 257.333923 380.587921 C 256.068787 379.677155 253.587875 378.209808 251.76564 377.248016 C 249.994217 376.286407 247.666901 374.718475 246.604187 373.705994 C 243.567337 370.821136 243.819962 368.996796 248.476242 359.785278 C 250.551636 355.685516 252.576096 351.941406 252.980881 351.53653 C 253.841187 350.524078 259.307861 341.614197 263.25589 334.781128 C 264.976501 331.845581 267.051758 328.659088 267.912079 327.646606 C 268.772369 326.634277 268.961426 325.893372 269.480988 325.014038 C 270.873566 322.657349 272.210754 320.266754 273.631958 317.927338 C 277.462219 311.622467 281.347839 305.349335 285.425354 299.201508 C 287.494873 296.081146 297.995056 281.702362 299.332794 279.765656 C 301.38736 276.791046 304.067871 273.513641 306.520508 270.857452 C 308.325989 268.902313 312.927216 263.431732 314.697449 261.792358 C 319.371918 257.463745 322.5242 254.764374 327.067932 252.19809 C 333.442719 248.597595 337.436157 245.187531 347.556732 244.284424 C 349.069031 244.149475 448.993988 243.41571 500.219421 243.188843 C 547.892761 242.977783 618.766357 242.304352 636.233215 242.872406 C 648.636108 243.275757 658.264282 247.444855 664.537292 251.663605 C 671.013489 256.018982 676.39386 262.537445 682.281921 268.996033 C 690.161499 277.638824 696.310425 286.928802 703.395691 296.233887 C 711.979919 307.507416 719.904846 319.269073 728.083374 330.840271 C 732.278381 336.775513 736.480713 342.706604 740.589417 348.701874 C 744.459534 354.348785 747.473694 358.773132 752.029175 365.757751 C 753.294373 367.731873 752.73761 370.263397 750.56134 372.642334 C 747.980042 375.527191 736.75293 381.803162 727.43988 386.3078 C 720.248596 389.773865 703.867859 398.219543 693.985962 403.851135 C 688.42749 407.01886 685.855896 409.296265 685.855896 409.296265 C 685.855896 409.296265 699.056274 402.734802 705.650146 399.488098 C 716.408752 394.190887 723.157776 390.929413 727.16864 388.950989 C 732.17865 386.479645 736.842102 383.076416 742.230164 381.601074 C 745.067383 380.824097 748.999146 380.682007 751.026672 380.891083 C 753.149597 381.110107 754.971436 382.766113 757.10022 382.917358 C 758.605469 383.024384 760.997559 384.029724 761.554321 382.106323 C 761.807434 381.144684 761.706116 380.487366 761.352234 380.28479 C 760.74469 379.879761 754.164673 378.715698 752.747131 378.766388 C 751.633606 378.766388 751.633362 378.919464 752.797668 376.490143 C 754.113525 373.807373 758.467346 365.809448 759.732788 363.784668 C 763.528809 357.761658 768.742004 350.170074 770.2099 348.449249 C 771.019836 347.487457 772.640869 346.121307 773.805176 345.412476 C 775.880066 344.147064 775.878479 344.146393 789.544678 344.298309 C 807.967957 344.500732 817.889465 345.057159 818.952393 345.968262 C 820.26825 347.031097 822.038269 350.067017 822.747009 352.445984 C 823.303772 354.318695 823.254028 355.027191 822.24176 358.468994 C 820.773926 363.479858 819.357849 366.365387 817.130859 368.693481 C 815.055481 370.920349 814.144226 371.427429 809.8927 372.844421 C 804.527588 374.565247 803.363281 374.819366 798.149841 375.274902 C 793.391846 375.629242 793.086548 375.729645 791.719849 377.248016 C 790.353149 378.817078 790.305176 378.968658 790.305176 384.890442 C 790.305176 388.231201 790.794434 395.020386 790.786499 396.542908 C 790.772888 399.19809 790.976318 402.545166 790.470093 405.328796 C 790.014526 408.11261 787.604065 409.824463 785.595825 411.514038 C 778.155334 417.773376 771.829224 421.53476 759.934875 425.381561 C 754.215515 427.203613 751.585022 427.863403 732.351318 431.963013 C 719.394165 434.746979 719.089233 434.795349 712.104553 436.010254 C 703.80365 437.427429 698.286377 439.696167 692.365479 443.237854 C 687.553162 446.116394 685.169128 449.68634 683.321655 454.980743 C 680.945801 461.789551 682.99707 469.909454 686.055298 476.440186 C 687.78479 480.133606 690.894287 483.292542 694.386414 485.398926 C 700.812073 489.274353 705.648193 489.553223 713.117615 490.270508 C 726.352539 491.541626 739.841797 489.894592 752.898743 487.385315 C 761.989929 485.638092 771.094482 483.13031 779.370728 478.982361 C 783.694519 476.815308 787.848328 474.052429 791.164124 470.531555 C 794.594543 466.888641 797.267883 462.457153 799.162903 457.82605 C 801.229553 452.775452 802.704712 452.409485 802.654358 441.831177 C 802.654358 436.516663 802.468628 428.448242 800.247803 422.26236 C 799.456909 420.05957 795.970703 416.340393 796.477112 416.340393 C 797.691833 416.340393 803.360596 419.305206 806.483582 421.344971 C 808.895508 422.920166 811.866455 425.298798 813.13147 426.868042 C 819.256042 434.510651 823.203796 449.423767 824.924866 459.546509 C 825.380005 462.330505 825.988098 465.318085 826.291687 466.178467 C 826.5448 467.038879 826.746399 471.188843 826.746399 475.389832 C 826.746399 482.020447 826.999451 592.965698 826.695862 597.065247 C 826.442749 601.165222 826.36731 609.77478 822.851196 615.131653 C 819.496277 620.243042 812.743591 625.782776 806.805298 629.10022 C 798.15625 633.932129 788.077393 637.102844 778.916016 638.013733 C 772.083008 638.722229 763.924255 641 729.101868 641 C 694.177856 641 662.402588 637.710632 654.658508 636.1922 C 651.419128 635.584961 551.699402 635.453796 500.219421 635.53009 C 446.503967 635.60968 343.884979 635.432068 339.07666 636.697449 C 335.181213 637.715454 333.684998 637.921204 324.770355 638.024414 C 324.766998 638.024719 324.763123 638.024048 324.759735 638.024414 C 310.490143 639.476135 288.207336 641 264.447205 641 C 263.200836 641 261.999359 640.997681 260.820099 640.992004 C 259.597565 640.997681 258.343994 641 257.030792 641 Z M 684.06366 581.237915 C 687.615784 581.243408 693.525269 580.998596 701.981018 580.514648 C 731.944763 578.79364 742.068665 578.289246 751.837769 577.985779 C 757.557068 577.833679 767.932068 577.125366 774.866089 576.467346 C 791.923157 574.797241 791.771667 574.796387 792.631958 573.935852 C 793.340637 573.27771 792.884277 573.177979 788.683105 573.228516 C 786.101807 573.279053 781.041687 573.73291 777.397583 574.188477 C 773.804016 574.644043 765.24939 575.302002 758.416504 575.656311 C 733.159912 576.820374 724.453857 577.2771 712.357056 577.985779 C 699.551697 578.795471 686.240112 579.70575 684.013062 579.958862 C 683.304443 580.060059 682.139709 580.16095 681.380493 580.211487 C 680.570679 580.211487 679.965759 580.466248 679.965759 580.769897 C 679.965759 581.080017 681.300781 581.233582 684.06366 581.237915 Z M 293.490601 580.29657 C 296.58374 580.288574 298.830322 580.180237 299.74762 579.958862 L 302.047791 579.37384 C 301.836334 579.358887 301.606201 579.341431 301.388306 579.325989 L 299.343414 579.251526 C 297.825195 579.150146 295.749756 579.097473 294.788269 579.147827 C 293.826355 579.147827 291.295319 578.946228 289.219971 578.693115 C 287.144958 578.490479 282.336884 578.137512 278.591278 577.985779 C 275.39093 577.855774 270.203827 577.505432 266.138428 577.153442 C 258.724487 576.766724 249.815887 576.333069 235.132568 575.656311 C 228.299698 575.302002 219.745071 574.644043 216.151459 574.188477 C 212.507416 573.73291 207.447357 573.279053 204.865952 573.228516 C 200.664795 573.177979 200.20842 573.27771 200.917084 573.935852 C 201.225571 574.244507 201.416885 574.441895 202.305176 574.645874 C 204.137589 574.767517 206.057617 574.881165 207.732529 574.948975 C 211.478134 575.151428 216.73996 575.504395 219.371704 575.757385 C 231.721634 577.022827 234.507706 577.226746 244.934235 577.733154 C 251.058426 578.036438 260.523163 578.591187 265.938995 579.046753 C 266.402466 579.084473 266.872803 579.119568 267.340363 579.155762 C 272.052887 579.410583 278.220428 579.758911 284.91214 580.139648 C 288.133575 580.248901 291.07251 580.302734 293.490601 580.29657 Z M 307.25708 524.991272 C 309.20575 524.991272 311.154633 524.840149 311.610138 524.536499 C 311.654449 524.511963 311.679077 524.488342 311.684601 524.464722 C 310.342987 524.344421 308.983643 524.217773 307.576202 524.084473 C 307.466888 524.083984 307.370453 524.081787 307.25708 524.081787 C 304.169373 524.081787 302.450806 524.283264 302.906708 524.536499 C 303.362091 524.840149 305.308472 524.991272 307.25708 524.991272 Z M 686.291931 524.991272 C 688.24054 524.991272 690.189636 524.840149 690.64502 524.536499 C 691.100891 524.283264 689.379639 524.081787 686.291931 524.081787 C 683.103455 524.081787 681.483337 524.283264 681.938904 524.536499 C 682.394531 524.840149 684.343262 524.991272 686.291931 524.991272 Z M 277.338837 524.188171 C 280.799561 524.194519 282.962128 524.004028 283.417664 523.624451 C 283.87323 523.219604 284.68515 523.068359 285.241852 523.220215 C 285.798676 523.371948 286.406586 523.27124 286.558136 523.018127 C 286.710236 522.765198 285.595581 522.560791 284.127686 522.560791 C 282.659851 522.560791 279.167969 522.359314 276.384186 522.055542 C 260.237854 520.385254 254.010635 519.879333 238.674561 518.968262 C 230.677078 518.490112 222.750946 517.977539 219.443497 517.681213 C 219.436935 517.688538 219.428436 517.695007 219.422226 517.702454 C 219.017471 518.208557 219.019867 518.513 219.475403 518.917725 C 220.386154 519.626526 230.812744 520.942993 240.631714 521.550293 C 245.237625 521.853943 254.094559 522.511902 260.370697 523.068665 C 264.344971 523.421143 269.857025 523.833496 274.924316 524.153625 C 275.782288 524.173035 276.596252 524.186829 277.338837 524.188171 Z M 716.210205 524.188171 C 719.670959 524.181885 724.428955 523.97876 730.072449 523.573914 C 734.121582 523.320984 743.434814 522.713196 750.824585 522.308167 C 774.056885 520.992188 782.76355 519.676758 781.498047 517.550903 C 781.093262 516.943787 780.485962 516.943787 775.373962 517.550903 C 773.450684 517.803833 764.187805 518.411499 754.874573 518.968262 C 739.538391 519.879333 733.311218 520.385254 717.164856 522.055542 C 714.381226 522.359314 710.889221 522.560791 709.421387 522.560791 C 707.953613 522.560791 706.841492 522.765198 706.99353 523.018127 C 707.145142 523.27124 707.750427 523.371948 708.30719 523.220215 C 708.863953 523.068359 709.675842 523.219604 710.13147 523.624451 C 710.586914 524.004028 712.749573 524.194519 716.210205 524.188171 Z M 270.470184 490.70929 C 273.800171 490.72406 277.122711 490.588287 280.431427 490.270508 C 287.900848 489.553223 292.736969 489.274353 299.162598 485.398926 C 302.654816 483.292542 305.764252 480.133606 307.493774 476.440186 C 310.552002 469.909454 312.603424 461.789551 310.227386 454.980743 C 309.4664 452.799896 308.611603 450.915375 307.536316 449.247559 C 305.072083 446.627319 302.087463 444.503784 299.09079 442.581055 C 297.199463 441.367493 295.539612 440.363953 293.88681 439.499084 C 290.271545 437.983185 286.343628 436.846741 281.44458 436.010254 C 274.459778 434.795349 274.157562 434.746979 261.200348 431.963013 C 241.966812 427.863403 239.333496 427.203613 233.614197 425.381561 C 227.939346 423.546265 223.532669 421.731018 219.66687 419.653748 C 218.74855 419.315369 217.934647 419.018372 216.943878 418.651215 C 215.985046 418.294067 214.780472 417.147461 213.471008 415.811218 C 211.631058 414.510071 209.827728 413.090912 207.953247 411.514038 C 207.453964 411.094055 206.92897 410.673706 206.416245 410.234955 C 205.760345 410.244934 205.728043 411.252258 204.358047 411.580505 C 203.138214 411.872864 202.036041 412.557739 200.964951 413.210571 C 200.008377 413.793579 199.071259 414.441925 198.28186 415.236847 C 197.600235 415.923248 197.032562 416.724823 196.550735 417.563629 C 195.008698 420.248047 193.921448 425.930176 192.907684 430.192017 C 192.569992 431.611664 192.179565 433.034973 192.096634 434.491882 C 191.726532 440.993866 192.850723 450.38736 193.508652 453.980896 C 194.622162 459.750946 199.265747 466.667938 204.238388 471.289398 C 208.148239 474.923157 212.615097 477.947113 217.37999 480.490112 C 224.773926 483.757233 232.717392 485.860626 240.65033 487.385315 C 250.443039 489.267334 260.480286 490.664734 270.470184 490.70929 Z M 500.219421 485.760559 C 517.234192 485.760559 509.611206 481.41748 510.228485 477.392181 C 511.057983 471.983612 500.219421 464.38089 500.219421 464.38089 C 500.219421 464.38089 490.085449 470.513092 490.639099 477.42511 C 490.95639 481.387085 483.881531 485.760559 500.219421 485.760559 Z M 670.895447 455.507263 C 671.426819 455.473999 670.872253 454.238647 669.233398 451.80304 C 668.423523 450.588135 667.362 448.765259 666.856079 447.753113 C 665.742676 445.627441 655.212769 434.949585 653.086914 433.22876 C 647.266418 428.471008 644.988708 427.052185 638.00415 423.711609 C 624.439148 417.283569 618.012695 416.118713 591.136353 415.258118 C 572.307983 414.650818 410.475586 414.196106 396.961395 414.752869 C 385.522614 415.157745 380.510742 416.11853 370.640961 419.661682 C 358.493439 424.065125 351.387115 429.678955 343.158478 436.619202 C 339.978485 439.301147 335.777222 446.203827 335.372437 447.064392 C 331.424469 456.175049 331.677094 458.553833 335.776642 450.151672 C 336.586578 448.481384 340.47995 443.6409 346.54892 438.087067 C 350.658844 434.326172 353.889374 432.215942 360.72229 429.22937 C 372.414246 424.066956 380.763794 421.636475 389.925232 420.826416 C 403.591064 419.611847 603.081421 420.523438 614.925354 421.839539 C 617.65863 422.193909 631.523254 426.598297 633.244263 427.20575 C 636.432739 428.369812 638.098389 429.54184 645.303589 433.23407 C 648.848816 435.050781 652.473572 436.844238 655.568054 439.352844 C 660.937805 443.70636 667.261292 449.576477 669.640259 454.587189 C 669.791931 454.890991 670.24585 455.296997 670.60022 455.44873 C 670.720398 455.492981 670.819397 455.512085 670.895447 455.507263 Z M 500.219421 400.324249 C 500.219421 400.324249 502.454224 387.679749 503.221588 381.308563 C 503.702026 377.319977 504.221466 369.299774 504.221466 369.299774 C 504.221466 369.299774 506.220764 369.48407 507.223663 369.523132 C 520.076965 370.02356 523.363281 369.60556 543.811218 369.656097 C 585.5177 369.706787 606.422302 370.010773 634.158997 370.972382 C 640.03009 371.174805 652.532166 371.225342 655.062683 371.073425 C 655.366577 371.073425 655.669006 370.768127 655.669006 370.464478 C 655.669006 368.7435 620.341248 366.771393 582.026001 366.417236 C 506.964935 365.657867 383.263519 366.061737 370.204803 367.074036 C 366.15567 367.428223 357.651855 368.036011 351.223724 368.440857 C 338.013489 369.352112 325.005585 370.516327 319.994507 371.225006 C 318.121918 371.528809 315.691315 371.730255 314.577789 371.730255 C 313.464325 371.730255 312.402832 371.985199 312.20047 372.288666 C 311.947327 372.744385 314.730133 372.79425 323.182831 372.54129 C 329.408234 372.338684 337.506683 372.134766 341.100281 372.033386 C 344.74469 371.93219 349.602692 371.679901 351.981598 371.528137 C 354.360596 371.376068 358.664124 371.124115 361.599792 370.972382 C 364.535187 370.820465 369.091492 370.414612 371.723206 370.110809 C 374.912079 369.705963 387.513855 369.605408 409.682831 369.706635 C 464.498383 370.010437 489.733673 369.959747 493.023743 369.60556 L 496.214691 369.299774 C 496.214691 369.299774 496.731018 377.301208 497.214569 381.308563 C 497.98053 387.655823 500.219421 400.324249 500.219421 400.324249 Z M 233.866806 383.273682 C 233.8703 383.273529 233.873962 383.273834 233.877457 383.273682 C 234.861221 382.848053 236.109055 382.355621 238.150711 381.550537 C 239.466583 381.044312 240.782867 380.235413 241.086426 379.729004 C 241.39003 379.223114 241.591583 378.816925 241.541138 378.816925 C 240.731262 378.968658 235.163345 381.55072 232.885574 382.866821 C 232.797226 382.916351 232.71756 382.964386 232.632965 383.013092 C 232.973038 383.225494 233.402679 383.286987 233.866806 383.273682 Z M 670.352905 372.161041 C 670.675598 372.161041 671.006653 372.137268 671.259705 372.086578 C 671.715332 371.934509 671.30957 371.831299 670.347656 371.831299 C 669.386108 371.831299 668.980103 371.934509 669.486023 372.086578 C 669.713806 372.137268 670.030212 372.161041 670.352905 372.161041 Z M 658.368042 371.395203 C 659.065002 371.391693 659.940796 371.335693 660.98468 371.225006 L 664.021423 370.972382 L 661.237366 370.568176 C 657.593262 370.11264 656.783569 370.112488 656.480042 370.66925 C 656.166931 371.156372 656.834595 371.403015 658.368042 371.395203 Z"/>
        <path id="path1" fill="#000000" fill-rule="evenodd" stroke="none" visibility="hidden" d="M 671.367188 522.431702 C 673.978394 518.631897 677.785156 510.600403 678.696228 510.701416 C 682.54303 511.258545 704.7677 510.87735 704.7677 510.87735 C 704.7677 510.87735 720.800476 511.484833 728.812073 511.231171 C 737.268616 510.96344 745.785339 510.724182 754.117249 509.252869 C 764.03125 507.502258 773.975037 505.154175 783.21283 501.1521 C 791.900513 497.388336 800.753967 493.05835 807.485413 486.400421 C 811.674927 482.256744 813.643005 479.797668 816.831848 471.395782 C 819.96991 462.943054 820.605957 448.722595 821.871399 449.329742 C 822.782166 449.73468 823.436523 451.13385 823.896606 452.215057 C 825.800232 456.689148 826.160706 461.698639 826.68811 466.532166 C 828.970764 487.452942 827.295471 508.608276 827.253052 529.647583 C 827.214111 548.929382 826.768311 587.103455 826.501953 587.48822 C 820.109924 596.722839 806.415894 601.584473 795.474976 604.503052 C 751.742065 616.169128 709.975098 607.263428 659.714905 607.187561 C 570.380615 606.984985 569.864441 608.103333 524.937683 608.106323 C 509.633026 608.107361 494.329254 607.873169 479.02475 607.799438 C 433.726624 607.581238 404.372925 607.449463 343.129364 607.398682 C 220.0354 607.297668 218.568237 607.242493 198.929871 604.053955 C 177.671707 600.612122 169.572845 596.409668 166.89032 587.299194 C 165.776825 583.553589 165.777039 583.555359 166.030197 541.798706 C 166.131393 518.81958 165.291214 509.230835 165.735016 492.955536 C 165.933105 485.691864 166.18074 478.410034 167.05452 471.196411 C 167.614456 466.57373 169.70311 455.373718 170.563431 453.4505 C 170.968567 452.589966 172.250748 449.205444 172.705917 449.224182 C 174.086105 449.281067 172.351257 460.871826 173.935089 466.383057 C 174.916763 469.79895 176.486877 472.265625 178.935944 475.799988 C 181.086121 478.903015 182.6754 480.610413 186.471786 484.254608 C 191.836823 489.467651 194.717438 491.456055 199.377533 494.275024 C 206.087997 498.334351 213.264069 501.813232 220.78479 504.037415 C 233.021866 507.656433 245.948898 508.45636 258.653625 509.653625 C 273.933563 511.093567 280.313019 511.273346 304.658447 511.526367 C 311.238556 511.577118 316.837097 511.495667 316.837097 511.495667 C 316.837097 511.495667 317.514038 511.071533 319.083069 514.564148 C 322.727478 522.763672 333.255127 538.059998 340.644775 545.804199 C 354.310944 560.178711 370.301544 569.22644 388.674774 572.921448 C 401.125916 575.452209 421.530731 577.030518 435.905273 576.524231 C 441.321106 576.37262 463.351776 577.018799 490.683319 577.018799 C 536.59082 576.968384 520.215515 576.856506 534.981567 577.018799 C 544.386597 577.122192 552.225281 576.968018 564.52478 577.018799 C 593.172302 577.170593 597.626648 576.824951 613.508789 572.780701 C 616.489685 572.021667 619.235962 570.504639 621.963379 569.082214 C 626.97821 566.466797 631.822571 563.497559 636.43689 560.226868 C 638.746643 558.589722 640.943359 556.428162 643.018799 554.858887 C 649.244141 550.303772 658.913635 539.778503 666.050476 529.706177 L 669.088318 525.456421 C 669.088318 525.456421 670.652283 523.472107 671.367188 522.431702 Z M 675.370667 525.434326 C 675.720215 525.821472 683.512939 525.550232 683.512939 525.550232 C 699.000916 525.651611 710.277527 525.203308 735.888489 523.583679 C 777.695679 520.901001 782.149414 520.339417 782.200256 517.70752 C 782.200256 516.644409 780.843323 516.539551 774.263672 517.248108 C 770.720764 517.602661 762.664856 518.158325 756.388733 518.462036 C 750.11261 518.765808 741.355042 519.374817 736.901123 519.779602 C 732.446777 520.18457 725.418335 520.748413 721.21759 521.052185 C 710.993042 521.659363 677.220398 521.971008 676.371521 522.431702 C 675.444275 522.934937 674.663635 524.651306 675.370667 525.434326 Z M 314.798096 582.224487 C 316.626556 582.224487 317.441986 582.110168 317.669739 581.882385 C 318.07489 581.4776 318.069489 581.126465 317.765533 580.822876 C 317.107605 580.114319 300.254608 578.396118 287.702301 577.738159 C 281.729736 577.43457 272.624756 576.823425 267.462067 576.41864 C 262.299408 576.013672 253.997726 575.459839 248.98703 575.206665 C 237.295059 574.599304 233.139679 574.291748 222.915558 573.380859 C 218.309616 573.026489 209.660492 572.31366 203.687912 571.908875 C 197.715332 571.503906 189.410172 570.698425 185.259796 570.141724 C 181.109787 569.584961 177.16394 569.125244 176.404449 569.176025 C 175.088577 569.22644 171.800842 570.452637 171.800842 570.90802 C 171.800842 572.22406 191.944244 574.852417 208.090179 575.712952 C 213.404816 575.965942 220.688721 576.52002 224.281967 576.924927 C 232.32991 577.83606 236.485794 578.14325 250.50592 578.750732 C 256.630096 579.054138 264.020081 579.510376 266.95575 579.763367 C 269.891083 580.067139 277.281403 580.522766 283.405609 580.77594 C 289.529785 581.028931 299.600098 581.528015 305.82547 581.882385 C 310.127808 582.110168 312.969635 582.224487 314.798096 582.224487 Z M 683.808105 581.741638 C 685.539124 581.729675 687.808105 581.66394 690.743835 581.575439 C 697.171936 581.373291 705.217651 581.028931 708.558105 580.77594 C 718.731506 580.016785 733.107239 579.256714 748.594849 578.750732 C 756.693604 578.497375 769.447021 577.68042 776.937866 576.971863 C 784.428711 576.263123 792.480713 575.712952 794.85968 575.712952 C 797.238281 575.712952 801.688782 575.351807 804.725647 574.946655 C 811.406555 574.035706 821.781433 572.673218 822.236938 572.673218 C 822.945679 572.673218 823.258118 569.993469 822.600586 569.588501 C 822.245789 569.335327 805.439636 571.463562 796.837952 572.166931 C 791.530396 572.600891 786.208191 572.830322 780.894409 573.179504 C 772.218262 573.749573 764.739624 574.491272 754.869873 574.946655 C 745 575.351807 735.787048 575.807495 734.369629 575.959229 C 733.003357 576.111206 725.721436 576.566895 718.179749 576.971863 C 685.027649 578.844666 681.02478 579.206787 679.708862 580.269653 C 678.39209 581.337341 683.483582 581.743835 683.808105 581.741638 Z M 320.214905 526.492493 C 322.362061 526.485107 322.791107 526.294495 322.980988 525.820007 C 323.538086 524.352356 321.866394 523.738464 316.197754 523.384277 C 313.160889 523.181763 307.54306 522.68103 303.645844 522.27594 C 299.748627 521.870972 291.649689 522.209595 285.677094 521.80481 C 279.704498 521.399841 269.509491 520.69104 265.460327 520.285889 C 261.411163 519.880981 254.091476 519.077637 246.701843 518.520691 C 239.31218 517.913208 231.466019 517.254822 229.23941 517.001831 C 221.34346 516.090881 218.865158 516.442871 218.865158 518.366272 C 218.865158 518.77124 219.41922 519.280273 220.077148 519.533325 C 221.747375 520.140808 233.287613 521.40686 243.157745 522.064819 C 247.763657 522.36853 256.171753 523.026978 261.890808 523.583679 C 267.610596 524.140442 276.018738 524.368286 283.086395 524.684387 C 288.674438 524.934326 294.269989 525.011475 299.855438 525.313721 C 304.632751 525.572266 309.465424 526.174194 314.172546 526.326294 C 317.019562 526.440186 318.926666 526.496887 320.214905 526.492493 Z M 685.276184 450.18988 C 684.56781 450.18988 684.310608 449.937775 684.462952 449.482239 C 685.019348 448.115601 683.799255 447.761108 681.167175 448.469604 C 679.597717 448.874756 678.231079 448.972778 677.775513 448.669006 C 676.358032 447.96048 675.151184 446.29303 675.455139 445.58429 C 675.707947 444.926331 679.907959 442.59613 689.727295 437.635986 C 691.599915 436.674316 694.990112 435.361694 697.368713 434.703735 C 699.697205 434.045837 702.432007 433.032227 703.444336 432.526062 C 705.772888 431.362 722.314575 426.902588 730.86853 425.130981 C 745.192261 422.195496 757.138611 418.757935 766.805969 414.911163 C 769.488525 413.84845 782.453918 407.768494 788.07251 404.984558 C 788.780823 404.630432 789.384644 403.820435 789.48584 403.111877 C 789.587036 402.403137 789.891785 401.646545 790.144653 401.393555 C 790.853333 400.583801 800.927429 418.401733 797.586609 416.781921 C 794.398132 415.212921 793.029419 413.952728 793.383789 412.83905 C 793.738159 411.826965 792.978027 412.171234 791.358582 413.791077 C 789.333984 415.866089 787.718262 416.629974 777.393311 420.527374 C 763.22113 425.791229 751.274658 429.025299 737.204102 431.454834 C 735.229919 431.809174 731.638245 432.526184 729.208862 433.032379 C 726.72876 433.538513 724.095703 433.986328 723.285767 433.986328 C 721.362366 433.986328 712.707581 435.813629 708.354797 437.1297 C 703.040161 438.69873 694.987732 442.094391 692.153259 443.866028 C 689.622314 445.435028 686.335693 448.772278 686.335693 449.683563 C 686.335693 449.987122 685.883728 450.18988 685.276184 450.18988 Z M 341.514679 436.670288 C 341.184937 436.663696 338.072052 432.312378 337.952972 431.820374 C 337.538879 430.10907 337.468872 428.618042 338.207123 426.544312 C 338.763855 424.975281 338.722046 424.779877 337.051819 423.058868 C 334.520905 420.376526 320.746826 411.218811 312.39563 406.562134 C 308.397247 404.385742 304.253021 402.006531 303.139526 401.297791 C 302.076843 400.639862 299.849213 399.466919 298.229034 398.707642 C 296.66037 397.948486 293.978485 396.533844 292.307861 395.622925 C 290.638 394.661224 285.526947 391.926117 280.921021 389.547333 C 276.315094 387.168396 272.008087 384.844116 271.299377 384.38855 C 270.590668 383.882233 269.171814 383.227692 268.1091 382.822754 C 267.096802 382.468597 264.565186 380.991394 264.211182 380.586426 C 263.451721 379.624725 264.056 379.628235 265.777008 380.53952 C 266.485352 380.893677 267.700317 381.349548 268.509857 381.552124 C 271.293549 382.260651 285.618561 389.193787 287.49118 390.712402 C 287.896301 391.066589 306.885101 399.567749 307.037445 399.567749 C 307.189056 399.567749 310.325256 401.043335 314.020081 402.86554 C 317.714905 404.687378 320.897644 406.149658 321.049622 406.149658 C 321.201233 406.149658 323.581024 407.216309 326.313965 408.48175 C 329.047272 409.74704 332.237885 411.212799 333.402161 411.718933 C 334.566071 412.225098 336.389832 413.443176 337.452545 414.404877 C 339.375946 416.17627 343.169189 418.604187 344.789001 419.16095 C 345.295319 419.312744 346.358124 420.371887 347.16803 420.57428 C 347.977936 420.726074 349.85611 421.792725 351.323975 422.906403 C 354.0065 424.880402 354.506836 425.087067 356.834625 424.884674 C 357.796875 424.833923 357.245667 425.381073 354.56311 427.203094 C 352.589325 428.468384 349.301636 431.004639 347.226654 432.725464 C 343.746704 435.578918 342.240295 436.684662 341.514679 436.670288 Z M 658.843079 436.670288 C 658.117432 436.684662 656.612915 435.578918 653.133057 432.725464 C 651.057983 431.004639 647.770386 428.468384 645.79657 427.203094 C 643.114075 425.381073 642.562805 424.833923 643.525085 424.884674 C 645.852905 425.087067 646.35321 424.880402 649.035706 422.906403 C 650.503601 421.792725 652.381775 420.726074 653.19165 420.57428 C 654.001587 420.371887 660.983704 416.17627 662.907166 414.404877 C 663.969849 413.443176 665.79364 412.225098 666.95752 411.718933 C 668.121826 411.212799 671.312439 409.74704 674.045715 408.48175 C 676.778687 407.216309 679.158508 406.149658 679.310059 406.149658 C 679.462036 406.149658 682.644836 404.687378 686.3396 402.86554 C 690.034485 401.043335 693.170593 399.567749 693.322266 399.567749 C 693.474609 399.567749 705.662903 393.615753 711.867615 390.712402 C 718.504272 387.606964 729.066162 382.260651 731.849854 381.552124 C 732.659363 381.349548 733.874329 380.893677 734.582703 380.53952 C 736.303711 379.628235 736.907959 379.624725 736.148499 380.586426 C 735.794495 380.991394 729.76709 383.882233 729.05835 384.38855 C 728.34967 384.844116 724.044617 387.168396 719.43866 389.547333 C 714.832764 391.926117 709.721741 394.661224 708.051819 395.622925 C 706.381226 396.533844 703.697388 397.948486 702.128723 398.707642 C 700.508545 399.466919 698.282898 400.639862 697.220154 401.297791 C 696.106689 402.006531 691.962402 404.385742 687.96405 406.562134 C 679.612854 411.218811 665.836853 420.376526 663.305908 423.058868 C 661.635742 424.779877 661.595825 424.975281 662.152588 426.544312 C 663.215637 429.530396 662.912292 431.868256 661.29248 433.538696 C 660.431763 434.348389 659.172852 436.663696 658.843079 436.670288 Z M 208.363846 402.069946 C 208.378342 402.070679 208.392807 402.068665 208.408813 402.064087 C 208.494186 402.039612 208.600098 401.943146 208.739182 401.804077 C 209.04277 401.500488 209.046249 400.641876 208.692261 399.427002 C 208.034317 397.048218 207.832642 397.048218 207.984619 399.427002 C 208.091553 401.419922 208.1465 402.058472 208.363846 402.069946 Z M 783.39856 395.804749 C 782.371887 395.813538 780.507446 394.444885 776.431519 390.712402 C 774.25531 388.738403 771.423523 386.459167 770.107666 385.649414 C 768.791443 384.78894 766.71875 383.328552 765.504089 382.316437 C 762.315186 379.735107 761.35614 379.328064 757.661316 378.973694 C 753.612183 378.619537 752.006409 377.911133 753.069458 374.874451 C 753.474243 373.760956 759.783752 364.953674 760.239746 364.042755 C 760.695251 363.13147 762.260803 360.705505 763.678284 358.731506 C 765.652039 355.947601 766.357849 355.234283 766.763 355.740631 C 768.382446 357.815826 769.703491 357.964691 789.08905 358.319031 C 799.363586 358.470856 810.297791 358.828491 813.334717 359.132233 C 816.421997 359.435822 819.157104 359.642395 819.410278 359.591644 C 820.574524 359.338806 821.175476 359.640076 821.175476 360.449799 C 821.124756 362.373199 818.996887 365.968719 816.466309 368.398102 C 814.138184 370.675842 813.186523 371.181976 808.529724 372.649841 C 805.341309 373.66214 801.383362 374.5159 798.650085 374.76889 C 790.450867 375.528198 790.50238 375.484039 789.996033 383.835358 C 789.642029 389.352356 789.641663 389.342712 787.110718 392.278229 C 785.744446 393.948669 784.27832 395.467285 783.873535 395.669861 C 783.759521 395.73938 783.639771 395.784698 783.496277 395.798859 C 783.464905 395.801971 783.431641 395.804443 783.39856 395.804749 Z M 739.127625 379.325562 C 738.925293 379.325562 738.677185 378.866028 738.525574 378.359894 C 738.323181 377.448975 737.923218 377.401184 733.570068 377.654205 C 727.445862 378.008545 709.315369 376.192535 687.045288 373.003662 C 677.833435 371.637207 652.628601 368.84613 642.252502 367.985626 C 635.672424 367.428894 619.476868 366.667938 601.711426 366.161804 C 583.085388 365.554443 397.181854 365.356628 385.89502 365.913513 C 343.68222 367.93811 304.604614 371.327209 278.082611 375.275177 C 272.667145 376.0849 265.93576 376.996582 263.151672 377.300385 C 260.367981 377.603943 257.585938 378.114777 257.029175 378.418518 C 256.118042 378.823486 255.257248 378.564667 252.271133 376.995422 C 250.246552 375.932739 247.811966 374.360291 246.90123 373.449371 C 244.269119 371.02002 246.473923 368.746124 249.915573 361.710663 C 252.162933 357.125092 275.262726 318.283569 295.040314 290.230042 C 308.225342 271.527679 323.064667 258.202209 323.064667 258.202209 L 331.071594 252.196991 C 331.071594 252.196991 659.679504 250.87735 661.046143 252.142792 C 661.677795 252.750153 674.318665 265.467804 681.375916 273.21524 C 702.40448 296.300659 718.697998 323.291412 737.424561 348.280457 C 741.393555 353.576691 748.600098 363.186829 749.359192 364.148315 C 750.67511 365.818756 751.03009 367.027863 750.878113 369.457611 C 750.777283 371.026642 747.683655 374.00647 743.330505 376.841003 C 741.204773 378.207611 739.279297 379.325562 739.127625 379.325562 Z M 222.198135 374.215668 C 226.739655 374.231476 225.758865 373.83374 220.975952 373.302185 C 219.25531 373.150391 213.093033 372.3013 210.967255 372.3013 C 208.017273 372.325073 200.148102 371.339478 199.957703 372.3013 C 199.681168 373.69812 216.274628 374.034485 220.030228 374.168732 C 220.820999 374.200378 221.549393 374.21347 222.198135 374.215668 Z M 790.914856 369.975647 C 792.466919 369.979706 794.689209 369.897552 798.143738 369.764526 C 806.24176 369.41037 808.215515 369.148712 810.695679 368.186981 C 812.36554 367.579834 813.541443 366.831116 813.440247 366.527344 C 813.136292 365.565826 788.026123 365.866913 784.83728 366.879211 C 783.217834 367.435791 783.473877 367.781464 786.156799 369.047119 C 787.611755 369.711487 788.327576 369.968842 790.914856 369.975647 Z M 802.147217 202.181427 C 813.838928 202.181427 825.981384 201.928284 829.01825 201.67514 C 846.63208 200.05545 859.196228 195.095398 868.054077 186.237885 C 876.455688 177.93692 880.801697 166.646057 881.712463 151.006134 C 882.522705 136.732788 878.778931 121.291138 872.35083 112.889038 C 862.582275 99.9823 848.110962 93.708252 825.13208 92.341858 C 820.323364 92.08844 808.371704 91.835571 798.603149 91.835571 C 782.811157 91.835571 780.734741 91.940247 780.481934 92.648743 C 780.076782 93.661011 780.076782 200.355743 780.481934 201.368225 C 780.734741 202.076538 783.166809 202.181427 802.147217 202.181427 Z M 202.169006 379.480011 C 202.169006 380.745483 205.811615 393.088684 206.925095 395.669861 C 207.295944 396.500214 207.522064 396.85498 207.624924 396.842743 L 207.624924 396.842743 C 207.631775 396.841949 207.638702 396.838989 207.64447 396.8349 C 207.847595 396.692322 207.370209 394.608276 206.465714 392.137482 C 205.75737 390.264893 204.841797 387.319672 204.487427 385.649414 C 204.082657 383.979218 203.259979 381.431671 202.960312 379.307404 C 202.856598 378.572174 203.013046 377.682892 202.784439 377.204071 C 202.353928 376.302338 199.98056 376.632202 199.98056 376.632202 L 199.98056 376.632202 C 192.587036 376.479614 192.396072 375.799164 188.948135 374.30304 C 185.21228 372.682007 178.939438 367.296967 178.939438 367.296967 L 178.939438 367.296967 C 178.230728 365.930328 174.320602 362.070068 174.320602 361.968689 C 174.320602 361.563751 176.144379 361.710815 177.157059 362.216949 C 177.865402 362.57132 179.084488 362.470459 181.361877 361.863129 C 184.195999 361.154419 186.779541 361.11087 206.772629 361.616821 C 226.664154 362.122986 229.239532 362.065552 230.60582 361.356842 C 232.174866 360.597504 232.992706 360.897247 233.043488 362.263885 C 233.043488 362.466248 233.955185 363.639526 235.06868 364.854004 C 236.181808 366.068878 237.44136 368.043365 237.846497 369.25824 C 238.302048 370.472717 239.463013 372.692841 240.424896 374.110107 C 241.436829 375.577972 242.156006 377.047699 242.004395 377.45285 C 241.903214 377.807037 240.431992 378.620697 238.81218 379.278656 C 235.11734 380.746674 227.67337 385.100281 223.928146 387.934631 C 220.638092 390.414764 215.928482 394.921631 213.448349 397.908112 C 212.43605 399.12262 211.223419 400.074066 210.717453 400.074066 C 209.654388 400.074066 209.502441 400.583801 210.211151 401.393555 C 210.463959 401.646545 210.768738 402.403137 210.869934 403.111877 C 210.97113 403.820435 211.574921 404.630432 212.283264 404.984558 C 217.901855 407.768494 230.867264 413.84845 233.549789 414.911163 C 243.217163 418.757935 255.163528 422.195496 269.487244 425.130981 C 278.041199 426.902588 294.582916 431.362 296.911469 432.526062 C 297.923767 433.032227 300.658539 434.045837 302.987061 434.703735 C 305.365662 435.361694 308.755859 436.674316 310.628479 437.635986 C 320.447845 442.59613 324.647858 444.926331 324.900635 445.58429 C 325.20459 446.29303 323.997711 447.96048 322.580261 448.669006 C 322.124725 448.972778 320.758026 448.874756 319.188629 448.469604 C 316.556488 447.761108 315.336426 448.115601 315.892792 449.482239 C 316.045135 449.937775 315.787964 450.18988 315.07959 450.18988 L 315.07959 450.18988 C 314.472076 450.18988 314.020081 449.987122 314.020081 449.683563 C 314.020081 448.772278 310.733459 445.435028 308.202545 443.866028 C 305.368042 442.094391 297.315613 438.69873 292.000946 437.1297 C 287.648163 435.813629 278.993408 433.986328 277.070007 433.986328 C 276.260101 433.986328 273.627014 433.538513 271.146912 433.032379 C 268.71756 432.526184 265.125854 431.809174 263.151672 431.454834 C 249.081116 429.025299 237.134583 425.791229 222.962463 420.527374 C 212.637527 416.629974 211.02179 415.866089 208.997208 413.791077 C 207.377762 412.171234 206.617645 411.826965 206.972015 412.83905 C 207.32637 413.952728 204.956772 415.212921 201.76828 416.781921 C 198.427429 418.401733 194.787994 419.655487 191.382294 422.093201 C 187.657654 424.759155 182.32373 431.754883 181.868179 432.008057 C 181.209869 432.362427 0.212325 1.591003 0.212325 1.084839 C 0.212325 0.882507 123.461967 0.731018 123.461967 0.731018 C 123.461967 0.731018 230.342834 267.474487 230.545227 267.474487 C 231.000778 267.474487 336.191162 1.232178 336.545502 0.979248 C 336.950287 0.624817 459.290802 0.829102 459.290802 1.436707 C 459.290802 1.791016 359.941315 235.973602 358.941925 238.285065 L 482.521942 237.28418 L 483.583405 0.731018 L 597.459656 0.731018 L 597.459656 237.565674 C 597.459656 237.565674 632.321594 237.02121 649.348083 240.186554 C 655.490723 241.328552 665.157349 245.259521 667.156921 246.032013 C 666.597595 206.541901 666.624268 0.854065 667.309387 0.625427 C 667.562256 0.52417 712.757263 0.579163 767.623108 0.731018 C 866.827087 1.034729 867.542297 1.030823 876.096252 2.144348 C 894.114807 4.472534 907.781372 7.871765 921.700317 13.388489 C 949.133484 24.321472 971.449463 44.810791 984.710144 71.180908 C 992.049316 85.808472 996.662903 102.109863 999.19342 122.203735 C 1000.458923 132.681061 1000.458923 161.889465 999.19342 172.012665 C 997.97876 181.528046 995.595459 193.515839 993.469666 200.601929 C 991.394653 207.586578 991.349365 207.738373 987.80658 216.039185 C 971.559082 254.607178 937.741211 280.577423 892.239197 289.434967 C 874.271057 292.927551 867.64679 293.283661 821.081665 293.637848 L 780.175049 293.886108 C 780.175049 293.886108 780.033386 340.557892 779.881836 341.114655 C 779.679077 341.975189 778.966919 341.331726 776.689575 341.787109 C 770.36261 343.052368 766.242249 348.008118 760.016907 357.118774 C 757.941467 360.104889 754.969666 363.794128 754.56488 364.148315 C 753.50177 365.059418 720.516479 312.937317 704.395874 292.231781 C 692.48407 276.932037 679.946655 259.211334 663.884583 249.634766 C 657.867249 246.047119 653.481445 246.266113 647.346313 245.190918 C 633.711975 242.801453 608.823059 243.404755 608.823059 243.404755 L 394.093536 244.405609 L 337.076813 246.191772 C 326.699219 250.49704 324.746643 249.832764 318.105652 254.779877 C 310.8284 260.201019 306.232574 264.763947 298.042908 275.21698 C 285.342133 291.427917 258.502228 335.034637 257.793518 336.299927 C 254.959351 341.260193 244.97966 357.408478 242.145142 361.710663 C 240.576477 364.08963 239.315002 364.195709 238.859085 361.968689 C 238.656708 361.108398 237.134201 357.562195 235.514389 354.221741 C 230.807266 344.605103 227.419052 341.922821 218.865158 341.163513 C 216.789795 340.961121 213.599182 340.50531 211.776962 340.15094 C 208.031738 339.391815 195.125443 339.438538 194.619492 340.197845 C 194.467514 340.501434 192.755997 340.8573 190.782166 341.009094 C 186.429398 341.363434 175.488556 344.654816 173.919861 346.072083 C 172.249268 347.641113 171.641144 350.223297 171.894669 355.588165 C 172.09668 359.991699 172.250122 360.597595 174.072342 363.73584 C 175.211227 365.735046 176.601395 366.81958 177.938568 368.297821 C 178.309143 368.70752 184.776993 374.531494 188.103851 376.292877 C 190.003326 377.298553 191.19249 377.460571 193.802612 377.846313 C 195.81015 378.143005 201.511871 377.934784 201.959442 378.306519 C 202.515518 378.768402 202.169006 379.480011 202.169006 379.480011 Z"/>
        <path id="Path-copy" fill="#000000" fill-rule="evenodd" stroke="none" d="M 250.347137 610.511475 C 233.240555 610.479919 216.456711 609.061401 199.373596 604.504456 C 188.432724 601.585999 173.376984 596.7229 166.984955 587.488464 C 166.718597 587.103699 166.273956 548.930542 166.235077 529.648926 C 166.192612 508.609619 164.516083 487.454285 166.798813 466.53363 C 167.326157 461.700134 169.048798 456.690735 170.952438 452.216705 C 171.412445 451.135437 172.978714 449.331512 172.978714 449.331512 C 172.978714 449.331512 174.879776 462.944611 178.017838 471.397278 C 181.20665 479.799072 183.175385 482.259277 187.364807 486.402954 C 194.096283 493.060669 202.947357 497.389435 211.63501 501.15332 C 220.872757 505.155365 230.817688 507.502563 240.731598 509.253143 C 249.063461 510.724487 257.579681 510.963806 266.036224 511.231567 C 274.047791 511.485168 290.080383 510.877899 290.080383 510.877899 C 290.080383 510.877899 312.306763 511.25946 316.153503 510.702393 C 317.064606 510.601318 320.870941 518.632019 323.482178 522.431946 C 324.197052 523.472351 325.761078 525.45813 325.761078 525.45813 L 328.797821 529.707458 C 335.934662 539.779541 345.606079 550.305359 351.831512 554.860474 C 353.906921 556.429565 356.10318 558.589478 358.412964 560.226685 C 363.027283 563.497131 367.871948 566.468933 372.88681 569.084351 C 375.614197 570.506714 378.359375 572.024048 381.340302 572.783264 C 397.222351 576.827209 401.677368 577.171082 430.324768 577.019287 C 442.624176 576.968445 450.463043 577.122681 459.868103 577.019287 C 473.774567 576.866272 460.718628 576.955322 497.423492 577.008667 C 534.129944 576.955322 521.074829 576.866272 534.981567 577.019287 C 544.386536 577.122681 552.225403 576.968445 564.524841 577.019287 C 593.17218 577.171082 597.627197 576.827209 613.509277 572.783264 C 616.490234 572.024048 619.235413 570.506714 621.962769 569.084351 C 626.977661 566.468933 631.822327 563.497131 636.436646 560.226685 C 638.746338 558.589478 640.942688 556.429565 643.018066 554.860474 C 649.243469 550.305359 658.91217 539.779541 666.049072 529.707458 L 669.088501 525.45813 C 669.088501 525.45813 670.652527 523.472351 671.367432 522.431946 C 673.978638 518.632019 677.784973 510.601318 678.696106 510.702393 C 682.542786 511.25946 704.766479 510.877899 704.766479 510.877899 C 704.766479 510.877899 720.799072 511.485168 728.81073 511.231567 C 737.267273 510.963806 745.786011 510.724487 754.117981 509.253143 C 764.03186 507.502563 773.974121 505.155365 783.211914 501.15332 C 791.899475 497.389435 800.753296 493.060669 807.484802 486.402954 C 811.674194 482.259277 813.642822 479.799072 816.831726 471.397278 C 819.969788 462.944611 821.87085 449.331512 821.87085 449.331512 C 821.87085 449.331512 823.437134 451.135437 823.897156 452.216705 C 825.80072 456.690735 826.159302 461.700134 826.686646 466.53363 C 828.96936 487.454285 827.29541 508.609619 827.253052 529.648926 C 827.21405 548.930542 826.766785 587.103699 826.500488 587.488464 C 820.108337 596.7229 806.414246 601.585999 795.473267 604.504456 C 751.74054 616.170532 709.974854 607.263489 659.714966 607.187561 C 570.381042 606.984924 569.864502 608.104614 524.937927 608.107605 C 515.766418 608.108093 506.594635 608.025879 497.423492 607.942749 C 488.252869 608.025879 479.082642 608.108093 469.911774 608.107605 C 424.985138 608.104614 424.468597 606.984924 335.134613 607.187561 C 304.507477 607.233765 277.033356 610.560669 250.347137 610.511475 Z M 311.039917 581.742004 C 311.364502 581.744141 316.457062 581.339111 315.14035 580.271484 C 313.824402 579.208618 309.822235 578.846802 276.670227 576.974121 C 269.128601 576.569092 261.844788 576.112732 260.478546 575.960938 C 259.061127 575.809082 249.848831 575.353027 239.97905 574.947815 C 230.109283 574.492432 222.629868 573.74939 213.953796 573.179504 C 208.64006 572.830139 203.319611 572.603088 198.0121 572.169006 C 189.410385 571.465637 172.602219 569.336487 172.247452 569.5896 C 171.58989 569.994446 171.903 572.674255 172.611755 572.674255 C 173.067276 572.674255 183.441467 574.036865 190.12236 574.947815 C 193.159241 575.353027 197.611893 575.713684 199.990524 575.713684 C 202.369476 575.713684 210.419724 576.265442 217.910629 576.974121 C 225.401398 577.6828 238.155899 578.499817 246.254684 578.753113 C 261.742249 579.258972 276.117737 580.0177 286.291077 580.776733 C 289.631561 581.029846 297.676666 581.374878 304.104828 581.577148 C 307.040466 581.66571 309.308899 581.730042 311.039917 581.742004 Z M 683.807007 581.742004 C 685.538025 581.730042 687.806458 581.66571 690.742126 581.577148 C 697.170288 581.374878 705.217957 581.029846 708.558533 580.776733 C 718.731873 580.0177 733.107239 579.258972 748.59491 578.753113 C 756.693726 578.499817 769.445435 577.6828 776.936279 576.974121 C 784.427246 576.265442 792.480103 575.713684 794.85907 575.713684 C 797.237671 575.713684 801.687622 575.353027 804.724548 574.947815 C 811.405457 574.036865 821.779541 572.674255 822.235168 572.674255 C 822.943848 572.674255 823.257019 569.994629 822.599426 569.5896 C 822.244751 569.336487 805.439209 571.465637 796.837463 572.169006 C 791.529968 572.603088 786.206909 572.830322 780.893066 573.179504 C 772.217041 573.749512 764.740356 574.492432 754.870544 574.947815 C 745.000732 575.353027 735.785767 575.809082 734.368347 575.960938 C 733.002136 576.112854 725.720947 576.569275 718.179382 576.974121 C 685.027405 578.846802 681.025208 579.208618 679.709229 580.271484 C 678.392517 581.339111 683.482422 581.744141 683.807007 581.742004 Z M 554.316345 547.111694 C 542.791443 547.129822 500.607056 546.983215 500.178406 546.965454 C 499.68811 546.98584 443.191071 547.136475 440.988037 546.957458 C 437.478668 546.672119 433.947845 546.454834 430.494965 545.766113 C 424.285217 544.527283 418.242737 543.238953 412.205231 541.498169 C 407.461487 540.130188 399.206726 537.443481 393.125702 534.44342 C 385.320587 530.592468 378.077148 525.633118 371.105164 520.429626 C 366.523132 517.009766 362.009644 513.537048 358.093872 509.420654 C 353.552551 504.646637 349.420319 499.186218 346.085083 493.407166 C 343.298523 488.578796 340.061188 483.827698 339.078156 478.393524 C 338.327362 474.243073 338.512085 469.439453 340.080688 465.382233 C 341.452362 461.834229 344.184418 458.8367 347.08493 456.375641 C 351.226318 452.861572 356.647278 449.931641 362.098572 448.366211 C 378.502991 443.655182 396.064667 444.128845 413.14389 443.364319 C 442.126678 442.06665 471.16394 444.082153 500.17572 444.082336 C 529.216309 444.082336 558.283813 442.065338 587.295166 443.364319 C 604.374512 444.129028 621.906189 443.648376 638.337952 448.366211 C 643.789307 449.931335 649.111023 452.625732 653.351563 456.375641 C 655.756775 458.502472 660.205688 464.949768 660.358459 465.382233 C 661.719971 469.234528 661.140747 474.262177 660.358459 478.393524 C 659.355713 483.68927 657.19458 488.501526 654.35144 493.407166 C 651.049744 499.103607 646.768372 504.60791 642.246887 509.394073 C 638.346924 513.522278 633.577698 516.73291 629.331238 520.504089 C 629.323425 520.511047 629.31604 520.519043 629.307312 520.52533 C 621.622559 526.069519 613.076843 530.395325 604.46814 534.355652 C 598.276367 537.203979 591.832886 539.529053 585.292908 541.447632 C 578.973267 543.301453 572.466553 544.467468 565.995361 545.691711 C 563.068054 546.2453 558.093262 547.04187 557.166992 547.093079 C 556.983154 547.10321 555.962769 547.109009 554.316345 547.111694 Z M 498.319641 528.635803 L 498.886078 528.635803 L 501.468079 528.635803 L 502.03183 528.635803 C 502.03299 528.49469 502.037476 528.395996 502.045135 528.388489 C 502.08667 528.388489 601.280396 528.446655 603.308716 528.43634 C 605.424194 528.425415 605.357605 525.424194 603.308716 525.434143 C 601.280396 525.443787 502.55304 525.596375 502.55304 525.596375 L 502.555695 525.091125 L 502.127563 525.091125 L 498.226563 525.091125 L 498.223907 525.091125 L 497.798431 525.091125 L 497.795776 525.091125 L 497.801086 525.596375 C 497.801086 525.596375 398.151184 525.434143 396.127899 525.434143 C 394.261078 525.434021 394.183044 528.444336 396.127899 528.43634 C 398.11618 528.42804 498.264801 528.388489 498.306335 528.388489 C 498.313934 528.395996 498.31842 528.49469 498.319641 528.635803 Z M 316.749146 525.641602 C 318.170135 525.632446 319.346375 525.579224 319.477448 525.434143 C 320.184479 524.651184 319.404907 522.935059 318.4776 522.431946 C 317.628754 521.971252 283.855225 521.661621 273.630798 521.054504 C 269.429962 520.750732 262.401306 520.185791 257.947021 519.780762 C 253.493088 519.376099 244.736832 518.765625 238.460663 518.461853 C 232.184586 518.158203 224.128662 517.60376 220.585754 517.249268 C 214.006088 516.540771 212.648148 516.646301 212.648148 517.70929 C 212.698898 520.341187 217.153168 520.903259 258.960175 523.58606 C 284.571106 525.205444 295.847168 525.652405 311.335083 525.551147 C 311.335083 525.551147 314.380798 525.656555 316.749146 525.641602 Z M 678.100403 525.641602 C 680.468811 525.656555 683.511841 525.551147 683.511841 525.551147 C 698.999817 525.652527 710.27594 525.205627 735.88678 523.58606 C 777.693726 520.903259 782.14801 520.341187 782.198792 517.70929 C 782.198792 516.646301 780.843445 516.540771 774.263855 517.249268 C 770.720886 517.60376 762.665039 518.158203 756.388916 518.461853 C 750.112732 518.765625 741.35376 519.376099 736.899902 519.780762 C 732.445618 520.185791 725.416931 520.750732 721.216125 521.054504 C 710.991638 521.661621 677.220825 521.971252 676.371887 522.431946 C 675.444702 522.935059 674.662476 524.651184 675.369385 525.434143 C 675.50061 525.579224 676.679382 525.632446 678.100403 525.641602 Z M 500.178406 509.16803 C 500.178406 509.16803 500.195465 507.777161 500.207642 506.665771 C 500.219818 507.777161 500.234222 509.16803 500.234222 509.16803 L 500.236877 509.16803 L 502.707245 509.16272 L 502.71524 508.154907 C 502.71524 508.154907 623.359497 508.436615 625.32666 508.420837 C 627.412842 508.40387 627.329651 505.417969 625.32666 505.415955 C 623.322021 505.413818 515.774719 504.416138 500.218292 504.416138 C 484.661835 504.416138 376.144226 505.416809 375.109863 505.415955 C 373.08316 505.413971 373.066925 508.441101 375.109863 508.420837 C 376.146942 508.410339 497.697418 508.154907 497.697418 508.154907 L 497.705353 509.16272 Z M 595.815125 488.413269 C 620.707581 488.410095 637.231995 488.404449 637.338074 488.402649 C 639.094543 488.371704 639.06311 485.382141 637.314148 485.411072 C 636.318542 485.427368 515.420532 484.678284 514.22937 484.397919 C 513.289978 484.176697 511.728363 484.2146 511.174042 483.424683 C 509.958954 481.692719 510.819458 477.3797 510.541168 476.683685 C 510.46347 476.479767 510.030792 475.527771 509.450897 474.287781 C 508.871033 473.047791 508.145081 471.520081 507.483154 470.160767 C 505.934204 468.338898 504.522583 467.672119 504.518158 467.663788 C 508.605042 467.653503 645.398987 467.399719 647.347107 467.384583 C 649.432312 467.368134 649.213074 464.371094 647.347107 464.382385 C 645.314392 464.394531 500.866241 463.433411 500.178406 463.382538 C 500.093475 463.388855 355.216156 464.373077 353.09198 464.382385 C 350.945984 464.391693 351.016907 467.354187 353.09198 467.384583 C 355.12381 467.414185 487.659424 467.643188 495.833313 467.663788 C 495.828827 467.672119 494.419922 468.338898 492.871002 470.160767 C 491.546997 472.879395 489.965729 476.276001 489.810303 476.683685 C 489.481384 477.506195 490.741211 481.753723 489.20932 483.398071 C 488.458069 484.204468 486.292389 484.379974 486.207123 484.397919 C 485.269196 484.593536 363.527832 485.398621 363.098419 485.400421 C 362.15033 485.404419 361.343597 488.206177 363.090424 488.243073 C 371.138367 488.412598 521.138306 488.422729 595.815125 488.413269 Z M 309.572083 450.19043 C 308.964539 450.19043 308.513733 449.988831 308.513733 449.685181 C 308.513733 448.773926 305.22641 445.435852 302.695465 443.866943 C 299.860962 442.095276 291.8078 438.700012 286.493164 437.131256 C 282.140442 435.815125 273.485352 433.988129 271.561951 433.988129 C 270.751984 433.988129 268.120087 433.539734 265.639984 433.033478 C 263.210571 432.527405 259.618164 431.810913 257.64389 431.456604 C 243.57341 429.0271 231.628052 425.79126 217.455917 420.527435 C 207.131058 416.629944 205.514511 415.86676 203.489975 413.791748 C 201.870483 412.171814 201.111923 411.827637 201.466354 412.839783 C 201.820694 413.953491 200.450699 415.214233 197.262207 416.783325 C 193.921402 418.403076 203.996536 400.585022 204.705215 401.394714 C 204.958084 401.647705 205.260818 402.40387 205.36203 403.112549 C 205.463242 403.821045 206.06839 404.630432 206.776703 404.984619 C 212.395279 407.768433 225.359558 413.848602 228.042053 414.911255 C 237.709412 418.758087 249.656952 422.197723 263.980682 425.133118 C 272.534546 426.904785 289.07605 431.364197 291.404663 432.528259 C 292.416962 433.034302 295.152344 434.048126 297.480835 434.706116 C 299.859375 435.364075 303.247986 436.674866 305.120636 437.636505 C 314.939972 442.59668 319.142242 444.926758 319.39502 445.584747 C 319.699005 446.293579 318.491089 447.960876 317.073578 448.669373 C 316.618042 448.973206 315.252533 448.875122 313.683136 448.46994 C 311.050995 447.761444 309.829437 448.116272 310.385773 449.483093 C 310.538177 449.938629 310.280487 450.19043 309.572083 450.19043 Z M 685.274841 450.19043 C 684.566467 450.19043 684.311401 449.938629 684.463806 449.483093 C 685.020142 448.116455 683.798584 447.761444 681.166443 448.46994 C 679.597046 448.875122 678.231567 448.973206 677.776001 448.669373 C 676.358521 447.960876 675.150574 446.293579 675.45459 445.584747 C 675.707336 444.926758 679.90686 442.59668 689.726196 437.636505 C 691.598938 436.674866 694.990173 435.364075 697.368713 434.706116 C 699.697266 434.048126 702.432617 433.034302 703.444946 432.528259 C 705.77356 431.364197 722.314941 426.904785 730.868896 425.133118 C 745.192688 422.197723 757.137451 418.758087 766.804871 414.911255 C 769.487366 413.848602 782.454285 407.768433 788.072876 404.984619 C 788.781128 404.630432 789.383667 403.821045 789.484924 403.112549 C 789.586121 402.40387 789.891479 401.647705 790.144348 401.394714 C 790.853027 400.585022 800.928223 418.403076 797.587402 416.783325 C 794.398804 415.214233 793.02887 413.953491 793.383179 412.839783 C 793.737671 411.827637 792.97644 412.171814 791.356934 413.791748 C 789.332397 415.86676 787.718567 416.629944 777.393677 420.527435 C 763.221375 425.79126 751.273621 429.0271 737.203064 431.456604 C 735.22876 431.810913 731.638916 432.527405 729.209595 433.033478 C 726.729492 433.539734 724.09491 433.988129 723.284973 433.988129 C 721.361572 433.988129 712.706482 435.815125 708.35376 437.131256 C 703.039063 438.700165 694.985901 442.095276 692.151489 443.866943 C 689.620544 445.435852 686.335876 448.773926 686.335876 449.685181 C 686.335876 449.988831 685.882385 450.19043 685.274841 450.19043 Z M 341.091187 437.032867 C 337.726105 435.898407 339.882477 429.769043 337.780548 426.906769 C 330.533142 417.037598 315.234802 411.220825 306.883667 406.564148 C 302.885254 404.387787 298.743195 402.00769 297.629761 401.299011 C 296.567017 400.641022 294.341125 399.468323 292.720947 398.708984 C 291.152283 397.949768 288.466858 396.535278 286.796326 395.624329 C 285.126373 394.66272 280.015686 391.926941 275.40976 389.548157 C 270.803833 387.169189 266.500244 384.84491 265.791565 384.389374 C 265.082825 383.883118 259.053589 380.991791 258.699585 380.586761 C 257.940125 379.624969 258.544769 379.63028 260.265839 380.541565 C 260.974243 380.895721 262.18985 381.349609 262.999451 381.552032 C 265.783081 382.260712 276.34375 387.607452 282.980408 390.71286 C 289.185028 393.61618 301.375763 399.567871 301.528107 399.567871 C 301.679749 399.567871 304.813568 401.045715 308.508392 402.86792 C 312.203217 404.689758 315.387238 406.151978 315.539246 406.151978 C 315.690796 406.151978 318.071442 407.218628 320.804382 408.48407 C 323.537689 409.749329 326.726776 411.214203 327.891052 411.720276 C 329.055023 412.226349 335.716583 414.752075 339.159698 416.715332 C 341.672607 418.148315 345.932037 420.734497 346.741913 420.936951 C 347.551849 421.088684 349.430267 422.155334 350.898193 423.269043 C 353.580719 425.243103 354.744568 425.226837 357.072449 425.024414 C 358.034698 424.973724 356.81958 425.744202 354.137054 427.566223 C 352.163208 428.831482 348.875458 431.36853 346.800415 433.089325 C 343.320587 435.94278 343.282928 437.77179 341.091187 437.032867 Z M 658.842773 436.671204 C 656.651001 437.410156 656.613403 435.581116 653.133545 432.727661 C 651.058472 431.006866 647.770752 428.469849 645.796875 427.20459 C 643.11438 425.382568 642.561035 424.835114 643.523315 424.885803 C 645.851135 425.088226 646.35321 424.88147 649.035767 422.907379 C 650.503723 421.793701 654.201416 420.057922 656.711121 418.509949 C 658.819336 417.209625 669.071594 411.625854 675.406677 408.48407 C 679.442749 406.482361 684.005188 404.689758 687.700012 402.86792 C 691.394836 401.045715 694.531311 399.567871 694.682983 399.567871 C 694.835327 399.567871 707.023315 393.61618 713.228027 390.71286 C 719.864624 387.607452 730.427979 382.260712 733.211548 381.552032 C 734.021118 381.349609 735.23407 380.895721 735.942505 380.541565 C 737.663635 379.63028 738.268311 379.624969 737.50885 380.586761 C 737.154846 380.991791 731.128174 383.883118 730.419495 384.389374 C 729.710815 384.84491 725.404602 387.169189 720.798645 389.548157 C 716.192749 391.926941 711.08197 394.66272 709.412109 395.624329 C 707.741577 396.535278 705.058777 397.949768 703.490051 398.708984 C 701.869873 399.468323 699.644104 400.641022 698.581299 401.299011 C 697.467773 402.00769 693.323181 404.387787 689.324768 406.564148 C 680.973572 411.220825 668.421814 417.652222 662.153442 426.545105 C 660.107422 429.447601 662.207825 435.536743 658.842773 436.671204 Z M 211.451523 395.805176 C 211.418381 395.804993 211.384567 395.803009 211.353134 395.799866 C 211.209702 395.785706 211.0896 395.741699 210.975525 395.672211 C 210.57074 395.469604 209.105621 393.949585 207.739319 392.279114 C 205.208374 389.343567 205.20813 389.353363 204.854126 383.836273 C 204.347824 375.484985 204.397705 375.530518 196.198547 374.771179 C 193.465271 374.518219 189.50824 373.664124 186.319748 372.651825 C 181.663071 371.18396 180.710236 370.677551 178.382141 368.399811 C 175.851547 365.970337 173.723557 362.374969 173.67276 360.451569 C 173.67276 359.641846 174.274261 359.339874 175.438446 359.592651 C 175.69165 359.643341 178.427368 359.436096 181.514633 359.132629 C 184.551575 358.828796 195.486435 358.473297 205.76091 358.321564 C 225.146393 357.967224 226.46785 357.817322 228.087265 355.742188 C 228.492447 355.235779 229.198105 355.949768 231.17189 358.733734 C 232.589371 360.707672 234.154663 363.132843 234.610199 364.044098 C 235.066162 364.955017 241.374481 373.761505 241.779312 374.874878 C 242.842346 377.911652 241.236053 378.621155 237.18692 378.975311 C 233.492188 379.329803 232.533859 379.736664 229.345047 382.317871 C 228.13031 383.330017 226.058243 384.789246 224.742035 385.649811 C 223.426163 386.459534 220.594727 388.738953 218.418533 390.71286 C 214.342667 394.445343 212.478149 395.813965 211.451523 395.805176 Z M 783.398071 395.805176 C 782.37146 395.813965 780.506958 394.445343 776.430969 390.71286 C 774.254883 388.738953 771.423401 386.459534 770.107544 385.649811 C 768.79126 384.789246 766.719299 383.330017 765.504517 382.317871 C 762.315613 379.736664 761.354675 379.329803 757.659973 378.975311 C 753.61084 378.621155 752.007202 377.911652 753.07019 374.874878 C 753.475037 373.761505 759.783447 364.955017 760.239319 364.044098 C 760.694946 363.132843 762.260193 360.707672 763.677673 358.733734 C 765.651489 355.949768 766.357117 355.235779 766.762329 355.742188 C 768.381775 357.817322 769.703003 357.967224 789.088623 358.321564 C 799.36322 358.473297 810.297913 358.828796 813.334961 359.132629 C 816.422241 359.436096 819.155273 359.643341 819.408508 359.592651 C 820.572693 359.339874 821.174072 359.641846 821.174072 360.451569 C 821.123291 362.374969 818.9953 365.970337 816.464783 368.399811 C 814.136597 370.677551 813.186523 371.18396 808.529785 372.651825 C 805.341309 373.664124 801.381592 374.518219 798.648376 374.771179 C 790.449158 375.530518 790.50177 375.484985 789.995483 383.836273 C 789.641479 389.353363 789.641174 389.343567 787.110168 392.279114 C 785.743958 393.949585 784.278809 395.469604 783.873962 395.672211 C 783.759949 395.741699 783.639893 395.785706 783.49646 395.799866 C 783.464966 395.803009 783.431213 395.804993 783.398071 395.805176 Z M 739.128296 379.326324 C 738.925842 379.326324 738.676331 378.867126 738.524658 378.361053 C 738.322327 377.450104 737.923767 377.400757 733.570618 377.653717 C 727.446411 378.008026 709.315857 376.194305 687.045837 373.005493 C 677.834045 371.639008 652.628357 368.845398 642.252197 367.984985 C 635.67218 367.428223 619.476074 366.669525 601.710571 366.163452 C 583.084595 365.556152 397.18219 365.356567 385.895447 365.913483 C 343.68277 367.93811 304.604156 371.328369 278.082245 375.276398 C 272.666809 376.086121 265.935089 376.996216 263.151031 377.300049 C 260.367279 377.603668 257.586395 378.115723 257.029633 378.419556 C 256.11853 378.824402 255.255829 378.566132 252.269714 376.996887 C 250.245132 375.934235 247.811584 374.360504 246.900864 373.449554 C 244.268738 371.020264 246.474731 368.747498 249.916351 361.712006 C 252.163727 357.126434 275.262177 318.284332 295.039734 290.230988 C 308.224701 271.528748 323.064667 258.203979 323.064667 258.203979 L 331.071411 252.19693 C 331.071411 252.19693 659.680542 250.878326 661.04718 252.143738 C 661.678894 252.75119 674.319336 265.467499 681.376526 273.214966 C 702.405029 296.300201 718.697144 323.291565 737.423767 348.280548 C 741.3927 353.576782 748.59906 363.18634 749.358093 364.147797 C 750.674072 365.818268 751.031128 367.028351 750.879028 369.45816 C 750.77832 371.027069 747.6828 374.008148 743.329773 376.842651 C 741.203918 378.20929 739.279785 379.326324 739.128296 379.326324 Z M 203.934067 369.976685 C 206.521255 369.969879 207.236404 369.712921 208.691299 369.048645 C 211.374222 367.782867 211.63237 367.438019 210.012909 366.881409 C 206.824097 365.86911 181.71225 365.566132 181.408264 366.52774 C 181.307144 366.83139 182.482651 367.579956 184.152527 368.187073 C 186.632675 369.148865 188.608505 369.412445 196.706451 369.766632 C 200.16095 369.89975 202.381943 369.980682 203.934067 369.976685 Z M 790.915527 369.976685 C 792.467651 369.980682 794.688538 369.89975 798.143066 369.766632 C 806.24115 369.412445 808.214233 369.148865 810.694336 368.187073 C 812.364258 367.579956 813.539795 366.83139 813.43866 366.52774 C 813.134705 365.566132 788.025513 365.86911 784.83667 366.881409 C 783.217224 367.438019 783.472717 367.782867 786.15564 369.048645 C 787.610413 369.712921 788.328247 369.969879 790.915527 369.976685 Z M 754.532715 364.161102 C 752.986023 364.248016 720.391479 312.774231 704.396912 292.230682 C 692.485107 276.930817 679.946655 259.212646 663.884521 249.636169 C 657.867249 246.048431 653.482361 246.26532 647.347107 245.190033 C 633.712891 242.800598 609.044006 244.044769 609.044006 244.044769 L 394.068268 244.044769 C 394.068268 244.044769 349.369171 243.569427 338.074585 245.044769 C 334.515137 245.509644 331.13858 247.172119 328.075714 249.044342 C 316.745544 255.969971 306.231537 264.764313 298.041931 275.217346 C 285.341125 291.428101 259.501404 335.035767 258.792694 336.301025 C 255.958511 341.261353 245.980667 360.409515 243.146164 364.7117 C 241.577499 367.090668 240.315353 367.196716 239.859436 364.969635 C 239.657043 364.109406 233.872116 356.836578 231.42984 354.22113 C 227.927567 350.470551 225.730164 344.985352 221.072388 342.83194 C 208.707474 337.115234 174.781631 345.554932 174.781631 345.554932 C 174.781631 345.554932 180.708084 341.019714 191.159531 338.922302 C 201.610962 336.824707 216.587387 337.16507 223.795364 341.470428 C 229.548065 344.906403 239.771683 362.169556 241.133163 362.169556 C 242.494659 362.169556 252.045471 341.937134 257.471069 333.301483 C 264.304169 322.425659 269.753052 311.302216 276.893585 300.625671 C 283.449371 290.823303 289.792877 280.800415 297.459564 271.840179 C 303.679352 264.571014 310.184814 257.330963 317.951111 251.744873 C 321.345245 249.303589 326.422729 246.847687 331.334686 244.873596 C 337.10083 242.556122 342.641357 240.901459 344.968231 240.719971 C 351.590363 240.203278 500.519501 239.64566 500.519501 239.64566 C 500.519501 239.64566 629.324341 237.997162 642.092834 240.185486 C 648.250977 241.240845 657.840271 242.619965 663.073425 246.03299 C 676.923828 255.06601 689.042419 269.57608 700.317688 282.926239 C 713.559875 298.605347 723.932129 316.499054 735.716553 333.301483 C 742.078369 342.372406 754.777466 360.531342 754.777466 360.531342 L 760.22345 352.362366 C 760.22345 352.362366 766.107666 343.658447 771.115356 341.470428 C 777.450012 338.702576 787.876831 338.499969 794.571777 339.170258 C 804.206116 340.134888 811.211304 343.784576 811.19696 343.837097 C 810.994141 344.697662 778.966309 341.331482 776.688965 341.786865 C 770.362 343.052155 766.241394 348.009003 760.016052 357.119629 C 757.940613 360.105713 754.969482 363.79364 754.564758 364.147797 C 754.556396 364.154785 754.544983 364.160278 754.532715 364.161102 Z"/>
        <linearGradient id="linearGradient1" x1="498.119663" y1="252.571573" x2="498.119663" y2="377.597983" gradientUnits="userSpaceOnUse">
            <stop offset="0" stop-color="#81a8b9" stop-opacity="0.213815"/>
            <stop offset="0.639679" stop-color="#48a0f8" stop-opacity="0"/>
        </linearGradient>
        <path id="path2" fill="url(#linearGradient1)" fill-rule="evenodd" stroke="none" visibility="hidden" d="M 331.071594 253.197845 C 327.808044 251.856964 284.88205 295.18335 245.997696 370.299561 C 244.248993 373.677673 251.226349 376.872803 255.005524 377.305664 C 259.68512 377.841675 303.956421 371.854706 329.069855 369.298706 C 352.693726 366.894318 376.395905 365.991821 400.131592 365.295227 C 428.812775 364.453491 464.854462 365.295227 497.215912 365.295227 C 534.248108 365.295227 553.538513 365.124969 584.291565 365.295227 C 608.871399 365.431305 639.719177 367.05011 655.353333 368.297821 C 667.440613 369.262512 679.408752 371.948944 691.384583 373.302185 C 700.76123 374.361694 710.082458 375.453888 719.408936 376.304779 C 725.426147 376.85376 733.47644 378.184448 739.426331 377.305664 C 743.289368 376.735107 746.225464 375.734924 748.434143 373.302185 C 749.852539 371.73996 750.811707 369.37326 750.435913 367.296967 C 749.949219 364.607788 717.997559 321.575867 693.386353 290.230011 C 676.57666 268.820496 661.863464 253.410065 661.358521 253.197845 C 659.510742 252.421356 559.026367 252.762665 507.356049 252.583496 C 448.594543 252.3797 335.16806 254.880951 331.071594 253.197845 Z"/>
    </g>
</svg>
