<?xml version="1.0" encoding="UTF-8"?>
<!-- Generated by Pixelmator Pro 3.6.5 -->
<svg width="60" height="60" viewBox="0 0 60 60" xmlns="http://www.w3.org/2000/svg">
    <path id="Shape" fill="#ffffff" fill-rule="evenodd" stroke="none" d="M 0 60 L 60 60 L 60 0 L 0 0 Z"/>
    <path id="Path" fill="#000000" stroke="none" d="M 43 58 L 17 58 C 15.9 58 15 57.099998 15 56 L 15 4 C 15 2.900002 15.9 2 17 2 L 43 2 C 44.099998 2 45 2.900002 45 4 L 45 56 C 45 57.099998 44.099998 58 43 58 Z M 43 60 C 45.200001 60 47 58.200001 47 56 L 47 4 C 47 1.800003 45.200001 0 43 0 L 17 0 C 14.8 0 13 1.800003 13 4 L 13 56 C 13 58.200001 14.8 60 17 60 L 43 60 Z"/>
    <path id="path1" fill="#000000" stroke="none" d="M 13 52 L 47 52 L 47 6 L 13 6 L 13 52 Z M 15 8 L 45 8 L 45 50 L 15 50 L 15 8 Z"/>
    <path id="path2" fill="#000000" stroke="none" d="M 29 5 L 34 5 C 34.599998 5 35 4.599998 35 4 C 35 3.400002 34.599998 3 34 3 L 29 3 C 28.4 3 28 3.400002 28 4 C 28 4.599998 28.4 5 29 5 Z"/>
    <path id="path3" fill="#000000" stroke="none" d="M 25 5 L 26 5 C 26.6 5 27 4.599998 27 4 C 27 3.400002 26.6 3 26 3 L 25 3 C 24.4 3 24 3.400002 24 4 C 24 4.599998 24.4 5 25 5 Z"/>
    <path id="path4" fill="#000000" stroke="none" d="M 12 10 L 12 11 C 12 11.599998 12.4 12 13 12 C 13.6 12 14 11.599998 14 11 L 14 10 C 14 9.400002 13.6 9 13 9 C 12.4 9 12 9.400002 12 10 Z"/>
    <path id="path5" fill="#000000" stroke="none" d="M 12 14 L 12 15 C 12 15.599998 12.4 16 13 16 C 13.6 16 14 15.599998 14 15 L 14 14 C 14 13.400002 13.6 13 13 13 C 12.4 13 12 13.400002 12 14 Z"/>
    <path id="path6" fill="#000000" stroke="none" d="M 12 18 L 12 19 C 12 19.599998 12.4 20 13 20 C 13.6 20 14 19.599998 14 19 L 14 18 C 14 17.400002 13.6 17 13 17 C 12.4 17 12 17.400002 12 18 Z"/>
    <path id="path7" fill="#000000" stroke="none" d="M 32 55 C 32 56.099998 31.1 57 30 57 C 28.9 57 28 56.099998 28 55 C 28 53.900002 28.9 53 30 53 C 31.1 53 32 53.900002 32 55 Z M 34 55 C 34 52.799999 32.200001 51 30 51 C 27.799999 51 26 52.799999 26 55 C 26 57.200001 27.799999 59 30 59 C 32.200001 59 34 57.200001 34 55 Z"/>
    <path id="path8" fill="#ffffff" fill-rule="evenodd" stroke="#000000" stroke-width="2" stroke-linecap="round" stroke-linejoin="round" d="M 19 28 C 19 28 21.114382 32 23 32 C 24.885618 32 25.114382 28 27 28 C 28.885618 28 29.114382 32 31 32 C 32.885616 32 33.138729 27.69796 35 28 C 36.471462 28.238785 36.543995 31.680208 38 32 C 40.084682 32.457874 42 28 42 28"/>
    <path id="Path-copy" fill="#ffffff" fill-rule="evenodd" stroke="#000000" stroke-width="2" stroke-linecap="round" stroke-linejoin="round" d="M 19 37 C 19 37 21.114382 41 23 41 C 24.885618 41 25.114382 37 27 37 C 28.885618 37 29.114382 41 31 41 C 32.885616 41 33.138729 36.69796 35 37 C 36.471462 37.238785 36.543995 40.680206 38 41 C 40.084682 41.457874 42 37 42 37"/>
    <path id="path9" fill="#f7ba00" stroke="none" d="M 17 11 L 17 17 C 17 17.599998 17.4 18 18 18 C 18.6 18 19 17.599998 19 17 L 19 11 C 19 10.400002 18.6 10 18 10 C 17.4 10 17 10.400002 17 11 Z"/>
    <path id="path10" fill="#f7ba00" stroke="none" d="M 24 10 L 18 10 C 17.4 10 17 10.400002 17 11 C 17 11.599998 17.4 12 18 12 L 24 12 C 24.6 12 25 11.599998 25 11 C 25 10.400002 24.6 10 24 10 Z"/>
    <path id="path11" fill="#f7ba00" stroke="none" d="M 41 11 L 41 17 C 41 17.599998 41.400002 18 42 18 C 42.599998 18 43 17.599998 43 17 L 43 11 C 43 10.400002 42.599998 10 42 10 C 41.400002 10 41 10.400002 41 11 Z"/>
    <path id="path12" fill="#f7ba00" stroke="none" d="M 36 12 L 42 12 C 42.599998 12 43 11.599998 43 11 C 43 10.400002 42.599998 10 42 10 L 36 10 C 35.400002 10 35 10.400002 35 11 C 35 11.599998 35.400002 12 36 12 Z"/>
    <path id="path13" fill="#f7ba00" stroke="none" d="M 43 47 L 43 41 C 43 40.400002 42.599998 40 42 40 C 41.400002 40 41 40.400002 41 41 L 41 47 C 41 47.599998 41.400002 48 42 48 C 42.599998 48 43 47.599998 43 47 Z"/>
    <path id="path14" fill="#f7ba00" stroke="none" d="M 36 48 L 42 48 C 42.599998 48 43 47.599998 43 47 C 43 46.400002 42.599998 46 42 46 L 36 46 C 35.400002 46 35 46.400002 35 47 C 35 47.599998 35.400002 48 36 48 Z"/>
    <path id="path15" fill="#f7ba00" stroke="none" d="M 19 47 L 19 41 C 19 40.400002 18.6 40 18 40 C 17.4 40 17 40.400002 17 41 L 17 47 C 17 47.599998 17.4 48 18 48 C 18.6 48 19 47.599998 19 47 Z"/>
    <path id="path16" fill="#f7ba00" stroke="none" d="M 24 46 L 18 46 C 17.4 46 17 46.400002 17 47 C 17 47.599998 17.4 48 18 48 L 24 48 C 24.6 48 25 47.599998 25 47 C 25 46.400002 24.6 46 24 46 Z"/>
    <path id="path17" fill="#f7ba00" stroke="none" d="M 29 28 L 29 34 C 29 34.599998 29.4 35 30 35 C 30.6 35 31 34.599998 31 34 L 31 28 C 31 27.400002 30.6 27 30 27 C 29.4 27 29 27.400002 29 28 Z"/>
    <path id="path18" fill="#f7ba00" stroke="none" d="M 33 30 L 27 30 C 26.4 30 26 30.400002 26 31 C 26 31.599998 26.4 32 27 32 L 33 32 C 33.599998 32 34 31.599998 34 31 C 34 30.400002 33.599998 30 33 30 Z"/>
    <path id="Ticket" fill="#000000" fill-rule="evenodd" stroke="none" d="M 37.277344 24.171875 C 36.887341 24.171875 36.529079 24.113094 36.205078 23.996094 C 35.881077 23.879093 35.604046 23.712097 35.373047 23.496094 C 35.142044 23.280094 34.96389 23.022659 34.837891 22.722656 C 34.711887 22.422653 34.648438 22.086845 34.648438 21.714844 C 34.648438 21.330841 34.708126 20.98283 34.828125 20.673828 C 34.948128 20.364826 35.119797 20.102718 35.341797 19.886719 C 35.563797 19.670715 35.831482 19.503719 36.146484 19.386719 C 36.461487 19.269718 36.816887 19.212891 37.212891 19.212891 C 37.60289 19.212891 37.953625 19.269718 38.265625 19.386719 C 38.577629 19.503719 38.842594 19.674484 39.058594 19.896484 C 39.274597 20.118484 39.438732 20.389938 39.552734 20.710938 C 39.666733 21.03194 39.724609 21.392921 39.724609 21.794922 L 39.724609 21.966797 L 36.294922 21.966797 C 36.294922 22.6688 36.625153 23.019531 37.285156 23.019531 C 37.63916 23.019531 37.905937 22.875889 38.085938 22.587891 L 39.662109 22.587891 C 39.344109 23.643894 38.549351 24.171875 37.277344 24.171875 Z M 29.095703 24 L 29.095703 16.529297 L 30.724609 16.529297 L 30.724609 21.048828 L 32.433594 19.382813 L 34.666016 19.382813 L 32.353516 21.515625 L 34.800781 24 L 32.515625 24 L 30.724609 22.119141 L 30.724609 24 L 29.095703 24 Z M 40.632813 24 L 40.632813 20.742188 L 40.09375 20.742188 L 40.09375 19.382813 L 40.632813 19.382813 L 40.632813 17.996094 L 42.261719 17.996094 L 42.261719 19.382813 L 43.189453 19.382813 L 43.189453 20.742188 L 42.261719 20.742188 L 42.261719 24 L 40.632813 24 Z M 36.339844 21.021484 L 38.203125 21.021484 C 38.149124 20.793484 38.039097 20.610657 37.871094 20.472656 C 37.703094 20.334656 37.497814 20.265625 37.257813 20.265625 C 37.005814 20.265625 36.801582 20.330887 36.642578 20.462891 C 36.483578 20.594891 36.381844 20.781483 36.339844 21.021484 Z M 28.213499 20.876999 C 27.931499 20.684998 27.646502 20.589001 27.3585 20.589001 C 27.202499 20.589001 27.057001 20.616001 26.922001 20.669998 C 26.786999 20.723999 26.668501 20.800499 26.5665 20.899502 C 26.4645 20.998501 26.385 21.115498 26.327999 21.2505 C 26.271 21.385502 26.2425 21.536999 26.2425 21.705002 C 26.2425 21.867001 26.271 22.015499 26.327999 22.150501 C 26.385 22.2855 26.462999 22.4025 26.562 22.501499 C 26.661001 22.600502 26.779499 22.676998 26.9175 22.730999 C 27.0555 22.785 27.202499 22.812 27.3585 22.812 C 27.664501 22.812 27.949499 22.707001 28.213499 22.497002 L 28.213499 23.882999 C 27.811499 24.056999 27.430502 24.144001 27.070499 24.144001 C 26.734499 24.144001 26.415001 24.087002 26.112 23.973 C 25.808998 23.859001 25.542002 23.695499 25.311001 23.482498 C 25.079998 23.269501 24.8955 23.0145 24.7575 22.717499 C 24.619499 22.420498 24.550501 22.089001 24.550501 21.723 C 24.550501 21.356998 24.616499 21.022503 24.748501 20.719501 C 24.880501 20.4165 25.060499 20.155502 25.2885 19.936501 C 25.5165 19.717499 25.787998 19.546501 26.103001 19.4235 C 26.418001 19.300499 26.755499 19.238998 27.115499 19.238998 C 27.511501 19.238998 27.877499 19.322998 28.213499 19.491001 Z M 23.884501 19.382999 L 23.884501 24 L 22.255501 24 L 22.255501 19.382999 Z M 22.147499 17.610001 C 22.147499 17.484001 22.171499 17.365501 22.2195 17.254501 C 22.2675 17.143501 22.3335 17.046001 22.4175 16.962002 C 22.501501 16.877998 22.598999 16.812 22.709999 16.764 C 22.821001 16.716 22.939499 16.692001 23.0655 16.692001 C 23.1915 16.692001 23.309999 16.716 23.421 16.764 C 23.532001 16.812 23.629499 16.877998 23.713499 16.962002 C 23.797501 17.046001 23.863501 17.143501 23.911501 17.254501 C 23.959499 17.365501 23.9835 17.484001 23.9835 17.610001 C 23.9835 17.736 23.959499 17.8545 23.911501 17.9655 C 23.863501 18.0765 23.797501 18.174 23.713499 18.257999 C 23.629499 18.341999 23.532001 18.408001 23.421 18.456001 C 23.309999 18.504002 23.1915 18.528 23.0655 18.528 C 22.939499 18.528 22.821001 18.504002 22.709999 18.456001 C 22.598999 18.408001 22.501501 18.341999 22.4175 18.257999 C 22.3335 18.174 22.2675 18.0765 22.2195 17.9655 C 22.171499 17.8545 22.147499 17.736 22.147499 17.610001 Z M 20.311501 18.708 L 20.311501 24 L 18.547501 24 L 18.547501 18.708 L 17.098499 18.708 L 17.098499 17.214001 L 21.7605 17.214001 L 21.7605 18.708 Z"/>
</svg>
