<?xml version="1.0" encoding="UTF-8"?>
<!-- Generated by Pixelmator Pro 3.6.5 -->
<svg width="60" height="60" viewBox="0 0 60 60" xmlns="http://www.w3.org/2000/svg">
    <path id="Path" fill="#000000" stroke="none" d="M 43 58 L 17 58 C 15.9 58 15 57.099998 15 56 L 15 4 C 15 2.900002 15.9 2 17 2 L 43 2 C 44.099998 2 45 2.900002 45 4 L 45 56 C 45 57.099998 44.099998 58 43 58 Z M 43 60 C 45.200001 60 47 58.200001 47 56 L 47 4 C 47 1.800003 45.200001 0 43 0 L 17 0 C 14.8 0 13 1.800003 13 4 L 13 56 C 13 58.200001 14.8 60 17 60 L 43 60 Z"/>
    <path id="path1" fill="#000000" stroke="none" d="M 13 52 L 47 52 L 47 6 L 13 6 L 13 52 Z M 15 8 L 45 8 L 45 50 L 15 50 L 15 8 Z"/>
    <path id="path2" fill="#000000" stroke="none" d="M 29 5 L 34 5 C 34.599998 5 35 4.599998 35 4 C 35 3.400002 34.599998 3 34 3 L 29 3 C 28.4 3 28 3.400002 28 4 C 28 4.599998 28.4 5 29 5 Z"/>
    <path id="path3" fill="#000000" stroke="none" d="M 25 5 L 26 5 C 26.6 5 27 4.599998 27 4 C 27 3.400002 26.6 3 26 3 L 25 3 C 24.4 3 24 3.400002 24 4 C 24 4.599998 24.4 5 25 5 Z"/>
    <path id="path4" fill="#000000" stroke="none" d="M 12 10 L 12 11 C 12 11.599998 12.4 12 13 12 C 13.6 12 14 11.599998 14 11 L 14 10 C 14 9.400002 13.6 9 13 9 C 12.4 9 12 9.400002 12 10 Z"/>
    <path id="path5" fill="#000000" stroke="none" d="M 12 14 L 12 15 C 12 15.599998 12.4 16 13 16 C 13.6 16 14 15.599998 14 15 L 14 14 C 14 13.400002 13.6 13 13 13 C 12.4 13 12 13.400002 12 14 Z"/>
    <path id="path6" fill="#000000" stroke="none" d="M 12 18 L 12 19 C 12 19.599998 12.4 20 13 20 C 13.6 20 14 19.599998 14 19 L 14 18 C 14 17.400002 13.6 17 13 17 C 12.4 17 12 17.400002 12 18 Z"/>
    <path id="path7" fill="#000000" stroke="none" d="M 32 55 C 32 56.099998 31.1 57 30 57 C 28.9 57 28 56.099998 28 55 C 28 53.900002 28.9 53 30 53 C 31.1 53 32 53.900002 32 55 Z M 34 55 C 34 52.799999 32.200001 51 30 51 C 27.799999 51 26 52.799999 26 55 C 26 57.200001 27.799999 59 30 59 C 32.200001 59 34 57.200001 34 55 Z"/>
    <path id="path8" fill="#000000" stroke="none" d="M 18 22 L 18 28 C 18 28.599998 18.4 29 19 29 C 19.6 29 20 28.599998 20 28 L 20 22 C 20 21.400002 19.6 21 19 21 C 18.4 21 18 21.400002 18 22 Z"/>
    <path id="path9" fill="#000000" stroke="none" d="M 25 21 L 19 21 C 18.4 21 18 21.400002 18 22 C 18 22.599998 18.4 23 19 23 L 25 23 C 25.6 23 26 22.599998 26 22 C 26 21.400002 25.6 21 25 21 Z"/>
    <path id="path10" fill="#000000" stroke="none" d="M 40 22 L 40 28 C 40 28.599998 40.400002 29 41 29 C 41.599998 29 42 28.599998 42 28 L 42 22 C 42 21.400002 41.599998 21 41 21 C 40.400002 21 40 21.400002 40 22 Z"/>
    <path id="path11" fill="#000000" stroke="none" d="M 35 23 L 41 23 C 41.599998 23 42 22.599998 42 22 C 42 21.400002 41.599998 21 41 21 L 35 21 C 34.400002 21 34 21.400002 34 22 C 34 22.599998 34.400002 23 35 23 Z"/>
    <path id="path12" fill="#000000" stroke="none" d="M 42 43 L 42 37 C 42 36.400002 41.599998 36 41 36 C 40.400002 36 40 36.400002 40 37 L 40 43 C 40 43.599998 40.400002 44 41 44 C 41.599998 44 42 43.599998 42 43 Z"/>
    <path id="path13" fill="#000000" stroke="none" d="M 35 44 L 41 44 C 41.599998 44 42 43.599998 42 43 C 42 42.400002 41.599998 42 41 42 L 35 42 C 34.400002 42 34 42.400002 34 43 C 34 43.599998 34.400002 44 35 44 Z"/>
    <path id="path14" fill="#000000" stroke="none" d="M 20 43 L 20 37 C 20 36.400002 19.6 36 19 36 C 18.4 36 18 36.400002 18 37 L 18 43 C 18 43.599998 18.4 44 19 44 C 19.6 44 20 43.599998 20 43 Z"/>
    <path id="path15" fill="#000000" stroke="none" d="M 25 42 L 19 42 C 18.4 42 18 42.400002 18 43 C 18 43.599998 18.4 44 19 44 L 25 44 C 25.6 44 26 43.599998 26 43 C 26 42.400002 25.6 42 25 42 Z"/>
    <path id="path16" fill="#000000" stroke="none" d="M 29 30 L 29 36 C 29 36.599998 29.4 37 30 37 C 30.6 37 31 36.599998 31 36 L 31 30 C 31 29.400002 30.6 29 30 29 C 29.4 29 29 29.400002 29 30 Z"/>
    <path id="path17" fill="#000000" stroke="none" d="M 33 32 L 27 32 C 26.4 32 26 32.400002 26 33 C 26 33.599998 26.4 34 27 34 L 33 34 C 33.599998 34 34 33.599998 34 33 C 34 32.400002 33.599998 32 33 32 Z"/>
    <path id="Ticket" fill="#000000" fill-rule="evenodd" stroke="none" d="M 37.277344 18.171875 C 36.887341 18.171875 36.529079 18.113094 36.205078 17.996094 C 35.881077 17.879093 35.604046 17.712097 35.373047 17.496094 C 35.142044 17.280094 34.96389 17.022659 34.837891 16.722656 C 34.711887 16.422653 34.648438 16.086845 34.648438 15.714844 C 34.648438 15.330841 34.708126 14.98283 34.828125 14.673828 C 34.948128 14.364826 35.119797 14.102718 35.341797 13.886719 C 35.563797 13.670715 35.831482 13.503719 36.146484 13.386719 C 36.461487 13.269718 36.816887 13.212891 37.212891 13.212891 C 37.60289 13.212891 37.953625 13.269718 38.265625 13.386719 C 38.577629 13.503719 38.842594 13.674484 39.058594 13.896484 C 39.274597 14.118484 39.438732 14.389938 39.552734 14.710938 C 39.666733 15.03194 39.724609 15.392921 39.724609 15.794922 L 39.724609 15.966797 L 36.294922 15.966797 C 36.294922 16.6688 36.625153 17.019531 37.285156 17.019531 C 37.63916 17.019531 37.905937 16.875889 38.085938 16.587891 L 39.662109 16.587891 C 39.344109 17.643894 38.549351 18.171875 37.277344 18.171875 Z M 29.095703 18 L 29.095703 10.529297 L 30.724609 10.529297 L 30.724609 15.048828 L 32.433594 13.382813 L 34.666016 13.382813 L 32.353516 15.515625 L 34.800781 18 L 32.515625 18 L 30.724609 16.119141 L 30.724609 18 L 29.095703 18 Z M 40.632813 18 L 40.632813 14.742188 L 40.09375 14.742188 L 40.09375 13.382813 L 40.632813 13.382813 L 40.632813 11.996094 L 42.261719 11.996094 L 42.261719 13.382813 L 43.189453 13.382813 L 43.189453 14.742188 L 42.261719 14.742188 L 42.261719 18 L 40.632813 18 Z M 36.339844 15.021484 L 38.203125 15.021484 C 38.149124 14.793484 38.039097 14.610657 37.871094 14.472656 C 37.703094 14.334656 37.497814 14.265625 37.257813 14.265625 C 37.005814 14.265625 36.801582 14.330887 36.642578 14.462891 C 36.483578 14.594891 36.381844 14.781483 36.339844 15.021484 Z M 28.213499 14.876999 C 27.931499 14.684998 27.646502 14.589001 27.3585 14.589001 C 27.202499 14.589001 27.057001 14.616001 26.922001 14.669998 C 26.786999 14.723999 26.668501 14.800499 26.5665 14.899502 C 26.4645 14.998501 26.385 15.115498 26.327999 15.2505 C 26.271 15.385502 26.2425 15.536999 26.2425 15.705002 C 26.2425 15.867001 26.271 16.015499 26.327999 16.150501 C 26.385 16.2855 26.462999 16.4025 26.562 16.501499 C 26.661001 16.600502 26.779499 16.676998 26.9175 16.730999 C 27.0555 16.785 27.202499 16.812 27.3585 16.812 C 27.664501 16.812 27.949499 16.707001 28.213499 16.497002 L 28.213499 17.882999 C 27.811499 18.056999 27.430502 18.144001 27.070499 18.144001 C 26.734499 18.144001 26.415001 18.087002 26.112 17.973 C 25.808998 17.859001 25.542002 17.695499 25.311001 17.482498 C 25.079998 17.269501 24.8955 17.0145 24.7575 16.717499 C 24.619499 16.420498 24.550501 16.089001 24.550501 15.723 C 24.550501 15.356998 24.616499 15.022503 24.748501 14.719501 C 24.880501 14.4165 25.060499 14.155502 25.2885 13.936501 C 25.5165 13.717499 25.787998 13.546501 26.103001 13.4235 C 26.418001 13.300499 26.755499 13.238998 27.115499 13.238998 C 27.511501 13.238998 27.877499 13.322998 28.213499 13.491001 Z M 23.884501 13.382999 L 23.884501 18 L 22.255501 18 L 22.255501 13.382999 Z M 22.147499 11.610001 C 22.147499 11.484001 22.171499 11.365501 22.2195 11.254501 C 22.2675 11.143501 22.3335 11.046001 22.4175 10.962002 C 22.501501 10.877998 22.598999 10.812 22.709999 10.764 C 22.821001 10.716 22.939499 10.692001 23.0655 10.692001 C 23.1915 10.692001 23.309999 10.716 23.421 10.764 C 23.532001 10.812 23.629499 10.877998 23.713499 10.962002 C 23.797501 11.046001 23.863501 11.143501 23.911501 11.254501 C 23.959499 11.365501 23.9835 11.484001 23.9835 11.610001 C 23.9835 11.736 23.959499 11.8545 23.911501 11.9655 C 23.863501 12.0765 23.797501 12.174 23.713499 12.257999 C 23.629499 12.341999 23.532001 12.408001 23.421 12.456001 C 23.309999 12.504002 23.1915 12.528 23.0655 12.528 C 22.939499 12.528 22.821001 12.504002 22.709999 12.456001 C 22.598999 12.408001 22.501501 12.341999 22.4175 12.257999 C 22.3335 12.174 22.2675 12.0765 22.2195 11.9655 C 22.171499 11.8545 22.147499 11.736 22.147499 11.610001 Z M 20.311501 12.708 L 20.311501 18 L 18.547501 18 L 18.547501 12.708 L 17.098499 12.708 L 17.098499 11.214001 L 21.7605 11.214001 L 21.7605 12.708 Z"/>
</svg>
