<?xml version="1.0" encoding="UTF-8"?>
<!-- Generated by Pixelmator Pro 3.6.5 -->
<svg width="60" height="60" viewBox="0 0 60 60" xmlns="http://www.w3.org/2000/svg">
    <path id="Path-copy" fill="#000000" stroke="none" d="M 43 58 L 17 58 C 15.9 58 15 57.099998 15 56 L 15 4 C 15 2.900002 15.9 2 17 2 L 43 2 C 44.099998 2 45 2.900002 45 4 L 45 56 C 45 57.099998 44.099998 58 43 58 Z M 43 60 C 45.200001 60 47 58.200001 47 56 L 47 4 C 47 1.800003 45.200001 0 43 0 L 17 0 C 14.8 0 13 1.800003 13 4 L 13 56 C 13 58.200001 14.8 60 17 60 L 43 60 Z"/>
    <path id="path1-copy" fill="#000000" stroke="none" d="M 13 52 L 47 52 L 47 6 L 13 6 L 13 52 Z M 15 8 L 45 8 L 45 50 L 15 50 L 15 8 Z"/>
    <path id="path2-copy" fill="#000000" stroke="none" d="M 29 5 L 34 5 C 34.599998 5 35 4.599998 35 4 C 35 3.400002 34.599998 3 34 3 L 29 3 C 28.4 3 28 3.400002 28 4 C 28 4.599998 28.4 5 29 5 Z"/>
    <path id="path3-copy" fill="#000000" stroke="none" d="M 25 5 L 26 5 C 26.6 5 27 4.599998 27 4 C 27 3.400002 26.6 3 26 3 L 25 3 C 24.4 3 24 3.400002 24 4 C 24 4.599998 24.4 5 25 5 Z"/>
    <path id="path4-copy" fill="#000000" stroke="none" d="M 12 10 L 12 11 C 12 11.599998 12.4 12 13 12 C 13.6 12 14 11.599998 14 11 L 14 10 C 14 9.400002 13.6 9 13 9 C 12.4 9 12 9.400002 12 10 Z"/>
    <path id="path5-copy" fill="#000000" stroke="none" d="M 12 14 L 12 15 C 12 15.599998 12.4 16 13 16 C 13.6 16 14 15.599998 14 15 L 14 14 C 14 13.400002 13.6 13 13 13 C 12.4 13 12 13.400002 12 14 Z"/>
    <path id="path6-copy" fill="#000000" stroke="none" d="M 12 18 L 12 19 C 12 19.599998 12.4 20 13 20 C 13.6 20 14 19.599998 14 19 L 14 18 C 14 17.400002 13.6 17 13 17 C 12.4 17 12 17.400002 12 18 Z"/>
    <path id="path7-copy" fill="#000000" stroke="none" d="M 32 55 C 32 56.099998 31.1 57 30 57 C 28.9 57 28 56.099998 28 55 C 28 53.900002 28.9 53 30 53 C 31.1 53 32 53.900002 32 55 Z M 34 55 C 34 52.799999 32.200001 51 30 51 C 27.799999 51 26 52.799999 26 55 C 26 57.200001 27.799999 59 30 59 C 32.200001 59 34 57.200001 34 55 Z"/>
    <g id="Group">
        <path id="Path" fill="#f7ba00" stroke="none" d="M 52.048 33.16893 L 30.799101 33.16893 C 30.548128 33.16893 30.308311 33.263741 30.124268 33.442211 L 26.058533 37.335056 L 26.443354 34.273209 C 26.476818 33.99435 26.39316 33.715492 26.209116 33.503559 C 26.025068 33.29163 25.757366 33.174511 25.47851 33.174511 L 21.223152 33.174511 L 21.223152 15.288624 L 52.059155 15.288624 L 52.059155 33.174511 Z M 40.64275 13.331047 L 20.235998 13.331047 C 19.695017 13.331047 19.259998 13.766064 19.259998 14.307049 L 19.259998 34.144932 C 19.259998 34.685913 19.695017 35.12093 20.235998 35.12093 L 24.363081 35.12093 L 23.771904 39.811306 C 23.72171 40.218437 23.933641 40.619987 24.301733 40.804039 C 24.44116 40.87096 24.591743 40.910004 24.742327 40.910004 C 24.98772 40.910004 25.233116 40.815189 25.41716 40.636719 L 31.183922 35.115353 L 40.918861 35.126549 L 42.594749 35.126511 L 53.024002 35.126511 C 53.56498 35.126511 54 34.69149 54 34.150509 L 54 14.307049 C 54 13.766064 53.56498 13.331047 53.024002 13.331047 L 53.024002 13.331047 L 42.594749 13.331047 Z"/>
        <path id="path1" fill="#f7ba00" stroke="none" d="M 22.940912 18.144119 C 22.940912 18.685101 23.375927 19.120117 23.91691 19.120117 L 45.600826 19.120117 C 46.141808 19.120117 46.576824 18.685101 46.576824 18.144119 C 46.576824 17.603134 46.141808 17.168118 45.600826 17.168118 L 23.91691 17.168118 C 23.375927 17.168118 22.940912 17.603134 22.940912 18.144119 Z"/>
        <path id="path2" fill="#f7ba00" stroke="none" d="M 22.940912 21.986767 C 22.940912 22.527748 23.375927 22.962765 23.91691 22.962765 L 49.437901 22.962765 C 49.978878 22.962765 50.413898 22.527748 50.413898 21.986767 C 50.413898 21.445782 49.978878 21.010769 49.437901 21.010769 L 23.91691 21.010769 C 23.375927 21.010769 22.940912 21.445782 22.940912 21.986767 Z"/>
        <path id="path3" fill="#f7ba00" stroke="none" d="M 23.91691 26.799839 L 45.600826 26.799839 C 46.141808 26.799839 46.576824 26.364822 46.576824 25.823841 C 46.576824 25.282856 46.141808 24.847843 45.600826 24.847843 L 23.91691 24.847843 C 23.375927 24.847843 22.940912 25.282856 22.940912 25.823841 C 22.940912 26.364822 23.375927 26.799839 23.91691 26.799839 Z"/>
        <path id="path4" fill="#f7ba00" stroke="none" d="M 49.437901 28.684916 L 23.91691 28.684916 C 23.375927 28.684916 22.940912 29.119932 22.940912 29.660915 C 22.940912 30.201895 23.375927 30.636915 23.91691 30.636915 L 49.437901 30.636915 C 49.978878 30.636915 50.413898 30.201895 50.413898 29.660915 C 50.413898 29.119932 49.978878 28.684916 49.437901 28.684916 Z"/>
    </g>
</svg>
