<?xml version="1.0" encoding="UTF-8"?>
<!-- Generated by Pixelmator Pro 3.6.6 -->
<svg width="2373" height="271" viewBox="0 0 2373 271" xmlns="http://www.w3.org/2000/svg">
    <path id="Shape" fill="#000000" fill-rule="evenodd" stroke="none" d="M 58.072174 269.70105 C 58.072174 269.70105 49.109833 227.47496 39.870087 184.943878 C 30.630157 142.413025 18.085327 84.741486 11.992859 56.785583 C 1.367462 8.027069 0 3.649475 0 3.649475 C 0 3.649475 27.935822 2.298981 131 2.298981 C 233.622375 2.298981 262 3.649475 262 3.649475 C 262 3.649475 252.145874 51.862762 243.120911 93.458771 C 234.095703 135.054779 223.104309 185.496521 218.694702 205.551544 C 214.285095 225.606583 209.310364 247.789001 207.640015 254.845367 C 204.796326 266.860413 203.927856 269.70105 203.927856 269.70105 C 203.927856 269.70105 183.56897 260.946838 166.113403 252.879379 C 148.657837 244.812119 132.822876 238.206589 130.924377 238.200439 C 129.026093 238.194061 113.22522 244.741333 95.810974 252.749252 C 78.397186 260.756958 58.072174 269.70105 58.072174 269.70105 Z M 117.171295 176.515472 C 132.759338 176.515472 143.641052 175.886139 148.112671 174.726196 C 151.906372 173.74234 158.351257 171.246613 162.433777 169.180817 C 166.516541 167.115051 173.230408 161.995667 177.353638 157.803436 C 181.477051 153.610779 186.377075 147.116028 188.242188 143.370697 C 190.107483 139.625549 192.353271 133.85202 193.233643 130.540802 C 194.181885 126.973694 194.607422 118.974335 194.278137 110.909088 C 193.782288 98.768951 193.225708 96.286835 189.128418 87.950317 C 186.36322 82.322937 181.541443 75.604645 177.012512 71.067993 C 172.389221 66.437012 165.84613 61.751984 160.036072 58.913361 C 150.582458 54.29425 150.582458 54.293823 108.185425 53.884094 C 65.788422 53.474365 65.787964 53.474365 66.60434 59.286163 C 67.053619 62.482635 72.606934 88.799683 78.945374 117.768036 C 85.2836 146.736389 91.067047 171.805359 91.798126 173.476807 C 93.105103 176.464478 93.531128 176.515472 117.171295 176.515472 Z M 120.097412 160.309265 C 113.424194 160.309265 104.230591 159.296387 104.230591 159.296387 C 104.230591 159.296387 102.375397 147.303711 95.415314 115.220001 C 90.599731 93.020721 85.082489 69.824738 85.082489 69.824738 C 85.082489 69.824738 108.377563 69.783417 120.478119 70.075317 C 142.004578 70.594299 144.006409 70.69696 152.013855 74.832031 C 156.515137 77.156311 162.509827 81.617126 165.336182 84.745483 C 168.162476 87.873596 172.044739 93.849152 173.963257 98.023773 C 176.572876 103.701935 177.454285 107.828644 177.462646 114.407593 C 177.471436 121.503937 176.633545 124.996307 173.121826 132.50061 C 170.728516 137.615387 166.583374 143.862854 163.910034 146.38385 C 161.237122 148.90506 156.208313 152.407104 152.735718 154.166901 C 149.263184 155.926483 141.490234 158.028076 137.112488 158.837433 C 132.734955 159.646759 125.078094 160.309265 120.097412 160.309265 Z M 326.144531 271 L 326.144531 103.4375 L 388.244141 103.4375 C 395.611572 103.4375 402.518799 104.437378 408.964844 106.439453 C 415.410889 108.441528 421.31665 111.264771 426.681641 114.908203 C 432.046631 118.551636 436.812744 122.935425 440.976563 128.060547 C 445.140381 133.185669 448.664063 138.8302 451.546875 144.996094 C 454.429688 151.161987 456.631104 157.790039 458.152344 164.876953 C 459.673584 171.963867 460.433594 179.310669 460.433594 186.917969 C 460.433594 198.849487 458.672119 209.920898 455.148438 220.130859 C 451.624756 230.34082 446.680664 239.229492 440.314453 246.796875 C 433.948242 254.364258 426.340576 260.289917 417.492188 264.574219 C 408.643799 268.858521 398.894287 271 388.244141 271 Z M 494.902344 271 L 556.283203 103.4375 L 580.787109 103.4375 L 641.685547 271 L 623.1875 271 L 603.849609 217.667969 L 532.619141 217.667969 L 513.28125 271 Z M 727.085938 271 L 670.269531 103.4375 L 689.849609 103.4375 L 737.775391 247.697266 L 785.703125 103.4375 L 805.28125 103.4375 L 749.427734 271 Z M 845.394531 271 L 845.394531 103.4375 L 863.171875 103.4375 L 863.171875 271 Z M 919.023438 271 L 919.023438 103.4375 L 981.123047 103.4375 C 988.489746 103.4375 995.396973 104.437378 1001.84375 106.439453 C 1008.289795 108.441528 1014.194824 111.264771 1019.560547 114.908203 C 1024.925537 118.551636 1029.690918 122.935425 1033.855469 128.060547 C 1038.019287 133.185669 1041.542969 138.8302 1044.425781 144.996094 C 1047.308594 151.161987 1049.509277 157.790039 1051.03125 164.876953 C 1052.55249 171.963867 1053.314453 179.310669 1053.314453 186.917969 C 1053.314453 198.849487 1051.552246 209.920898 1048.029297 220.130859 C 1044.505615 230.34082 1039.561523 239.229492 1033.195313 246.796875 C 1026.829102 254.364258 1019.219482 260.289917 1010.371094 264.574219 C 1001.521973 268.858521 991.773193 271 981.123047 271 Z M 1157.685547 271 L 1157.685547 103.4375 L 1180.748047 103.4375 L 1236.960938 246.375 L 1291.132813 103.4375 L 1314.195313 103.4375 L 1314.195313 271 L 1296.417969 271 L 1296.417969 133.585938 L 1246.089844 271 L 1229.873047 271 L 1175.462891 133.585938 L 1175.462891 271 Z M 1354.433594 271 L 1354.433594 247.697266 L 1377.134766 247.697266 L 1377.134766 271 Z M 1503.849609 271 L 1461.6875 103.4375 L 1480.306641 103.4375 L 1513.699219 239.048828 L 1555.019531 103.4375 L 1571.955078 103.4375 L 1612.916016 237.726563 C 1618.361572 215.384766 1624.006104 193.044891 1629.851563 170.703125 C 1635.697021 148.361359 1641.343506 125.939667 1646.789063 103.4375 L 1665.40625 103.4375 L 1623.005859 271 L 1604.626953 271 L 1563.427734 131.542969 L 1522.347656 271 Z M 1694.349609 271 L 1755.730469 103.4375 L 1780.234375 103.4375 L 1841.132813 271 L 1822.634766 271 L 1803.296875 217.667969 L 1732.066406 217.667969 L 1712.728516 271 Z M 1884.730469 271 L 1884.730469 103.4375 L 1902.507813 103.4375 L 1902.507813 254.785156 L 1983.710938 254.785156 L 1983.710938 271 Z M 2028.867188 271 L 2028.867188 103.4375 L 2046.644531 103.4375 L 2046.644531 254.785156 L 2127.845703 254.785156 L 2127.845703 271 Z M 2172.166016 271 L 2172.166016 103.4375 L 2189.943359 103.4375 L 2189.943359 271 Z M 2245.792969 271 L 2245.792969 103.4375 L 2269.574219 103.4375 L 2354.859375 248.296875 L 2354.859375 103.4375 L 2372.636719 103.4375 L 2372.636719 271 L 2348.851563 271 L 2263.570313 126.257813 L 2263.570313 271 Z M 343.921875 254.785156 L 381.15625 254.785156 C 389.965088 254.785156 398.133057 253.261597 405.660156 250.21875 C 413.187256 247.175903 419.69458 242.773438 425.179688 237.007813 C 430.664795 231.242188 434.950439 224.174927 438.033203 215.806641 C 441.115967 207.438354 442.65625 197.927856 442.65625 187.277344 C 442.65625 175.665894 441.095703 165.59668 437.972656 157.068359 C 434.849609 148.540039 430.525391 141.513672 425 135.988281 C 419.474609 130.462891 412.968018 126.358276 405.480469 123.675781 C 397.99292 120.993286 389.884521 119.652344 381.15625 119.652344 L 343.921875 119.652344 Z M 936.800781 254.785156 L 974.037109 254.785156 C 982.845215 254.785156 991.013184 253.261597 998.541016 250.21875 C 1006.068115 247.175903 1012.572754 242.773438 1018.058594 237.007813 C 1023.543701 231.242188 1027.828613 224.174927 1030.912109 215.806641 C 1033.994873 207.438354 1035.537109 197.927856 1035.537109 187.277344 C 1035.537109 175.665894 1033.974609 165.59668 1030.851563 157.068359 C 1027.728516 148.540039 1023.404297 141.513672 1017.878906 135.988281 C 1012.353516 130.462891 1005.846191 126.358276 998.359375 123.675781 C 990.871826 120.993286 982.765381 119.652344 974.037109 119.652344 L 936.800781 119.652344 Z M 537.544922 204.214844 L 598.923828 204.214844 L 568.294922 120.011719 Z M 1736.992188 204.214844 L 1798.371094 204.214844 L 1767.742188 120.011719 Z M 669.943359 61.984375 C 664.337402 61.984375 659.491943 60.740356 655.404297 58.251953 C 651.315918 55.76355 648.164063 52.236206 645.949219 47.669922 C 643.734375 43.103638 642.626953 37.689575 642.626953 31.427734 L 642.626953 31.345703 C 642.626953 25.083862 643.741943 19.677734 645.970703 15.125 C 648.19873 10.572266 651.356934 7.050903 655.445313 4.5625 C 659.532959 2.074097 664.365234 0.830078 669.943359 0.830078 C 675.521484 0.830078 680.347412 2.074097 684.421875 4.5625 C 688.495605 7.050903 691.640625 10.572266 693.855469 15.125 C 696.070313 19.677734 697.177734 25.083862 697.177734 31.345703 L 697.177734 31.427734 C 697.177734 37.689575 696.070313 43.103638 693.855469 47.669922 C 691.640625 52.236206 688.503906 55.76355 684.443359 58.251953 C 680.382813 60.740356 675.548584 61.984375 669.943359 61.984375 Z M 970.914063 61.984375 C 965.445068 61.984375 960.681641 60.72644 956.621094 58.210938 C 952.559814 55.695435 949.421875 52.146606 947.207031 47.566406 C 944.992188 42.986206 943.886719 37.593628 943.886719 31.386719 L 943.886719 31.345703 C 943.886719 25.138794 944.992188 19.751831 947.207031 15.185547 C 949.421875 10.619263 952.554199 7.083984 956.601563 4.582031 C 960.648193 2.080078 965.417236 0.830078 970.914063 0.830078 C 975.015625 0.830078 978.749268 1.609375 982.113281 3.167969 C 985.476563 4.726563 988.285156 6.900391 990.541016 9.689453 C 992.796875 12.478516 994.292969 15.746216 995.03125 19.492188 L 995.113281 19.902344 L 987.648438 19.902344 L 987.363281 19 C 986.597168 16.593628 985.455078 14.548828 983.9375 12.867188 C 982.419922 11.185547 980.565918 9.894531 978.378906 8.992188 C 976.191162 8.089844 973.703125 7.638672 970.914063 7.638672 C 966.97583 7.638672 963.552734 8.615112 960.640625 10.570313 C 957.728516 12.525513 955.472656 15.275513 953.873047 18.816406 C 952.273438 22.3573 951.472656 26.533325 951.472656 31.345703 L 951.472656 31.386719 C 951.472656 36.171997 952.273438 40.349609 953.873047 43.917969 C 955.472656 47.486328 957.734131 50.253906 960.660156 52.222656 C 963.585449 54.191406 967.003662 55.175781 970.914063 55.175781 C 973.675293 55.175781 976.144531 54.724609 978.318359 53.822266 C 980.492188 52.919922 982.359375 51.587891 983.917969 49.824219 C 985.476563 48.060547 986.679199 45.878784 987.527344 43.28125 L 987.648438 42.912109 L 995.113281 42.912109 L 995.03125 43.322266 C 994.292969 47.095703 992.804443 50.384888 990.5625 53.1875 C 988.319824 55.990112 985.515625 58.156372 982.152344 59.6875 C 978.78833 61.218628 975.042725 61.984375 970.914063 61.984375 Z M 1135.693359 61.984375 C 1131.427734 61.984375 1127.675781 61.322144 1124.435547 59.996094 C 1121.195313 58.670044 1118.625244 56.775391 1116.724609 54.314453 C 1114.824707 51.853516 1113.75 48.941406 1113.503906 45.578125 L 1113.462891 45.003906 L 1120.845703 45.003906 L 1120.927734 45.578125 C 1121.22876 47.546875 1122.035156 49.248047 1123.347656 50.683594 C 1124.660156 52.119141 1126.404297 53.228516 1128.578125 54.007813 C 1130.751953 54.787109 1133.260254 55.175781 1136.103516 55.175781 C 1138.94751 55.175781 1141.408447 54.771606 1143.486328 53.964844 C 1145.564941 53.158081 1147.172119 52.004028 1148.306641 50.5 C 1149.441895 48.995972 1150.007813 47.2323 1150.007813 45.208984 L 1150.007813 45.167969 C 1150.007813 42.570435 1149.105469 40.492188 1147.300781 38.933594 C 1145.496094 37.375 1142.556885 36.144531 1138.482422 35.242188 L 1131.919922 33.806641 C 1126.150635 32.521606 1121.879395 30.544922 1119.103516 27.878906 C 1116.328369 25.212891 1114.939453 21.720581 1114.939453 17.400391 L 1114.939453 17.359375 C 1114.967285 14.105591 1115.869629 11.240112 1117.646484 8.765625 C 1119.424072 6.291138 1121.879395 4.349487 1125.009766 2.941406 C 1128.140869 1.533325 1131.72876 0.830078 1135.775391 0.830078 C 1139.630859 0.830078 1143.076172 1.521362 1146.111328 2.902344 C 1149.146484 4.283325 1151.574707 6.203125 1153.392578 8.664063 C 1155.211182 11.125 1156.229004 13.968628 1156.447266 17.195313 L 1156.488281 17.810547 L 1149.105469 17.810547 L 1149.023438 17.236328 C 1148.723145 15.213013 1147.984863 13.490356 1146.808594 12.068359 C 1145.633057 10.646362 1144.095947 9.552856 1142.195313 8.787109 C 1140.29541 8.021362 1138.086182 7.638672 1135.570313 7.638672 C 1132.945313 7.638672 1130.648438 8.035278 1128.679688 8.828125 C 1126.710938 9.620972 1125.187744 10.728394 1124.107422 12.150391 C 1123.027832 13.572388 1122.486328 15.240112 1122.486328 17.154297 L 1122.486328 17.195313 C 1122.486328 19.601685 1123.402588 21.583984 1125.234375 23.142578 C 1127.066895 24.701172 1129.910156 25.904175 1133.765625 26.751953 L 1140.328125 28.1875 C 1144.375488 29.062378 1147.664307 30.224731 1150.193359 31.673828 C 1152.723145 33.122925 1154.582031 34.920044 1155.771484 37.066406 C 1156.960938 39.212769 1157.554688 41.791138 1157.554688 44.798828 L 1157.554688 44.839844 C 1157.554688 48.339722 1156.673828 51.374878 1154.910156 53.945313 C 1153.146484 56.515747 1150.631348 58.498047 1147.363281 59.892578 C 1144.095947 61.287109 1140.205078 61.984375 1135.693359 61.984375 Z M 1274.550781 61.984375 C 1268.945557 61.984375 1264.100098 60.740356 1260.011719 58.251953 C 1255.924072 55.76355 1252.771484 52.236206 1250.556641 47.669922 C 1248.341797 43.103638 1247.234375 37.689575 1247.234375 31.427734 L 1247.234375 31.345703 C 1247.234375 25.083862 1248.350098 19.677734 1250.578125 15.125 C 1252.806885 10.572266 1255.965088 7.050903 1260.052734 4.5625 C 1264.141113 2.074097 1268.972656 0.830078 1274.550781 0.830078 C 1280.128906 0.830078 1284.955566 2.074097 1289.029297 4.5625 C 1293.10376 7.050903 1296.248047 10.572266 1298.462891 15.125 C 1300.677734 19.677734 1301.785156 25.083862 1301.785156 31.345703 L 1301.785156 31.427734 C 1301.785156 37.689575 1300.677734 43.103638 1298.462891 47.669922 C 1296.248047 52.236206 1293.111328 55.76355 1289.050781 58.251953 C 1284.990234 60.740356 1280.156738 61.984375 1274.550781 61.984375 Z M 325.742188 61 L 325.742188 1.814453 L 333.125 1.814453 L 333.125 54.355469 L 361.671875 54.355469 L 361.671875 61 Z M 398.144531 61 L 420 2 L 427 2 L 449.455078 61 L 441.703125 61 L 435 44 L 412 44 L 405.388672 60.964844 Z M 496.181641 61 L 480.0625 1.814453 L 487.773438 1.814453 L 499.708984 50.417969 L 499.873047 50.417969 L 513.285156 1.814453 L 520.75 1.814453 L 534.162109 50.417969 L 534.326172 50.417969 L 546.261719 1.814453 L 553.972656 1.814453 L 537.853516 61 L 530.880859 61 L 517.099609 13.585938 L 516.935547 13.585938 L 503.154297 61 Z M 739.433594 61 L 739.433594 1.814453 L 775.363281 1.814453 L 775.363281 8.458984 L 746.816406 8.458984 L 746.816406 28.802734 L 773.025391 28.802734 L 773.025391 35.365234 L 746.816406 35.365234 L 746.816406 61 Z M 816.839844 61 L 816.839844 1.814453 L 852.769531 1.814453 L 852.769531 8.458984 L 824.222656 8.458984 L 824.222656 28.802734 L 850.431641 28.802734 L 850.431641 35.365234 L 824.222656 35.365234 L 824.222656 61 Z M 894.246094 61 L 894.246094 1.814453 L 901.628906 1.814453 L 901.628906 61 Z M 1036.876953 61 L 1036.876953 1.814453 L 1073.544922 1.814453 L 1073.544922 8.458984 L 1044.259766 8.458984 L 1044.259766 27.449219 L 1072.027344 27.449219 L 1072.027344 34.011719 L 1044.259766 34.011719 L 1044.259766 54.355469 L 1073.544922 54.355469 L 1073.544922 61 Z M 1344.042969 61 L 1344.042969 1.814453 L 1379.972656 1.814453 L 1379.972656 8.458984 L 1351.425781 8.458984 L 1351.425781 28.802734 L 1377.634766 28.802734 L 1377.634766 35.365234 L 1351.425781 35.365234 L 1351.425781 61 Z M 669.943359 55.175781 C 674.01709 55.175781 677.524902 54.197388 680.464844 52.242188 C 683.404053 50.286987 685.665527 47.533325 687.251953 43.978516 C 688.837646 40.423706 689.630859 36.240112 689.630859 31.427734 L 689.630859 31.345703 C 689.630859 26.505859 688.832031 22.308716 687.232422 18.753906 C 685.632813 15.199097 683.355469 12.458984 680.402344 10.53125 C 677.449219 8.603516 673.962891 7.638672 669.943359 7.638672 C 665.923828 7.638672 662.431152 8.603516 659.464844 10.53125 C 656.497803 12.458984 654.206543 15.193481 652.59375 18.734375 C 650.980225 22.275269 650.173828 26.478394 650.173828 31.345703 L 650.173828 31.427734 C 650.173828 36.267578 650.980225 40.464722 652.59375 44.019531 C 654.206543 47.574341 656.490234 50.322388 659.443359 52.263672 C 662.396484 54.204956 665.895996 55.175781 669.943359 55.175781 Z M 1274.550781 55.175781 C 1278.625244 55.175781 1282.133057 54.197388 1285.072266 52.242188 C 1288.012207 50.286987 1290.273682 47.533325 1291.859375 43.978516 C 1293.445801 40.423706 1294.238281 36.240112 1294.238281 31.427734 L 1294.238281 31.345703 C 1294.238281 26.505859 1293.439453 22.308716 1291.839844 18.753906 C 1290.240234 15.199097 1287.962891 12.458984 1285.009766 10.53125 C 1282.056641 8.603516 1278.570313 7.638672 1274.550781 7.638672 C 1270.53125 7.638672 1267.039307 8.603516 1264.072266 10.53125 C 1261.105957 12.458984 1258.814697 15.193481 1257.201172 18.734375 C 1255.588379 22.275269 1254.78125 26.478394 1254.78125 31.345703 L 1254.78125 31.427734 C 1254.78125 36.267578 1255.588379 40.464722 1257.201172 44.019531 C 1258.814697 47.574341 1261.097656 50.322388 1264.050781 52.263672 C 1267.003906 54.204956 1270.50415 55.175781 1274.550781 55.175781 Z M 414 38 L 433 38 L 423.621094 9.994141 L 423.4375 10 Z"/>
</svg>
