<?xml version="1.0" encoding="UTF-8"?>
<!-- Generated by Pixelmator Pro 3.6.5 -->
<svg width="2743" height="594" viewBox="0 0 2743 594" xmlns="http://www.w3.org/2000/svg">
    <path id="Shape" fill="#000000" fill-rule="evenodd" stroke="none" d="M 129 594 C 129 594 109.091286 500.200104 88.566406 405.722656 C 68.041039 311.245697 40.174301 183.135681 26.640625 121.035156 C 3.037621 12.724243 0 3 0 3 C 0 3 62.055893 0 291 0 C 518.962646 0 582 3 582 3 C 582 3 560.110352 110.099701 540.0625 202.5 C 520.01416 294.900299 495.598145 406.950256 485.802734 451.5 C 476.007324 496.049744 464.956543 545.325195 461.246094 561 C 454.929199 587.689941 453 594 453 594 C 453 594 407.77536 574.553711 369 556.632813 C 330.22464 538.712402 295.049316 524.039063 290.832031 524.025391 C 286.615234 524.01123 251.515579 538.555176 212.832031 556.34375 C 174.14946 574.131836 129 594 129 594 Z M 696.144531 402 L 696.144531 234.4375 L 758.244141 234.4375 C 765.611572 234.4375 772.518799 235.437378 778.964844 237.439453 C 785.410889 239.441528 791.31665 242.264771 796.681641 245.908203 C 802.046631 249.551636 806.812744 253.935425 810.976563 259.060547 C 815.140381 264.185669 818.664063 269.8302 821.546875 275.996094 C 824.429688 282.161987 826.631104 288.790039 828.152344 295.876953 C 829.673584 302.963867 830.433594 310.310669 830.433594 317.917969 C 830.433594 329.849487 828.672119 340.920898 825.148438 351.130859 C 821.624756 361.34082 816.680664 370.229492 810.314453 377.796875 C 803.948242 385.364258 796.340576 391.289917 787.492188 395.574219 C 778.643799 399.858521 768.894287 402 758.244141 402 L 696.144531 402 Z M 864.902344 402 L 926.283203 234.4375 L 950.787109 234.4375 L 1011.685547 402 L 993.1875 402 L 973.849609 348.667969 L 902.619141 348.667969 L 883.28125 402 L 864.902344 402 Z M 1097.085938 402 L 1040.269531 234.4375 L 1059.849609 234.4375 L 1107.775391 378.697266 L 1155.703125 234.4375 L 1175.28125 234.4375 L 1119.427734 402 L 1097.085938 402 Z M 1215.394531 402 L 1215.394531 234.4375 L 1233.171875 234.4375 L 1233.171875 402 L 1215.394531 402 Z M 1289.023438 402 L 1289.023438 234.4375 L 1351.123047 234.4375 C 1358.489746 234.4375 1365.396973 235.437378 1371.84375 237.439453 C 1378.289795 239.441528 1384.194824 242.264771 1389.560547 245.908203 C 1394.925537 249.551636 1399.690918 253.935425 1403.855469 259.060547 C 1408.019287 264.185669 1411.542969 269.8302 1414.425781 275.996094 C 1417.308594 282.161987 1419.509277 288.790039 1421.03125 295.876953 C 1422.55249 302.963867 1423.314453 310.310669 1423.314453 317.917969 C 1423.314453 329.849487 1421.552246 340.920898 1418.029297 351.130859 C 1414.505615 361.34082 1409.561523 370.229492 1403.195313 377.796875 C 1396.829102 385.364258 1389.219482 391.289917 1380.371094 395.574219 C 1371.521973 399.858521 1361.773193 402 1351.123047 402 L 1289.023438 402 Z M 1527.685547 402 L 1527.685547 234.4375 L 1550.748047 234.4375 L 1606.960938 377.375 L 1661.132813 234.4375 L 1684.195313 234.4375 L 1684.195313 402 L 1666.417969 402 L 1666.417969 264.585938 L 1616.089844 402 L 1599.873047 402 L 1545.462891 264.585938 L 1545.462891 402 L 1527.685547 402 Z M 1724.433594 402 L 1724.433594 378.697266 L 1747.134766 378.697266 L 1747.134766 402 L 1724.433594 402 Z M 1873.849609 402 L 1831.6875 234.4375 L 1850.306641 234.4375 L 1883.699219 370.048828 L 1925.019531 234.4375 L 1941.955078 234.4375 L 1982.916016 368.726563 C 1988.361572 346.384766 1994.006104 324.044891 1999.851563 301.703125 C 2005.697021 279.361359 2011.343506 256.939667 2016.789063 234.4375 L 2035.40625 234.4375 L 1993.005859 402 L 1974.626953 402 L 1933.427734 262.542969 L 1892.347656 402 L 1873.849609 402 Z M 2064.349609 402 L 2125.730469 234.4375 L 2150.234375 234.4375 L 2211.132813 402 L 2192.634766 402 L 2173.296875 348.667969 L 2102.066406 348.667969 L 2082.728516 402 L 2064.349609 402 Z M 2254.730469 402 L 2254.730469 234.4375 L 2272.507813 234.4375 L 2272.507813 385.785156 L 2353.710938 385.785156 L 2353.710938 402 L 2254.730469 402 Z M 2398.867188 402 L 2398.867188 234.4375 L 2416.644531 234.4375 L 2416.644531 385.785156 L 2497.845703 385.785156 L 2497.845703 402 L 2398.867188 402 Z M 2542.166016 402 L 2542.166016 234.4375 L 2559.943359 234.4375 L 2559.943359 402 L 2542.166016 402 Z M 2615.792969 402 L 2615.792969 234.4375 L 2639.574219 234.4375 L 2724.859375 379.296875 L 2724.859375 234.4375 L 2742.636719 234.4375 L 2742.636719 402 L 2718.851563 402 L 2633.570313 257.257813 L 2633.570313 402 L 2615.792969 402 Z M 260.28125 387 C 294.908173 387 319.080566 385.602051 329.013672 383.025391 C 337.440918 380.839844 351.757324 375.295898 360.826172 370.707031 C 369.895508 366.118164 384.80957 354.746094 393.96875 345.433594 C 403.128418 336.120117 414.013184 321.692871 418.15625 313.373047 C 422.299805 305.053711 427.288574 292.228516 429.244141 284.873047 C 431.350586 276.949219 432.295898 259.179657 431.564453 241.263672 C 430.462891 214.295929 429.226563 208.782196 420.125 190.263672 C 413.982422 177.763184 403.271484 162.839355 393.210938 152.761719 C 382.940918 142.474609 368.40625 132.067383 355.5 125.761719 C 334.500031 115.500977 334.499908 115.5 240.320313 114.589844 C 146.140717 113.679688 146.139648 113.679688 147.953125 126.589844 C 148.951172 133.69043 161.287125 192.150452 175.367188 256.5 C 189.446762 320.849548 202.293945 376.537109 203.917969 380.25 C 206.821289 386.886719 207.767624 387 260.28125 387 Z M 713.921875 385.785156 L 751.15625 385.785156 C 759.965088 385.785156 768.133057 384.261597 775.660156 381.21875 C 783.187256 378.175903 789.69458 373.773438 795.179688 368.007813 C 800.664795 362.242188 804.950439 355.174927 808.033203 346.806641 C 811.115967 338.438354 812.65625 328.927856 812.65625 318.277344 C 812.65625 306.665894 811.095703 296.59668 807.972656 288.068359 C 804.849609 279.540039 800.525391 272.513672 795 266.988281 C 789.474609 261.462891 782.968018 257.358276 775.480469 254.675781 C 767.99292 251.993286 759.884521 250.652344 751.15625 250.652344 L 713.921875 250.652344 L 713.921875 385.785156 Z M 1306.800781 385.785156 L 1344.037109 385.785156 C 1352.845215 385.785156 1361.013184 384.261597 1368.541016 381.21875 C 1376.068115 378.175903 1382.572754 373.773438 1388.058594 368.007813 C 1393.543701 362.242188 1397.828613 355.174927 1400.912109 346.806641 C 1403.994873 338.438354 1405.537109 328.927856 1405.537109 318.277344 C 1405.537109 306.665894 1403.974609 296.59668 1400.851563 288.068359 C 1397.728516 279.540039 1393.404297 272.513672 1387.878906 266.988281 C 1382.353516 261.462891 1375.846191 257.358276 1368.359375 254.675781 C 1360.871826 251.993286 1352.765381 250.652344 1344.037109 250.652344 L 1306.800781 250.652344 L 1306.800781 385.785156 Z M 266.78125 351 C 251.957535 351 231.535156 348.75 231.535156 348.75 C 231.535156 348.75 227.414047 322.109802 211.953125 250.839844 C 201.255875 201.526917 189 150 189 150 C 189 150 240.747101 149.908203 267.626953 150.556641 C 315.445251 151.709473 319.89212 151.9375 337.679688 161.123047 C 347.678711 166.286133 360.995117 176.195313 367.273438 183.144531 C 373.551758 190.093262 382.175781 203.367188 386.4375 212.640625 C 392.234375 225.253906 394.192383 234.420898 394.210938 249.035156 C 394.230469 264.798798 392.369141 272.556671 384.568359 289.226563 C 379.251953 300.588379 370.043945 314.466309 364.105469 320.066406 C 358.167969 325.666992 346.99707 333.446289 339.283203 337.355469 C 331.569336 341.26416 314.302734 345.932617 304.578125 347.730469 C 294.854004 349.52832 277.845215 351 266.78125 351 Z M 907.544922 335.214844 L 968.923828 335.214844 L 938.294922 251.011719 L 907.544922 335.214844 Z M 2106.992188 335.214844 L 2168.371094 335.214844 L 2137.742188 251.011719 L 2106.992188 335.214844 Z M 1039.943359 192.984375 C 1034.337402 192.984375 1029.491943 191.740356 1025.404297 189.251953 C 1021.315918 186.76355 1018.164063 183.236206 1015.949219 178.669922 C 1013.734375 174.103638 1012.626953 168.689575 1012.626953 162.427734 L 1012.626953 162.345703 C 1012.626953 156.083862 1013.741943 150.677734 1015.970703 146.125 C 1018.19873 141.572266 1021.356934 138.050903 1025.445313 135.5625 C 1029.532959 133.074097 1034.365234 131.830078 1039.943359 131.830078 C 1045.521484 131.830078 1050.347412 133.074097 1054.421875 135.5625 C 1058.495605 138.050903 1061.640625 141.572266 1063.855469 146.125 C 1066.070313 150.677734 1067.177734 156.083862 1067.177734 162.345703 L 1067.177734 162.427734 C 1067.177734 168.689575 1066.070313 174.103638 1063.855469 178.669922 C 1061.640625 183.236206 1058.503906 186.76355 1054.443359 189.251953 C 1050.382813 191.740356 1045.548584 192.984375 1039.943359 192.984375 Z M 1340.914063 192.984375 C 1335.445068 192.984375 1330.681641 191.72644 1326.621094 189.210938 C 1322.559814 186.695435 1319.421875 183.146606 1317.207031 178.566406 C 1314.992188 173.986206 1313.886719 168.593628 1313.886719 162.386719 L 1313.886719 162.345703 C 1313.886719 156.138794 1314.992188 150.751831 1317.207031 146.185547 C 1319.421875 141.619263 1322.554199 138.083984 1326.601563 135.582031 C 1330.648193 133.080078 1335.417236 131.830078 1340.914063 131.830078 C 1345.015625 131.830078 1348.749268 132.609375 1352.113281 134.167969 C 1355.476563 135.726563 1358.285156 137.900391 1360.541016 140.689453 C 1362.796875 143.478516 1364.292969 146.746216 1365.03125 150.492188 L 1365.113281 150.902344 L 1357.648438 150.902344 L 1357.363281 150 C 1356.597168 147.593628 1355.455078 145.548828 1353.9375 143.867188 C 1352.419922 142.185547 1350.565918 140.894531 1348.378906 139.992188 C 1346.191162 139.089844 1343.703125 138.638672 1340.914063 138.638672 C 1336.97583 138.638672 1333.552734 139.615112 1330.640625 141.570313 C 1327.728516 143.525513 1325.472656 146.275513 1323.873047 149.816406 C 1322.273438 153.3573 1321.472656 157.533325 1321.472656 162.345703 L 1321.472656 162.386719 C 1321.472656 167.171997 1322.273438 171.349609 1323.873047 174.917969 C 1325.472656 178.486328 1327.734131 181.253906 1330.660156 183.222656 C 1333.585449 185.191406 1337.003662 186.175781 1340.914063 186.175781 C 1343.675293 186.175781 1346.144531 185.724609 1348.318359 184.822266 C 1350.492188 183.919922 1352.359375 182.587891 1353.917969 180.824219 C 1355.476563 179.060547 1356.679199 176.878784 1357.527344 174.28125 L 1357.648438 173.912109 L 1365.113281 173.912109 L 1365.03125 174.322266 C 1364.292969 178.095703 1362.804443 181.384888 1360.5625 184.1875 C 1358.319824 186.990112 1355.515625 189.156372 1352.152344 190.6875 C 1348.78833 192.218628 1345.042725 192.984375 1340.914063 192.984375 Z M 1505.693359 192.984375 C 1501.427734 192.984375 1497.675781 192.322144 1494.435547 190.996094 C 1491.195313 189.670044 1488.625244 187.775391 1486.724609 185.314453 C 1484.824707 182.853516 1483.75 179.941406 1483.503906 176.578125 L 1483.462891 176.003906 L 1490.845703 176.003906 L 1490.927734 176.578125 C 1491.22876 178.546875 1492.035156 180.248047 1493.347656 181.683594 C 1494.660156 183.119141 1496.404297 184.228516 1498.578125 185.007813 C 1500.751953 185.787109 1503.260254 186.175781 1506.103516 186.175781 C 1508.94751 186.175781 1511.408447 185.771606 1513.486328 184.964844 C 1515.564941 184.158081 1517.172119 183.004028 1518.306641 181.5 C 1519.441895 179.995972 1520.007813 178.2323 1520.007813 176.208984 L 1520.007813 176.167969 C 1520.007813 173.570435 1519.105469 171.492188 1517.300781 169.933594 C 1515.496094 168.375 1512.556885 167.144531 1508.482422 166.242188 L 1501.919922 164.806641 C 1496.150635 163.521606 1491.879395 161.544922 1489.103516 158.878906 C 1486.328369 156.212891 1484.939453 152.720581 1484.939453 148.400391 L 1484.939453 148.359375 C 1484.967285 145.105591 1485.869629 142.240112 1487.646484 139.765625 C 1489.424072 137.291138 1491.879395 135.349487 1495.009766 133.941406 C 1498.140869 132.533325 1501.72876 131.830078 1505.775391 131.830078 C 1509.630859 131.830078 1513.076172 132.521362 1516.111328 133.902344 C 1519.146484 135.283325 1521.574707 137.203125 1523.392578 139.664063 C 1525.211182 142.125 1526.229004 144.968628 1526.447266 148.195313 L 1526.488281 148.810547 L 1519.105469 148.810547 L 1519.023438 148.236328 C 1518.723145 146.213013 1517.984863 144.490356 1516.808594 143.068359 C 1515.633057 141.646362 1514.095947 140.552856 1512.195313 139.787109 C 1510.29541 139.021362 1508.086182 138.638672 1505.570313 138.638672 C 1502.945313 138.638672 1500.648438 139.035278 1498.679688 139.828125 C 1496.710938 140.620972 1495.187744 141.728394 1494.107422 143.150391 C 1493.027832 144.572388 1492.486328 146.240112 1492.486328 148.154297 L 1492.486328 148.195313 C 1492.486328 150.601685 1493.402588 152.583984 1495.234375 154.142578 C 1497.066895 155.701172 1499.910156 156.904175 1503.765625 157.751953 L 1510.328125 159.1875 C 1514.375488 160.062378 1517.664307 161.224731 1520.193359 162.673828 C 1522.723145 164.122925 1524.582031 165.920044 1525.771484 168.066406 C 1526.960938 170.212769 1527.554688 172.791138 1527.554688 175.798828 L 1527.554688 175.839844 C 1527.554688 179.339722 1526.673828 182.374878 1524.910156 184.945313 C 1523.146484 187.515747 1520.631348 189.498047 1517.363281 190.892578 C 1514.095947 192.287109 1510.205078 192.984375 1505.693359 192.984375 Z M 1644.550781 192.984375 C 1638.945557 192.984375 1634.100098 191.740356 1630.011719 189.251953 C 1625.924072 186.76355 1622.771484 183.236206 1620.556641 178.669922 C 1618.341797 174.103638 1617.234375 168.689575 1617.234375 162.427734 L 1617.234375 162.345703 C 1617.234375 156.083862 1618.350098 150.677734 1620.578125 146.125 C 1622.806885 141.572266 1625.965088 138.050903 1630.052734 135.5625 C 1634.141113 133.074097 1638.972656 131.830078 1644.550781 131.830078 C 1650.128906 131.830078 1654.955566 133.074097 1659.029297 135.5625 C 1663.10376 138.050903 1666.248047 141.572266 1668.462891 146.125 C 1670.677734 150.677734 1671.785156 156.083862 1671.785156 162.345703 L 1671.785156 162.427734 C 1671.785156 168.689575 1670.677734 174.103638 1668.462891 178.669922 C 1666.248047 183.236206 1663.111328 186.76355 1659.050781 189.251953 C 1654.990234 191.740356 1650.156738 192.984375 1644.550781 192.984375 Z M 695.742188 192 L 695.742188 132.814453 L 703.125 132.814453 L 703.125 185.355469 L 731.671875 185.355469 L 731.671875 192 L 695.742188 192 Z M 768.144531 192 L 790 133 L 797 133 L 819.455078 192 L 811.703125 192 L 805 175 L 782 175 L 775.388672 191.964844 L 768.144531 192 Z M 866.181641 192 L 850.0625 132.814453 L 857.773438 132.814453 L 869.708984 181.417969 L 869.873047 181.417969 L 883.285156 132.814453 L 890.75 132.814453 L 904.162109 181.417969 L 904.326172 181.417969 L 916.261719 132.814453 L 923.972656 132.814453 L 907.853516 192 L 900.880859 192 L 887.099609 144.585938 L 886.935547 144.585938 L 873.154297 192 L 866.181641 192 Z M 1109.433594 192 L 1109.433594 132.814453 L 1145.363281 132.814453 L 1145.363281 139.458984 L 1116.816406 139.458984 L 1116.816406 159.802734 L 1143.025391 159.802734 L 1143.025391 166.365234 L 1116.816406 166.365234 L 1116.816406 192 L 1109.433594 192 Z M 1186.839844 192 L 1186.839844 132.814453 L 1222.769531 132.814453 L 1222.769531 139.458984 L 1194.222656 139.458984 L 1194.222656 159.802734 L 1220.431641 159.802734 L 1220.431641 166.365234 L 1194.222656 166.365234 L 1194.222656 192 L 1186.839844 192 Z M 1264.246094 192 L 1264.246094 132.814453 L 1271.628906 132.814453 L 1271.628906 192 L 1264.246094 192 Z M 1406.876953 192 L 1406.876953 132.814453 L 1443.544922 132.814453 L 1443.544922 139.458984 L 1414.259766 139.458984 L 1414.259766 158.449219 L 1442.027344 158.449219 L 1442.027344 165.011719 L 1414.259766 165.011719 L 1414.259766 185.355469 L 1443.544922 185.355469 L 1443.544922 192 L 1406.876953 192 Z M 1714.042969 192 L 1714.042969 132.814453 L 1749.972656 132.814453 L 1749.972656 139.458984 L 1721.425781 139.458984 L 1721.425781 159.802734 L 1747.634766 159.802734 L 1747.634766 166.365234 L 1721.425781 166.365234 L 1721.425781 192 L 1714.042969 192 Z M 1039.943359 186.175781 C 1044.01709 186.175781 1047.524902 185.197388 1050.464844 183.242188 C 1053.404053 181.286987 1055.665527 178.533325 1057.251953 174.978516 C 1058.837646 171.423706 1059.630859 167.240112 1059.630859 162.427734 L 1059.630859 162.345703 C 1059.630859 157.505859 1058.832031 153.308716 1057.232422 149.753906 C 1055.632813 146.199097 1053.355469 143.458984 1050.402344 141.53125 C 1047.449219 139.603516 1043.962891 138.638672 1039.943359 138.638672 C 1035.923828 138.638672 1032.431152 139.603516 1029.464844 141.53125 C 1026.497803 143.458984 1024.206543 146.193481 1022.59375 149.734375 C 1020.980225 153.275269 1020.173828 157.478394 1020.173828 162.345703 L 1020.173828 162.427734 C 1020.173828 167.267578 1020.980225 171.464722 1022.59375 175.019531 C 1024.206543 178.574341 1026.490234 181.322388 1029.443359 183.263672 C 1032.396484 185.204956 1035.895996 186.175781 1039.943359 186.175781 Z M 1644.550781 186.175781 C 1648.625244 186.175781 1652.133057 185.197388 1655.072266 183.242188 C 1658.012207 181.286987 1660.273682 178.533325 1661.859375 174.978516 C 1663.445801 171.423706 1664.238281 167.240112 1664.238281 162.427734 L 1664.238281 162.345703 C 1664.238281 157.505859 1663.439453 153.308716 1661.839844 149.753906 C 1660.240234 146.199097 1657.962891 143.458984 1655.009766 141.53125 C 1652.056641 139.603516 1648.570313 138.638672 1644.550781 138.638672 C 1640.53125 138.638672 1637.039307 139.603516 1634.072266 141.53125 C 1631.105957 143.458984 1628.814697 146.193481 1627.201172 149.734375 C 1625.588379 153.275269 1624.78125 157.478394 1624.78125 162.345703 L 1624.78125 162.427734 C 1624.78125 167.267578 1625.588379 171.464722 1627.201172 175.019531 C 1628.814697 178.574341 1631.097656 181.322388 1634.050781 183.263672 C 1637.003906 185.204956 1640.50415 186.175781 1644.550781 186.175781 Z M 784 169 L 803 169 L 793.621094 140.994141 L 793.4375 141 L 784 169 Z"/>
</svg>
